<?xml version="1.0" encoding="UTF-8"?>
<svg id="export" xmlns="http://www.w3.org/2000/svg" viewBox="0 0 24 24">
  <defs>
    <style>
      .cls-1 {
        fill: #bb2649;
      }
    </style>
  </defs>
  <path class="cls-1" d="M10.89,13.05c1.83-.94,3.11-3.08,3.12-5.58v-1.39c0-3.34-2.32-6.07-5.15-6.08C6.03,0,3.73,2.74,3.72,6.08v1.39h0c0,2.49,1.29,4.64,3.12,5.58C3.68,14.47,0,18.74,0,23.5c0,.13.05.26.15.35.09.09.22.15.35.15h16.73c.13,0,.26-.05.35-.15.09-.09.15-.22.15-.35,0-4.75-3.68-9.03-6.84-10.45Z"/>
  <path class="cls-1" d="M23.5,24h-3.27c-.28,0-.5-.22-.5-.5h0c0-2.7-.94-5.4-2.67-7.77-.02-.02-.04-.04-.06-.07l-.27-.36s-.03-.04-.04-.06c-.22-.28-.45-.55-.7-.82-.44-.48-.91-.94-1.4-1.36-.19-.17-.23-.45-.09-.66.98-1.43,1.5-3.13,1.51-4.94v-1.4c0-.4-.03-.81-.08-1.2-.02-.05-.03-.1-.03-.15,0-.26.19-.48.44-.51.04,0,.07,0,.1,0,2.47.16,4.41,2.41,4.42,5.12v1.16c0,2.03-1.07,3.81-2.69,4.65,2.62,1.18,5.82,4.46,5.83,8.36,0,.13-.05.26-.15.35-.09.09-.22.15-.35.15Z"/>
</svg>