<?xml version="1.0" encoding="UTF-8"?>
<svg id="export" xmlns="http://www.w3.org/2000/svg" viewBox="0 0 24 24">
  <defs>
    <style>
      .cls-1 {
        fill: #bb2649;
      }
    </style>
  </defs>
  <path class="cls-1" d="M23.5,24h-3.27c-.28,0-.5-.22-.5-.5,0-.29.27-.53.56-.5h2.7c-.29-3.53-3.44-6.4-5.74-7.16-.1-.03-.18-.09-.24-.17l-.27-.36c-.1-.13-.13-.31-.07-.47.06-.16.19-.28.35-.32,1.68-.44,2.86-2.09,2.87-4.03v-1.16c0-2.19-1.54-4-3.49-4.12-.28-.02-.49-.25-.47-.53s.26-.5.53-.47c2.48.15,4.43,2.4,4.43,5.12v1.16c0,2.03-1.07,3.81-2.69,4.65,2.62,1.18,5.82,4.46,5.83,8.36,0,.13-.05.26-.15.35-.09.09-.22.15-.35.15Z"/>
  <path class="cls-1" d="M10.89,13.05c1.83-.94,3.11-3.08,3.12-5.58v-1.39c0-3.34-2.32-6.07-5.15-6.08C6.03,0,3.73,2.74,3.72,6.08v1.39h0c0,2.49,1.29,4.64,3.12,5.58C3.68,14.47,0,18.74,0,23.5c0,.13.05.26.15.35.09.09.22.15.35.15h16.73c.13,0,.26-.05.35-.15.09-.09.15-.22.15-.35,0-4.75-3.68-9.03-6.84-10.45ZM4.72,7.47v-1.39c0-2.79,1.87-5.07,4.14-5.08,2.28,0,4.14,2.29,4.15,5.08v1.39c0,2.79-1.87,5.07-4.14,5.08-2.28,0-4.14-2.29-4.15-5.08ZM1.02,23c.31-5.22,5.28-9.45,7.85-9.45s7.53,4.23,7.85,9.45H1.02Z"/>
</svg>