<svg id="export" xmlns="http://www.w3.org/2000/svg" width="24" height="24" viewBox="0 0 24 24"><defs><style>.cls-1{fill:#3c5583;}</style></defs><path id="Path_11462" data-name="Path 11462" class="cls-1" d="M10.89,13.05A6.21,6.21,0,0,0,14,7.47V6.07C14,2.73,11.7,0,8.86,0S3.73,2.73,3.72,6.07v1.4h0a6.2,6.2,0,0,0,3.13,5.58C3.68,14.47,0,18.74,0,23.5a.5.5,0,0,0,.5.5H17.23a.5.5,0,0,0,.5-.5C17.72,18.74,14.05,14.47,10.89,13.05ZM4.72,7.47V6.08C4.72,3.29,6.59,1,8.86,1S13,3.29,13,6.08V7.47c0,2.79-1.87,5.07-4.14,5.08S4.73,10.26,4.72,7.47ZM1,23c.31-5.22,5.28-9.45,7.84-9.45S16.4,17.78,16.71,23Z"/><path id="Path_11463" data-name="Path 11463" class="cls-1" d="M23.5,24H19.23a.5.5,0,0,1-.5-.5.41.41,0,0,1,0-.11.51.51,0,0,1,.55-.39H23c-.34-4.07-4.59-7.36-6.8-7.36H16a.49.49,0,0,1-.42-.17.56.56,0,0,1-.08-.57.51.51,0,0,1,.47-.29l.21,0a4,4,0,0,0,3.68-4.15V9.33a4,4,0,0,0-3.68-4.14,3.92,3.92,0,0,0-.68.07.5.5,0,1,1-.2-1,3.71,3.71,0,0,1,.88-.1,4.94,4.94,0,0,1,4.68,5.14v1.16a5.22,5.22,0,0,1-2.67,4.64C20.92,16.37,24,19.75,24,23.5a.5.5,0,0,1-.5.5Z"/></svg>