<?xml version="1.0" encoding="UTF-8"?>
<svg id="export" xmlns="http://www.w3.org/2000/svg" width="24" height="24" viewBox="0 0 24 24">
  <defs>
    <style>
      .cls-1 {
        fill: #bb2649;
        stroke-width: 0px;
      }
    </style>
  </defs>
  <g id="icon_adcode">
    <g id="path_document">
      <path class="cls-1" d="m21.5,24H2.5c-.28,0-.5-.22-.5-.5V.5c0-.28.22-.5.5-.5h11.61c.28,0,.5.22.5.5v6.82h6.89c.28,0,.5.22.5.5v15.68c0,.28-.22.5-.5.5Zm-18.5-1h18v-14.68h-6.89c-.28,0-.5-.22-.5-.5V1H3v22Z"/>
      <path class="cls-1" d="m21.5,8.32h-7.39c-.28,0-.5-.22-.5-.5V.5c0-.28.22-.5.5-.5h1.06c.13,0,.26.05.35.14l6.33,6.27c.09.09.15.22.15.36v1.05c0,.28-.22.5-.5.5Zm-6.89-1h6.39v-.34L14.96,1h-.35v6.32Z"/>
    </g>
    <g>
      <path class="cls-1" d="m9.58,19.49l-4.77-2.1v-.59l4.77-2.38v.95l-3.58,1.68,3.58,1.48v.96Z"/>
      <path class="cls-1" d="m13.87,13.43l-2.66,7.14h-1.08l2.66-7.14h1.08Z"/>
      <path class="cls-1" d="m14.42,18.53l3.58-1.48-3.58-1.68v-.95l4.77,2.38v.59l-4.77,2.1v-.96Z"/>
    </g>
  </g>
</svg>