<?xml version="1.0" encoding="UTF-8"?>
<svg id="icons" xmlns="http://www.w3.org/2000/svg" viewBox="0 0 24 24">
  <defs>
    <style>
      .cls-1, .cls-2 {
        fill: #bb2649;
      }

      .cls-2 {
        fill-rule: evenodd;
      }
    </style>
  </defs>
  <g id="icon_admin_inv">
    <path class="cls-2" d="M23.21,19.87l-7.98-8.19c-.09-.1-.23-.12-.36-.15-.13,0-.26.05-.35.15l-1.32,1.33c-.11.11-.16.27-.14.43.01.08.02.17.03.25.03.62-.18,1.22-.58,1.67-.18.2-.17.51.02.69l7.35,7.16c.53.53,1.21.79,1.87.79.59,0,1.17-.21,1.61-.65.92-.92.86-2.48-.14-3.48ZM21.9,23l-1.5-.4-.4-1.5,1.1-1.1,1.5.4.4,1.5-1.1,1.1Z"/>
    <path class="cls-1" d="M12.2,8.97l-3.14-3.14c.33-1.49-.3-3.4-1.55-4.65C6.07-.26,4.45-.08,3.35.18c-.01,0-.05.03-.1.07,0,.12.04.24.13.33l2.05,2.05v1.34l-1.46,1.46h-1.34S.58,3.38.58,3.38c-.09-.09-.21-.12-.33-.13-.04.05-.06.08-.07.1-.26,1.1-.44,2.73,1,4.17,1.25,1.25,3.17,1.89,4.67,1.54l2.44,2.44c.1.1.22.15.35.15.1,0,.2-.03.29-.09.28-.2.65-.24.97-.07.2.11.46.06.61-.11.01-.01.03-.04.04-.06l1.65-1.65c.09-.09.15-.22.15-.35s-.05-.26-.15-.35Z"/>
    <path class="cls-1" d="M11.69,14.04l-1.62-1.62c-.22-.22-.6-.21-.83.02s-.11.73-.11.73l-2.36,1.77s-.84.46-1.2.82L.72,20.6c-.81.81-.84,2.09-.06,2.83.78.78,2.02.75,2.84-.06l4.85-4.84c.33-.33.82-1.16.82-1.16l1.77-2.39s.51.12.73-.11c.23-.23.24-.61.02-.83ZM1.31,22.29c-.12,0-.24-.06-.34-.16-.19-.19-.21-.49-.03-.67l3.59-3.59c.18-.18.47-.16.67.03.19.19.21.49.03.67l-3.59,3.59c-.09.09-.21.13-.33.12ZM6.23,19.57l-3.59,3.59c-.09.09-.21.13-.33.12-.12,0-.24-.06-.34-.16-.19-.19-.21-.49-.03-.67l3.59-3.59c.18-.18.47-.16.67.03.19.19.21.49.03.67Z"/>
    <path class="cls-1" d="M12,13.01c-.13,0-.26-.05-.36-.15l-.5-.51c-.19-.19-.19-.5,0-.7l7.09-7.37.62-1.81c.04-.1.1-.19.19-.25L22.14.09c.2-.14.46-.11.64.06l1.08,1.08c.17.17.2.44.06.64l-2.13,3.1c-.06.09-.15.16-.25.19l-1.84.62-7.34,7.09c-.1.09-.22.14-.35.14ZM19.74,2.95l-.6,1.76c-.02.07-.06.13-.11.19l-1.74,1.81,1.79-1.73c.05-.05.12-.09.19-.11l1.79-.6,1.8-2.62-.49-.49-2.62,1.8Z"/>
  </g>
</svg>