<?xml version="1.0" encoding="UTF-8"?>
<svg id="icons" xmlns="http://www.w3.org/2000/svg" viewBox="0 0 24 24">
  <defs>
    <style>
      .cls-1 {
        fill: #bb2649;
      }
    </style>
  </defs>
  <g id="icon_api-key">
    <path id="icon_key" class="cls-1" d="M23.5,5.5h-13.56c-.31-1.97-2.39-3.5-4.94-3.5C2.24,2,0,3.79,0,6s2.24,4,5,4c2.54,0,4.63-1.53,4.94-3.5h13.06v5c0,.28.22.5.5.5s.5-.22.5-.5v-5.5c0-.28-.22-.5-.5-.5ZM5,9c-2.21,0-4-1.35-4-3s1.79-3,4-3,4,1.35,4,3-1.79,3-4,3Z"/>
    <path class="cls-1" d="M2.27,21.93h-.97v-3.27s.03-.5.03-.5c-.16.17-.27.28-.33.34l-.53.45-.47-.62,1.47-1.25h.79v4.86Z"/>
    <path class="cls-1" d="M5.43,21.93h-.97v-3.27s.03-.5.03-.5c-.16.17-.27.28-.33.34l-.53.45-.47-.62,1.47-1.25h.79v4.86Z"/>
    <path class="cls-1" d="M9.8,19.51c0,.85-.13,1.48-.39,1.88-.26.41-.66.61-1.21.61s-.92-.21-1.19-.63-.4-1.04-.4-1.86.13-1.49.39-1.9c.26-.41.66-.61,1.2-.61s.92.21,1.2.64c.27.43.4,1.05.4,1.87ZM7.56,19.51c0,.6.05,1.02.15,1.28.1.26.26.39.49.39s.39-.13.49-.39c.1-.26.15-.69.15-1.28s-.05-1.02-.15-1.28c-.1-.26-.26-.39-.49-.39s-.39.13-.49.39c-.1.26-.15.69-.15,1.28Z"/>
    <path class="cls-1" d="M13.8,19.51c0,.85-.13,1.48-.39,1.88-.26.41-.66.61-1.21.61s-.92-.21-1.19-.63-.4-1.04-.4-1.86.13-1.49.39-1.9c.26-.41.66-.61,1.2-.61s.92.21,1.2.64c.27.43.4,1.05.4,1.87ZM11.56,19.51c0,.6.05,1.02.15,1.28.1.26.26.39.49.39s.39-.13.49-.39c.1-.26.15-.69.15-1.28s-.05-1.02-.15-1.28c-.1-.26-.26-.39-.49-.39s-.39.13-.49.39c-.1.26-.15.69-.15,1.28Z"/>
    <path class="cls-1" d="M16.76,21.93h-.97v-3.27s.03-.5.03-.5c-.16.17-.27.28-.33.34l-.53.45-.47-.62,1.47-1.25h.79v4.86Z"/>
    <path class="cls-1" d="M21.1,19.51c0,.85-.13,1.48-.39,1.88-.26.41-.66.61-1.21.61s-.92-.21-1.19-.63-.4-1.04-.4-1.86.13-1.49.39-1.9c.26-.41.66-.61,1.2-.61s.92.21,1.2.64c.27.43.4,1.05.4,1.87ZM18.86,19.51c0,.6.05,1.02.15,1.28.1.26.26.39.49.39s.39-.13.49-.39c.1-.26.15-.69.15-1.28s-.05-1.02-.15-1.28c-.1-.26-.26-.39-.49-.39s-.39.13-.49.39c-.1.26-.15.69-.15,1.28Z"/>
    <path class="cls-1" d="M24,21.93h-.97v-3.27s.03-.5.03-.5c-.16.17-.27.28-.33.34l-.53.45-.47-.62,1.47-1.25h.79v4.86Z"/>
  </g>
</svg>