<svg xmlns="http://www.w3.org/2000/svg" width="16" height="16" viewBox="0 0 16 16"><defs><style>.a{fill:#4e6080;}</style></defs><path class="a" d="M507.5,37h-15a.5.5,0,0,0,0,1h1V49.5a.5.5,0,0,0,.5.5h4.5l-2.8,2.1a.5.5,0,1,0,.6.8l3.7-2.775,3.7,2.775a.5.5,0,1,0,.6-.8L501.5,50H506a.5.5,0,0,0,.5-.5V38h1a.5.5,0,0,0,0-1Zm-2,12h-11V38h11Z" transform="translate(-492 -37)"/><path class="a" d="M496,46a.5.5,0,0,1-.391-.812l2.4-3A.5.5,0,0,1,498.4,42h0a.5.5,0,0,1,.391.188L500.8,44.7l2.809-3.512a.5.5,0,1,1,.782.625l-3.2,4a.5.5,0,0,1-.39.187h0a.5.5,0,0,1-.391-.187L498.4,43.3l-2.009,2.513A.5.5,0,0,1,496,46Z" transform="translate(-492 -37)"/></svg>