<svg id="export" xmlns="http://www.w3.org/2000/svg" width="24" height="24" viewBox="0 0 24 24"><defs><style>.cls-1{fill:#fff;}</style></defs><g id="app_aquire"><path class="cls-1" d="M7,0H0V7H2.25V2.24h4.8Z"/><path class="cls-1" d="M17,0V2.25h4.8v4.8H24V0Z"/><path class="cls-1" d="M7,21.75H2.24V17H0V24H7Z"/><path class="cls-1" d="M21.75,17v4.8H17V24H24V17Z"/><path class="cls-1" d="M12,6.05A13.58,13.58,0,0,0,.77,12a13.58,13.58,0,0,0,18.86,3.6,13.4,13.4,0,0,0,3.6-3.6A13.58,13.58,0,0,0,12,6.05Zm0,9.82A3.91,3.91,0,0,1,8.09,12v0A3.89,3.89,0,0,1,12,8h.12A3.94,3.94,0,0,1,12,15.87Z"/></g></svg>