<svg id="export" xmlns="http://www.w3.org/2000/svg" width="24" height="24" viewBox="0 0 24 24"><defs><style>.cls-1{fill:#3c5583;}</style></defs><g id="icon-app-switcher"><path class="cls-1" d="M22,10H16a2,2,0,0,1-2-2V2a2,2,0,0,1,2-2h6a2,2,0,0,1,2,2V8A2,2,0,0,1,22,10ZM16,1a1,1,0,0,0-1,1V8a1,1,0,0,0,1,1h6a1,1,0,0,0,1-1V2a1,1,0,0,0-1-1Z"/><path class="cls-1" d="M8,10H2A2,2,0,0,1,0,8V2A2,2,0,0,1,2,0H8a2,2,0,0,1,2,2V8A2,2,0,0,1,8,10ZM2,1A1,1,0,0,0,1,2V8A1,1,0,0,0,2,9H8A1,1,0,0,0,9,8V2A1,1,0,0,0,8,1Z"/><path class="cls-1" d="M22,24H16a2,2,0,0,1-2-2V16a2,2,0,0,1,2-2h6a2,2,0,0,1,2,2v6A2,2,0,0,1,22,24Zm-6-9a1,1,0,0,0-1,1v6a1,1,0,0,0,1,1h6a1,1,0,0,0,1-1V16a1,1,0,0,0-1-1Z"/><path class="cls-1" d="M8,24H2a2,2,0,0,1-2-2V16a2,2,0,0,1,2-2H8a2,2,0,0,1,2,2v6A2,2,0,0,1,8,24ZM2,15a1,1,0,0,0-1,1v6a1,1,0,0,0,1,1H8a1,1,0,0,0,1-1V16a1,1,0,0,0-1-1Z"/></g></svg>