<svg id="export" xmlns="http://www.w3.org/2000/svg" width="24" height="24" viewBox="0 0 24 24"><defs><style>.cls-1{fill:#fff;}</style></defs><g id="app_engage"><path class="cls-1" d="M14,1.48v5.3H20.6l1.32,1.51V1.49Z"/><path class="cls-1" d="M4.77,5.64.91,2.19V6.74h7.7V2.16Z"/><path class="cls-1" d="M1.63,1.45,4.76,4.26,7.88,1.45Z"/><circle class="cls-1" cx="17.96" cy="15.55" r="2.38"/><path class="cls-1" d="M14,22.55a4,4,0,0,1,7.91,0Z"/><path class="cls-1" d="M1.77,13.17v9.38H7.66V13.17ZM4.72,22a.86.86,0,1,1,.85-.85.83.83,0,0,1-.85.84Zm1.87-7H2.85v-1H6.59Z"/><path class="cls-1" d="M1.85,8.27.77,7.8A11.79,11.79,0,0,0,0,12v.07l1.17-.21A10.78,10.78,0,0,1,1.85,8.27Z"/><path class="cls-1" d="M22.83,12a10.76,10.76,0,0,1-.75,3.93l1.07.48a11.8,11.8,0,0,0,.48-7.33l-1.16.2A10.42,10.42,0,0,1,22.83,12Z"/><path class="cls-1" d="M12,1.17c.27,0,.54,0,.81,0L13.09.05c-.36,0-.72,0-1.09,0A11.83,11.83,0,0,0,9.28.32L9.6,1.45A10.78,10.78,0,0,1,12,1.17Z"/><path class="cls-1" d="M11.56,22.83a10.59,10.59,0,0,1-3.21-.49l-.28,1.14a11.82,11.82,0,0,0,3.5.52,11.52,11.52,0,0,0,2.19-.21l-.62-1.09A9.27,9.27,0,0,1,11.56,22.83Z"/></g></svg>