<?xml version="1.0" encoding="UTF-8"?>
<svg id="export" xmlns="http://www.w3.org/2000/svg" width="24" height="24" viewBox="0 0 24 24">
  <defs>
    <style>
      .cls-1 {
        fill: #fff;
        stroke-width: 0px;
      }
    </style>
  </defs>
  <g id="app_aquire">
    <path class="cls-1" d="m7.04,0H0v7.04h2.25V2.24h4.8V0Z"/>
    <path class="cls-1" d="m16.96,0v2.25h4.8v4.8h2.24V0h-7.04Z"/>
    <path class="cls-1" d="m7.04,21.75H2.24v-4.8H0v7.05h7.04v-2.25Z"/>
    <path class="cls-1" d="m21.75,16.96v4.8h-4.8v2.24h7.05v-7.04h-2.25Z"/>
    <path class="cls-1" d="m12,6.05c-4.5,0-8.7,2.22-11.23,5.95,4.22,6.2,12.66,7.81,18.86,3.6,1.42-.96,2.64-2.18,3.6-3.6-2.53-3.72-6.73-5.95-11.23-5.95Zm0,9.82c-2.16,0-3.91-1.75-3.91-3.91v-.02c-.03-2.16,1.7-3.93,3.86-3.95,0,0,0,0,0,0h.11c2.18.05,3.9,1.85,3.86,4.03-.05,2.14-1.79,3.85-3.92,3.86Z"/>
  </g>
</svg>