<svg id="export" xmlns="http://www.w3.org/2000/svg" width="24" height="24" viewBox="0 0 24 24"><defs><style>.cls-1{fill:#fff;}</style></defs><g id="app_intelligence"><path class="cls-1" d="M11.93,10.88V0A12,12,0,0,0,0,10.88Z"/><path class="cls-1" d="M0,13.12A12,12,0,0,0,11.93,24V13.12Z"/><path class="cls-1" d="M21.89,9.9a2.1,2.1,0,0,0-1.76,1H16.41V8.38h3.18V3.87a2.1,2.1,0,1,0-2.9-.65,2.24,2.24,0,0,0,.65.65V6.13H14.17V17.87h3.17v2.26a2.1,2.1,0,1,0,2.9.65,2.24,2.24,0,0,0-.65-.65V15.62H16.41v-2.5h3.72A2.09,2.09,0,1,0,21.89,9.9Z"/></g></svg>