<?xml version="1.0" encoding="UTF-8"?>
<svg id="export" xmlns="http://www.w3.org/2000/svg" width="24" height="24" viewBox="0 0 24 24">
  <defs>
    <style>
      .cls-1 {
        fill: #fff;
        stroke-width: 0px;
      }
    </style>
  </defs>
  <g id="app_engage">
    <path class="cls-1" d="m13.99,1.48v5.3h6.61l1.32,1.51V1.49h-7.93Z"/>
    <g>
      <path class="cls-1" d="m4.77,5.64L.91,2.19v4.56h7.7V2.16l-3.85,3.48Z"/>
      <path class="cls-1" d="m1.63,1.45l3.13,2.81,3.11-2.81H1.63Z"/>
    </g>
    <g>
      <circle class="cls-1" cx="17.96" cy="15.55" r="2.38"/>
      <path class="cls-1" d="m14.01,22.55c0-2.18,1.77-3.95,3.95-3.95s3.95,1.77,3.95,3.95h-7.91Z"/>
    </g>
    <path class="cls-1" d="m1.77,13.17v9.38h5.89v-9.38H1.77Zm2.95,8.8c-.47,0-.85-.38-.85-.85,0-.47.38-.85.85-.85.47,0,.85.38.85.85,0,.47-.38.85-.85.85h0Zm1.87-7.03h-3.74v-1h3.74v1Z"/>
    <path class="cls-1" d="m1.85,8.27l-1.07-.47C.26,9.14,0,10.56,0,12v.07l1.17-.21c.02-1.23.24-2.44.67-3.59Z"/>
    <path class="cls-1" d="m22.83,12c0,1.35-.26,2.68-.75,3.93l1.07.47c.93-2.33,1.1-4.9.47-7.33l-1.16.2c.24.89.36,1.8.36,2.72Z"/>
    <path class="cls-1" d="m12,1.17c.27,0,.54.02.81.04l.29-1.16C12.73.02,12.37,0,12,0c-.92,0-1.83.11-2.72.32l.32,1.13c.79-.18,1.59-.27,2.4-.28Z"/>
    <path class="cls-1" d="m11.56,22.83c-1.09,0-2.17-.16-3.21-.49l-.28,1.14c1.13.35,2.31.52,3.5.52.74,0,1.47-.07,2.19-.21l-.62-1.08c-.52.08-1.05.12-1.58.13Z"/>
  </g>
</svg>