<?xml version="1.0" encoding="UTF-8"?>
<svg id="export" xmlns="http://www.w3.org/2000/svg" width="24" height="24" viewBox="0 0 24 24">
  <defs>
    <style>
      .cls-1 {
        fill: #fff;
        stroke-width: 0px;
      }
    </style>
  </defs>
  <g id="app_intelligence">
    <path class="cls-1" d="m11.93,10.88V.01C5.74.01.57,4.73,0,10.88h11.93Z"/>
    <path class="cls-1" d="m0,13.12c.57,6.16,5.74,10.87,11.93,10.87v-10.87H0Z"/>
    <path class="cls-1" d="m21.89,9.9c-.71,0-1.38.37-1.76.98h-3.72v-2.5h3.18V3.87c.98-.62,1.27-1.92.65-2.9-.62-.98-1.92-1.27-2.9-.65-.98.62-1.27,1.92-.65,2.9.17.26.39.48.65.65v2.26h-3.17v11.74h3.18v2.26c-.98.62-1.27,1.92-.65,2.9.62.98,1.92,1.27,2.9.65s1.27-1.92.65-2.9c-.17-.26-.39-.48-.65-.65v-4.51h-3.18v-2.5h3.72c.62.98,1.92,1.27,2.9.65.98-.62,1.27-1.92.65-2.9-.39-.61-1.06-.98-1.78-.97Z"/>
  </g>
</svg>