<?xml version="1.0" encoding="UTF-8"?>
<svg id="export" xmlns="http://www.w3.org/2000/svg" width="24" height="24" viewBox="0 0 24 24">
  <defs>
    <style>
      .cls-1 {
        fill: #bb2649;
      }
    </style>
  </defs>
  <g id="arrow-right-double">
    <path id="Path_11582" data-name="Path 11582" class="cls-1" d="m14.81,12l-10.67,11.15c-.19.2-.18.52.02.71.2.19.52.18.71-.01l11-11.5s.03-.05.05-.07c.02-.03.04-.05.05-.08,0-.03.02-.06.02-.09.02-.06.02-.13,0-.19,0-.03-.01-.06-.02-.09-.02-.03-.03-.06-.05-.08-.01-.03-.03-.05-.05-.07L4.86.15c-.19-.2-.51-.21-.71-.01-.2.19-.21.51-.02.71l10.67,11.15Z"/>
    <path id="Path_11583" data-name="Path 11583" class="cls-1" d="m18.81,12l-10.67,11.15c-.19.2-.18.52.02.71.2.19.52.18.71-.01l11-11.5s.03-.05.05-.07c.02-.03.04-.05.05-.08,0-.03.02-.06.02-.09.02-.06.02-.13,0-.19,0-.03-.01-.06-.02-.09-.02-.03-.03-.06-.05-.08-.01-.03-.03-.05-.05-.07L8.86.15c-.19-.2-.51-.21-.71-.02-.2.19-.21.51-.02.71l10.67,11.15Z"/>
  </g>
</svg>