<?xml version="1.0" encoding="UTF-8"?>
<svg id="export" xmlns="http://www.w3.org/2000/svg" width="24" height="24" viewBox="0 0 24 24">
  <defs>
    <style>
      .cls-1 {
        fill: #bb2649;
      }
    </style>
  </defs>
  <g id="arrow_left">
    <path class="cls-1" d="m23.5,11.5H1.39L7.93.77c.15-.23.08-.54-.16-.69S7.23,0,7.08.23c0,0,0,0,0,.01L.07,11.74c-.1.16-.1.36,0,.52l7,11.5c.09.15.25.24.43.24.09,0,.18-.02.26-.07.24-.14.31-.45.17-.69L1.39,12.5h22.11c.28,0,.5-.22.5-.5s-.22-.5-.5-.5Z"/>
  </g>
</svg>