<?xml version="1.0" encoding="UTF-8"?>
<svg id="export" xmlns="http://www.w3.org/2000/svg" width="24" height="24" viewBox="0 0 24 24">
  <defs>
    <style>
      .cls-1 {
        fill: #bb2649;
      }
    </style>
  </defs>
  <g id="arrow-left-double">
    <path id="Path_11580" data-name="Path 11580" class="cls-1" d="m5.19,12L15.86.85c.19-.2.18-.52-.02-.71-.2-.19-.52-.18-.71.02L4.14,11.65s-.03.05-.05.07c-.02.03-.04.05-.05.08,0,.03-.02.06-.02.09-.02.06-.02.13,0,.19,0,.03.01.06.02.09.02.03.03.06.05.08.01.03.03.05.05.07l11,11.5c.19.2.51.21.71.01.2-.19.21-.51.02-.71h0L5.19,12Z"/>
    <path id="Path_11581" data-name="Path 11581" class="cls-1" d="m9.19,12L19.86.85c.19-.2.18-.52-.02-.71-.2-.19-.52-.18-.71.02l-11,11.5s-.03.05-.05.07c-.02.03-.04.05-.05.08,0,.03-.02.06-.02.09-.02.06-.02.13,0,.19,0,.03.01.06.02.09.02.03.03.06.05.08.01.03.03.05.05.07l11,11.5c.19.2.51.21.71.01.2-.19.21-.51.02-.71h0l-10.67-11.15Z"/>
  </g>
</svg>