<?xml version="1.0" encoding="UTF-8"?>
<svg id="export" xmlns="http://www.w3.org/2000/svg" width="24" height="24" viewBox="0 0 24 24">
  <defs>
    <style>
      .cls-1 {
        fill: #bb2649;
      }
    </style>
  </defs>
  <g id="arrow-up-double">
    <path id="Path_11584" data-name="Path 11584" class="cls-1" d="m12,5.19l11.15,10.67c.2.19.52.18.71-.02.19-.2.18-.52-.01-.71L12.35,4.14s-.05-.03-.07-.05c-.03-.02-.05-.04-.08-.05-.03,0-.06-.02-.09-.02-.06-.02-.13-.02-.19,0-.03,0-.06.01-.09.02-.03.02-.06.03-.08.05-.03.01-.05.03-.07.05L.16,15.14c-.2.19-.21.51-.02.71.19.2.51.21.71.02L12,5.19Z"/>
    <path id="Path_11585" data-name="Path 11585" class="cls-1" d="m12,9.19l11.15,10.67c.2.19.52.18.71-.02.19-.2.18-.52-.01-.71l-11.5-11s-.05-.03-.07-.05c-.03-.02-.05-.04-.08-.05-.03,0-.06-.02-.09-.02-.06-.02-.13-.02-.19,0-.03,0-.06.01-.09.02-.03.02-.06.03-.08.05-.03.01-.05.03-.07.05L.15,19.14c-.2.19-.21.51-.02.71s.51.21.71.02l11.15-10.67Z"/>
  </g>
</svg>