<?xml version="1.0" encoding="UTF-8"?>
<svg id="export" xmlns="http://www.w3.org/2000/svg" width="24" height="24" viewBox="0 0 24 24">
  <defs>
    <style>
      .cls-1 {
        fill: #bb2649;
      }
    </style>
  </defs>
  <path id="arrow_right" class="cls-1" d="m.5,12.5h22.11l-6.54,10.74c-.15.23-.08.54.16.69.23.15.54.08.69-.16,0,0,0,0,0-.01l7-11.5c.1-.16.1-.36,0-.52L16.93.24C16.84.09,16.67,0,16.5,0c-.09,0-.18.02-.26.07-.24.14-.31.45-.17.69l6.54,10.74H.5c-.28,0-.5.22-.5.5s.22.5.5.5Z"/>
</svg>