<?xml version="1.0" encoding="UTF-8"?>
<svg id="export" xmlns="http://www.w3.org/2000/svg" width="24" height="24" viewBox="0 0 24 24">
  <defs>
    <style>
      .cls-1 {
        fill: #bb2649;
      }
    </style>
  </defs>
  <g id="arrow-down-double">
    <path id="Path_11586" data-name="Path 11586" class="cls-1" d="m12,14.81L.85,4.14c-.2-.19-.52-.18-.71.02-.19.2-.18.52.01.71l11.5,11s.05.03.07.05c.03.02.05.04.08.05.03,0,.06.02.09.02.06.02.13.02.19,0,.03,0,.06-.01.09-.02.03-.02.06-.03.08-.05.03-.01.05-.03.07-.05l11.5-11c.2-.19.21-.51.01-.71-.19-.2-.51-.21-.71-.02h0s-11.15,10.67-11.15,10.67Z"/>
    <path id="Path_11587" data-name="Path 11587" class="cls-1" d="m12,18.81L.85,8.14c-.2-.19-.52-.18-.71.02-.19.2-.18.52.02.71l11.5,11s.05.03.07.05c.03.02.05.04.08.05.03,0,.06.02.09.02.06.02.13.02.19,0,.03,0,.06-.01.09-.02.03-.02.06-.03.08-.05.03-.01.05-.03.07-.05l11.5-11c.2-.19.21-.51.01-.71-.19-.2-.51-.21-.71-.02l-11.15,10.67Z"/>
  </g>
</svg>