<?xml version="1.0" encoding="UTF-8"?>
<svg id="icons" xmlns="http://www.w3.org/2000/svg" viewBox="0 0 24 24">
  <defs>
    <style>
      .cls-1 {
        fill: #bb2649;
      }
    </style>
  </defs>
  <path id="icon_clip" class="cls-1" d="M5.97,24c-1.53,0-3.06-.58-4.23-1.75-2.33-2.33-2.33-6.12,0-8.45L13.8,1.75c2.33-2.33,6.12-2.33,8.45,0,2.33,2.33,2.33,6.12,0,8.45l-5.6,5.59c-1.38,1.38-3.63,1.38-5.01,0-.67-.67-1.04-1.56-1.04-2.51s.37-1.84,1.04-2.51l5.29-5.29c.2-.2.51-.2.71,0s.2.51,0,.71l-5.29,5.29c-.48.48-.75,1.12-.75,1.8s.26,1.32.75,1.8c.99.99,2.6.99,3.6,0l5.6-5.59c1.94-1.94,1.94-5.1,0-7.04-1.94-1.94-5.1-1.94-7.04,0L2.45,14.51c-1.94,1.94-1.94,5.1,0,7.04,1.94,1.94,5.1,1.94,7.04,0l2-2c.2-.2.51-.2.71,0s.2.51,0,.71l-2,2c-1.17,1.17-2.7,1.75-4.23,1.75Z"/>
</svg>