<?xml version="1.0" encoding="UTF-8"?>
<svg id="icons" xmlns="http://www.w3.org/2000/svg" viewBox="0 0 24 24">
  <defs>
    <style>
      .cls-1 {
        fill: #bb2649;
      }
    </style>
  </defs>
  <g id="icon_audience">
    <path class="cls-1" d="M23.5,24h-9.65c-.24,0-.47-.11-.63-.3-.14-.17-.22-.39-.22-.62,0-3.69,2.16-7.16,4.44-8.74-1.12-1.02-1.81-2.74-1.82-4.6v-1.16c0-2.94,1.74-5.07,4.13-5.08,2.42,0,4.25,2.19,4.25,5.08v1.16c0,1.8-.76,3.56-1.93,4.6.62.44,1.24,1.03,1.82,1.73.07.09.11.2.11.32v7.11c0,.28-.22.5-.5.5ZM14,23h9v-6.43c-.66-.77-1.38-1.39-2.06-1.75-.16-.08-.26-.25-.27-.43s.09-.35.24-.44c1.03-.62,2.08-2.17,2.08-4.21v-1.16c0-2.32-1.4-4.07-3.25-4.08-1.8,0-3.12,1.72-3.13,4.08v1.16c0,1.84.77,3.5,1.96,4.21.15.09.25.26.24.44s-.11.34-.27.43c-2.17,1.15-4.51,4.59-4.56,8.18Z"/>
    <path class="cls-1" d="M11.26,24h-5.4c-.24,0-.46-.1-.63-.29-.15-.17-.23-.39-.23-.62,0-3.64,2.24-7.42,4.47-9.01-1.12-1-1.82-2.67-1.83-4.49v-1.13c0-2.87,1.75-4.95,4.15-4.96,1.22,0,2.32.57,3.1,1.59.14.18.14.43,0,.61-.56.73-.85,1.69-.86,2.77v1.13c0,1.12.31,2.2.87,3.02.11.17.11.39,0,.56-.23.34-.49.64-.77.89.23.16.46.33.68.52.11.09.18.23.18.38s-.06.29-.18.38c-1.64,1.4-2.82,3.64-3.07,8.14-.01.28-.22.5-.5.5ZM6,23h4.5c.5-5,1.57-6.3,3.23-7.99-.24-.18-.49-.33-.72-.45-.16-.08-.27-.25-.27-.43,0-.18.09-.35.25-.45.33-.19.64-.47.91-.81-.55-.94-.85-2.09-.85-3.28v-1.13c0-1.15.29-2.2.83-3.04-.56-.59-1.29-.92-2.07-.92-1.82,0-3.15,1.67-3.15,3.96v1.13c0,1.79.78,3.39,1.97,4.09.16.09.25.26.25.45s-.11.35-.27.43c-2.14,1.1-4.54,4.92-4.59,8.44Z"/>
    <path class="cls-1" d="M2.76,24h-1.39c-.24,0-.48-.11-.64-.3,0,0,0,0,0,0-.15-.17-.23-.39-.23-.62,0-3.25.98-5.83,2.64-7.11-.86-.86-1.34-2.26-1.35-3.99v-.99c0-2.57,1.63-4.71,3.7-4.87.04,0,.15,0,.19,0,.43.05.76.46.75.94,0,.09-.02.17-.04.26-.02.24-.04.56-.04.88v1.19c0,1.45.36,2.82,1.04,3.96.22.38.16.87-.14,1.17-.34.34-.67.72-.98,1.11-.17.22-.34.44-.49.67l-.22.35s-.08.1-.09.12c-1.17,1.88-1.82,4.07-1.83,6.27,0,0,0,.02,0,.03,0,.51-.39.93-.87.93ZM1.5,23h1.13c.02-2.37.72-4.73,2.03-6.82l.25-.37c.2-.31.38-.55.57-.79.33-.43.69-.83,1.06-1.2-.78-1.25-1.18-2.8-1.19-4.43v-1.2c0-.36.02-.72.06-1.08-1.46.2-2.61,1.86-2.61,3.86v.99c0,1.73.54,3.05,1.46,3.6.15.09.25.26.24.44,0,.18-.11.34-.27.43-1.67.88-2.71,3.39-2.73,6.56Z"/>
    <path class="cls-1" d="M.5,17c-.28,0-.5-.22-.5-.5V.5C0,.22.22,0,.5,0h23c.28,0,.5.22.5.5v2c0,.28-.22.5-.5.5s-.5-.22-.5-.5v-1.5H1v15.5c0,.28-.22.5-.5.5Z"/>
  </g>
</svg>