<?xml version="1.0" encoding="UTF-8"?>
<svg id="illustartions" xmlns="http://www.w3.org/2000/svg" viewBox="0 0 24 24">
  <defs>
    <style>
      .cls-1 {
        fill: #bb2649;
      }
    </style>
  </defs>
  <path class="cls-1" d="M16.4,3.99H7.63c-.98,0-1.78.97-1.78,2.17l-.02,5.71c0,.9.38,1.15,1.78,1.15h8.78c1.39,0,1.78-.25,1.78-1.15v-5.71c0-1.19-.8-2.17-1.78-2.17ZM9.2,9.2c0,.28-.22.5-.5.5s-.5-.22-.5-.5v-2.57c0-.28.22-.5.5-.5s.5.22.5.5v2.57ZM13.24,10.46h-2.49c-.48,0-.87-.42-.87-.93,0-.28.22-.5.5-.5.25,0,.46.19.5.43h2.24c.03-.25.24-.43.5-.43.28,0,.5.22.5.5,0,.52-.39.93-.87.93ZM15.3,8.54c-.69,0-1.25-.61-1.25-1.37s.56-1.37,1.25-1.37,1.24.61,1.24,1.37-.56,1.37-1.24,1.37Z"/>
  <path class="cls-1" d="M22.08,5.21h-.39C21.5,2.3,19.39,0,16.83,0H7.17C4.63,0,2.53,2.26,2.32,5.21h-.39c-1.06,0-1.92.98-1.92,2.17v3.24c0,1.19.87,2.16,1.92,2.17h.39c.17,2.61,2,4.21,4.86,4.21h.97v.7c-1.76.63-2.37,2.42-2.5,4.02l-1.47-2.3c-.15-.23-.46-.3-.69-.15-.23.15-.3.46-.15.69l2.44,3.81s0,0,0,0c.09.14.24.23.41.23h11.64c.16,0,.3-.08.39-.2,0,0,.01,0,.01,0l4.74-6.39c.17-.22.12-.54-.1-.7-.22-.16-.53-.12-.7.1l-3.8,5.12c-.09-1.49-.58-3.55-2.53-4.27v-.67h1c2.86,0,4.69-1.6,4.86-4.21h.39c1.06,0,1.92-.98,1.92-2.17v-3.24c0-1.19-.87-2.16-1.92-2.17ZM3.15,10.38c0,.28-.22.5-.5.5s-.5-.22-.5-.5v-2.57c0-.28.22-.5.5-.5s.5.22.5.5v2.57ZM19.18,11.86c0,2.15-1.88,2.15-2.78,2.15H7.62c-.9,0-2.77,0-2.78-2.15l.02-5.71c0-1.75,1.25-3.17,2.78-3.17h8.76c1.53,0,2.78,1.42,2.78,3.17v5.71ZM21.85,10.38c0,.28-.22.5-.5.5s-.5-.22-.5-.5v-2.57c0-.28.22-.5.5-.5s.5.22.5.5v2.57Z"/>
</svg>