<?xml version="1.0" encoding="UTF-8"?>
<svg id="illustartions" xmlns="http://www.w3.org/2000/svg" viewBox="0 0 24 24">
  <defs>
    <style>
      .cls-1 {
        fill: #bb2649;
      }
    </style>
  </defs>
  <g id="icon_automation">
    <path class="cls-1" d="M16.4,14.01H7.62c-.9,0-2.77,0-2.78-2.15l.02-5.71c0-1.75,1.25-3.17,2.78-3.17h8.76c1.53,0,2.78,1.42,2.78,3.17v5.71c0,2.15-1.88,2.15-2.78,2.15ZM7.63,3.99c-.98,0-1.78.97-1.78,2.17l-.02,5.71c0,.9.38,1.15,1.78,1.15h8.78c1.39,0,1.78-.25,1.78-1.15v-5.71c0-1.19-.8-2.17-1.78-2.17H7.63Z"/>
    <path class="cls-1" d="M8.7,9.7c-.28,0-.5-.22-.5-.5v-2.57c0-.28.22-.5.5-.5s.5.22.5.5v2.57c0,.28-.22.5-.5.5Z"/>
    <path class="cls-1" d="M2.65,10.88c-.28,0-.5-.22-.5-.5v-2.57c0-.28.22-.5.5-.5s.5.22.5.5v2.57c0,.28-.22.5-.5.5Z"/>
    <path class="cls-1" d="M21.35,10.88c-.28,0-.5-.22-.5-.5v-2.57c0-.28.22-.5.5-.5s.5.22.5.5v2.57c0,.28-.22.5-.5.5Z"/>
    <path class="cls-1" d="M13.24,10.46h-2.49c-.48,0-.87-.42-.87-.93,0-.28.22-.5.5-.5.25,0,.46.19.5.43h2.24c.03-.25.24-.43.5-.43.28,0,.5.22.5.5,0,.52-.39.93-.87.93Z"/>
    <path class="cls-1" d="M22.08,5.21h-.39C21.5,2.3,19.39,0,16.83,0H7.17C4.63,0,2.53,2.26,2.32,5.21h-.39c-1.06,0-1.92.98-1.92,2.17v3.24c0,1.19.87,2.16,1.92,2.17h.39c.17,2.61,2,4.21,4.86,4.21h.97v.7c-1.76.63-2.37,2.42-2.5,4.02l-1.47-2.3c-.15-.23-.46-.3-.69-.15-.23.15-.3.46-.15.69l2.44,3.81s0,0,0,0c.09.14.24.23.41.23h11.64c.16,0,.3-.08.39-.2,0,0,.01,0,.01,0l4.74-6.39c.17-.22.12-.54-.1-.7-.22-.16-.54-.12-.7.1l-3.8,5.12c-.09-1.49-.58-3.55-2.53-4.27v-.67h1c2.86,0,4.69-1.6,4.86-4.21h.39c1.06,0,1.92-.98,1.92-2.17v-3.24c0-1.19-.87-2.16-1.92-2.17ZM23,10.62c0,.64-.42,1.17-.92,1.17h-.87c-.28,0-.5.22-.5.5v.1c0,3.25-2.71,3.61-3.88,3.61h-1.5c-.28,0-.5.22-.5.5v1.53c0,.23.15.43.38.48,2.14.55,2.21,3.39,2.15,4.48H6.63c-.08-1.08-.06-3.92,2.12-4.44.22-.05.38-.26.38-.49v-1.57c0-.28-.22-.5-.5-.5h-1.47c-1.16,0-3.87-.35-3.88-3.6v-.1c0-.28-.22-.5-.5-.5h-.87c-.51,0-.92-.53-.93-1.17v-3.24c0-.64.42-1.17.92-1.17h.87c.28,0,.5-.31.5-.59,0-2.55,1.74-4.62,3.88-4.63h9.66c2.13,0,3.87,2.08,3.88,4.71,0,.28.22.5.5.5h.87c.51,0,.92.53.93,1.17v3.24Z"/>
    <path class="cls-1" d="M15.3,8.54c-.69,0-1.25-.61-1.25-1.37s.56-1.37,1.25-1.37,1.24.61,1.24,1.37-.56,1.37-1.24,1.37ZM15.3,6.8c-.12,0-.25.16-.25.37s.13.37.25.37.24-.16.24-.37-.13-.37-.24-.37Z"/>
  </g>
</svg>