<?xml version="1.0" encoding="UTF-8"?>
<svg id="icons" xmlns="http://www.w3.org/2000/svg" viewBox="0 0 24 24">
  <defs>
    <style>
      .cls-1 {
        fill: #bb2649;
      }
    </style>
  </defs>
  <g id="icon_comparison">
    <path class="cls-1" d="M22.5,24h-4c-.28,0-.5-.22-.5-.5v-10.5c0-.28.22-.5.5-.5h4c.28,0,.5.22.5.5v10.5c0,.28-.22.5-.5.5ZM19,23h3v-9.5h-3v9.5Z"/>
    <path class="cls-1" d="M11.5,23.5h-3c-.28,0-.5-.22-.5-.5v-10c0-.28.22-.5.5-.5h3c.28,0,.5.22.5.5v10c0,.28-.22.5-.5.5ZM9,22.5h2v-9h-2v9Z"/>
    <path class="cls-1" d="M16.5,20.5h-3c-.28,0-.5-.22-.5-.5v-7c0-.28.22-.5.5-.5h3c.28,0,.5.22.5.5v7c0,.28-.22.5-.5.5ZM14,19.5h2v-6h-2v6Z"/>
    <path class="cls-1" d="M6.5,20.5H1.5c-.28,0-.5-.22-.5-.5v-7c0-.28.22-.5.5-.5h5c.28,0,.5.22.5.5v7c0,.28-.22.5-.5.5ZM2,19.5h4v-6H2v6Z"/>
    <path class="cls-1" d="M21.5,11.5h-2c-.28,0-.5-.22-.5-.5V3c0-.28.22-.5.5-.5h2c.28,0,.5.22.5.5v8c0,.28-.22.5-.5.5ZM20,10.5h1V3.5h-1v7Z"/>
    <path class="cls-1" d="M16,11.5h-2c-.28,0-.5-.22-.5-.5v-6c0-.28.22-.5.5-.5h2c.28,0,.5.22.5.5v6c0,.28-.22.5-.5.5ZM14.5,10.5h1v-5h-1v5Z"/>
    <path class="cls-1" d="M11,11.5h-2c-.28,0-.5-.22-.5-.5V.5c0-.28.22-.5.5-.5h2c.28,0,.5.22.5.5v10.5c0,.28-.22.5-.5.5ZM9.5,10.5h1V1h-1v9.5Z"/>
    <path class="cls-1" d="M5.5,11.5h-3c-.28,0-.5-.22-.5-.5v-5c0-.28.22-.5.5-.5h3c.28,0,.5.22.5.5v5c0,.28-.22.5-.5.5ZM3,10.5h2v-4h-2v4Z"/>
  </g>
</svg>