<?xml version="1.0" encoding="UTF-8"?>
<svg id="icons" xmlns="http://www.w3.org/2000/svg" viewBox="0 0 24 24">
  <defs>
    <style>
      .cls-1 {
        fill: #bb2649;
      }
    </style>
  </defs>
  <g id="icon_list">
    <path class="cls-1" d="M22,3c-1.1,0-2,.9-2,2,0,.4.12.77.32,1.08l-3.87,4.17c-.28-.15-.6-.25-.94-.25-.25,0-.48.05-.7.13l-4.79-6.84c.3-.35.49-.8.49-1.29,0-1.1-.9-2-2-2s-2,.9-2,2c0,.64.31,1.2.77,1.57L2.31,15.03c-.1-.02-.2-.03-.31-.03-1.1,0-2,.9-2,2s.9,2,2,2,2-.9,2-2c0-.64-.31-1.2-.77-1.57L8.19,3.97c.1.02.2.03.31.03.25,0,.48-.05.7-.13l4.79,6.84c-.3.35-.49.8-.49,1.29,0,1.1.9,2,2,2s2-.9,2-2c0-.4-.12-.77-.32-1.08l3.87-4.17c.28.15.6.25.95.25,1.1,0,2-.9,2-2s-.9-2-2-2Z"/>
    <g>
      <path class="cls-1" d="M6.5,22H.5c-.28,0-.5-.22-.5-.5s.22-.5.5-.5h6c.28,0,.5.22.5.5s-.22.5-.5.5Z"/>
      <path class="cls-1" d="M6.5,24H.5c-.28,0-.5-.22-.5-.5s.22-.5.5-.5h6c.28,0,.5.22.5.5s-.22.5-.5.5Z"/>
      <path class="cls-1" d="M15,22h-6c-.28,0-.5-.22-.5-.5s.22-.5.5-.5h6c.28,0,.5.22.5.5s-.22.5-.5.5Z"/>
      <path class="cls-1" d="M15,24h-6c-.28,0-.5-.22-.5-.5s.22-.5.5-.5h6c.28,0,.5.22.5.5s-.22.5-.5.5Z"/>
      <path class="cls-1" d="M23.5,22h-6c-.28,0-.5-.22-.5-.5s.22-.5.5-.5h6c.28,0,.5.22.5.5s-.22.5-.5.5Z"/>
      <path class="cls-1" d="M23.5,24h-6c-.28,0-.5-.22-.5-.5s.22-.5.5-.5h6c.28,0,.5.22.5.5s-.22.5-.5.5Z"/>
    </g>
  </g>
</svg>