<?xml version="1.0" encoding="UTF-8"?>
<svg id="icons" xmlns="http://www.w3.org/2000/svg" viewBox="0 0 24 24">
  <defs>
    <style>
      .cls-1 {
        fill: #bb2649;
      }
    </style>
  </defs>
  <g id="icon_path">
    <circle class="cls-1" cx="21" cy="3" r="3"/>
    <path class="cls-1" d="M17,14.5c1.1,0,2-.9,2-2s-.9-2-2-2-2,.9-2,2,.9,2,2,2Z"/>
    <path class="cls-1" d="M10,22c0,1.1.9,2,2,2s2-.9,2-2-.9-2-2-2c-1.1,0-2,.9-2,2Z"/>
    <path class="cls-1" d="M16.49,3.4c-.06-.27-.32-.45-.59-.39l-8.13,1.69c-.54-1.57-2.01-2.7-3.77-2.7C1.79,2,0,3.79,0,6s1.79,4,4,4c.44,0,.86-.09,1.26-.22l4.29,8.97c.09.18.26.28.45.28.07,0,.15-.02.22-.05.25-.12.35-.42.24-.67l-4.29-8.96c.46-.3.86-.68,1.16-1.14l5.95,2.98c.07.04.15.05.22.05.18,0,.36-.1.45-.28.12-.25.02-.55-.22-.67l-5.96-2.98c.15-.42.24-.86.24-1.32,0-.11-.02-.21-.03-.32l8.13-1.69c.27-.06.44-.32.39-.59Z"/>
  </g>
</svg>