<?xml version="1.0" encoding="UTF-8"?>
<svg id="icons" xmlns="http://www.w3.org/2000/svg" viewBox="0 0 24 24">
  <defs>
    <style>
      .cls-1 {
        fill: #bb2649;
      }
    </style>
  </defs>
  <g id="path_clock">
    <path id="Ellipse_BG" data-name="Ellipse BG" class="cls-1" d="M12,1c6.07,0,11,4.93,11,11s-4.93,11-11,11S1,18.07,1,12,5.93,1,12,1M12,0C5.37,0,0,5.37,0,12s5.37,12,12,12,12-5.37,12-12S18.63,0,12,0h0Z"/>
    <path class="cls-1" d="M16.38,13.69l-3.94-2.03-1.8-7.64c-.06-.27-.33-.44-.6-.37-.27.06-.44.33-.37.6l1.85,7.86c.03.14.13.25.25.32,0,0,0,0,0,.01l4.15,2.14c.07.04.15.06.23.06.18,0,.36-.1.44-.27.13-.25.03-.55-.22-.67Z"/>
  </g>
</svg>