<?xml version="1.0" encoding="UTF-8"?>
<svg id="export" xmlns="http://www.w3.org/2000/svg" viewBox="0 0 24 24">
  <defs>
    <style>
      .cls-1 {
        fill: #bb2649;
      }
    </style>
  </defs>
  <g id="icon_bell">
    <path class="cls-1" d="M12,24c-1.65,0-3-1.12-3-2.5,0-.28.22-.5.5-.5s.5.22.5.5c0,.83.9,1.5,2,1.5s2-.67,2-1.5c0-.28.22-.5.5-.5s.5.22.5.5c0,1.38-1.35,2.5-3,2.5Z"/>
    <path class="cls-1" d="M21.5,20H2.5c-.19,0-.36-.11-.45-.28s-.07-.37.05-.52l2.93-3.93v-6.15c.02-2.95,1.95-5.56,4.73-6.46.11-1.08.67-2.66,2.25-2.66s2.14,1.57,2.24,2.66c2.78.9,4.7,3.51,4.73,6.46v6.16l2.93,3.93c.11.15.13.35.05.52s-.26.28-.45.28ZM3.5,19h17.01l-2.43-3.27c-.06-.09-.1-.19-.1-.3v-6.32c-.02-2.62-1.8-4.92-4.33-5.6-.22-.06-.37-.25-.37-.48,0-.02-.04-2.04-1.26-2.04s-1.27,2.02-1.27,2.04c0,.22-.15.42-.37.48-2.53.68-4.31,2.98-4.33,5.6v6.32c0,.11-.03.21-.1.3l-2.43,3.27Z"/>
  </g>
</svg>