<svg id="export" xmlns="http://www.w3.org/2000/svg" width="24" height="24" viewBox="0 0 24 24"><defs><style>.cls-1{fill:#3c5583;}</style></defs><g id="icon-bell"><path class="cls-1" d="M12,24a2.79,2.79,0,0,1-3-2.5.5.5,0,0,1,1,0c0,.83.9,1.5,2,1.5s2-.67,2-1.5a.5.5,0,0,1,1,0A2.79,2.79,0,0,1,12,24Z"/><path class="cls-1" d="M21.9,19.2,19,15.27V9.11a6.87,6.87,0,0,0-4.7-6.45V2.22A2.25,2.25,0,0,0,12,0h0A2.25,2.25,0,0,0,9.73,2.22v.44A6.87,6.87,0,0,0,5,9.12v6.15L2.1,19.2a.5.5,0,0,0,.4.8h19a.5.5,0,0,0,.4-.8ZM3.5,19l2.43-3.27a.51.51,0,0,0,.1-.29V9.12a5.86,5.86,0,0,1,4.33-5.6A.5.5,0,0,0,10.73,3V2.23A1.27,1.27,0,0,1,12,1h0a1.25,1.25,0,0,1,1.25,1.22V3a.5.5,0,0,0,.37.48A5.86,5.86,0,0,1,18,9.12v6.32a.51.51,0,0,0,.1.29L20.5,19Z"/></g></svg>