<?xml version="1.0" encoding="UTF-8"?>
<svg id="export" xmlns="http://www.w3.org/2000/svg" viewBox="0 0 24 24">
  <defs>
    <style>
      .cls-1 {
        fill: #bb2649;
      }
    </style>
  </defs>
  <g id="icon_bell_inv">
    <path class="cls-1" d="M12,24c-1.65,0-3-1.12-3-2.5,0-.28.22-.5.5-.5h5c.28,0,.5.22.5.5,0,1.38-1.35,2.5-3,2.5Z"/>
    <path class="cls-1" d="M21.5,20H2.5c-.19,0-.36-.11-.45-.28s-.07-.37.05-.52l2.93-3.93v-6.15c.02-2.95,1.95-5.56,4.73-6.46.11-1.08.67-2.66,2.25-2.66s2.14,1.57,2.24,2.66c2.78.9,4.7,3.51,4.73,6.46v6.16l2.93,3.93c.11.15.13.35.05.52s-.26.28-.45.28Z"/>
  </g>
</svg>