<?xml version="1.0" encoding="UTF-8"?>
<svg id="export" xmlns="http://www.w3.org/2000/svg" width="24" height="24" viewBox="0 0 24 24">
  <defs>
    <style>
      .cls-1 {
        fill: #bb2649;
      }
    </style>
  </defs>
  <g id="icon-bell">
    <path class="cls-1" d="m12,24c-1.65,0-3-1.12-3-2.5,0-.28.22-.5.5-.5s.5.22.5.5c0,.83.9,1.5,2,1.5s2-.67,2-1.5c0-.28.22-.5.5-.5s.5.22.5.5c0,1.38-1.35,2.5-3,2.5Z"/>
    <path class="cls-1" d="m21.9,19.2l-2.93-3.93v-6.16c-.02-2.94-1.94-5.54-4.71-6.45v-.45c-.01-1.23-1.02-2.22-2.25-2.22h-.04c-1.22,0-2.23.99-2.24,2.22v.44c-2.77.91-4.68,3.51-4.71,6.45v6.15l-2.93,3.93c-.11.15-.13.35-.05.52.09.17.26.28.45.28h19c.19,0,.36-.11.45-.28.08-.17.07-.37-.05-.52Zm-18.41-.2l2.43-3.27c.06-.09.1-.19.1-.3v-6.31c.02-2.62,1.8-4.92,4.33-5.6.22-.06.37-.26.37-.48v-.81c0-.69.61-1.24,1.26-1.23,0,0,.02,0,.03,0,.68,0,1.24.55,1.24,1.22v.81c0,.23.15.42.37.48,2.53.68,4.31,2.98,4.33,5.6v6.32c0,.11.04.21.1.3l2.43,3.27H3.5Z"/>
  </g>
</svg>