<?xml version="1.0" encoding="UTF-8"?>
<svg id="export" xmlns="http://www.w3.org/2000/svg" viewBox="0 0 24 24">
  <defs>
    <style>
      .cls-1 {
        fill: #bb2649;
      }
    </style>
  </defs>
  <g id="icon-bell">
    <path class="cls-1" d="M12,24c-1.65,0-3-1.12-3-2.5,0-.28.22-.5.5-.5h5c.28,0,.5.22.5.5,0,1.38-1.35,2.5-3,2.5Z"/>
    <path class="cls-1" d="M21.9,19.2l-2.93-3.93v-6.16c-.02-2.94-1.94-5.54-4.71-6.45v-.45c-.01-1.23-1.02-2.22-2.25-2.22h-.04c-1.22,0-2.23.99-2.24,2.22v.44c-2.77.91-4.68,3.51-4.71,6.45v6.15l-2.93,3.93c-.11.15-.13.35-.05.52.09.17.26.28.45.28h19c.19,0,.36-.11.45-.28.08-.17.07-.37-.05-.52Z"/>
  </g>
</svg>