<?xml version="1.0" encoding="UTF-8"?>
<svg id="export" xmlns="http://www.w3.org/2000/svg" viewBox="0 0 24 24">
  <defs>
    <style>
      .cls-1 {
        fill: #bb2649;
      }
    </style>
  </defs>
  <g id="icon_bulb_inv">
    <path class="cls-1" d="M14.14,21h-4.29c-.28,0-.5-.22-.5-.5s.22-.5.5-.5h4.29c.28,0,.5.22.5.5s-.22.5-.5.5Z"/>
    <path class="cls-1" d="M14.14,24h-4.29c-.28,0-.5-.22-.5-.5s.22-.5.5-.5h4.29c.28,0,.5.22.5.5s-.22.5-.5.5Z"/>
    <path class="cls-1" d="M12,0C6.99,0,4,2.92,4,7.82c0,2.64,1.63,4.84,3.06,6.77.74.99,1.43,1.93,1.86,2.85.08.18.26.29.45.29h5.25c.19,0,.37-.11.45-.29.43-.92,1.12-1.85,1.86-2.85,1.43-1.94,3.06-4.13,3.06-6.77,0-4.9-2.99-7.82-8-7.82ZM10.79,3c-2.09,0-3.79,1.65-3.79,3.68,0,.28-.22.5-.5.5s-.5-.22-.5-.5c0-2.58,2.15-4.68,4.79-4.68.28,0,.5.22.5.5s-.22.5-.5.5Z"/>
  </g>
</svg>