<?xml version="1.0" encoding="UTF-8"?>
<svg id="export" xmlns="http://www.w3.org/2000/svg" width="24" height="24" viewBox="0 0 24 24">
  <defs>
    <style>
      .cls-1 {
        fill: #bb2649;
      }
    </style>
  </defs>
  <g id="icon-calendar">
    <path class="cls-1" d="m19.5,16.5h-3c-.28,0-.5-.22-.5-.5v-3c0-.28.22-.5.5-.5h3c.28,0,.5.22.5.5v3c0,.28-.22.5-.5.5Zm-2.5-1h2v-2h-2v2Z"/>
    <path class="cls-1" d="m13.5,16.5h-3c-.28,0-.5-.22-.5-.5v-3c0-.28.22-.5.5-.5h3c.28,0,.5.22.5.5v3c0,.28-.22.5-.5.5Zm-2.5-1h2v-2h-2v2Z"/>
    <path class="cls-1" d="m7.5,16.5h-3c-.28,0-.5-.22-.5-.5v-3c0-.28.22-.5.5-.5h3c.28,0,.5.22.5.5v3c0,.28-.22.5-.5.5Zm-2.5-1h2v-2h-2v2Z"/>
    <path class="cls-1" d="m18,4c-.28,0-.5-.22-.5-.5V.5c0-.28.22-.5.5-.5s.5.22.5.5v3c0,.28-.22.5-.5.5Z"/>
    <rect class="cls-1" x="7.5" y="1" width="9" height="1"/>
    <path class="cls-1" d="m6,4c-.28,0-.5-.22-.5-.5V.5c0-.28.22-.5.5-.5s.5.22.5.5v3c0,.28-.22.5-.5.5Z"/>
    <path class="cls-1" d="m23.5,1h-4v1h3.5v3.5H1v-3.5h3.5v-1H.5c-.28,0-.5.22-.5.5v22c0,.28.22.5.5.5h23c.28,0,.5-.22.5-.5V1.5c0-.28-.22-.5-.5-.5ZM1,23V6.5h22v16.5H1Z"/>
  </g>
</svg>