<svg id="export" xmlns="http://www.w3.org/2000/svg" width="24" height="24" viewBox="0 0 24 24"><defs><style>.cls-1{fill:#3c5583;}</style></defs><g id="icon-calendar"><path class="cls-1" d="M19.5,16.5h-3A.5.5,0,0,1,16,16V13a.5.5,0,0,1,.5-.5h3a.5.5,0,0,1,.5.5v3A.5.5,0,0,1,19.5,16.5Zm-2.5-1h2v-2H17Z"/><path class="cls-1" d="M13.5,16.5h-3A.5.5,0,0,1,10,16V13a.5.5,0,0,1,.5-.5h3a.5.5,0,0,1,.5.5v3A.5.5,0,0,1,13.5,16.5Zm-2.5-1h2v-2H11Z"/><path class="cls-1" d="M7.5,16.5h-3A.5.5,0,0,1,4,16V13a.5.5,0,0,1,.5-.5h3A.5.5,0,0,1,8,13v3A.5.5,0,0,1,7.5,16.5ZM5,15.5H7v-2H5Z"/><path class="cls-1" d="M18,4a.5.5,0,0,1-.5-.5V.5a.5.5,0,0,1,1,0v3A.5.5,0,0,1,18,4Z"/><rect class="cls-1" x="7.5" y="1" width="9" height="1"/><path class="cls-1" d="M6,4a.5.5,0,0,1-.5-.5V.5a.5.5,0,0,1,1,0v3A.5.5,0,0,1,6,4Z"/><path class="cls-1" d="M23.5,1h-4V2H23V5.5H1V2H4.5V1H.5a.5.5,0,0,0-.5.5v22a.5.5,0,0,0,.5.5h23a.5.5,0,0,0,.5-.5V1.5A.5.5,0,0,0,23.5,1ZM1,23V6.5H23V23Z"/></g></svg>