<?xml version="1.0" encoding="UTF-8"?>
<svg id="export" xmlns="http://www.w3.org/2000/svg" viewBox="0 0 24 24">
  <defs>
    <style>
      .cls-1 {
        fill: #bb2649;
        fill-rule: evenodd;
      }
    </style>
  </defs>
  <path id="icon_campaigns_inv" class="cls-1" d="M23.5,15h-9.8s.03-.07.04-.11c.08-.42-.05-.81-.36-1.08-.3-.3-.43-.51-.48-.66-.08-.18-.08-.37-.01-.53.14-.28.12-.59-.06-.85-.1-.15-.19-.36-.05-.74.1-.28.28-.46.56-.57.93.06,1.82.26,2.66.6.73.29,1.48.71,2.22,1.25.29.21.89.71,1.34,1.07.24.2.44.36.53.43.53.41,1.19.48,1.77.19.74-.36,1.19-1.19,1.19-2.22v-3.03c.61-.33.94-.9.94-1.64s-.33-1.31-.94-1.64v-2.97c.14-1.23-.44-2-1.04-2.31-.64-.33-1.4-.24-1.95.25-1.57,1.4-3.04,2.36-4.38,2.85-.94.35-1.97.52-3.04.52h-4.72c-.91,0-1.92.78-1.92,1.9v2.8c0,1.56,1.04,1.89,1.92,1.9h.64c-.11.63-.11,1.28-.02,1.94.08.51.28,1.24.59,2.21.08.18.14.31.2.43H1V1h15.75c.28,0,.5-.22.5-.5s-.22-.5-.5-.5H.5C.22,0,0,.22,0,.5v19c0,.28.22.5.5.5h9.5v3h-4.5c-.28,0-.5.22-.5.5s.22.5.5.5h13c.28,0,.5-.22.5-.5s-.22-.5-.5-.5h-4.5v-3h9.5c.28,0,.5-.22.5-.5v-4c0-.28-.22-.5-.5-.5ZM16.03,4.23c1.38-.51,2.83-1.43,4.39-2.77v11.32c-.07-.06-.14-.11-.22-.18-.46-.38-1.08-.89-1.39-1.11-.82-.58-1.64-1.04-2.44-1.37-.42-.17-.86-.31-1.3-.41l-.61-5.05c.54-.1,1.07-.24,1.58-.43ZM12,19.5c-.83,0-1.5-.67-1.5-1.5s.67-1.5,1.5-1.5,1.5.67,1.5,1.5-.67,1.5-1.5,1.5Z"/>
</svg>