<?xml version="1.0" encoding="UTF-8"?>
<svg id="icons" xmlns="http://www.w3.org/2000/svg" viewBox="0 0 24 24">
  <defs>
    <style>
      .cls-1 {
        fill: #bb2649;
      }
    </style>
  </defs>
  <g id="path_chart-line">
    <path class="cls-1" d="M23.5,24H.5c-.28,0-.5-.22-.5-.5V.5C0,.22.22,0,.5,0s.5.22.5.5v22.5h22.5c.28,0,.5.22.5.5s-.22.5-.5.5Z"/>
    <path class="cls-1" d="M6,19.5s-.03,0-.05,0c-.21-.02-.38-.17-.43-.37L2.02,6.13c-.07-.27.09-.54.35-.61.26-.07.54.09.61.35l3.16,11.73,2.91-5.82c.07-.14.2-.24.35-.27.15-.03.31.01.42.11l2.88,2.47L16.01.38c.05-.21.23-.36.45-.38.22-.03.42.11.5.31l3.08,7.48,3.01-6.02c.12-.25.42-.35.67-.22.25.12.35.42.22.67l-3.5,7c-.09.17-.24.29-.47.28-.2,0-.37-.13-.44-.31l-2.91-7.08-3.14,13c-.04.17-.17.3-.33.36-.16.05-.35.02-.48-.1l-3.01-2.58-3.21,6.43c-.08.17-.26.28-.45.28Z"/>
  </g>
</svg>