<?xml version="1.0" encoding="UTF-8"?>
<svg id="export" xmlns="http://www.w3.org/2000/svg" viewBox="0 0 24 24">
  <defs>
    <style>
      .cls-1 {
        fill: #bb2649;
      }
    </style>
  </defs>
  <g id="icon_reports">
    <path class="cls-1" d="M13.05,9.36H.5c-.28,0-.5-.22-.5-.5V.5C0,.22.22,0,.5,0h12.55c.28,0,.5.22.5.5v8.36c0,.28-.22.5-.5.5ZM1,8.36h11.55V1H1v7.36Z"/>
    <path class="cls-1" d="M23.5,11.45h-6.27c-.28,0-.5-.22-.5-.5V.5c0-.28.22-.5.5-.5h6.27c.28,0,.5.22.5.5v10.45c0,.28-.22.5-.5.5ZM17.73,10.45h5.27V1h-5.27v9.45Z"/>
    <path class="cls-1" d="M9.91,24H.5c-.28,0-.5-.22-.5-.5v-10.45c0-.28.22-.5.5-.5h9.41c.28,0,.5.22.5.5v10.45c0,.28-.22.5-.5.5ZM1,23h8.41v-9.45H1v9.45Z"/>
  </g>
</svg>