<svg id="export" xmlns="http://www.w3.org/2000/svg" width="24" height="24" viewBox="0 0 24 24"><defs><style>.cls-1{fill:#3c5583;}</style></defs><g id="icon_sms"><path class="cls-1" d="M13,4.5a.5.5,0,0,0,.5-.5V.5A.5.5,0,0,0,13,0H.5A.5.5,0,0,0,0,.5v23a.5.5,0,0,0,.5.5H13a.5.5,0,0,0,.5-.5V17a.5.5,0,0,0-1,0v3.5H1v-17H12.5V4A.5.5,0,0,0,13,4.5Zm-.5,17V23H1V21.5ZM1,2.48V1H12.5V2.48Z"/><path class="cls-1" d="M7.5,19.5a.45.45,0,0,1-.16,0A.49.49,0,0,1,7,19V15.5H4.5A.5.5,0,0,1,4,15V6a.5.5,0,0,1,.5-.5h19A.5.5,0,0,1,24,6v9a.5.5,0,0,1-.5.5H10.75L7.9,19.3A.51.51,0,0,1,7.5,19.5ZM5,14.5H7.5A.5.5,0,0,1,8,15v2.5l2.1-2.8a.48.48,0,0,1,.4-.2H23v-8H5Z"/><path class="cls-1" d="M16,12.5H7a.5.5,0,0,1,0-1h9a.5.5,0,0,1,0,1Z"/><path class="cls-1" d="M20,10.5H7a.5.5,0,0,1,0-1H20a.5.5,0,0,1,0,1Z"/><path class="cls-1" d="M20,8.5H7a.5.5,0,0,1,0-1H20a.5.5,0,0,1,0,1Z"/></g></svg>