<?xml version="1.0" encoding="UTF-8"?>
<svg id="export" xmlns="http://www.w3.org/2000/svg" width="24" height="24" viewBox="0 0 24 24">
  <defs>
    <style>
      .cls-1 {
        fill: #bb2649;
      }
    </style>
  </defs>
  <g id="change-log_inv">
    <path class="cls-1" d="m5,20.5c0,.28.22.5.5.5h6c.28,0,.5.22.5.5v2c0,.28-.22.5-.5.5H.5c-.28,0-.5-.22-.5-.5v-15c0-.28.22-.5.5-.5h4c.28,0,.5.22.5.5v3h-2.5c-.28,0-.5.22-.5.5s.22.5.5.5h2.5v2h-2.5c-.28,0-.5.22-.5.5s.22.5.5.5h2.5v1h-2.5c-.28,0-.5.22-.5.5s.22.5.5.5h2.5v1h-2.5c-.28,0-.5.22-.5.5s.22.5.5.5h2.5v1Z"/>
    <path class="cls-1" d="m11.5,17c-.28,0-.5-.22-.5-.5v-3h-2.5c-.28,0-.5-.22-.5-.5s.22-.5.5-.5h2.5v-1h-2.5c-.28,0-.5-.22-.5-.5s.22-.5.5-.5h2.5v-2h-2.5c-.28,0-.5-.22-.5-.5s.22-.5.5-.5h2.5v-3c0-.28-.22-.5-.5-.5h-4c-.28,0-.5.22-.5.5v15c0,.28.22.5.5.5h11c.28,0,.5-.22.5-.5v-2c0-.28-.22-.5-.5-.5h-6Z"/>
    <path class="cls-1" d="m23.5,0h-11c-.28,0-.5.22-.5.5v15c0,.28.22.5.5.5h11c.28,0,.5-.22.5-.5V.5c0-.28-.22-.5-.5-.5Zm-9,3.5h5c.28,0,.5.22.5.5s-.22.5-.5.5h-5c-.28,0-.5-.22-.5-.5s.22-.5.5-.5Zm5,10h-5c-.28,0-.5-.22-.5-.5s.22-.5.5-.5h5c.28,0,.5.22.5.5s-.22.5-.5.5Zm0-2h-5c-.28,0-.5-.22-.5-.5s.22-.5.5-.5h5c.28,0,.5.22.5.5s-.22.5-.5.5Zm2-2h-7c-.28,0-.5-.22-.5-.5s.22-.5.5-.5h7c.28,0,.5.22.5.5s-.22.5-.5.5Zm0-2h-7c-.28,0-.5-.22-.5-.5s.22-.5.5-.5h7c.28,0,.5.22.5.5s-.22.5-.5.5Z"/>
  </g>
</svg>