<?xml version="1.0" encoding="UTF-8"?>
<svg id="export" xmlns="http://www.w3.org/2000/svg" width="24" height="24" viewBox="0 0 24 24">
  <defs>
    <style>
      .cls-1 {
        fill: #bb2649;
      }
    </style>
  </defs>
  <g id="icon_sms">
    <path class="cls-1" d="m13,4.5c.28,0,.5-.22.5-.5V.5c0-.28-.22-.5-.5-.5H.5C.22,0,0,.22,0,.5v23c0,.28.22.5.5.5h12.5c.28,0,.5-.22.5-.5v-6.5c0-.28-.22-.5-.5-.5s-.5.22-.5.5v3.5H1V3.48h11.5v.52c0,.28.22.5.5.5Zm-.5,17v1.5H1v-1.5h11.5ZM1,2.48v-1.48h11.5v1.48H1Z"/>
    <path class="cls-1" d="m7.5,19.5c-.05,0-.11,0-.16-.03-.2-.07-.34-.26-.34-.47v-3.5h-2.5c-.28,0-.5-.22-.5-.5V6c0-.28.22-.5.5-.5h19c.28,0,.5.22.5.5v9c0,.28-.22.5-.5.5h-12.75l-2.85,3.8c-.1.13-.25.2-.4.2Zm-2.5-5h2.5c.28,0,.5.22.5.5v2.5l2.1-2.8c.09-.13.24-.2.4-.2h12.5V6.5H5v8Z"/>
    <path class="cls-1" d="m16,12.5H7c-.28,0-.5-.22-.5-.5s.22-.5.5-.5h9c.28,0,.5.22.5.5s-.22.5-.5.5Z"/>
    <path class="cls-1" d="m20,10.5H7c-.28,0-.5-.22-.5-.5s.22-.5.5-.5h13c.28,0,.5.22.5.5s-.22.5-.5.5Z"/>
    <path class="cls-1" d="m20,8.5H7c-.28,0-.5-.22-.5-.5s.22-.5.5-.5h13c.28,0,.5.22.5.5s-.22.5-.5.5Z"/>
  </g>
</svg>