<svg id="export" xmlns="http://www.w3.org/2000/svg" width="24" height="24" viewBox="0 0 24 24"><defs><style>.cls-1{fill:#3c5583;}</style></defs><g id="icon-ampmail"><path class="cls-1" d="M24,6.48l0-.14a.06.06,0,0,1,0,0l-.1-.15,0,0a.47.47,0,0,0-.09-.06L18.68,3.42a.5.5,0,1,0-.47.89L21.46,6H17.89a.5.5,0,0,0,0,1H23V8a.52.52,0,0,0-.27.07l-3,1.91a.5.5,0,0,0-.15.69.48.48,0,0,0,.42.23.56.56,0,0,0,.27-.08L23,9.09V23H1V9.09l5.91,3.77a.54.54,0,0,0,.27.07.48.48,0,0,0,.42-.23A.5.5,0,0,0,7.45,12L1.27,8.08A.52.52,0,0,0,1,8V7H11a.5.5,0,0,0,0-1H2.54L12,1.06l1.87,1a.5.5,0,0,0,.46-.89L12.23.06a.47.47,0,0,0-.46,0l-11.5,6-.06,0-.08.07a.56.56,0,0,0,0,.08.56.56,0,0,0,0,.08s0,.07,0,.1,0,.05,0,.07v17a.5.5,0,0,0,.5.5h23a.5.5,0,0,0,.5-.5v-17Z"/><path class="cls-1" d="M10.82,22a.41.41,0,0,1-.19,0,.49.49,0,0,1-.3-.57L12,13.78H9a.51.51,0,0,1-.44-.26.49.49,0,0,1,0-.51L16.76.23A.49.49,0,0,1,17.38,0a.51.51,0,0,1,.29.57L16,7.76h3a.51.51,0,0,1,.44.26.5.5,0,0,1,0,.5L11.24,21.76A.49.49,0,0,1,10.82,22Zm-.91-9.22h2.73A.51.51,0,0,1,13,13a.49.49,0,0,1,.09.42l-1.18,5.34,6.16-10H15.36A.51.51,0,0,1,15,8.57a.49.49,0,0,1-.09-.42L16,3.23Z"/></g></svg>