<svg id="export" xmlns="http://www.w3.org/2000/svg" width="24" height="24" viewBox="0 0 24 24"><defs><style>.cls-1{fill:#3c5583;}</style></defs><g id="icon_in-app"><g id="path_in-app"><path class="cls-1" d="M11.5,10.5h-3A.5.5,0,0,1,8,10V7a.5.5,0,0,1,.5-.5h3A.5.5,0,0,1,12,7v3A.5.5,0,0,1,11.5,10.5ZM9,9.5h2v-2H9Z"/><path class="cls-1" d="M15.5,8h-2a.5.5,0,0,1,0-1h2a.5.5,0,0,1,0,1Z"/><path class="cls-1" d="M15.5,10h-2a.5.5,0,0,1,0-1h2a.5.5,0,0,1,0,1Z"/></g><path class="cls-1" d="M18.5,0H5.5A.5.5,0,0,0,5,.5v23a.5.5,0,0,0,.5.5h13a.5.5,0,0,0,.5-.5V.5A.5.5,0,0,0,18.5,0ZM18,20.5H6V12a.5.5,0,0,0,.5.5h11A.5.5,0,0,0,18,12Zm-11-9v-6H17v6Zm10.5-7H6.5A.5.5,0,0,0,6,5V3.5H18V5A.5.5,0,0,0,17.5,4.5ZM18,1V2.5H6V1ZM6,23V21.5H18V23Z"/></g></svg>