<?xml version="1.0" encoding="UTF-8"?>
<svg id="export" xmlns="http://www.w3.org/2000/svg" width="24" height="24" viewBox="0 0 24 24">
  <defs>
    <style>
      .cls-1 {
        fill: #bb2649;
      }
    </style>
  </defs>
  <g id="path_changelog">
    <path class="cls-1" d="m11.5,24H.5c-.28,0-.5-.22-.5-.5v-15c0-.28.22-.5.5-.5h4c.28,0,.5.22.5.5s-.22.5-.5.5H1v14h10v-1.5c0-.28.22-.5.5-.5s.5.22.5.5v2c0,.28-.22.5-.5.5Z"/>
    <g>
      <path class="cls-1" d="m2.5,18.5c-.28,0-.5.22-.5.5s.22.5.5.5h2.5v-1h-2.5Z"/>
      <path class="cls-1" d="m2.5,16.5c-.28,0-.5.22-.5.5s.22.5.5.5h2.5v-1h-2.5Z"/>
      <path class="cls-1" d="m2.5,14.5c-.28,0-.5.22-.5.5s.22.5.5.5h2.5v-1h-2.5Z"/>
      <path class="cls-1" d="m2.5,11.5c-.28,0-.5.22-.5.5s.22.5.5.5h2.5v-1h-2.5Z"/>
    </g>
    <path class="cls-1" d="m17.5,20H6.5c-.28,0-.5-.22-.5-.5V4.5c0-.28.22-.5.5-.5h4c.28,0,.5.22.5.5s-.22.5-.5.5h-3.5v14h10v-1.5c0-.28.22-.5.5-.5s.5.22.5.5v2c0,.28-.22.5-.5.5Z"/>
    <g>
      <path class="cls-1" d="m8.5,12.5c-.28,0-.5.22-.5.5s.22.5.5.5h2.5v-1h-2.5Z"/>
      <path class="cls-1" d="m8.5,10.5c-.28,0-.5.22-.5.5s.22.5.5.5h2.5v-1h-2.5Z"/>
      <path class="cls-1" d="m8.5,7.5c-.28,0-.5.22-.5.5s.22.5.5.5h2.5v-1h-2.5Z"/>
    </g>
    <path class="cls-1" d="m23.5,16h-11c-.28,0-.5-.22-.5-.5V.5c0-.28.22-.5.5-.5h11c.28,0,.5.22.5.5v15c0,.28-.22.5-.5.5Zm-10.5-1h10V1h-10v14Z"/>
    <g>
      <path class="cls-1" d="m19.5,11.5h-5c-.28,0-.5-.22-.5-.5s.22-.5.5-.5h5c.28,0,.5.22.5.5s-.22.5-.5.5Z"/>
      <path class="cls-1" d="m19.5,13.5h-5c-.28,0-.5-.22-.5-.5s.22-.5.5-.5h5c.28,0,.5.22.5.5s-.22.5-.5.5Z"/>
      <path class="cls-1" d="m21.5,9.5h-7c-.28,0-.5-.22-.5-.5s.22-.5.5-.5h7c.28,0,.5.22.5.5s-.22.5-.5.5Z"/>
      <path class="cls-1" d="m21.5,7.5h-7c-.28,0-.5-.22-.5-.5s.22-.5.5-.5h7c.28,0,.5.22.5.5s-.22.5-.5.5Z"/>
      <path class="cls-1" d="m19.5,4.5h-5c-.28,0-.5-.22-.5-.5s.22-.5.5-.5h5c.28,0,.5.22.5.5s-.22.5-.5.5Z"/>
    </g>
  </g>
</svg>