<svg id="export" xmlns="http://www.w3.org/2000/svg" width="24" height="24" viewBox="0 0 24 24"><defs><style>.cls-1{fill:#3c5583;}</style></defs><g id="icon_web-push"><path class="cls-1" d="M23.5,1H.5a.5.5,0,0,0-.5.5v21a.5.5,0,0,0,.5.5h23a.5.5,0,0,0,.5-.5V1.5A.5.5,0,0,0,23.5,1ZM23,2V4H1V2ZM1,22V5H23V22Z"/><path class="cls-1" d="M21.5,16H9.5a.5.5,0,0,1-.5-.5v-7A.5.5,0,0,1,9.5,8h12a.5.5,0,0,1,.5.5v7A.5.5,0,0,1,21.5,16ZM10,15H21V9H10Z"/><path class="cls-1" d="M14.5,14h-3a.5.5,0,0,1-.5-.5v-3a.5.5,0,0,1,.5-.5h3a.5.5,0,0,1,.5.5v3A.5.5,0,0,1,14.5,14ZM12,13h2V11H12Z"/><path class="cls-1" d="M19.5,11.5h-3a.5.5,0,0,1,0-1h3a.5.5,0,0,1,0,1Z"/><path class="cls-1" d="M18.5,13.5h-2a.5.5,0,0,1,0-1h2a.5.5,0,0,1,0,1Z"/></g></svg>