<?xml version="1.0" encoding="UTF-8"?>
<svg id="export" xmlns="http://www.w3.org/2000/svg" width="24" height="24" viewBox="0 0 24 24">
  <defs>
    <style>
      .cls-1 {
        fill: #bb2649;
      }
    </style>
  </defs>
  <g id="icon-ampmail">
    <path class="cls-1" d="m24,6.48s-.01-.09-.03-.14c0-.01,0-.03-.01-.04-.02-.05-.06-.1-.1-.15-.01-.01-.03-.02-.04-.03-.03-.02-.05-.05-.09-.07l-5.05-2.64c-.25-.13-.55-.03-.67.21s-.03.55.21.67l3.25,1.69h-3.57c-.28,0-.5.22-.5.5s.22.5.5.5h5.11v1.01c-.09,0-.19.02-.27.07l-3,1.91c-.23.15-.3.46-.15.69.1.15.26.23.42.23.09,0,.19-.03.27-.08l2.73-1.74v13.91H1v-13.91l5.91,3.76c.08.05.18.08.27.08.17,0,.33-.08.42-.23.15-.23.08-.54-.15-.69l-6.18-3.93c-.08-.05-.18-.07-.27-.07v-1.01h9.95c.28,0,.5-.22.5-.5s-.22-.5-.5-.5H2.54L12,1.06l1.87.97c.25.13.55.03.67-.21.13-.25.03-.55-.21-.67L12.23.06c-.14-.08-.32-.08-.46,0L.27,6.06s-.04.03-.05.04c-.03.02-.06.04-.08.07-.02.02-.04.05-.05.08-.02.03-.03.05-.04.08-.01.03-.02.07-.02.11,0,.02-.01.04-.01.07v17c0,.28.22.5.5.5h23c.28,0,.5-.22.5-.5V6.5s0-.01,0-.02Z"/>
    <path class="cls-1" d="m10.82,22c-.06,0-.13-.01-.19-.04-.23-.09-.35-.33-.3-.57l1.68-7.61h-3.01c-.18,0-.35-.1-.44-.26-.09-.16-.08-.36.02-.51L16.76.23c.13-.21.39-.29.62-.19.22.09.35.34.29.57l-1.67,7.15h3.01c.18,0,.35.1.44.26.09.16.08.35-.01.51l-8.18,13.24c-.09.15-.26.24-.43.24Zm-.9-9.22h2.72c.15,0,.29.07.39.19s.13.27.1.42l-1.18,5.34,6.16-9.97h-2.74c-.15,0-.3-.07-.39-.19s-.13-.28-.09-.42l1.15-4.92-6.11,9.55Z"/>
  </g>
</svg>