<?xml version="1.0" encoding="UTF-8"?>
<svg id="export" xmlns="http://www.w3.org/2000/svg" width="24" height="24" viewBox="0 0 24 24">
  <defs>
    <style>
      .cls-1 {
        fill: #bb2649;
        stroke-width: 0px;
      }
    </style>
  </defs>
  <path id="icon-letter" class="cls-1" d="m23.99,5.44s0-.09-.03-.13c-.01-.03-.04-.06-.06-.09-.02-.02-.03-.05-.05-.07-.04-.04-.08-.06-.13-.09-.01,0-.02-.02-.03-.02h0s0,0,0,0l-2.19-.95v-1.59c0-.28-.22-.5-.5-.5h-4.3L12.2.04c-.13-.06-.27-.06-.4,0l-4.5,1.96H3c-.28,0-.5.22-.5.5v1.59l-2.19.95s0,0,0,0h0s-.02.02-.03.02c-.05.02-.09.05-.13.09-.02.02-.03.05-.05.07-.02.03-.04.06-.06.09-.02.04-.02.09-.03.13,0,.02-.01.04-.01.06h0v18c0,.28.22.5.5.5h23c.28,0,.5-.22.5-.5V5.51h0s0-.04-.01-.06Zm-.99.56v1.01c-.09,0-.19.02-.27.07l-1.23.78v-1.86h1.5ZM12,1.05l2.2.95h-4.39l2.2-.95ZM3.5,3h17v5.5l-8.5,5.41L3.5,8.5V3Zm-1,3v1.86l-1.23-.78c-.08-.05-.18-.07-.27-.07v-1.01h1.5Zm-1.5,17v-14.91l10.73,6.83c.08.05.17.08.27.08s.19-.03.27-.08l10.73-6.83v14.91H1Z"/>
</svg>