<?xml version="1.0" encoding="UTF-8"?>
<svg id="export" xmlns="http://www.w3.org/2000/svg" width="24" height="24" viewBox="0 0 24 24">
  <defs>
    <style>
      .cls-1 {
        fill: #bb2649;
        stroke-width: 0px;
      }
    </style>
  </defs>
  <g id="icon_in-app">
    <g id="path_in-app">
      <path class="cls-1" d="m11.5,10.5h-3c-.28,0-.5-.22-.5-.5v-3c0-.28.22-.5.5-.5h3c.28,0,.5.22.5.5v3c0,.28-.22.5-.5.5Zm-2.5-1h2v-2h-2v2Z"/>
      <path class="cls-1" d="m15.5,8h-2c-.28,0-.5-.22-.5-.5s.22-.5.5-.5h2c.28,0,.5.22.5.5s-.22.5-.5.5Z"/>
      <path class="cls-1" d="m15.5,10h-2c-.28,0-.5-.22-.5-.5s.22-.5.5-.5h2c.28,0,.5.22.5.5s-.22.5-.5.5Z"/>
    </g>
    <path class="cls-1" d="m18.5,0H5.5c-.28,0-.5.22-.5.5v23c0,.28.22.5.5.5h13c.28,0,.5-.22.5-.5V.5c0-.28-.22-.5-.5-.5Zm-.5,20.5H6v-8.5c0,.28.22.5.5.5h11c.28,0,.5-.22.5-.5v8.5ZM7,11.5v-6h10v6H7Zm10.5-7H6.5c-.28,0-.5.22-.5.5v-1.5h12v1.5c0-.28-.22-.5-.5-.5Zm.5-3.5v1.5H6v-1.5h12ZM6,23v-1.5h12v1.5H6Z"/>
  </g>
</svg>