<?xml version="1.0" encoding="UTF-8"?>
<svg id="icons" xmlns="http://www.w3.org/2000/svg" viewBox="0 0 24 24">
  <defs>
    <style>
      .cls-1 {
        fill: #bb2649;
      }
    </style>
  </defs>
  <path class="cls-1" d="M18,21c-1.31,0-2.59-.44-3.64-1.23-2.09,1.14-4.79.89-6.63-.6-.82.55-1.76.83-2.74.83-2.76,0-5-2.24-5-5s2.24-5,5-5c.1,0,.2,0,.3.01-.2-.48-.3-.99-.3-1.51,0-2.21,1.79-4,4-4,1,0,1.94.37,2.67,1.03.88-1.54,2.53-2.53,4.33-2.53,2.76,0,5,2.24,5,5,0,.56-.1,1.11-.29,1.65,2.01,1.02,3.29,3.07,3.29,5.35,0,3.31-2.69,6-6,6Z"/>
</svg>