<?xml version="1.0" encoding="UTF-8"?>
<svg id="icons" xmlns="http://www.w3.org/2000/svg" viewBox="0 0 24 24">
  <defs>
    <style>
      .cls-1 {
        fill: #bb2649;
      }
    </style>
  </defs>
  <g id="path_chart-line">
    <path class="cls-1" d="M23.5,24H.5c-.28,0-.5-.22-.5-.5V.5C0,.23.22,0,.5,0s.5.22.5.5v22.5h22.5c.28,0,.5.22.5.5s-.22.5-.5.5Z"/>
    <g id="path_chart-columns">
      <path class="cls-1" d="M5,22c-.28,0-.5-.22-.5-.5V7c0-.28.22-.5.5-.5s.5.22.5.5v14.5c0,.28-.22.5-.5.5Z"/>
      <path class="cls-1" d="M10,22c-.28,0-.5-.22-.5-.5v-6.5c0-.28.22-.5.5-.5s.5.22.5.5v6.5c0,.28-.22.5-.5.5Z"/>
      <path class="cls-1" d="M14.5,22c-.28,0-.5-.22-.5-.5V6.5c0-.28.22-.5.5-.5s.5.22.5.5v15c0,.28-.22.5-.5.5Z"/>
      <path class="cls-1" d="M19,22c-.28,0-.5-.22-.5-.5v-9.5c0-.28.22-.5.5-.5s.5.22.5.5v9.5c0,.28-.22.5-.5.5Z"/>
      <path class="cls-1" d="M23.5,22c-.28,0-.5-.22-.5-.5V5.5c0-.28.22-.5.5-.5s.5.22.5.5v16c0,.28-.22.5-.5.5Z"/>
    </g>
    <path class="cls-1" d="M10,12.5c-.18,0-.35-.1-.44-.26L4.56,3.25c-.13-.24-.05-.55.19-.68.24-.13.54-.05.68.19l4.48,8.07L14.03.32c.07-.18.24-.31.44-.32.19-.02.38.09.47.26l4.1,7.74,4.04-6.28c.15-.23.46-.3.69-.15.23.15.3.46.15.69l-4.5,7c-.1.15-.24.22-.44.23-.18,0-.34-.11-.42-.27l-3.99-7.54-4.1,10.48c-.07.18-.24.3-.43.32-.01,0-.02,0-.03,0Z"/>
  </g>
</svg>