<?xml version="1.0" encoding="UTF-8"?>
<svg id="icons" xmlns="http://www.w3.org/2000/svg" viewBox="0 0 24 24">
  <defs>
    <style>
      .cls-1 {
        fill: #bb2649;
      }
    </style>
  </defs>
  <path id="icon_chart-spiderweb" class="cls-1" d="M23.8,9.1L12.3.6c-.18-.13-.42-.13-.59,0L.2,9.1c-.17.13-.25.36-.18.56l4.5,13.5c.07.2.26.34.47.34h14c.21,0,.41-.14.47-.34l4.5-13.5c.07-.21,0-.43-.18-.56ZM12.5,5.89l4.94,4.41-4.94,1.07v-5.49ZM11.5,11.38l-4.94-1.07,4.94-4.41v5.49ZM11.5,4.55l-6.15,5.49-3.67-.8L11.5,1.99v2.56ZM11.19,12.34l-3.01,4.73-1.93-5.8,4.94,1.07ZM12,12.93l3.48,5.47-6.58-.6,3.1-4.87ZM8.3,18.75l7.86.72,1.93,3.03H5.91l2.39-3.75ZM12.81,12.34l5.02-1.09-1.55,6.54-3.47-5.45ZM18.64,10.04l-6.15-5.49V1.99l9.82,7.25-3.67.8ZM1.25,10.18l3.86.84,2.38,7.14-2.35,3.69L1.25,10.18ZM18.86,21.85l-1.84-2.88,1.89-7.95,3.84-.83-3.89,11.67Z"/>
</svg>