<?xml version="1.0" encoding="UTF-8"?>
<svg id="icons" xmlns="http://www.w3.org/2000/svg" viewBox="0 0 24 24">
  <defs>
    <style>
      .cls-1 {
        fill: #bb2649;
      }
    </style>
  </defs>
  <path id="icon_filter" class="cls-1" d="M24,2.59C24,.03,12.49,0,12,0S0,.03,0,2.59c0,.22,1.15,2.4,1.15,2.4l7.21,9.27v7.39c-.08.94,1.95,1.62,3.17,1.94.49.13,1.67.41,2.63.41.65,0,1.2-.13,1.39-.5.02-.04.07-9.24.07-9.24l7.26-9.36s1.1-2.1,1.1-2.31ZM12,1c6.71,0,10.6,1,10.99,1.59-.39.59-4.27,1.59-10.99,1.59S1.26,3.14,1,2.62c.26-.58,4.17-1.62,11-1.62ZM14.74,13.78c-.07.09-.11.2-.11.31v8.88c-.39.07-1.41.03-2.85-.35-1.41-.37-2.23-.81-2.43-1.01v-7.53c0-.11-.04-.22-.11-.31L1.99,4.46l-.19-.38c3.26,1.09,9.83,1.11,10.2,1.11s6.96-.02,10.21-1.11l-.15.3-7.32,9.41Z"/>
</svg>