<?xml version="1.0" encoding="UTF-8"?>
<svg id="icons" xmlns="http://www.w3.org/2000/svg" viewBox="0 0 24 24">
  <defs>
    <style>
      .cls-1 {
        fill: #bb2649;
      }
    </style>
  </defs>
  <path id="icon_sunburst" class="cls-1" d="M14.57.03c-.25-.1-.53.02-.64.26l-1.13,2.55-1.18,2.68c-.71-.2-1.43-.33-2.16-.33-4.33,0-7.85,3.47-7.85,7.73,0,1.57.48,3.04,1.3,4.26l-2.24,1.84c-.21.17-.24.48-.08.7,2.15,2.72,5.38,4.28,8.86,4.28,6.18,0,11.2-4.94,11.23-11.02l2.32-.09c.13,0,.26-.06.35-.16.09-.1.14-.23.13-.36-.22-5.5-3.73-10.34-8.93-12.34ZM12.17,6.77c2.49,1.06,4.15,3.47,4.15,6.16,0,1.75-.69,3.34-1.8,4.53l-1.74-1.62c.71-.78,1.15-1.79,1.15-2.92,0-1.81-1.11-3.36-2.69-4.03l.94-2.12ZM11.72,15.48c-.16.13-.32.25-.49.36-.02.01-.05.02-.07.04-.15.09-.3.16-.46.22-.09.03-.18.06-.27.08-.11.03-.21.07-.32.09-.21.04-.43.06-.65.06-1.91,0-3.45-1.52-3.45-3.39s1.55-3.39,3.45-3.39c.18,0,.35.03.52.05.14.02.28.05.43.1,0,0,0,0,0,0,1.44.41,2.5,1.7,2.5,3.25,0,1.02-.47,1.92-1.19,2.55,0,0,0,0,0,0ZM2.62,12.93c0-3.71,3.07-6.73,6.85-6.73.59,0,1.18.08,1.76.23l-.97,2.19c-.26-.05-.52-.08-.79-.08-2.46,0-4.45,1.97-4.45,4.39s2,4.39,4.45,4.39c.26,0,.53-.03.78-.08.11-.02.22-.05.33-.08.13-.03.25-.07.38-.12.14-.05.28-.1.42-.17.06-.03.12-.07.19-.1.16-.08.32-.17.46-.27l1.76,1.63c-.29.24-.6.44-.93.62-.02.01-.04.02-.06.03-.3.17-.62.31-.95.43-.05.02-.11.04-.16.06-.32.11-.65.19-.98.25-.06.01-.12.02-.17.03-.35.05-.7.09-1.06.09-.25,0-.5-.02-.75-.04-.09-.01-.18-.03-.27-.04-.15-.02-.3-.05-.45-.08-.11-.02-.22-.05-.33-.08-.12-.03-.24-.07-.36-.11-.12-.04-.23-.08-.35-.12-.11-.04-.22-.09-.33-.14-.11-.05-.22-.1-.33-.16-.12-.06-.23-.13-.34-.19-.09-.05-.18-.1-.27-.16-.41-.27-.79-.58-1.14-.94-.02-.02-.04-.04-.06-.06-.16-.17-.31-.34-.45-.53-.88-1.13-1.41-2.54-1.41-4.08ZM9.47,23c-3.01,0-5.81-1.28-7.76-3.52l1.83-1.5s.03.03.05.05c.15.17.31.33.48.49.06.06.13.12.2.17.12.11.25.22.38.32.1.08.2.15.3.22.11.07.21.14.32.21.12.08.25.15.37.22.09.05.19.1.29.15.14.07.28.14.43.2.09.04.19.07.29.11.15.06.3.12.45.16.11.03.22.06.33.09.14.04.29.08.43.11.15.03.3.05.45.07.12.02.23.04.35.05.27.03.55.04.82.04.26,0,.52-.01.78-.04.1,0,.2-.03.29-.04.15-.02.31-.04.46-.07.12-.02.23-.05.35-.08.13-.03.26-.06.39-.1.12-.04.24-.08.36-.12.11-.04.23-.08.34-.12.13-.05.25-.11.38-.17.1-.05.2-.09.3-.14.13-.07.26-.15.39-.22.08-.05.16-.09.24-.15.14-.09.28-.19.41-.29.06-.05.13-.09.19-.14.15-.11.28-.24.42-.36.03-.03.07-.06.11-.09,0,0,0,0,0,0,1.5-1.41,2.44-3.39,2.44-5.59,0-3.09-1.88-5.87-4.73-7.09l.94-2.14s.09.03.13.05c.13.06.25.12.38.18.09.05.18.09.28.14.15.08.29.16.44.25.06.04.12.07.18.11.17.11.34.22.5.33.03.02.05.04.08.05,1.18.86,2.17,1.95,2.88,3.2,0,0,0,.01.01.02.1.18.2.37.29.55.02.05.05.1.07.15.07.14.13.28.19.43.04.11.09.22.13.33.03.09.06.18.09.26.06.17.11.35.16.52,0,.03.02.06.02.08.19.7.3,1.42.33,2.16,0,.01,0,.02,0,.03,0,.13.01.25.01.38,0,5.55-4.59,10.07-10.24,10.07ZM20.66,11.99c-.09-.97-.31-1.91-.64-2.8-.03-.07-.05-.14-.08-.21-.14-.37-.31-.73-.49-1.08-.07-.13-.14-.25-.21-.38-.18-.31-.36-.61-.56-.89-.1-.14-.21-.28-.31-.41-.17-.21-.34-.42-.52-.62-.15-.16-.3-.32-.46-.48-.21-.2-.42-.4-.64-.59-.11-.09-.21-.18-.32-.27-.31-.24-.64-.47-.98-.68-.09-.06-.18-.11-.28-.17-.37-.22-.75-.41-1.15-.59-.03-.01-.06-.03-.09-.05l.72-1.64c4.43,1.89,7.44,6.04,7.82,10.77l-1.81.07Z"/>
</svg>