<?xml version="1.0" encoding="UTF-8"?>
<svg id="icons" xmlns="http://www.w3.org/2000/svg" viewBox="0 0 24 24">
  <defs>
    <style>
      .cls-1 {
        fill: #bb2649;
      }
    </style>
  </defs>
  <g id="path_chart-pie">
    <path class="cls-1" d="M10.25,24C4.74,24,.25,19.51.25,14S4.74,4,10.25,4c.28,0,.5.22.5.5v8.9l8.74-1.62c.13-.03.26,0,.37.08s.18.19.21.32c.12.63.17,1.23.17,1.82,0,5.51-4.49,10-10,10Z"/>
    <path class="cls-1" d="M13.91,10.5c-.12,0-.23-.04-.32-.12-.11-.1-.18-.24-.18-.38V.5c0-.28.22-.5.5-.5,4.82,0,8.95,3.44,9.83,8.18.05.27-.13.53-.4.58l-9.33,1.73s-.06,0-.09,0Z"/>
  </g>
</svg>