<?xml version="1.0" encoding="UTF-8"?>
<svg id="icons" xmlns="http://www.w3.org/2000/svg" viewBox="0 0 24 24">
  <defs>
    <style>
      .cls-1 {
        fill: #bb2649;
      }
    </style>
  </defs>
  <g id="path_stacked-columns">
    <g>
      <path class="cls-1" d="M1.25,8c-.69,0-1.25-.59-1.25-1.31V1.31C0,.59.56,0,1.25,0s1.25.59,1.25,1.31v5.38c0,.72-.56,1.31-1.25,1.31ZM1.25,1c-.14,0-.25.14-.25.31v5.38c0,.17.11.31.25.31s.25-.14.25-.31V1.31c0-.17-.11-.31-.25-.31Z"/>
      <path class="cls-1" d="M5.55,5.5c-.69,0-1.25-.56-1.25-1.25V1.25c0-.69.56-1.25,1.25-1.25s1.25.56,1.25,1.25v3c0,.69-.56,1.25-1.25,1.25ZM5.55,1c-.14,0-.25.11-.25.25v3c0,.28.5.28.5,0V1.25c0-.14-.11-.25-.25-.25Z"/>
      <path class="cls-1" d="M9.85,13.5c-.69,0-1.25-.56-1.25-1.25V1.25c0-.69.56-1.25,1.25-1.25s1.25.56,1.25,1.25v11c0,.69-.56,1.25-1.25,1.25ZM9.85,1c-.14,0-.25.11-.25.25v11c0,.28.5.28.5,0V1.25c0-.14-.11-.25-.25-.25Z"/>
      <path class="cls-1" d="M14.15,9.5c-.69,0-1.25-.56-1.25-1.25V1.25c0-.69.56-1.25,1.25-1.25s1.25.56,1.25,1.25v7c0,.69-.56,1.25-1.25,1.25ZM14.15,1c-.14,0-.25.11-.25.25v7c0,.28.5.28.5,0V1.25c0-.14-.11-.25-.25-.25Z"/>
      <path class="cls-1" d="M18.45,7.5c-.69,0-1.25-.56-1.25-1.25V1.25c0-.69.56-1.25,1.25-1.25s1.25.56,1.25,1.25v5c0,.69-.56,1.25-1.25,1.25ZM18.45,1c-.14,0-.25.11-.25.25v5c0,.28.5.28.5,0V1.25c0-.14-.11-.25-.25-.25Z"/>
      <path class="cls-1" d="M22.75,11.5c-.69,0-1.25-.56-1.25-1.25V1.25c0-.69.56-1.25,1.25-1.25s1.25.56,1.25,1.25v9c0,.69-.56,1.25-1.25,1.25ZM22.75,1c-.14,0-.25.11-.25.25v9c0,.28.5.28.5,0V1.25c0-.14-.11-.25-.25-.25Z"/>
    </g>
    <g>
      <path class="cls-1" d="M1.25,24c-.69,0-1.25-.56-1.25-1.25v-13.5c0-.69.56-1.25,1.25-1.25s1.25.56,1.25,1.25v13.5c0,.69-.56,1.25-1.25,1.25ZM1.25,9c-.14,0-.25.11-.25.25v13.5c0,.28.5.28.5,0v-13.5c0-.14-.11-.25-.25-.25Z"/>
      <path class="cls-1" d="M5.55,24c-.69,0-1.25-.56-1.25-1.25V6.75c0-.69.56-1.25,1.25-1.25s1.25.56,1.25,1.25v16c0,.69-.56,1.25-1.25,1.25ZM5.55,6.5c-.14,0-.25.11-.25.25v16c0,.28.5.28.5,0V6.75c0-.14-.11-.25-.25-.25Z"/>
      <path class="cls-1" d="M9.85,24c-.69,0-1.25-.56-1.25-1.25v-8c0-.69.56-1.25,1.25-1.25s1.25.56,1.25,1.25v8c0,.69-.56,1.25-1.25,1.25ZM9.85,14.5c-.14,0-.25.11-.25.25v8c0,.28.5.28.5,0v-8c0-.14-.11-.25-.25-.25Z"/>
      <path class="cls-1" d="M14.15,24c-.69,0-1.25-.56-1.25-1.25v-12c0-.69.56-1.25,1.25-1.25s1.25.56,1.25,1.25v12c0,.69-.56,1.25-1.25,1.25ZM14.15,10.5c-.14,0-.25.11-.25.25v12c0,.28.5.28.5,0v-12c0-.14-.11-.25-.25-.25Z"/>
      <path class="cls-1" d="M18.45,24c-.69,0-1.25-.56-1.25-1.25v-14c0-.69.56-1.25,1.25-1.25s1.25.56,1.25,1.25v14c0,.69-.56,1.25-1.25,1.25ZM18.45,8.5c-.14,0-.25.11-.25.25v14c0,.28.5.28.5,0v-14c0-.14-.11-.25-.25-.25Z"/>
      <path class="cls-1" d="M22.75,24c-.69,0-1.25-.56-1.25-1.25v-10c0-.69.56-1.25,1.25-1.25s1.25.56,1.25,1.25v10c0,.69-.56,1.25-1.25,1.25ZM22.75,12.5c-.14,0-.25.11-.25.25v10c0,.28.5.28.5,0v-10c0-.14-.11-.25-.25-.25Z"/>
    </g>
  </g>
</svg>