<?xml version="1.0" encoding="UTF-8"?>
<svg id="icons" xmlns="http://www.w3.org/2000/svg" viewBox="0 0 24 24">
  <defs>
    <style>
      .cls-1 {
        fill: #bb2649;
      }
    </style>
  </defs>
  <path class="cls-1" d="M18,21c-1.31,0-2.59-.44-3.64-1.23-2.09,1.14-4.79.89-6.63-.6-.82.55-1.76.83-2.74.83-2.76,0-5-2.24-5-5s2.24-5,5-5c.1,0,.2,0,.3.01-.2-.48-.3-.99-.3-1.51,0-2.21,1.79-4,4-4,1,0,1.94.37,2.67,1.03.88-1.54,2.53-2.53,4.33-2.53,2.76,0,5,2.24,5,5,0,.56-.1,1.11-.29,1.65,2.01,1.02,3.29,3.07,3.29,5.35,0,3.31-2.69,6-6,6ZM14.41,18.66c.12,0,.23.04.33.12.91.79,2.07,1.22,3.26,1.22,2.76,0,5-2.24,5-5,0-2.04-1.23-3.86-3.12-4.63-.13-.05-.23-.15-.28-.28-.05-.13-.04-.27.01-.4.26-.55.39-1.12.39-1.69,0-2.21-1.79-4-4-4-1.65,0-3.15,1.04-3.73,2.6-.06.17-.22.29-.4.32-.18.02-.36-.05-.47-.2-.58-.77-1.45-1.22-2.4-1.22-1.65,0-3,1.35-3,3,0,.69.24,1.35.7,1.9.14.17.15.41.03.6-.12.18-.35.27-.56.2-.43-.13-.8-.2-1.17-.2-2.21,0-4,1.79-4,4s1.79,4,4,4c.88,0,1.73-.3,2.46-.87.19-.15.47-.14.65.03,1.62,1.5,4.16,1.75,6.04.58.08-.05.17-.08.26-.08Z"/>
</svg>