<?xml version="1.0" encoding="UTF-8"?>
<svg id="icons" xmlns="http://www.w3.org/2000/svg" viewBox="0 0 24 24">
  <defs>
    <style>
      .cls-1 {
        fill: #bb2649;
      }
    </style>
  </defs>
  <g id="icon_pyramid">
    <path class="cls-1" d="M14,4.98h-4c-.17,0-.33-.09-.43-.24-.09-.15-.1-.33-.02-.49L11.55.25c.17-.34.72-.34.89,0l2,4c.08.16.07.34-.02.49-.09.15-.25.24-.43.24ZM10.81,3.98h2.38l-1.19-2.38-1.19,2.38Z"/>
    <path class="cls-1" d="M20,16.99H4c-.17,0-.33-.09-.43-.24-.09-.15-.1-.33-.02-.49l1.5-3c.08-.17.26-.28.45-.28h13c.19,0,.36.11.45.28l1.5,3c.08.16.07.34-.02.49-.09.15-.25.24-.43.24ZM4.81,15.99h14.38l-1-2H5.81l-1,2Z"/>
    <path class="cls-1" d="M17,10.99H7c-.17,0-.33-.09-.43-.24-.09-.15-.1-.33-.02-.49l1.5-3c.08-.17.26-.28.45-.28h7c.19,0,.36.11.45.28l1.5,3c.08.16.07.34-.02.49-.09.15-.25.24-.43.24ZM7.81,9.99h8.38l-1-2h-6.38l-1,2Z"/>
    <path class="cls-1" d="M23.5,24H.5c-.17,0-.33-.09-.43-.24-.09-.15-.1-.33-.02-.49l2-4c.08-.17.26-.28.45-.28h19c.19,0,.36.11.45.28l2,4c.08.16.07.34-.02.49-.09.15-.25.24-.43.24ZM1.31,23h21.38l-1.5-3H2.81l-1.5,3Z"/>
  </g>
</svg>