<?xml version="1.0" encoding="UTF-8"?>
<svg id="icons" xmlns="http://www.w3.org/2000/svg" viewBox="0 0 24 24">
  <defs>
    <style>
      .cls-1 {
        fill: #bb2649;
      }
    </style>
  </defs>
  <g id="icon_chart-columns">
    <path class="cls-1" d="M.5,24c-.28,0-.5-.22-.5-.5v-15c0-.28.22-.5.5-.5s.5.22.5.5v15c0,.28-.22.5-.5.5Z"/>
    <path class="cls-1" d="M5.1,24c-.28,0-.5-.22-.5-.5V6.5c0-.28.22-.5.5-.5s.5.22.5.5v17c0,.28-.22.5-.5.5Z"/>
    <path class="cls-1" d="M9.7,24c-.28,0-.5-.22-.5-.5v-11c0-.28.22-.5.5-.5s.5.22.5.5v11c0,.28-.22.5-.5.5Z"/>
    <path class="cls-1" d="M14.3,24c-.28,0-.5-.22-.5-.5v-15c0-.28.22-.5.5-.5s.5.22.5.5v15c0,.28-.22.5-.5.5Z"/>
    <path class="cls-1" d="M18.9,24c-.28,0-.5-.22-.5-.5V.5c0-.28.22-.5.5-.5s.5.22.5.5v23c0,.28-.22.5-.5.5Z"/>
    <path class="cls-1" d="M23.5,24c-.28,0-.5-.22-.5-.5v-13c0-.28.22-.5.5-.5s.5.22.5.5v13c0,.28-.22.5-.5.5Z"/>
  </g>
</svg>