<?xml version="1.0" encoding="UTF-8"?>
<svg id="icons" xmlns="http://www.w3.org/2000/svg" viewBox="0 0 24 24">
  <defs>
    <style>
      .cls-1 {
        fill: #bb2649;
      }
    </style>
  </defs>
  <g id="path_chart-bubble">
    <path class="cls-1" d="M5,24c-2.76,0-5-2.24-5-5s2.24-5,5-5,5,2.24,5,5-2.24,5-5,5Z"/>
    <g>
      <path class="cls-1" d="M16,2c-.8,0-1.57.12-2.3.34.18.52.3,1.07.3,1.66,0,2.76-2.24,5-5,5-.31,0-.62-.04-.92-.09-.05.36-.08.72-.08,1.09,0,4.41,3.59,8,8,8s8-3.59,8-8-3.59-8-8-8Z"/>
      <path class="cls-1" d="M9,8c-2.21,0-4-1.79-4-4S6.79,0,9,0s4,1.79,4,4-1.79,4-4,4Z"/>
    </g>
  </g>
</svg>