<?xml version="1.0" encoding="UTF-8"?>
<svg id="icons" xmlns="http://www.w3.org/2000/svg" viewBox="0 0 24 24">
  <defs>
    <style>
      .cls-1 {
        fill: #bb2649;
      }
    </style>
  </defs>
  <path id="icon_chart-polar" class="cls-1" d="M23.99,9.39c-.06-.27-.32-.44-.59-.38l-.65.14s-8.22-3.77-8.22-3.77L12.46.8c-.06-.14-.18-.24-.33-.28-.15-.04-.3,0-.42.08L.2,9.1c-.21.16-.27.44-.13.67l6.29,10.16-1.79,2.81c-.15.23-.08.54.15.69.08.05.18.08.27.08.17,0,.33-.08.42-.23l1.73-2.72,11.73,2.93s.08.01.12.01c.13,0,.25-.05.35-.14.12-.12.18-.29.14-.46l-1.2-5.77,4.43-6.94.89-.19c.27-.06.44-.32.38-.59ZM11.5,11.38l-4.94-1.07,4.94-4.41v5.49ZM11.5,4.55l-6.15,5.49-3.67-.8L11.5,1.99v2.56ZM11.19,12.34l-3.01,4.73-1.93-5.8,4.94,1.07ZM12.81,12.34l3.31-.72,1.11,5.32-.75,1.17-3.67-5.77ZM12.5,4.46v-1.13l.64,1.42-.64-.29ZM1.55,10.24l3.57.78,2.38,7.14-.53.84L1.55,10.24ZM8.3,18.75l7.86.72,1.74,2.74-10.19-2.55.58-.91ZM17.95,20.42l-.88-1.39.45-.7.43,2.09ZM17.99,15.72l-.9-4.32,4.24-.92-3.34,5.24Z"/>
</svg>