<?xml version="1.0" encoding="UTF-8"?>
<svg id="icons" xmlns="http://www.w3.org/2000/svg" viewBox="0 0 24 24">
  <defs>
    <style>
      .cls-1 {
        fill: #bb2649;
      }
    </style>
  </defs>
  <path class="cls-1" d="M5,24c-2.76,0-5-2.24-5-5s2.24-5,5-5,5,2.24,5,5-2.24,5-5,5ZM5,15c-2.21,0-4,1.79-4,4s1.79,4,4,4,4-1.79,4-4-1.79-4-4-4Z"/>
  <path class="cls-1" d="M16,2c-1.15,0-2.24.26-3.24.7-.54-1.57-2.02-2.7-3.76-2.7-2.21,0-4,1.79-4,4,0,1.97,1.43,3.6,3.3,3.93-.18.66-.3,1.35-.3,2.07,0,4.41,3.59,8,8,8s8-3.59,8-8-3.59-8-8-8ZM6,4c0-1.65,1.35-3,3-3s3,1.35,3,3-1.35,3-3,3-3-1.35-3-3ZM16,17c-3.86,0-7-3.14-7-7,0-.71.11-1.39.31-2.03,2.06-.16,3.69-1.87,3.69-3.97,0-.1-.02-.2-.03-.29.92-.44,1.94-.71,3.03-.71,3.86,0,7,3.14,7,7s-3.14,7-7,7Z"/>
</svg>