<?xml version="1.0" encoding="UTF-8"?>
<svg id="icons" xmlns="http://www.w3.org/2000/svg" viewBox="0 0 24 24">
  <defs>
    <style>
      .cls-1 {
        fill: #bb2649;
      }
    </style>
  </defs>
  <g id="path_stacked-columns-absolute">
    <g>
      <path class="cls-1" d="M1.25,7.5c-.69,0-1.25-.56-1.25-1.25V1.25C0,.56.56,0,1.25,0s1.25.56,1.25,1.25v5c0,.69-.56,1.25-1.25,1.25ZM1.25,1c-.14,0-.25.11-.25.25v5c0,.28.5.28.5,0V1.25c0-.14-.11-.25-.25-.25Z"/>
      <path class="cls-1" d="M5.55,5.5c-.69,0-1.25-.56-1.25-1.25v-1c0-.69.56-1.25,1.25-1.25s1.25.56,1.25,1.25v1c0,.69-.56,1.25-1.25,1.25ZM5.55,3c-.14,0-.25.11-.25.25v1c0,.28.5.28.5,0v-1c0-.14-.11-.25-.25-.25Z"/>
      <path class="cls-1" d="M9.85,13.5c-.69,0-1.25-.56-1.25-1.25v-6c0-.69.56-1.25,1.25-1.25s1.25.56,1.25,1.25v6c0,.69-.56,1.25-1.25,1.25ZM9.85,6c-.14,0-.25.11-.25.25v6c0,.28.5.28.5,0v-6c0-.14-.11-.25-.25-.25Z"/>
      <path class="cls-1" d="M14.15,9.5c-.69,0-1.25-.56-1.25-1.25v-4c0-.69.56-1.25,1.25-1.25s1.25.56,1.25,1.25v4c0,.69-.56,1.25-1.25,1.25ZM14.15,4c-.14,0-.25.11-.25.25v4c0,.28.5.28.5,0v-4c0-.14-.11-.25-.25-.25Z"/>
      <path class="cls-1" d="M18.45,7.5c-.69,0-1.25-.56-1.25-1.25V1.25c0-.69.56-1.25,1.25-1.25s1.25.56,1.25,1.25v5c0,.69-.56,1.25-1.25,1.25ZM18.45,1c-.14,0-.25.11-.25.25v5c0,.28.5.28.5,0V1.25c0-.14-.11-.25-.25-.25Z"/>
      <path class="cls-1" d="M22.75,11.5c-.69,0-1.25-.56-1.25-1.25v-6c0-.69.56-1.25,1.25-1.25s1.25.56,1.25,1.25v6c0,.69-.56,1.25-1.25,1.25ZM22.75,4c-.14,0-.25.11-.25.25v6c0,.28.5.28.5,0v-6c0-.14-.11-.25-.25-.25Z"/>
    </g>
    <g>
      <path class="cls-1" d="M1.25,24c-.69,0-1.25-.56-1.25-1.25v-14c0-.69.56-1.25,1.25-1.25s1.25.56,1.25,1.25v14c0,.69-.56,1.25-1.25,1.25ZM1.25,8.5c-.14,0-.25.11-.25.25v14c0,.28.5.28.5,0v-14c0-.14-.11-.25-.25-.25Z"/>
      <path class="cls-1" d="M5.55,24c-.69,0-1.25-.56-1.25-1.25V6.75c0-.69.56-1.25,1.25-1.25s1.25.56,1.25,1.25v16c0,.69-.56,1.25-1.25,1.25ZM5.55,6.5c-.14,0-.25.11-.25.25v16c0,.28.5.28.5,0V6.75c0-.14-.11-.25-.25-.25Z"/>
      <path class="cls-1" d="M9.85,24c-.69,0-1.25-.56-1.25-1.25v-8c0-.69.56-1.25,1.25-1.25s1.25.56,1.25,1.25v8c0,.69-.56,1.25-1.25,1.25ZM9.85,14.5c-.14,0-.25.11-.25.25v8c0,.28.5.28.5,0v-8c0-.14-.11-.25-.25-.25Z"/>
      <path class="cls-1" d="M14.15,24c-.69,0-1.25-.56-1.25-1.25v-12c0-.69.56-1.25,1.25-1.25s1.25.56,1.25,1.25v12c0,.69-.56,1.25-1.25,1.25ZM14.15,10.5c-.14,0-.25.11-.25.25v12c0,.28.5.28.5,0v-12c0-.14-.11-.25-.25-.25Z"/>
      <path class="cls-1" d="M18.45,24c-.69,0-1.25-.56-1.25-1.25v-14c0-.69.56-1.25,1.25-1.25s1.25.56,1.25,1.25v14c0,.69-.56,1.25-1.25,1.25ZM18.45,8.5c-.14,0-.25.11-.25.25v14c0,.28.5.28.5,0v-14c0-.14-.11-.25-.25-.25Z"/>
      <path class="cls-1" d="M22.75,24c-.69,0-1.25-.56-1.25-1.25v-10c0-.69.56-1.25,1.25-1.25s1.25.56,1.25,1.25v10c0,.69-.56,1.25-1.25,1.25ZM22.75,12.5c-.14,0-.25.11-.25.25v10c0,.28.5.28.5,0v-10c0-.14-.11-.25-.25-.25Z"/>
    </g>
  </g>
</svg>