<?xml version="1.0" encoding="UTF-8"?>
<svg id="icons" xmlns="http://www.w3.org/2000/svg" viewBox="0 0 24 24">
  <defs>
    <style>
      .cls-1 {
        fill: #bb2649;
      }
    </style>
  </defs>
  <path id="icon_area" class="cls-1" d="M23.5,24H.5c-.28,0-.5-.22-.5-.5v-11.5c0-.05,0-.11.03-.16l2-6c.07-.21.27-.35.49-.34.22,0,.41.16.47.37l3.16,11.73,2.91-5.82c.07-.14.2-.24.35-.27.15-.03.31.01.42.11l2.88,2.47L16.01.38c.05-.21.23-.36.45-.38.22-.02.42.11.5.31l3.08,7.48,3.01-6.02c.1-.21.33-.32.56-.26.23.05.38.25.38.49v21.5c0,.28-.22.5-.5.5ZM1,23h22V4.12l-2.55,5.11c-.09.18-.24.28-.47.28-.2,0-.37-.13-.44-.31l-2.91-7.07-3.14,13c-.04.17-.17.3-.33.36-.16.06-.35.02-.48-.1l-3.01-2.58-3.21,6.43c-.09.19-.3.29-.5.27-.21-.02-.38-.17-.43-.37L2.45,7.73l-1.45,4.35v10.92Z"/>
</svg>