<?xml version="1.0" encoding="UTF-8"?>
<svg id="export" xmlns="http://www.w3.org/2000/svg" width="24" height="24" viewBox="0 0 24 24">
  <defs>
    <style>
      .cls-1 {
        fill: #bb2649;
      }
    </style>
  </defs>
  <g id="icon-chevron-up-down">
    <path class="cls-1" d="m1.17,13.88l10.5,9c.18.16.44.15.63,0,0,0,.02,0,.02,0l10.5-9c.21-.18.23-.5.05-.7-.1-.12-.24-.17-.38-.17-.12,0-.23.04-.33.12l-10.17,8.73L1.83,13.12c-.09-.08-.21-.12-.33-.12-.14,0-.28.06-.38.17-.18.21-.16.53.05.7Z"/>
    <path class="cls-1" d="m22.83,10.12L12.33,1.12c-.18-.16-.44-.15-.63,0,0,0-.02,0-.02,0L1.17,10.12c-.21.18-.23.5-.05.7.1.12.24.17.38.17.12,0,.23-.04.33-.12L12,2.15l10.17,8.73c.09.08.21.12.33.12.14,0,.28-.06.38-.17.18-.21.16-.53-.05-.7Z"/>
  </g>
</svg>