<?xml version="1.0" encoding="UTF-8"?>
<svg id="export" xmlns="http://www.w3.org/2000/svg" width="24" height="24" viewBox="0 0 24 24">
  <defs>
    <style>
      .cls-1 {
        fill: #bb2649;
      }
    </style>
  </defs>
  <path id="chevron_left" class="cls-1" d="m7.19,12L17.86.85c.19-.2.18-.52-.02-.71s-.52-.18-.71.01L6.14,11.65s-.03.05-.05.07c-.02.03-.04.05-.05.08,0,.03-.02.06-.02.09,0,.03-.01.07-.02.1,0,.03,0,.07.02.1,0,.03.01.06.02.09.01.03.03.06.05.08.01.03.03.05.05.07l11,11.5c.19.2.51.21.71.01s.21-.51.02-.71L7.19,12Z"/>
</svg>