<?xml version="1.0" encoding="UTF-8"?>
<svg id="export" xmlns="http://www.w3.org/2000/svg" width="24" height="24" viewBox="0 0 24 24">
  <defs>
    <style>
      .cls-1 {
        fill: #bb2649;
        stroke-width: 0px;
      }
    </style>
  </defs>
  <path id="chevron_right" class="cls-1" d="m16.81,12l-10.66,11.14c-.2.19-.2.51,0,.71.19.2.51.2.71,0,0,0,.02-.02.02-.03l10.99-11.49s.03-.05.05-.07c.02-.03.04-.05.05-.08,0-.03.02-.06.02-.09,0-.03.01-.07.02-.1,0-.03,0-.06-.02-.09,0-.03-.01-.06-.02-.09-.02-.03-.03-.06-.05-.08-.01-.03-.03-.05-.05-.07L6.87.17c-.18-.21-.5-.22-.71-.04-.21.18-.22.5-.04.71,0,0,.02.02.02.03l10.66,11.14Z"/>
</svg>