<?xml version="1.0" encoding="UTF-8"?>
<svg id="export" xmlns="http://www.w3.org/2000/svg" width="24" height="24" viewBox="0 0 24 24">
  <defs>
    <style>
      .cls-1 {
        fill: #bb2649;
      }
    </style>
  </defs>
  <path id="chevron_down" class="cls-1" d="m12,16.81L.85,6.14c-.2-.19-.52-.18-.71.02-.19.2-.18.52.02.71l11.5,11s.05.03.07.05c.03.02.05.04.08.05.03,0,.06.02.09.02.03,0,.06.02.09.02.03,0,.07,0,.1-.02.03,0,.06-.01.09-.02.03-.02.06-.03.08-.05.03-.01.05-.03.07-.05l11.5-11c.2-.19.21-.51.02-.71-.19-.2-.51-.21-.71-.02l-11.16,10.67Z"/>
</svg>