<?xml version="1.0" encoding="UTF-8"?>
<svg id="export" xmlns="http://www.w3.org/2000/svg" width="24" height="24" viewBox="0 0 24 24">
  <defs>
    <style>
      .cls-1 {
        fill: #bb2649;
        stroke-width: 0px;
      }
    </style>
  </defs>
  <path id="icon_clock_inv" class="cls-1" d="m23.5,12.5h-1c-.28,0-.5-.22-.5-.5s.22-.5.5-.5h1c.28,0,.5.22.5.5C24,5.38,18.62,0,12,0c.28,0,.5.22.5.5v1c0,.28-.22.5-.5.5s-.5-.22-.5-.5V.5c0-.28.22-.5.5-.5C5.38,0,0,5.38,0,12c0-.28.22-.5.5-.5h1c.28,0,.5.22.5.5s-.22.5-.5.5H.5c-.28,0-.5-.22-.5-.5,0,6.62,5.38,12,12,12-.28,0-.5-.22-.5-.5v-1c0-.28.22-.5.5-.5s.5.22.5.5v1c0,.28-.22.5-.5.5,6.62,0,12-5.38,12-12,0,.28-.22.5-.5.5Zm-7.05,1.72c-.09.17-.26.28-.45.28-.08,0-.15-.02-.22-.05l-4-2c-.13-.07-.22-.19-.25-.32,0,0,0,0,0,0l-2-8c-.07-.27.1-.54.36-.61.26-.07.54.1.61.36l1.94,7.78,3.79,1.9c.25.12.35.42.22.67Z"/>
</svg>