<?xml version="1.0" encoding="UTF-8"?>
<svg id="export" xmlns="http://www.w3.org/2000/svg" width="24" height="24" viewBox="0 0 24 24">
  <defs>
    <style>
      .cls-1 {
        fill: #bb2649;
        stroke-width: 0px;
      }
    </style>
  </defs>
  <g id="path_clock">
    <path class="cls-1" d="m12,24C5.38,24,0,18.62,0,12S5.38,0,12,0s12,5.38,12,12-5.38,12-12,12Zm0-23C5.93,1,1,5.93,1,12s4.93,11,11,11,11-4.93,11-11S18.07,1,12,1Z"/>
    <path class="cls-1" d="m16.22,13.55l-3.79-1.9-1.94-7.78c-.07-.27-.34-.43-.61-.36-.27.07-.43.34-.36.61l2,8c.03.14.13.23.24.29,0,0,.01.03.02.03l4,2c.07.04.15.05.22.05.18,0,.36-.1.45-.28.12-.25.02-.55-.22-.67Z"/>
    <path class="cls-1" d="m12,3c-.28,0-.5-.22-.5-.5v-1c0-.28.22-.5.5-.5s.5.22.5.5v1c0,.28-.22.5-.5.5Z"/>
    <path class="cls-1" d="m12,23c-.28,0-.5-.22-.5-.5v-1c0-.28.22-.5.5-.5s.5.22.5.5v1c0,.28-.22.5-.5.5Z"/>
    <path class="cls-1" d="m2.5,12.5h-1c-.28,0-.5-.22-.5-.5s.22-.5.5-.5h1c.28,0,.5.22.5.5s-.22.5-.5.5Z"/>
    <path class="cls-1" d="m22.5,12.5h-1c-.28,0-.5-.22-.5-.5s.22-.5.5-.5h1c.28,0,.5.22.5.5s-.22.5-.5.5Z"/>
  </g>
</svg>