<?xml version="1.0" encoding="UTF-8"?>
<svg id="export" xmlns="http://www.w3.org/2000/svg" width="24" height="24" viewBox="0 0 24 24">
  <defs>
    <style>
      .cls-1 {
        fill: #bb2649;
      }
    </style>
  </defs>
  <path id="icon-close" class="cls-1" d="m12.71,12L23.85.85c.2-.2.2-.51,0-.71s-.51-.2-.71,0l-11.15,11.15L.85.15C.66-.05.34-.05.15.15S-.05.66.15.85l11.15,11.15L.15,23.15c-.2.2-.2.51,0,.71.1.1.23.15.35.15s.26-.05.35-.15l11.15-11.15,11.15,11.15c.1.1.23.15.35.15s.26-.05.35-.15c.2-.2.2-.51,0-.71l-11.15-11.15Z"/>
</svg>