<svg xmlns="http://www.w3.org/2000/svg" width="20" height="16" viewBox="0 0 20 16"><defs><style>.a{fill:#4e6080;}</style></defs><path class="a" d="M478.5,96a.5.5,0,0,1-.37-.164l-5-5.5a.5.5,0,0,1,0-.672l5-5.5a.5.5,0,1,1,.74.673L474.176,90l4.694,5.163a.5.5,0,0,1-.37.837Z" transform="translate(-473 -82)"/><path class="a" d="M480,98a.488.488,0,0,1-.186-.036.5.5,0,0,1-.278-.65l6-15a.5.5,0,1,1,.928.371l-6,15A.5.5,0,0,1,480,98Z" transform="translate(-473 -82)"/><path class="a" d="M487.5,96a.5.5,0,0,1-.37-.837L491.824,90l-4.694-5.163a.5.5,0,1,1,.74-.673l5,5.5a.5.5,0,0,1,0,.672l-5,5.5A.5.5,0,0,1,487.5,96Z" transform="translate(-473 -82)"/></svg>