<?xml version="1.0" encoding="UTF-8"?>
<svg id="export" xmlns="http://www.w3.org/2000/svg" width="24" height="24" viewBox="0 0 24 24">
  <defs>
    <style>
      .cls-1 {
        fill: #bb2649;
      }
    </style>
  </defs>
  <g id="compress">
    <path class="cls-1" d="m6.77,7.27H.5c-.28,0-.5-.22-.5-.5s.22-.5.5-.5h5.77V.5c0-.28.22-.5.5-.5s.5.22.5.5v6.27c0,.28-.22.5-.5.5Z"/>
    <path class="cls-1" d="m6.77,24c-.28,0-.5-.22-.5-.5v-5.77H.5c-.28,0-.5-.22-.5-.5s.22-.5.5-.5h6.27c.28,0,.5.22.5.5v6.27c0,.28-.22.5-.5.5Z"/>
    <path class="cls-1" d="m17.23,24c-.28,0-.5-.22-.5-.5v-6.27c0-.28.22-.5.5-.5h6.27c.28,0,.5.22.5.5s-.22.5-.5.5h-5.77v5.77c0,.28-.22.5-.5.5Z"/>
    <path class="cls-1" d="m23.5,7.27h-6.27c-.28,0-.5-.22-.5-.5V.5c0-.28.22-.5.5-.5s.5.22.5.5v5.77h5.77c.28,0,.5.22.5.5s-.22.5-.5.5Z"/>
  </g>
</svg>