<?xml version="1.0" encoding="UTF-8"?>
<svg id="export" xmlns="http://www.w3.org/2000/svg" viewBox="0 0 24 24">
  <defs>
    <style>
      .cls-1 {
        fill: #bb2649;
      }
    </style>
  </defs>
  <g id="path_connection">
    <path class="cls-1" d="M16,1c-.28,0-.5.22-.5.5v.52c-6.23.22-11.24,4.4-11.48,9.6-.19-.07-.4-.12-.52-.12H.5c-.28,0-.5.22-.5.5s.22.5.5.5h3c.12,0,.33-.04.52-.12.24,5.2,5.25,9.38,11.48,9.6v.52c0,.28.22.5.5.5s.5-.22.5-.5V1.5c0-.28-.22-.5-.5-.5ZM5,12c0-4.82,4.67-8.76,10.5-8.98v17.96c-5.83-.22-10.5-4.15-10.5-8.98Z"/>
    <path class="cls-1" d="M23.5,8h-4c-.28,0-.5-.22-.5-.5s.22-.5.5-.5h4c.28,0,.5.22.5.5s-.22.5-.5.5Z"/>
    <path class="cls-1" d="M23.5,17h-4c-.28,0-.5-.22-.5-.5s.22-.5.5-.5h4c.28,0,.5.22.5.5s-.22.5-.5.5Z"/>
  </g>
</svg>