<?xml version="1.0" encoding="UTF-8"?>
<svg id="export" xmlns="http://www.w3.org/2000/svg" viewBox="0 0 24 24">
  <defs>
    <style>
      .cls-1 {
        fill: #bb2649;
      }
    </style>
  </defs>
  <path id="path_connection_inv" class="cls-1" d="M23.54,16h-7.04v-8h7.04c.25,0,.46-.22.46-.5s-.21-.5-.46-.5h-7.04V1.5c0-.28-.22-.5-.5-.5s-.5.22-.5.5v1c-6.23.22-11.24,3.92-11.48,9.12-.19-.07-.4-.12-.52-.12H.5c-.28,0-.5.22-.5.5s.22.5.5.5h3c.12,0,.33-.04.52-.12.24,5.2,5.25,8.9,11.48,9.12v1c0,.28.22.5.5.5s.5-.22.5-.5v-5.5h7.04c.25,0,.46-.22.46-.5s-.21-.5-.46-.5Z"/>
</svg>