<?xml version="1.0" encoding="UTF-8"?>
<svg id="export" xmlns="http://www.w3.org/2000/svg" viewBox="0 0 24 24">
  <defs>
    <style>
      .cls-1 {
        fill: #bb2649;
      }
    </style>
  </defs>
  <path id="icon_contents_inv" class="cls-1" d="M23.5,1H.5c-.28,0-.5.22-.5.5v21c0,.28.22.5.5.5h23c.28,0,.5-.22.5-.5V1.5c0-.28-.22-.5-.5-.5ZM18,19H4c-.28,0-.5-.22-.5-.5s.22-.5.5-.5h14c.28,0,.5.22.5.5s-.22.5-.5.5ZM4,10h9c.28,0,.5.22.5.5v6c0,.28-.22.5-.5.5H4c-.28,0-.5-.22-.5-.5v-6c0-.28.22-.5.5-.5ZM3.5,7.5c0-.28.22-.5.5-.5h12c.28,0,.5.22.5.5s-.22.5-.5.5H4c-.28,0-.5-.22-.5-.5ZM18,17h-3c-.28,0-.5-.22-.5-.5s.22-.5.5-.5h3c.28,0,.5.22.5.5s-.22.5-.5.5ZM20,15h-5c-.28,0-.5-.22-.5-.5s.22-.5.5-.5h5c.28,0,.5.22.5.5s-.22.5-.5.5ZM14.5,12.5c0-.28.22-.5.5-.5h4c.28,0,.5.22.5.5s-.22.5-.5.5h-4c-.28,0-.5-.22-.5-.5ZM20,11h-5c-.28,0-.5-.22-.5-.5s.22-.5.5-.5h5c.28,0,.5.22.5.5s-.22.5-.5.5ZM23,3.5c0,.28-.22.5-.5.5H1.5c-.28,0-.5-.22-.5-.5v-1c0-.28.22-.5.5-.5h21c.28,0,.5.22.5.5v1Z"/>
</svg>