<?xml version="1.0" encoding="UTF-8"?>
<svg id="export" xmlns="http://www.w3.org/2000/svg" viewBox="0 0 24 24">
  <defs>
    <style>
      .cls-1 {
        fill: #bb2649;
      }
    </style>
  </defs>
  <g id="icon_contents">
    <path class="cls-1" d="M23.5,1H.5c-.28,0-.5.22-.5.5v21c0,.28.22.5.5.5h23c.28,0,.5-.22.5-.5V1.5c0-.28-.22-.5-.5-.5ZM1,2h22v2H1v-2ZM1,22V5h22v17H1Z"/>
    <path class="cls-1" d="M18,19H4c-.28,0-.5-.22-.5-.5s.22-.5.5-.5h14c.28,0,.5.22.5.5s-.22.5-.5.5Z"/>
    <path class="cls-1" d="M18,17h-3c-.28,0-.5-.22-.5-.5s.22-.5.5-.5h3c.28,0,.5.22.5.5s-.22.5-.5.5Z"/>
    <path class="cls-1" d="M20,15h-5c-.28,0-.5-.22-.5-.5s.22-.5.5-.5h5c.28,0,.5.22.5.5s-.22.5-.5.5Z"/>
    <path class="cls-1" d="M19,13h-4c-.28,0-.5-.22-.5-.5s.22-.5.5-.5h4c.28,0,.5.22.5.5s-.22.5-.5.5Z"/>
    <path class="cls-1" d="M20,11h-5c-.28,0-.5-.22-.5-.5s.22-.5.5-.5h5c.28,0,.5.22.5.5s-.22.5-.5.5Z"/>
    <rect class="cls-1" x="3.5" y="10" width="10" height="7" rx=".5" ry=".5"/>
    <path class="cls-1" d="M16,8H4c-.28,0-.5-.22-.5-.5s.22-.5.5-.5h12c.28,0,.5.22.5.5s-.22.5-.5.5Z"/>
  </g>
</svg>