<?xml version="1.0" encoding="UTF-8"?>
<svg id="export" xmlns="http://www.w3.org/2000/svg" viewBox="0 0 24 24">
  <defs>
    <style>
      .cls-1 {
        fill: #bb2649;
      }
    </style>
  </defs>
  <g id="icon_containers">
    <path class="cls-1" d="M23.5,24h-15c-.28,0-.5-.22-.5-.5v-3.5c0-.28.22-.5.5-.5h13v-5c0-.28.22-.5.5-.5h1.5c.28,0,.5.22.5.5v9c0,.28-.22.5-.5.5ZM9,23h14v-8h-.5v5c0,.28-.22.5-.5.5h-13v2.5Z"/>
    <path class="cls-1" d="M19.5,17H4.5c-.28,0-.5-.22-.5-.5v-3.5c0-.28.22-.5.5-.5h13v-5c0-.28.22-.5.5-.5h1.5c.28,0,.5.22.5.5v9c0,.28-.22.5-.5.5ZM5,16h14v-8h-.5v5c0,.28-.22.5-.5.5H5v2.5Z"/>
    <path class="cls-1" d="M15.5,10H.5c-.28,0-.5-.22-.5-.5V.5C0,.22.22,0,.5,0h15c.28,0,.5.22.5.5v9c0,.28-.22.5-.5.5ZM1,9h14V1H1v8Z"/>
  </g>
</svg>