<?xml version="1.0" encoding="UTF-8"?>
<svg id="export" xmlns="http://www.w3.org/2000/svg" width="24" height="24" viewBox="0 0 24 24">
  <defs>
    <style>
      .cls-1 {
        fill: #bb2649;
      }
    </style>
  </defs>
  <g id="icon_copy">
    <path class="cls-1" d="m13.5,24H.5c-.28,0-.5-.22-.5-.5V6.5c0-.28.22-.5.5-.5h7c.28,0,.5.22.5.5s-.22.5-.5.5H1v16h12v-2.5c0-.28.22-.5.5-.5s.5.22.5.5v3c0,.28-.22.5-.5.5Z"/>
    <path class="cls-1" d="m23.99,5.44s0-.04-.01-.06c-.02-.09-.06-.17-.12-.23L18.85.15c-.06-.06-.14-.1-.23-.12-.02,0-.04,0-.06-.01-.02,0-.04-.01-.06-.01h-8c-.28,0-.5.22-.5.5v17c0,.28.22.5.5.5h13c.28,0,.5-.22.5-.5V5.5s-.01-.04-.01-.06Zm-4.99-3.73l3.29,3.29h-3.29V1.71Zm-8,15.29V1h7v4.5c0,.28.22.5.5.5h4.5v11h-12Z"/>
  </g>
</svg>