<?xml version="1.0" encoding="UTF-8"?>
<svg id="icons" xmlns="http://www.w3.org/2000/svg" viewBox="0 0 24 24">
  <defs>
    <style>
      .cls-1 {
        fill: #bb2649;
      }
    </style>
  </defs>
  <g id="icon_create-new">
    <path class="cls-1" d="M21.5,23H.5c-.28,0-.5-.22-.5-.5V1.5c0-.28.22-.5.5-.5h21c.28,0,.5.22.5.5v7.5c0,.28-.22.5-.5.5s-.5-.22-.5-.5V2H1v20h20v-7c0-.28.22-.5.5-.5s.5.22.5.5v7.5c0,.28-.22.5-.5.5Z"/>
    <path class="cls-1" d="M23.5,11.5h-7v-7c0-.28-.22-.5-.5-.5s-.5.22-.5.5v7h-7c-.28,0-.5.22-.5.5s.22.5.5.5h7v7c0,.28.22.5.5.5s.5-.22.5-.5v-7h7c.28,0,.5-.22.5-.5s-.22-.5-.5-.5Z"/>
  </g>
</svg>