<?xml version="1.0" encoding="UTF-8"?>
<svg id="icons" xmlns="http://www.w3.org/2000/svg" viewBox="0 0 24 24">
  <defs>
    <style>
      .cls-1 {
        fill: #bb2649;
      }
    </style>
  </defs>
  <path class="cls-1" d="M23.5,11.5h-7v-7c0-.28-.22-.5-.5-.5s-.5.22-.5.5v7h-7c-.28,0-.5.22-.5.5s.22.5.5.5h7v7c0,.28.22.5.5.5s.5-.22.5-.5v-7h7c.28,0,.5-.22.5-.5s-.22-.5-.5-.5Z"/>
  <g id="icon_create-new_inv">
    <path class="cls-1" d="M18,19.5c0,1.1-.9,2-2,2s-2-.9-2-2v-5.5h-5.5c-1.1,0-2-.9-2-2s.9-2,2-2h5.5v-5.5c0-1.1.9-2,2-2s2,.9,2,2v5.5h4V1.5c0-.28-.22-.5-.5-.5H.5c-.28,0-.5.22-.5.5v21c0,.28.22.5.5.5h21c.28,0,.5-.22.5-.5v-8.5h-4v5.5Z"/>
  </g>
</svg>