<?xml version="1.0" encoding="utf-8"?>
<!-- Generator: Adobe Illustrator 27.3.1, SVG Export Plug-In . SVG Version: 6.00 Build 0)  -->
<svg version="1.1" id="export" xmlns="http://www.w3.org/2000/svg" xmlns:xlink="http://www.w3.org/1999/xlink" x="0px" y="0px"
	 viewBox="0 0 24 24" style="enable-background:new 0 0 24 24;" xml:space="preserve">
<style type="text/css">
	.st0{fill:#888888;}
</style>
<g id="create-copy-from-version">
	<path class="st0" d="M12,0C7.3,0,3.3,2.7,1.3,6.5L1.1,1.9c0-0.3-0.3-0.5-0.5-0.5C0.3,1.5,0.1,1.7,0.1,2l0.3,6.7
		c0,0.2,0.2,0.4,0.5,0.5c0,0,0,0,0,0l6.8,0.3h0c0.3,0,0.5-0.2,0.5-0.5c0-0.3-0.2-0.5-0.5-0.5l-6-0.3v0C3.2,4,7.3,1,12,1
		c6.1,0,11,4.9,11,11c0,0.6-0.1,1.2-0.2,1.9c0,0.3,0.1,0.5,0.4,0.6c0.3,0.1,0.5-0.1,0.6-0.4c0.1-0.7,0.2-1.4,0.2-2.1
		C24,5.4,18.6,0,12,0z"/>
	<path class="st0" d="M18,22.3c-0.2,0-0.3-0.1-0.4-0.2c-0.1-0.2-0.1-0.5,0.2-0.7c1.5-0.9,2.7-2.2,3.6-3.6c0.1-0.2,0.5-0.3,0.7-0.2
		c0.2,0.1,0.3,0.5,0.2,0.7c-1,1.6-2.4,3-4,4C18.2,22.3,18.1,22.3,18,22.3L18,22.3z"/>
	<path class="st0" d="M13.9,22.8C13.2,22.9,12.6,23,12,23C5.9,23,1,18.1,1,12c0-0.3,0-0.5,0-0.8l0,0c0-0.1,0-0.1,0-0.2l0,0
		c0,0,0,0,0,0c-0.1-0.2-0.2-0.3-0.4-0.3c-0.3,0-0.5,0.2-0.5,0.5l0,0c0,0,0,0,0,0c0,0.3,0,0.6,0,0.8c0,6.6,5.4,12,12,12
		c0.7,0,1.4-0.1,2.1-0.2c0.3,0,0.4-0.3,0.4-0.6S14.2,22.8,13.9,22.8L13.9,22.8z"/>
	<path class="st0" d="M23.5,15.5h-7v-7C16.5,8.2,16.3,8,16,8s-0.5,0.2-0.5,0.5v7h-7C8.2,15.5,8,15.7,8,16c0,0.3,0.2,0.5,0.5,0.5h7v7
		c0,0.3,0.2,0.5,0.5,0.5c0.3,0,0.5-0.2,0.5-0.5v-7h7c0.3,0,0.5-0.2,0.5-0.5S23.8,15.5,23.5,15.5z"/>
</g>
</svg>
