<?xml version="1.0" encoding="UTF-8"?>
<svg id="export" xmlns="http://www.w3.org/2000/svg" width="24" height="24" viewBox="0 0 24 24">
  <defs>
    <style>
      .cls-1 {
        fill: #bb2649;
      }
    </style>
  </defs>
  <g id="create-copy-from-version">
    <path class="cls-1" d="m11.95,0C7.23,0,3.21,2.7,1.21,6.5l-.2-4.6c0-.3-.3-.5-.5-.5-.3.1-.5.3-.5.6l.3,6.7c0,.2.2.4.5.5h0l6.83.3h0c.3,0,.5-.2.5-.5s-.2-.5-.5-.5l-6.03-.3h0C3.11,4,7.23,1,11.95,1c6.13,0,11.05,4.9,11.05,11,0,.6-.1,1.2-.2,1.9,0,.3.1.5.4.6s.5-.1.6-.4c.1-.7.2-1.4.2-2.1C24,5.4,18.58,0,11.95,0Z"/>
    <path class="cls-1" d="m17.97,22.3c-.2,0-.3-.1-.4-.2-.1-.2-.1-.5.2-.7,1.51-.9,2.71-2.2,3.62-3.6.1-.2.5-.3.7-.2.2.1.3.5.2.7-1,1.6-2.41,3-4.02,4-.1,0-.2,0-.3,0h0Z"/>
    <path class="cls-1" d="m13.86,22.8c-.7.1-1.31.2-1.91.2C5.82,23,.9,18.1.9,12v-.8h0v-.2h0c-.1-.2-.2-.3-.4-.3C.2,10.7,0,10.9,0,11.2H0v.8C0,18.6,5.42,24,12.05,24c.7,0,1.41-.1,2.11-.2.3,0,.4-.3.4-.6s-.4-.4-.7-.4h0Z"/>
    <path class="cls-1" d="m23.5,15.5h-7.03v-7c0-.3-.2-.5-.5-.5s-.5.2-.5.5v7h-7.03c-.3,0-.5.2-.5.5s.2.5.5.5h7.03v7c0,.3.2.5.5.5s.5-.2.5-.5v-7h7.03c.3,0,.5-.2.5-.5s-.2-.5-.5-.5Z"/>
  </g>
</svg>