<?xml version="1.0" encoding="UTF-8"?>
<svg id="export" xmlns="http://www.w3.org/2000/svg" width="24" height="24" viewBox="0 0 24 24">
  <defs>
    <style>
      .cls-1 {
        fill: #bb2649;
        stroke-width: 0px;
      }
    </style>
  </defs>
  <g id="icon_create-copy-from-version">
    <path class="cls-1" d="m12,24C5.38,24,0,18.62,0,12S5.38,0,12,0s11.7,5.04,11.98,11.48c.01.28-.2.51-.48.52-.32,0-.51-.2-.52-.48-.25-5.9-5.07-10.53-10.98-10.53S1,5.93,1,12s4.93,11,11,11c1.23,0,2.46-.21,3.66-.64.26-.09.55.04.64.31.09.26-.04.55-.31.64-1.3.46-2.65.69-3.99.69Z"/>
    <g id="icon_sorting">
      <path class="cls-1" d="m15.5,18.5h-7c-.28,0-.5.22-.5.5s.22.5.5.5h7c.28,0,.5-.22.5-.5s-.22-.5-.5-.5Z"/>
      <path class="cls-1" d="m23.87,15.66l-4.99-5.49c-.19-.21-.5-.22-.71-.03-.21.19-.22.5-.03.71l4.24,4.66h-13.88c-.28,0-.5.22-.5.5s.22.5.5.5h13.87l-4.24,4.66c-.19.21-.17.52.03.71.1.09.22.13.34.13.14,0,.27-.05.37-.16l5-5.5c.17-.19.17-.48,0-.67Z"/>
      <path class="cls-1" d="m15.5,12.5h-7c-.28,0-.5.22-.5.5s.22.5.5.5h7c.28,0,.5-.22.5-.5s-.22-.5-.5-.5Z"/>
    </g>
  </g>
</svg>