<?xml version="1.0" encoding="UTF-8"?>
<svg id="export" xmlns="http://www.w3.org/2000/svg" viewBox="0 0 24 24">
  <defs>
    <style>
      .cls-1 {
        fill: #bb2649;
      }
    </style>
  </defs>
  <g id="icon_custom-date-range">
    <path class="cls-1" d="M19,3c-.28,0-.5-.22-.5-.5V.5c0-.28.22-.5.5-.5s.5.22.5.5v2c0,.28-.22.5-.5.5Z"/>
    <path class="cls-1" d="M5,3c-.28,0-.5-.22-.5-.5V.5c0-.28.22-.5.5-.5s.5.22.5.5v2c0,.28-.22.5-.5.5Z"/>
    <path class="cls-1" d="M23.5,24H.5c-.28,0-.5-.22-.5-.5V2.5c0-.28.22-.5.5-.5h2.5c.28,0,.5.22.5.5s-.22.5-.5.5H1v20h22V3h-2c-.28,0-.5-.22-.5-.5s.22-.5.5-.5h2.5c.28,0,.5.22.5.5v21c0,.28-.22.5-.5.5Z"/>
    <path class="cls-1" d="M17,2.92H7c-.28,0-.5-.22-.5-.5s.22-.5.5-.5h10c.28,0,.5.22.5.5s-.22.5-.5.5Z"/>
    <path class="cls-1" d="M20.5,7.5H3.5c-.28,0-.5-.22-.5-.5s.22-.5.5-.5h17c.28,0,.5.22.5.5s-.22.5-.5.5Z"/>
    <path class="cls-1" d="M6.5,14h-3c-.28,0-.5-.22-.5-.5v-3c0-.28.22-.5.5-.5h3c.28,0,.5.22.5.5v3c0,.28-.22.5-.5.5ZM4,13h2v-2h-2v2Z"/>
    <path class="cls-1" d="M13.5,14h-3c-.28,0-.5-.22-.5-.5v-3c0-.28.22-.5.5-.5h3c.28,0,.5.22.5.5v3c0,.28-.22.5-.5.5ZM11,13h2v-2h-2v2Z"/>
    <path class="cls-1" d="M21.5,13.5v-3c0-.55-.45-1-1-1h-3c-.55,0-1,.45-1,1v3c0,.55.45,1,1,1v1c-.55,0-1,.45-1,1h-2c0-.55-.45-1-1-1h-3c-.55,0-1,.45-1,1h-2c0-.55-.45-1-1-1h-3c-.55,0-1,.45-1,1v3c0,.55.45,1,1,1h3c.55,0,1-.45,1-1h2c0,.55.45,1,1,1h3c.55,0,1-.45,1-1h2c0,.55.45,1,1,1h3c.55,0,1-.45,1-1v-3c0-.55-.45-1-1-1v-1c.55,0,1-.45,1-1ZM20,16.5c.28,0,.5.22.5.5v2c0,.28-.22.5-.5.5h-2c-.28,0-.5-.22-.5-.5v-.5h-4v.5c0,.28-.22.5-.5.5h-2c-.28,0-.5-.22-.5-.5v-.5h-4v.5c0,.28-.22.5-.5.5h-2c-.28,0-.5-.22-.5-.5v-2c0-.28.22-.5.5-.5h2c.28,0,.5.22.5.5v.5h4v-.5c0-.28.22-.5.5-.5h2c.28,0,.5.22.5.5v.5h4v-.5c0-.28.22-.5.5-.5h.5v-3h-.5c-.28,0-.5-.22-.5-.5v-2c0-.28.22-.5.5-.5h2c.28,0,.5.22.5.5v2c0,.28-.22.5-.5.5h-.5v3h.5Z"/>
  </g>
</svg>