<?xml version="1.0" encoding="UTF-8"?>
<svg id="export" xmlns="http://www.w3.org/2000/svg" width="24" height="24" viewBox="0 0 24 24">
  <defs>
    <style>
      .cls-1 {
        fill: #888;
      }
    </style>
  </defs>
  <g id="icon_custom-date-range-inv">
    <path class="cls-1" d="m19.5,12.75v-1c0-.55-.45-1-1-1h-1c-.55,0-1,.45-1,1v1c0,.37.21.67.5.85v3.06c-.14.09-.26.2-.35.35h-3.31c-.17-.29-.48-.5-.85-.5h-1c-.37,0-.67.21-.85.5h-3.31c-.17-.29-.48-.5-.85-.5h-1c-.55,0-1,.45-1,1v1c0,.55.45,1,1,1h1c.37,0,.67-.21.85-.5h3.31c.17.29.48.5.85.5h1c.37,0,.67-.21.85-.5h3.31c.17.29.48.5.85.5h1c.55,0,1-.45,1-1v-1c0-.37-.21-.67-.5-.85v-3.06c.29-.17.5-.48.5-.85Z"/>
    <path class="cls-1" d="m23,2h-3v-1c0-.55-.45-1-1-1s-1,.45-1,1v1H6v-1c0-.55-.45-1-1-1s-1,.45-1,1v1H1c-.55,0-1,.45-1,1v20c0,.55.45,1,1,1h22c.55,0,1-.45,1-1V3c0-.55-.45-1-1-1Zm-2,15v2c0,1.1-.9,2-2,2H5c-1.1,0-2-.9-2-2v-2c0-.55.22-1.05.59-1.41.57-.57,1.28-.59,1.41-.59h9c.55,0,1-.45,1-1v-2.95c0-1.1.9-2,2-2h2c1.1,0,2,.9,2,2v5.95ZM4,13v-2c0-.55.45-1,1-1h2c.55,0,1,.45,1,1v2c0,.55-.45,1-1,1h-2c-.55,0-1-.45-1-1Zm6,0v-2c0-.55.45-1,1-1h2c.55,0,1,.45,1,1v2c0,.55-.45,1-1,1h-2c-.55,0-1-.45-1-1Zm12-7H2v-2h20v2Z"/>
  </g>
</svg>