<?xml version="1.0" encoding="UTF-8"?>
<svg id="export" xmlns="http://www.w3.org/2000/svg" viewBox="0 0 24 24">
  <defs>
    <style>
      .cls-1 {
        fill: #bb2649;
      }
    </style>
  </defs>
  <g id="icon_custom-figures">
    <path class="cls-1" d="M10.5,11H.5c-.28,0-.5-.22-.5-.5V.5C0,.22.22,0,.5,0h10c.28,0,.5.22.5.5v10c0,.28-.22.5-.5.5ZM1,10h9V1H1v9Z"/>
    <path class="cls-1" d="M23.5,24h-10c-.28,0-.5-.22-.5-.5V.5c0-.28.22-.5.5-.5h10c.28,0,.5.22.5.5v23c0,.28-.22.5-.5.5ZM14,23h9V1h-9v22Z"/>
    <path class="cls-1" d="M10.5,24H.5c-.28,0-.5-.22-.5-.5v-10c0-.28.22-.5.5-.5h10c.28,0,.5.22.5.5v10c0,.28-.22.5-.5.5ZM1,23h9v-9H1v9Z"/>
    <path class="cls-1" d="M8,18h-2v-2c0-.28-.22-.5-.5-.5s-.5.22-.5.5v2h-2c-.28,0-.5.22-.5.5s.22.5.5.5h2v2c0,.28.22.5.5.5s.5-.22.5-.5v-2h2c.28,0,.5-.22.5-.5s-.22-.5-.5-.5Z"/>
    <path class="cls-1" d="M8,6H3c-.28,0-.5-.22-.5-.5s.22-.5.5-.5h5c.28,0,.5.22.5.5s-.22.5-.5.5Z"/>
    <g id="_" data-name="=">
      <path class="cls-1" d="M21,10.5h-5c-.28,0-.5-.22-.5-.5s.22-.5.5-.5h5c.28,0,.5.22.5.5s-.22.5-.5.5Z"/>
      <path class="cls-1" d="M21,14.5h-5c-.28,0-.5-.22-.5-.5s.22-.5.5-.5h5c.28,0,.5.22.5.5s-.22.5-.5.5Z"/>
    </g>
  </g>
</svg>