<?xml version="1.0" encoding="UTF-8"?>
<svg id="export" xmlns="http://www.w3.org/2000/svg" viewBox="0 0 24 24">
  <defs>
    <style>
      .cls-1 {
        fill: #bb2649;
      }
    </style>
  </defs>
  <path class="cls-1" d="M20,10.5h-2c-.28,0-.5.22-.5.5v2c0,.28.22.5.5.5h.5v3h-.5c-.28,0-.5.22-.5.5v.5h-4v-.5c0-.28-.22-.5-.5-.5h-2c-.28,0-.5.22-.5.5v.5h-4v-.5c0-.28-.22-.5-.5-.5h-2c-.28,0-.5.22-.5.5v2c0,.28.22.5.5.5h2c.28,0,.5-.22.5-.5v-.5h4v.5c0,.28.22.5.5.5h2c.28,0,.5-.22.5-.5v-.5h4v.5c0,.28.22.5.5.5h2c.28,0,.5-.22.5-.5v-2c0-.28-.22-.5-.5-.5h-.5v-3h.5c.28,0,.5-.22.5-.5v-2c0-.28-.22-.5-.5-.5Z"/>
  <path class="cls-1" d="M23.5,2h-3.5v-1c0-.55-.45-1-1-1s-1,.45-1,1v1H6v-1c0-.55-.45-1-1-1s-1,.45-1,1v1H.5c-.28,0-.5.22-.5.5v21c0,.28.22.5.5.5h23c.28,0,.5-.22.5-.5V2.5c0-.28-.22-.5-.5-.5ZM3.5,5.5h17c.28,0,.5.22.5.5s-.22.5-.5.5H3.5c-.28,0-.5-.22-.5-.5s.22-.5.5-.5ZM14,10.5v3c0,.28-.22.5-.5.5h-3c-.28,0-.5-.22-.5-.5v-3c0-.28.22-.5.5-.5h3c.28,0,.5.22.5.5ZM3,10.5c0-.28.22-.5.5-.5h3c.28,0,.5.22.5.5v3c0,.28-.22.5-.5.5h-3c-.28,0-.5-.22-.5-.5v-3ZM21.5,13.5c0,.55-.45,1-1,1v1c.55,0,1,.45,1,1v3c0,.55-.45,1-1,1h-3c-.55,0-1-.45-1-1h-2c0,.55-.45,1-1,1h-3c-.55,0-1-.45-1-1h-2c0,.55-.45,1-1,1h-3c-.55,0-1-.45-1-1v-3c0-.55.45-1,1-1h3c.55,0,1,.45,1,1h2c0-.55.45-1,1-1h3c.55,0,1,.45,1,1h2c0-.55.45-1,1-1v-1c-.55,0-1-.45-1-1v-3c0-.55.45-1,1-1h3c.55,0,1,.45,1,1v3Z"/>
</svg>