<?xml version="1.0" encoding="UTF-8"?>
<svg id="export" xmlns="http://www.w3.org/2000/svg" viewBox="0 0 24 24">
  <defs>
    <style>
      .cls-1 {
        fill: #bb2649;
      }
    </style>
  </defs>
  <g id="icon_custom-figures">
    <path class="cls-1" d="M10.5,13H.5c-.28,0-.5.22-.5.5v10c0,.28.22.5.5.5h10c.28,0,.5-.22.5-.5v-10c0-.28-.22-.5-.5-.5ZM8,19h-2v2c0,.28-.22.5-.5.5s-.5-.22-.5-.5v-2h-2c-.28,0-.5-.22-.5-.5s.22-.5.5-.5h2v-2c0-.28.22-.5.5-.5s.5.22.5.5v2h2c.28,0,.5.22.5.5s-.22.5-.5.5Z"/>
    <path class="cls-1" d="M10.5,0H.5C.22,0,0,.22,0,.5v10c0,.28.22.5.5.5h10c.28,0,.5-.22.5-.5V.5c0-.28-.22-.5-.5-.5ZM8,6H3c-.28,0-.5-.22-.5-.5s.22-.5.5-.5h5c.28,0,.5.22.5.5s-.22.5-.5.5Z"/>
    <path class="cls-1" d="M23.5,0h-10c-.28,0-.5.22-.5.5v23c0,.28.22.5.5.5h10c.28,0,.5-.22.5-.5V.5c0-.28-.22-.5-.5-.5ZM21,14.5h-5c-.28,0-.5-.22-.5-.5s.22-.5.5-.5h5c.28,0,.5.22.5.5s-.22.5-.5.5ZM21,10.5h-5c-.28,0-.5-.22-.5-.5s.22-.5.5-.5h5c.28,0,.5.22.5.5s-.22.5-.5.5Z"/>
  </g>
</svg>