<?xml version="1.0" encoding="UTF-8"?>
<svg id="export" xmlns="http://www.w3.org/2000/svg" viewBox="0 0 24 24">
  <defs>
    <style>
      .cls-1 {
        fill: #bb2649;
      }
    </style>
  </defs>
  <g id="icon_dashboard">
    <path class="cls-1" d="M23.5,23H.5c-.28,0-.5-.22-.5-.5V1.5c0-.28.22-.5.5-.5h23c.28,0,.5.22.5.5v21c0,.28-.22.5-.5.5ZM1,22h22V2H1v20Z"/>
    <path class="cls-1" d="M19,13.38h-2c-.28,0-.5-.22-.5-.5s.22-.5.5-.5h2c.28,0,.5.22.5.5s-.22.5-.5.5Z"/>
    <path class="cls-1" d="M20,15.46h-3c-.28,0-.5-.22-.5-.5s.22-.5.5-.5h3c.28,0,.5.22.5.5s-.22.5-.5.5Z"/>
    <path class="cls-1" d="M19.5,17.54h-2.5c-.28,0-.5-.22-.5-.5s.22-.5.5-.5h2.5c.28,0,.5.22.5.5s-.22.5-.5.5Z"/>
    <path class="cls-1" d="M20,19.62h-3c-.28,0-.5-.22-.5-.5s.22-.5.5-.5h3c.28,0,.5.22.5.5s-.22.5-.5.5Z"/>
    <path class="cls-1" d="M20,10.5h-3c-.28,0-.5-.22-.5-.5v-5c0-.28.22-.5.5-.5h3c.28,0,.5.22.5.5v5c0,.28-.22.5-.5.5Z"/>
    <path class="cls-1" d="M13,8.5H4c-.28,0-.5-.22-.5-.5v-3c0-.28.22-.5.5-.5h9c.28,0,.5.22.5.5v3c0,.28-.22.5-.5.5Z"/>
    <path class="cls-1" d="M4,19.5c-.28,0-.5-.22-.5-.5v-5.2c0-.28.22-.5.5-.5s.5.22.5.5v5.2c0,.28-.22.5-.5.5Z"/>
    <path class="cls-1" d="M6.25,19.5c-.28,0-.5-.22-.5-.5v-3.12c0-.28.22-.5.5-.5s.5.22.5.5v3.12c0,.28-.22.5-.5.5Z"/>
    <path class="cls-1" d="M8.5,19.5c-.28,0-.5-.22-.5-.5v-4.16c0-.28.22-.5.5-.5s.5.22.5.5v4.16c0,.28-.22.5-.5.5Z"/>
    <path class="cls-1" d="M10.75,19.5c-.28,0-.5-.22-.5-.5v-6.24c0-.28.22-.5.5-.5s.5.22.5.5v6.24c0,.28-.22.5-.5.5Z"/>
    <path class="cls-1" d="M13,19.5c-.28,0-.5-.22-.5-.5v-5.2c0-.28.22-.5.5-.5s.5.22.5.5v5.2c0,.28-.22.5-.5.5Z"/>
  </g>
</svg>