<?xml version="1.0" encoding="UTF-8"?>
<svg id="export" xmlns="http://www.w3.org/2000/svg" viewBox="0 0 24 24">
  <defs>
    <style>
      .cls-1 {
        fill: #bb2649;
      }
    </style>
  </defs>
  <path id="icon_dashboard_inv" class="cls-1" d="M23.5,1H.5c-.28,0-.5.22-.5.5v21c0,.28.22.5.5.5h23c.28,0,.5-.22.5-.5V1.5c0-.28-.22-.5-.5-.5ZM4.5,19c0,.28-.22.5-.5.5s-.5-.22-.5-.5v-5.2c0-.28.22-.5.5-.5s.5.22.5.5v5.2ZM6.75,19c0,.28-.22.5-.5.5s-.5-.22-.5-.5v-3.12c0-.28.22-.5.5-.5s.5.22.5.5v3.12ZM9,19c0,.28-.22.5-.5.5s-.5-.22-.5-.5v-4.16c0-.28.22-.5.5-.5s.5.22.5.5v4.16ZM11.25,19c0,.28-.22.5-.5.5s-.5-.22-.5-.5v-6.24c0-.28.22-.5.5-.5s.5.22.5.5v6.24ZM13.5,19c0,.28-.22.5-.5.5s-.5-.22-.5-.5v-5.2c0-.28.22-.5.5-.5s.5.22.5.5v5.2ZM13.5,8c0,.28-.22.5-.5.5H4c-.28,0-.5-.22-.5-.5v-3c0-.28.22-.5.5-.5h9c.28,0,.5.22.5.5v3ZM20,19.62h-3c-.28,0-.5-.22-.5-.5s.22-.5.5-.5h3c.28,0,.5.22.5.5s-.22.5-.5.5ZM16.5,17.04c0-.28.22-.5.5-.5h2.5c.28,0,.5.22.5.5s-.22.5-.5.5h-2.5c-.28,0-.5-.22-.5-.5ZM20,15.46h-3c-.28,0-.5-.22-.5-.5s.22-.5.5-.5h3c.28,0,.5.22.5.5s-.22.5-.5.5ZM16.5,12.88c0-.28.22-.5.5-.5h2c.28,0,.5.22.5.5s-.22.5-.5.5h-2c-.28,0-.5-.22-.5-.5ZM20.5,10c0,.28-.22.5-.5.5h-3c-.28,0-.5-.22-.5-.5v-5c0-.28.22-.5.5-.5h3c.28,0,.5.22.5.5v5Z"/>
</svg>