<?xml version="1.0" encoding="UTF-8"?>
<svg id="export" xmlns="http://www.w3.org/2000/svg" width="24" height="24" viewBox="0 0 24 24">
  <defs>
    <style>
      .cls-1 {
        fill: #bb2649;
        stroke-width: 0px;
      }
    </style>
  </defs>
  <g id="icon_dashboard">
    <path class="cls-1" d="m23.5,23H.5c-.28,0-.5-.22-.5-.5V1.5c0-.28.22-.5.5-.5h23c.28,0,.5.22.5.5v21c0,.28-.22.5-.5.5Zm-22.5-1h22V2H1v20Z"/>
    <path class="cls-1" d="m18.5,14h-3c-.28,0-.5-.22-.5-.5s.22-.5.5-.5h3c.28,0,.5.22.5.5s-.22.5-.5.5Z"/>
    <path class="cls-1" d="m20.5,16h-5c-.28,0-.5-.22-.5-.5s.22-.5.5-.5h5c.28,0,.5.22.5.5s-.22.5-.5.5Z"/>
    <path class="cls-1" d="m17.5,18h-2c-.28,0-.5-.22-.5-.5s.22-.5.5-.5h2c.28,0,.5.22.5.5s-.22.5-.5.5Z"/>
    <path class="cls-1" d="m18.5,20h-3c-.28,0-.5-.22-.5-.5s.22-.5.5-.5h3c.28,0,.5.22.5.5s-.22.5-.5.5Z"/>
    <path class="cls-1" d="m18.5,11h-3c-.28,0-.5-.22-.5-.5v-6c0-.28.22-.5.5-.5h3c.28,0,.5.22.5.5v6c0,.28-.22.5-.5.5Z"/>
    <path class="cls-1" d="m11.5,10H3.5c-.28,0-.5-.22-.5-.5v-5c0-.28.22-.5.5-.5h8c.28,0,.5.22.5.5v5c0,.28-.22.5-.5.5Zm-7.5-1h7v-4h-7v4Z"/>
    <path class="cls-1" d="m3.5,20c-.28,0-.5-.22-.5-.5v-5c0-.28.22-.5.5-.5s.5.22.5.5v5c0,.28-.22.5-.5.5Z"/>
    <path class="cls-1" d="m5.5,20c-.28,0-.5-.22-.5-.5v-3c0-.28.22-.5.5-.5s.5.22.5.5v3c0,.28-.22.5-.5.5Z"/>
    <path class="cls-1" d="m7.5,20c-.28,0-.5-.22-.5-.5v-4c0-.28.22-.5.5-.5s.5.22.5.5v4c0,.28-.22.5-.5.5Z"/>
    <path class="cls-1" d="m9.5,20c-.28,0-.5-.22-.5-.5v-7c0-.28.22-.5.5-.5s.5.22.5.5v7c0,.28-.22.5-.5.5Z"/>
    <path class="cls-1" d="m11.5,20c-.28,0-.5-.22-.5-.5v-5c0-.28.22-.5.5-.5s.5.22.5.5v5c0,.28-.22.5-.5.5Z"/>
  </g>
</svg>