<?xml version="1.0" encoding="UTF-8"?>
<svg id="illustartions" xmlns="http://www.w3.org/2000/svg" viewBox="0 0 24 24">
  <defs>
    <style>
      .cls-1 {
        fill: #bb2649;
      }
    </style>
  </defs>
  <g id="icon_data-management_inv">
    <path class="cls-1" d="M23.87,13.78c-.01-.24-.19-.44-.43-.47l-1.41-.2c-.16-.45-.37-.87-.61-1.26-.24-.39-.53-.76-.86-1.1l.41-1.45c.06-.23-.04-.46-.25-.58l-2.17-1.16c-.22-.12-.49-.06-.64.14l-.85,1.16c-.91-.16-1.84-.11-2.72.13l-1.08-1.19c-.17-.18-.44-.21-.65-.08l-2.04,1.39c-.19.13-.27.38-.18.6l.61,1.54c-.59.75-1.01,1.63-1.24,2.57l-1.36.34c-.23.06-.39.27-.38.51l.13,2.55c.01.24.19.44.43.47l1.41.2c.16.45.37.87.61,1.26.24.39.53.76.86,1.1l-.41,1.45c-.06.23.04.46.25.58l2.17,1.16c.07.04.16.06.24.06.15,0,.31-.07.4-.2l.85-1.16c.9.16,1.84.11,2.72-.13l1.08,1.19c.17.18.45.22.65.08l2.04-1.39c.19-.13.27-.38.18-.6l-.61-1.54c.59-.75,1.01-1.63,1.24-2.57l1.36-.34c.23-.06.39-.27.38-.51l-.13-2.55ZM16,19c-1.93,0-3.5-1.57-3.5-3.5s1.57-3.5,3.5-3.5,3.5,1.57,3.5,3.5-1.57,3.5-3.5,3.5Z"/>
    <path class="cls-1" d="M14.93,17.05c-.13,0-.26-.05-.36-.15-.37-.38-.58-.87-.58-1.4,0-1.1.9-2,2-2s2,.9,2,2c0,.15-.02.3-.06.46-.04.16-.15.29-.31.35-.25.1-.52.19-.8.28-.5.16-1.1.31-1.81.45-.03,0-.06,0-.1,0Z"/>
    <path class="cls-1" d="M10,5c-2.78,0-10-.48-10-2.65S7.65,0,10,0s10,.17,10,2.35-7.22,2.65-10,2.65Z"/>
    <path class="cls-1" d="M19.5,4.1c-.35-.15-.73.03-1,.2-1.22.78-4.66,1.2-8.5,1.2s-7.28-.42-8.5-1.2c-.27-.17-.66-.35-1-.2-.34.14-.5.49-.5.86v3.06c0,.93,1.07,1.65,3.37,2.26,1.51.4,3.48.65,5.67.71h.01c.16,0,.32-.08.41-.21.1-.14.12-.32.05-.47l-.08-.21c-.26-.66-.03-1.4.55-1.8l2.04-1.39c.63-.42,1.45-.33,1.95.23l.5.55c.11.12.26.18.43.16l.25-.03c.31-.04.62-.05.94-.05h.25c.16,0,.31-.08.4-.2l.34-.46c.43-.59,1.26-.77,1.92-.42l.24.13c.16.08.34.08.49-.01.15-.09.24-.25.24-.43v-1.42c0-.37-.17-.72-.5-.86ZM5,7.75h-3c-.28,0-.5-.22-.5-.5s.22-.5.5-.5h3c.28,0,.5.22.5.5s-.22.5-.5.5Z"/>
    <path class="cls-1" d="M8.92,12.11c-.09-.14-.24-.23-.4-.23-3.27-.11-5.95-.62-7.01-1.32-.26-.18-.61-.19-.95-.04-.34.14-.57.5-.57.88v3.13c0,.95,1.06,1.69,3.33,2.31.9.25,1.96.44,3.15.57.02,0,.03,0,.05,0,.13,0,.25-.05.34-.14.11-.1.16-.25.15-.4l-.11-2.13c-.04-.73.43-1.39,1.12-1.57,0,0,0,0,0,0l.53-.14c.15-.04.28-.15.33-.3l.06-.16c.06-.16.05-.33-.04-.47ZM5,14.25h-3c-.28,0-.5-.22-.5-.5s.22-.5.5-.5h3c.28,0,.5.22.5.5s-.22.5-.5.5Z"/>
    <path class="cls-1" d="M11.55,22.97c-.47-.05-.93-.15-1.31-.28-.36-.12-.41-.23-.17-1.05l.06-.2h0s.19-.67.19-.67c.04-.15.01-.31-.08-.43l-.14-.19c-.11-.15-.22-.3-.31-.46-.09-.14-.17-.29-.25-.43l-.12-.22c-.08-.14-.21-.24-.37-.26l-.57-.08c-.18-.03-.37-.1-.58-.23-.07-.04-.15-.07-.24-.08-2.88-.17-5.16-.63-6.1-1.23-.27-.17-.62-.19-.96-.04-.34.14-.58.49-.58.86v3.05c0,.93,1.08,1.64,3.39,2.26,1.79.47,4.16.73,6.66.73.5,0,.98-.02,1.46-.04.26-.01.47-.22.48-.48,0-.26-.19-.49-.45-.51ZM5,20.75h-3c-.28,0-.5-.22-.5-.5s.22-.5.5-.5h3c.28,0,.5.22.5.5s-.22.5-.5.5Z"/>
  </g>
</svg>