<?xml version="1.0" encoding="UTF-8"?>
<svg id="illustartions" xmlns="http://www.w3.org/2000/svg" viewBox="0 0 24 24">
  <defs>
    <style>
      .cls-1 {
        fill: #bb2649;
      }
    </style>
  </defs>
  <g id="icon_database_inv">
    <path class="cls-1" d="M21.72,17.07c-.17-.08-.37-.11-.53,0-1.45,1.03-5.24,1.62-9.2,1.62s-7.74-.59-9.2-1.62c-.15-.11-.36-.08-.53,0-.17.08-.28.29-.28.46v3.56c0,.94,1.72,1.64,3.16,2.07,1.83.54,4.26.84,6.84.84s5.01-.3,6.84-.84c1.44-.43,3.16-1.13,3.16-2.07v-3.56c0-.18-.11-.38-.28-.46ZM7.5,21h-3c-.28,0-.5-.22-.5-.5s.22-.5.5-.5h3c.28,0,.5.22.5.5s-.22.5-.5.5Z"/>
    <path class="cls-1" d="M21.72,10.57c-.17-.08-.37-.11-.53,0-1.45,1.03-5.24,1.62-9.2,1.62s-7.74-.59-9.2-1.62c-.15-.11-.36-.08-.53,0-.17.08-.28.29-.28.46v3.56c0,.94,1.72,1.64,3.16,2.07,1.83.54,4.26.84,6.84.84s5.01-.3,6.84-.84c1.44-.43,3.16-1.13,3.16-2.07v-3.56c0-.18-.11-.38-.28-.46ZM7.5,14.5h-3c-.28,0-.5-.22-.5-.5s.22-.5.5-.5h3c.28,0,.5.22.5.5s-.22.5-.5.5Z"/>
    <path class="cls-1" d="M21.72,4.07c-.17-.08-.37-.11-.53,0-1.45,1.03-5.24,1.62-9.2,1.62s-7.74-.59-9.2-1.62c-.15-.11-.36-.08-.53,0-.17.08-.28.29-.28.46v3.56c0,.94,1.72,1.64,3.16,2.07,1.83.54,4.26.84,6.84.84s5.01-.3,6.84-.84c1.44-.43,3.16-1.13,3.16-2.07v-3.56c0-.18-.11-.38-.28-.46ZM7.5,8h-3c-.28,0-.5-.22-.5-.5s.22-.5.5-.5h3c.28,0,.5.22.5.5s-.22.5-.5.5Z"/>
    <path class="cls-1" d="M12,5c-4.97,0-10-1.17-10-2.69S7.03,0,12,0s10,.79,10,2.31-5.03,2.69-10,2.69Z"/>
  </g>
</svg>