<?xml version="1.0" encoding="UTF-8"?>
<svg id="illustartions" xmlns="http://www.w3.org/2000/svg" viewBox="0 0 24 24">
  <defs>
    <style>
      .cls-1 {
        fill: #bb2649;
      }
    </style>
  </defs>
  <g id="icon_data-management">
    <path class="cls-1" d="M13.69,24c-.08,0-.16-.02-.24-.06l-2.17-1.16c-.21-.11-.31-.35-.25-.58l.41-1.45c-.33-.34-.62-.71-.86-1.1-.24-.39-.45-.81-.61-1.26l-1.41-.2c-.24-.03-.42-.23-.43-.47l-.13-2.55c-.01-.24.15-.45.38-.51l1.36-.34c.23-.94.65-1.81,1.24-2.57l-.61-1.54c-.09-.22,0-.47.18-.6l2.04-1.39c.21-.14.48-.11.65.08l1.08,1.19c.89-.25,1.82-.29,2.72-.13l.85-1.16c.15-.2.42-.26.64-.14l2.17,1.16c.21.11.31.35.25.58l-.41,1.45c.33.34.62.71.86,1.1.24.39.45.81.61,1.26l1.41.2c.24.03.42.23.43.47l.13,2.55c.01.24-.15.45-.38.51l-1.36.34c-.23.94-.65,1.81-1.24,2.57l.61,1.54c.09.22,0,.47-.18.6l-2.04,1.39c-.2.14-.48.11-.65-.08l-1.08-1.19c-.89.25-1.82.29-2.72.13l-.85,1.16c-.1.13-.25.2-.4.2ZM12.11,22.09l1.44.77.78-1.06c.12-.16.32-.24.51-.19.93.21,1.91.17,2.82-.14.19-.07.4,0,.53.14l1,1.1,1.35-.92-.57-1.44c-.07-.17-.04-.37.08-.51.64-.75,1.09-1.67,1.28-2.66.04-.19.18-.34.37-.39l1.26-.32-.09-1.73-1.3-.18c-.19-.03-.35-.16-.41-.34-.15-.49-.36-.93-.61-1.33-.25-.4-.56-.78-.92-1.12-.13-.13-.19-.32-.14-.5l.38-1.34-1.44-.77-.78,1.06c-.12.16-.32.24-.51.19-.93-.22-1.91-.17-2.82.14-.19.06-.4,0-.53-.14l-1-1.1-1.35.92.57,1.44c.07.17.04.37-.08.51-.64.75-1.09,1.67-1.28,2.66-.04.19-.18.34-.37.39l-1.26.32.09,1.73,1.3.18c.19.03.35.16.41.34.15.49.36.93.61,1.33.25.4.56.78.92,1.12.13.13.19.32.14.5l-.38,1.34Z"/>
    <path class="cls-1" d="M16,20.5c-2.48,0-4.5-2.02-4.5-4.5s2.02-4.5,4.5-4.5,4.5,2.02,4.5,4.5-2.02,4.5-4.5,4.5ZM16,12.5c-1.93,0-3.5,1.57-3.5,3.5s1.57,3.5,3.5,3.5,3.5-1.57,3.5-3.5-1.57-3.5-3.5-3.5Z"/>
    <path class="cls-1" d="M14.85,17.25c-.23,0-.44-.17-.49-.4-.05-.27.12-.53.39-.59.62-.12,2.43-.61,2.62-.68.26-.1.55.03.64.29.1.26-.03.55-.29.64-.27.1-2.17.6-2.78.72-.03,0-.07,0-.1,0Z"/>
    <g id="path_database">
      <path class="cls-1" d="M6.59,17.33s-.04,0-.05,0c-1.18-.13-2.25-.31-3.17-.56-2.3-.61-3.37-1.33-3.37-2.26v-3.05c0-.37.24-.72.58-.86.34-.14.69-.13.96.04,1.08.69,3.86,1.19,7.24,1.29.28,0,.49.24.49.51,0,.28-.25.5-.51.49-3.6-.11-6.5-.65-7.75-1.45v3.03c0,.16.48.72,2.63,1.29.87.23,1.88.41,3.01.53.28.03.47.28.44.55-.03.26-.24.45-.5.45Z"/>
      <path class="cls-1" d="M8.85,10.98h-.02c-2.07-.07-3.96-.32-5.46-.71-2.3-.61-3.37-1.33-3.37-2.26v-3.05c0-.37.24-.72.58-.86.34-.14.69-.13.96.04,1.22.78,4.62,1.31,8.47,1.31s7.24-.53,8.47-1.31c.27-.17.62-.18.96-.04.33.14.57.49.57.86v1.9c0,.28-.22.5-.5.5s-.5-.22-.5-.5v-1.9c-1.68,1.11-5.75,1.49-9,1.49s-7.32-.38-9-1.46v3.03c0,.16.48.72,2.63,1.29,1.43.38,3.24.62,5.24.68.28,0,.49.24.48.52,0,.27-.23.48-.5.48Z"/>
      <path class="cls-1" d="M10,24c-2.49,0-4.85-.26-6.63-.73-2.3-.61-3.37-1.33-3.37-2.26v-3.05c0-.37.24-.72.58-.86.34-.14.69-.13.96.04.87.55,2.91,1,5.47,1.2.28.02.48.26.46.54-.02.28-.26.49-.54.46-1.62-.12-4.55-.46-5.94-1.35v3.03c0,.16.48.72,2.63,1.29,1.7.45,3.96.7,6.37.7.28,0,.5.22.5.5s-.22.5-.5.5Z"/>
      <path class="cls-1" d="M10,5c-2.78,0-10-.48-10-2.65S7.65,0,10,0s10,.17,10,2.35-7.22,2.65-10,2.65ZM10,1C4.5,1,1.18,1.8,1,2.36c.14.55,3.76,1.64,9,1.64s8.86-1.09,9-1.66c-.18-.54-3.5-1.34-9-1.34Z"/>
      <path class="cls-1" d="M5.5,7.75h-3c-.28,0-.5-.22-.5-.5s.22-.5.5-.5h3c.28,0,.5.22.5.5s-.22.5-.5.5Z"/>
      <path class="cls-1" d="M5.5,14.25h-3c-.28,0-.5-.22-.5-.5s.22-.5.5-.5h3c.28,0,.5.22.5.5s-.22.5-.5.5Z"/>
      <path class="cls-1" d="M5.5,20.75h-3c-.28,0-.5-.22-.5-.5s.22-.5.5-.5h3c.28,0,.5.22.5.5s-.22.5-.5.5Z"/>
    </g>
  </g>
</svg>