<?xml version="1.0" encoding="UTF-8"?>
<svg id="illustartions" xmlns="http://www.w3.org/2000/svg" viewBox="0 0 24 24">
  <defs>
    <style>
      .cls-1 {
        fill: #bb2649;
      }
    </style>
  </defs>
  <g id="icon_database">
    <path class="cls-1" d="M12,24c-2.49,0-4.85-.26-6.63-.73-2.3-.61-3.37-1.33-3.37-2.26v-3.05c0-.37.24-.72.58-.86.34-.14.69-.13.96.04,1.22.78,4.62,1.31,8.47,1.31s7.24-.53,8.47-1.31c.27-.17.62-.18.96-.04.34.14.57.49.57.86v3.05c0,.93-1.07,1.64-3.37,2.26-1.78.47-4.13.73-6.63.73ZM3,17.98v3.03c0,.16.48.72,2.63,1.29,1.7.45,3.96.7,6.37.7s4.67-.25,6.37-.7c2.16-.58,2.63-1.13,2.63-1.29v-3s-.03,0-.04,0h0c-1.64,1.06-5.71,1.45-8.96,1.45s-7.32-.38-9-1.46ZM21,17.96h0s0,0,0,0Z"/>
    <path class="cls-1" d="M7.5,20.75h-3c-.28,0-.5-.22-.5-.5s.22-.5.5-.5h3c.28,0,.5.22.5.5s-.22.5-.5.5Z"/>
    <path class="cls-1" d="M12,17.5c-2.49,0-4.85-.26-6.63-.73-2.3-.61-3.37-1.33-3.37-2.26v-3.05c0-.37.24-.72.58-.86.34-.14.69-.13.96.04,1.22.78,4.62,1.31,8.47,1.31s7.24-.53,8.47-1.31c.27-.17.62-.18.96-.04.34.14.57.49.57.86v3.05c0,.93-1.07,1.64-3.37,2.26-1.78.47-4.13.73-6.63.73ZM3,11.48v3.03c0,.16.48.72,2.63,1.29,1.7.45,3.96.7,6.37.7s4.67-.25,6.37-.7c2.16-.58,2.63-1.13,2.63-1.29v-3s-.03,0-.04,0h0c-1.64,1.06-5.71,1.45-8.96,1.45s-7.32-.38-9-1.46ZM21,11.46h0s0,0,0,0Z"/>
    <path class="cls-1" d="M7.5,14.25h-3c-.28,0-.5-.22-.5-.5s.22-.5.5-.5h3c.28,0,.5.22.5.5s-.22.5-.5.5Z"/>
    <path class="cls-1" d="M12,11c-2.49,0-4.85-.26-6.63-.73-2.3-.61-3.37-1.33-3.37-2.26v-3.05c0-.37.24-.72.58-.86.34-.14.69-.13.96.04,1.22.78,4.62,1.31,8.47,1.31s7.24-.53,8.47-1.31c.27-.17.62-.18.96-.04.34.14.57.49.57.86v3.05c0,.93-1.07,1.64-3.37,2.26-1.78.47-4.13.73-6.63.73ZM3,4.98v3.03c0,.16.48.72,2.63,1.29,1.7.45,3.96.7,6.37.7s4.67-.25,6.37-.7c2.16-.58,2.63-1.13,2.63-1.29v-3s-.03,0-.04,0h0c-1.64,1.06-5.71,1.45-8.96,1.45s-7.32-.38-9-1.46ZM21,4.96h0s0,0,0,0Z"/>
    <path class="cls-1" d="M7.5,7.75h-3c-.28,0-.5-.22-.5-.5s.22-.5.5-.5h3c.28,0,.5.22.5.5s-.22.5-.5.5Z"/>
    <path class="cls-1" d="M12,5c-2.78,0-10-.48-10-2.65S9.65,0,12,0s10,.17,10,2.35-7.22,2.65-10,2.65ZM12,1C6.5,1,3.18,1.8,3,2.36c.14.55,3.76,1.64,9,1.64s8.86-1.09,9-1.66c-.18-.54-3.5-1.34-9-1.34Z"/>
  </g>
</svg>