<?xml version="1.0" encoding="UTF-8"?>
<svg id="export" xmlns="http://www.w3.org/2000/svg" width="24" height="24" viewBox="0 0 24 24">
  <defs>
    <style>
      .cls-1 {
        fill: #888;
      }
    </style>
  </defs>
  <g id="icon_custom-date-range">
    <path class="cls-1" d="m23,2h-3v-1c0-.55-.45-1-1-1s-1,.45-1,1v1H6v-1c0-.55-.45-1-1-1s-1,.45-1,1v1H1c-.55,0-1,.45-1,1v20c0,.55.45,1,1,1h22c.55,0,1-.45,1-1V3c0-.55-.45-1-1-1ZM2,22v-14h20v14H2Z"/>
    <rect class="cls-1" x="4" y="10" width="4" height="4" rx="1" ry="1"/>
    <rect class="cls-1" x="10" y="10" width="4" height="4" rx="1" ry="1"/>
    <path class="cls-1" d="m19,9.05h-2c-1.1,0-2,.9-2,2v2.95c0,.55-.45,1-1,1H5c-.13,0-.84.01-1.41.59-.36.36-.59.86-.59,1.41v2c0,1.1.9,2,2,2h14c1.1,0,2-.9,2-2v-7.95c0-1.1-.9-2-2-2Zm.5,3.7c0,.37-.21.67-.5.85v3.06c.29.17.5.48.5.85v1c0,.55-.45,1-1,1h-1c-.37,0-.67-.21-.85-.5h-3.31c-.17.29-.48.5-.85.5h-1c-.37,0-.67-.21-.85-.5h-3.31c-.17.29-.48.5-.85.5h-1c-.55,0-1-.45-1-1v-1c0-.55.45-1,1-1h1c.37,0,.67.21.85.5h3.31c.17-.29.48-.5.85-.5h1c.37,0,.67.21.85.5h3.31c.09-.14.2-.26.35-.35v-3.06c-.29-.17-.5-.48-.5-.85v-1c0-.55.45-1,1-1h1c.55,0,1,.45,1,1v1Z"/>
  </g>
</svg>