<?xml version="1.0" encoding="UTF-8"?>
<svg id="illustartions" xmlns="http://www.w3.org/2000/svg" viewBox="0 0 24 24">
  <defs>
    <style>
      .cls-1 {
        fill: #bb2649;
      }
    </style>
  </defs>
  <g id="path-help-info-deactivate">
    <path class="cls-1" d="M12.05,24.11c-.11,0-.22-.04-.31-.11l-8.5-6.75c-.09-.07-.16-.18-.18-.3L1.06,6.45c-.04-.21.06-.43.25-.53L11.81.17c.15-.08.33-.08.48,0l10.5,5.75c.19.1.29.32.25.53l-2,10.5c-.02.12-.09.22-.18.3l-8.5,6.75c-.09.07-.2.11-.31.11ZM4.01,16.58l8.04,6.39,8.04-6.39,1.9-9.96L12.05,1.18,2.11,6.62l1.9,9.96ZM20.55,16.86h0,0Z"/>
    <path class="cls-1" d="M12.76,11.11l3.65-3.65c.2-.2.2-.51,0-.71s-.51-.2-.71,0l-3.65,3.65-3.65-3.65c-.2-.2-.51-.2-.71,0s-.2.51,0,.71l3.65,3.65-3.65,3.65c-.2.2-.2.51,0,.71.1.1.23.15.35.15s.26-.05.35-.15l3.65-3.65,3.65,3.65c.1.1.23.15.35.15s.26-.05.35-.15c.2-.2.2-.51,0-.71l-3.65-3.65Z"/>
  </g>
</svg>