<?xml version="1.0" encoding="UTF-8"?>
<svg id="illustartions" xmlns="http://www.w3.org/2000/svg" viewBox="0 0 24 24">
  <defs>
    <style>
      .cls-1 {
        fill: #bb2649;
      }
    </style>
  </defs>
  <path class="cls-1" d="M22.74,5.81L12.24.06c-.15-.08-.33-.08-.48,0L1.26,5.81c-.19.1-.29.32-.25.53l2,10.5c.02.12.09.22.18.3l8.5,6.75c.09.07.2.11.31.11s.22-.04.31-.11l8.5-6.75c.09-.07.16-.18.18-.3l2-10.5c.04-.21-.06-.43-.25-.53ZM16.53,14.47c.29.29.29.77,0,1.06-.15.15-.34.22-.53.22s-.38-.07-.53-.22l-3.47-3.47-3.47,3.47c-.15.15-.34.22-.53.22s-.38-.07-.53-.22c-.29-.29-.29-.77,0-1.06l3.47-3.47-3.47-3.47c-.29-.29-.29-.77,0-1.06s.77-.29,1.06,0l3.47,3.47,3.47-3.47c.29-.29.77-.29,1.06,0s.29.77,0,1.06l-3.47,3.47,3.47,3.47Z"/>
</svg>