<?xml version="1.0" encoding="UTF-8"?>
<svg id="export" xmlns="http://www.w3.org/2000/svg" width="24" height="24" viewBox="0 0 24 24">
  <defs>
    <style>
      .cls-1 {
        fill: #bb2649;
      }
    </style>
  </defs>
  <path id="icon-desktop" class="cls-1" d="m23.5,2H.5c-.28,0-.5.22-.5.5v15c0,.28.22.5.5.5h8v2h-.5c-.28,0-.5.22-.5.5v1c0,.28.22.5.5.5h8c.28,0,.5-.22.5-.5v-1c0-.28-.22-.5-.5-.5h-.5v-2h8c.28,0,.5-.22.5-.5V2.5c0-.28-.22-.5-.5-.5ZM1,3h22v11.5H1V3Zm13.5,17.5c0,.28.22.5.5.5h-6c.28,0,.5-.22.5-.5v-2.5h5v2.5Zm8.5-3.5H1v-1.5h22v1.5Z"/>
</svg>