<svg id="export" xmlns="http://www.w3.org/2000/svg" width="24" height="24" viewBox="0 0 24 24"><defs><style>.cls-1{fill:#3c5583;}</style></defs><path id="icon-letter" class="cls-1" d="M24,5.44a.61.61,0,0,0,0-.13.47.47,0,0,0-.06-.09.25.25,0,0,0,0-.07l-.13-.09,0,0h0l-2.19-1V2.5A.5.5,0,0,0,21,2H16.7L12.2,0a.55.55,0,0,0-.4,0L7.3,2H3a.5.5,0,0,0-.5.5V4.09L.31,5h0l0,0-.13.09a.25.25,0,0,0,0,.07A.47.47,0,0,0,0,5.31a.61.61,0,0,0,0,.13s0,0,0,.06H0v18a.5.5,0,0,0,.5.5h23a.5.5,0,0,0,.5-.5v-18h0S24,5.46,24,5.44ZM23,6V7a.52.52,0,0,0-.27.07l-1.23.78V6ZM12,1.05l2.2,1H9.8ZM3.5,3h17V8.5L12,13.91,3.5,8.5V3Zm-1,3V7.86L1.27,7.08A.52.52,0,0,0,1,7V6ZM1,23V8.09l10.73,6.83a.5.5,0,0,0,.54,0L23,8.09V23Z"/></svg>
