<?xml version="1.0" encoding="UTF-8"?>
<svg id="export" xmlns="http://www.w3.org/2000/svg" width="24" height="24" viewBox="0 0 24 24">
  <defs>
    <style>
      .cls-1 {
        fill: #bb2649;
        stroke-width: 0px;
      }
    </style>
  </defs>
  <g id="icon_document-csv">
    <path class="cls-1" d="m23.85,6.42L17.52.14c-.09-.09-.22-.14-.35-.14H4.5c-.28,0-.5.22-.5.5v9.75c0,.28.22.5.5.5s.5-.22.5-.5V1h10.61v6.82c0,.28.22.5.5.5h6.89v14.68H5v-2.25c0-.28-.22-.5-.5-.5s-.5.22-.5.5v2.75c0,.28.22.5.5.5h19c.28,0,.5-.22.5-.5V6.77c0-.13-.05-.26-.15-.36Zm-7.24.9V1h.35l6.04,5.98v.34h-6.39Z"/>
    <g>
      <path class="cls-1" d="m2.51,18.3c-.82,0-1.44-.24-1.87-.71-.43-.48-.64-1.16-.64-2.05s.22-1.61.67-2.09,1.09-.73,1.93-.73c.57,0,1.09.11,1.54.32l-.35.92c-.49-.19-.89-.28-1.21-.28-.94,0-1.41.62-1.41,1.86,0,.61.12,1.06.35,1.36.23.3.58.46,1.03.46.51,0,1-.13,1.46-.38v1c-.21.12-.43.21-.66.26-.23.05-.52.08-.85.08Z"/>
      <path class="cls-1" d="m8.69,16.66c0,.53-.19.93-.58,1.21-.39.28-.94.42-1.66.42s-1.3-.11-1.74-.33v-.99c.64.29,1.23.44,1.78.44.71,0,1.06-.21,1.06-.64,0-.14-.04-.25-.12-.34s-.21-.19-.39-.28-.43-.21-.75-.33c-.62-.24-1.05-.48-1.27-.72s-.33-.55-.33-.94c0-.46.19-.82.56-1.08.37-.25.88-.38,1.53-.38s1.24.13,1.81.39l-.37.86c-.58-.24-1.08-.36-1.48-.36-.61,0-.91.17-.91.52,0,.17.08.31.24.43.16.12.5.28,1.04.48.45.17.77.33.98.47.2.14.35.31.45.5.1.19.15.41.15.67Z"/>
      <path class="cls-1" d="m10.92,18.2l-2.06-5.4h1.22l1.1,3.14c.19.53.3.95.34,1.28h.04c.03-.23.14-.66.34-1.28l1.1-3.14h1.23l-2.07,5.4h-1.25Z"/>
    </g>
  </g>
</svg>