<?xml version="1.0" encoding="UTF-8"?>
<svg id="export" xmlns="http://www.w3.org/2000/svg" width="24" height="24" viewBox="0 0 24 24">
  <defs>
    <style>
      .cls-1 {
        fill: #bb2649;
        stroke-width: 0px;
      }
    </style>
  </defs>
  <g id="icon_document-analytic-report">
    <path class="cls-1" d="m21.85,6.42L15.52.14c-.09-.09-.22-.14-.35-.14H2.5c-.28,0-.5.22-.5.5v23c0,.28.22.5.5.5h19c.28,0,.5-.22.5-.5V6.77c0-.13-.05-.26-.15-.36Zm-.85.56v.34h-6.39V1h.35l6.04,5.98Zm0,16.02H3V1h10.61v6.82c0,.28.22.5.5.5h6.89v14.68Z"/>
    <path class="cls-1" d="m16,19.53H7.47v-8.53c0-.26-.21-.47-.47-.47s-.47.21-.47.47v9c0,.26.21.47.47.47h9c.26,0,.47-.21.47-.47s-.21-.47-.47-.47Z"/>
    <path class="cls-1" d="m14.38,15.62c-.09,0-.16.03-.24.05l-1.69-1.69c.02-.08.05-.16.05-.24,0-.55-.45-1-1-1s-1,.45-1,1c0,.16.04.3.11.43l-.97,1.46s-.04-.01-.06-.01c-.55,0-1,.45-1,1s.45,1,1,1,1-.45,1-1c0-.16-.04-.3-.11-.43l.97-1.46s.04.01.06.01c.09,0,.16-.03.24-.05l1.69,1.69c-.02.08-.05.16-.05.24,0,.55.45,1,1,1s1-.45,1-1c0-.17-.05-.32-.12-.46l1.36-3.42c.48-.08.85-.47.85-.97,0-.55-.45-1-1-1s-1,.45-1,1c0,.23.09.43.22.6l-1.29,3.24s0,0-.02,0Z"/>
  </g>
</svg>