<?xml version="1.0" encoding="UTF-8"?>
<svg id="export" xmlns="http://www.w3.org/2000/svg" width="24" height="24" viewBox="0 0 24 24">
  <defs>
    <style>
      .cls-1 {
        fill: #bb2649;
        stroke-width: 0px;
      }
    </style>
  </defs>
  <g id="icon_document-pdf">
    <path class="cls-1" d="m23.85,6.42L17.52.14c-.09-.09-.22-.14-.35-.14H4.5c-.28,0-.5.22-.5.5v9.75c0,.28.22.5.5.5s.5-.22.5-.5V1h10.61v6.82c0,.28.22.5.5.5h6.89v14.68H5v-2.25c0-.28-.22-.5-.5-.5s-.5.22-.5.5v2.75c0,.28.22.5.5.5h19c.28,0,.5-.22.5-.5V6.77c0-.13-.05-.26-.15-.36Zm-7.24.9V1h.35l6.04,5.98v.34h-6.39Z"/>
    <g>
      <path class="cls-1" d="m2.75,18.3c-.69,0-1.22-.25-1.6-.74h-.07c.05.46.07.73.07.83v2.21H0v-7.8h.93c.03.1.08.34.16.72h.06c.36-.55.9-.82,1.62-.82.68,0,1.2.24,1.58.73s.57,1.17.57,2.06-.19,1.57-.58,2.07-.92.74-1.59.74Zm-.28-4.66c-.46,0-.79.13-1,.4-.21.27-.32.69-.32,1.28v.17c0,.66.1,1.13.31,1.43.21.29.55.44,1.02.44.4,0,.71-.16.92-.49s.32-.79.32-1.39-.11-1.06-.32-1.37c-.21-.31-.53-.47-.94-.47Z"/>
      <path class="cls-1" d="m7.83,18.3c-.68,0-1.21-.24-1.58-.73-.38-.49-.57-1.17-.57-2.06s.19-1.58.58-2.07c.38-.49.92-.74,1.6-.74s1.25.26,1.63.79h.06c-.06-.39-.08-.69-.08-.92v-1.97h1.16v7.6h-.9l-.2-.71h-.05c-.37.54-.91.81-1.62.81Zm.31-.93c.47,0,.82-.13,1.03-.4.22-.26.33-.7.33-1.29v-.16c0-.68-.11-1.16-.33-1.45-.22-.29-.57-.43-1.04-.43-.41,0-.72.16-.94.49-.22.33-.33.79-.33,1.4s.11,1.06.32,1.37c.21.31.53.47.96.47Z"/>
      <path class="cls-1" d="m14.73,13.67h-1.32v4.53h-1.16v-4.53h-.89v-.54l.89-.35v-.35c0-.64.15-1.11.45-1.42.3-.31.76-.46,1.38-.46.41,0,.8.07,1.2.2l-.3.87c-.28-.09-.56-.14-.81-.14s-.45.08-.57.24c-.12.16-.18.4-.18.72v.35h1.32v.87Z"/>
    </g>
  </g>
</svg>