<?xml version="1.0" encoding="UTF-8"?>
<svg id="export" xmlns="http://www.w3.org/2000/svg" width="24" height="24" viewBox="0 0 24 24">
  <defs>
    <style>
      .cls-1 {
        fill: #bb2649;
        stroke-width: 0px;
      }
    </style>
  </defs>
  <path class="cls-1" d="M12,0C5.38,0,0,5.38,0,12s5.38,12,12,12,12-5.38,12-12S18.62,0,12,0ZM22.58,14.99s-.09-.07-.15-.09l-5.29-1.94c-.08-.03-.15-.03-.23-.02.06-.3.09-.61.09-.93s-.04-.63-.09-.93c.02,0,.03.02.05.02.06,0,.12,0,.17-.03l5.29-1.95c.06-.02.11-.06.15-.09.27.95.42,1.95.42,2.99s-.15,2.04-.42,2.99ZM22.29,8.14c-.07,0-.14,0-.21.03l-5.29,1.95c-.05.02-.09.05-.14.08-.51-1.31-1.55-2.35-2.87-2.86.04-.04.08-.08.1-.13l1.95-5.29c.03-.07.03-.14.03-.21,2.96,1.11,5.31,3.46,6.42,6.42ZM12,16c-2.21,0-4-1.79-4-4s1.79-4,4-4,4,1.79,4,4-1.79,4-4,4ZM14.99,1.42s-.07.09-.09.15l-1.95,5.29c-.03.08-.03.15-.02.23-.3-.06-.61-.09-.93-.09s-.63.04-.93.09c0-.07,0-.15-.02-.22l-1.92-5.3c-.02-.06-.05-.11-.09-.15.94-.27,1.94-.42,2.96-.42s2.04.15,2.99.42ZM8.16,1.7c0,.07,0,.14.03.21l1.92,5.3c.02.06.07.09.1.13-1.31.5-2.35,1.53-2.86,2.84-.04-.03-.08-.06-.14-.08l-5.24-1.96c-.09-.03-.17-.03-.26-.02,1.12-2.96,3.48-5.31,6.44-6.42ZM1.42,14.99c-.27-.95-.42-1.95-.42-2.99s.16-2.08.44-3.06c.05.06.11.1.19.13l5.24,1.96c.06.02.12.03.17.03.02,0,.03-.01.05-.02-.06.31-.1.63-.1.95s.04.63.09.93c-.07,0-.15,0-.23.02M1.71,15.85s.03.01.04.01c.06,0,.12,0,.17-.03l5.29-1.95c.05-.02.1-.05.14-.08.51,1.3,1.54,2.34,2.84,2.85-.03.04-.07.08-.08.14l-1.95,5.29c-.03.07-.03.14-.03.21-2.96-1.12-5.31-3.47-6.43-6.43ZM8.99,22.57s.09-.09.12-.15l1.95-5.29c.03-.08.03-.15.02-.23.3.06.61.09.93.09s.62-.04.93-.09c0,.07,0,.15.02.23l1.95,5.29c.02.06.07.1.11.15-.96.27-1.97.43-3.01.43s-2.05-.16-3.01-.43ZM15.86,22.29c0-.07,0-.14-.03-.21l-1.95-5.29c-.02-.05-.05-.1-.08-.14,1.3-.51,2.34-1.54,2.85-2.84.04.03.08.07.14.08l5.29,1.94c.06.02.12.03.17.03.01,0,.03-.01.04-.01-1.11,2.96-3.47,5.32-6.43,6.43Z"/>
</svg>