<?xml version="1.0" encoding="UTF-8"?>
<svg id="export" xmlns="http://www.w3.org/2000/svg" width="24" height="24" viewBox="0 0 24 24">
  <defs>
    <style>
      .cls-1 {
        fill: #bb2649;
        stroke-width: 0px;
      }
    </style>
  </defs>
  <path id="icon_documentation" class="cls-1" d="M12,0C5.38,0,0,5.38,0,12s5.38,12,12,12,12-5.38,12-12S18.62,0,12,0ZM7,12c0-2.76,2.24-5,5-5s5,2.24,5,5-2.24,5-5,5-5-2.24-5-5ZM17.74,13.75c.17-.55.26-1.14.26-1.75s-.09-1.19-.26-1.74l4.69-1.73c.37,1.09.57,2.26.57,3.47s-.21,2.38-.57,3.47l-4.69-1.72ZM15.47,1.57l-1.73,4.69c-.55-.17-1.14-.26-1.75-.26s-1.2.09-1.75.26l-1.72-4.69c1.09-.37,2.26-.57,3.47-.57s2.38.21,3.47.57ZM1.57,8.53l4.69,1.73c-.17.55-.26,1.14-.26,1.75s.09,1.19.26,1.75l-4.69,1.73c-.37-1.09-.57-2.26-.57-3.47s.21-2.38.57-3.47ZM8.53,22.43l1.72-4.69c.55.17,1.14.26,1.75.26s1.19-.09,1.75-.26l1.73,4.69c-1.09.37-2.26.57-3.47.57s-2.38-.21-3.47-.57Z"/>
</svg>