<svg id="export" xmlns="http://www.w3.org/2000/svg" width="24" height="24" viewBox="0 0 24 24"><defs><style>.cls-1{fill:#3c5583;}</style></defs><g id="icon-drag-handle"><path class="cls-1" d="M14.93,23a2,2,0,1,1,2-2A2,2,0,0,1,14.93,23Zm0-3a1,1,0,1,0,1,1A1,1,0,0,0,14.93,20Z"/><path class="cls-1" d="M14.93,17a2,2,0,1,1,2-2A2,2,0,0,1,14.93,17Zm0-3a1,1,0,1,0,1,1A1,1,0,0,0,14.93,14Z"/><path class="cls-1" d="M14.93,11a2,2,0,1,1,2-2A2,2,0,0,1,14.93,11Zm0-3a1,1,0,1,0,1,1A1,1,0,0,0,14.93,8Z"/><path class="cls-1" d="M14.93,5a2,2,0,1,1,2-2A2,2,0,0,1,14.93,5Zm0-3a1,1,0,1,0,1,1A1,1,0,0,0,14.93,2Z"/><path class="cls-1" d="M9.93,23a2,2,0,1,1,2-2A2,2,0,0,1,9.93,23Zm0-3a1,1,0,1,0,1,1A1,1,0,0,0,9.93,20Z"/><path class="cls-1" d="M9.93,17a2,2,0,1,1,2-2A2,2,0,0,1,9.93,17Zm0-3a1,1,0,1,0,1,1A1,1,0,0,0,9.93,14Z"/><path class="cls-1" d="M9.93,11a2,2,0,1,1,2-2A2,2,0,0,1,9.93,11Zm0-3a1,1,0,1,0,1,1A1,1,0,0,0,9.93,8Z"/><path class="cls-1" d="M9.93,5a2,2,0,1,1,2-2A2,2,0,0,1,9.93,5Zm0-3a1,1,0,1,0,1,1A1,1,0,0,0,9.93,2Z"/></g></svg>