<?xml version="1.0" encoding="UTF-8"?>
<svg id="export" xmlns="http://www.w3.org/2000/svg" viewBox="0 0 24 24">
  <defs>
    <style>
      .cls-1 {
        fill: #bb2649;
      }
    </style>
  </defs>
  <path id="icon_ecommerce_inv" class="cls-1" d="M23.5,9.11h-1.69c.03-.14,0-.29-.1-.41L15.44,1.18c-.18-.21-.49-.24-.7-.06-.21.18-.24.49-.06.7l6.08,7.29H3.63L9.71,1.82c.18-.21.15-.53-.06-.7-.21-.18-.53-.15-.7.06l-6.27,7.52c-.1.12-.13.27-.1.41H.5c-.28,0-.5.22-.5.5s.22.5.5.5h.62l2.02,12.47c.04.24.25.42.49.42h16.73c.25,0,.45-.18.49-.42l2.02-12.47h.62c.28,0,.5-.22.5-.5s-.22-.5-.5-.5ZM7.69,19.65c0,.28-.22.5-.5.5s-.5-.22-.5-.5v-7.2c0-.28.22-.5.5-.5s.5.22.5.5v7.2ZM12.69,19.65c0,.28-.22.5-.5.5s-.5-.22-.5-.5v-7.2c0-.28.22-.5.5-.5s.5.22.5.5v7.2ZM17.69,19.65c0,.28-.22.5-.5.5s-.5-.22-.5-.5v-7.2c0-.28.22-.5.5-.5s.5.22.5.5v7.2Z"/>
</svg>