<?xml version="1.0" encoding="UTF-8"?>
<svg id="export" xmlns="http://www.w3.org/2000/svg" width="24" height="24" viewBox="0 0 24 24">
  <defs>
    <style>
      .cls-1 {
        fill: #bb2649;
      }
    </style>
  </defs>
  <g id="icon_edit">
    <path class="cls-1" d="m19.42,23H.5C.22,23,0,22.78,0,22.5V3.54C0,3.27.22,3.04.5,3.04h15.25c.28,0,.5.22.5.5s-.22.5-.5.5H1v17.96h17.92v-10.65c0-.28.22-.5.5-.5s.5.22.5.5v11.15c0,.28-.22.5-.5.5Z"/>
    <path class="cls-1" d="m6.84,18.76c-.13,0-.26-.05-.35-.15-.11-.11-.16-.26-.14-.41l.38-3.43c.01-.11.06-.22.14-.3L20.12,1.15c.09-.09.22-.15.35-.15h0c.13,0,.26.05.35.15l3.02,3.05c.19.19.19.51,0,.7l-13.25,13.33c-.08.08-.19.13-.3.14l-3.41.38s-.04,0-.06,0Zm.86-3.7l-.29,2.63,2.61-.29,12.78-12.86-2.32-2.34L7.7,15.06Z"/>
  </g>
</svg>