<?xml version="1.0" encoding="UTF-8"?>
<svg id="export" xmlns="http://www.w3.org/2000/svg" width="24" height="24" viewBox="0 0 24 24">
  <defs>
    <style>
      .cls-1 {
        fill: #bb2649;
        stroke-width: 0px;
      }
    </style>
  </defs>
  <g id="path-split-edit">
    <path class="cls-1" d="m21.5,4.75h-13c-.28,0-.5-.22-.5-.5s.22-.5.5-.5h13c.28,0,.5.22.5.5s-.22.5-.5.5Z"/>
    <path class="cls-1" d="m23.5,2H.5c-.28,0-.5.22-.5.5v19c0,.28.22.5.5.5h23c.28,0,.5-.22.5-.5V2.5c0-.28-.22-.5-.5-.5Zm-.5,1v2.5H1v-2.5h22ZM1,21V6.5h22v14.5H1Z"/>
    <circle class="cls-1" cx="2.5" cy="4.25" r=".5"/>
    <circle class="cls-1" cx="4.5" cy="4.25" r=".5"/>
    <circle class="cls-1" cx="6.5" cy="4.25" r=".5"/>
    <path class="cls-1" d="m21.75,20h-8.5c-.28,0-.5-.22-.5-.5v-11.5c0-.28.22-.5.5-.5h8.5c.28,0,.5.22.5.5v11.5c0,.28-.22.5-.5.5Z"/>
    <path class="cls-1" d="m11,7.5H2.5c-.28,0-.5.22-.5.5v11.5c0,.28.22.5.5.5h8.5c.28,0,.5-.22.5-.5v-11.5c0-.28-.22-.5-.5-.5Zm-5.28,5.43l-1.21.55,1.21.49v.58l-1.98-.88v-.34l1.98-.99v.58Zm.84,2.01h-.68l1.07-2.94h.68l-1.07,2.94Zm3.19-1.26l-1.98.88v-.58l1.21-.49-1.21-.55v-.58l1.98.99v.34Z"/>
  </g>
</svg>