<?xml version="1.0" encoding="UTF-8"?>
<svg id="export" xmlns="http://www.w3.org/2000/svg" width="24" height="22" viewBox="0 0 24 22">
  <defs>
    <style>
      .cls-1 {
        fill: #888;
      }
    </style>
  </defs>
  <path id="Path_11573" data-name="Path 11573" class="cls-1" d="m19.74,21.89H.81c-.28,0-.5-.22-.5-.5V2.44c0-.28.22-.5.5-.5h15.25c.28,0,.5.22.5.5s-.22.5-.5.5H1.31v17.95h17.92v-10.65c0-.28.22-.5.5-.5s.5.22.5.5v11.15c0,.28-.22.5-.5.5"/>
  <path id="Path_11574" data-name="Path 11574" class="cls-1" d="m7.15,17.65c-.28,0-.5-.22-.5-.5,0-.02,0-.04,0-.06l.38-3.43c.01-.11.06-.22.14-.3L20.43.04c.19-.2.51-.2.71,0,0,0,0,0,0,0l3.02,3.05c.19.19.19.51,0,.7l-13.25,13.34c-.08.08-.19.13-.3.15l-3.41.38s-.04,0-.05,0m.86-3.7l-.29,2.64,2.61-.29L23.11,3.44l-2.32-2.34-12.78,12.85Z"/>
</svg>