<?xml version="1.0" encoding="UTF-8"?>
<svg id="export" xmlns="http://www.w3.org/2000/svg" width="24" height="24" viewBox="0 0 24 24">
  <defs>
    <style>
      .cls-1 {
        fill: #bb2649;
      }
    </style>
  </defs>
  <g id="icon_edit">
    <path class="cls-1" d="m21.38,8.07c-.13,0-.26-.05-.35-.15l-4.95-4.95c-.09-.09-.15-.22-.15-.35s.05-.26.15-.35L18.2.15c.2-.19.51-.19.71,0l4.95,4.95c.2.2.2.51,0,.71l-2.12,2.13c-.09.09-.22.15-.35.15Zm-4.24-5.45l4.24,4.25,1.41-1.42-4.24-4.24-1.42,1.41Z"/>
    <path class="cls-1" d="m20.31,8.64l-4.94-4.95c-.09-.09-.22-.15-.35-.15s-.26.05-.35.15L.5,17.84c-.09.09-.14.2-.15.32L0,23.47s.01.09.02.13c0,.02,0,.05.01.07.02.06.06.12.11.17,0,0,0,0,0,0H.15s0,0,0,0c.04.04.08.06.13.09.01,0,.02.02.03.02.06.02.13.04.19.04.01,0,.02,0,.03,0l5.31-.35c.12,0,.23-.06.32-.15l14.15-14.15c.2-.2.2-.51,0-.71ZM1.05,22.96l.05-.64.59.59-.64.05Zm4.54-.3l-2.56.17-1.86-1.86.17-2.56L15.01,4.75l4.24,4.24-13.66,13.67Z"/>
  </g>
</svg>