<svg id="export" xmlns="http://www.w3.org/2000/svg" width="24" height="24" viewBox="0 0 24 24"><defs><style>.cls-1{fill:#3c5583;}</style></defs><g id="path-split-edit"><path class="cls-1" d="M21.5,4.75H8.5a.5.5,0,0,1,0-1h13a.5.5,0,0,1,0,1Z"/><path class="cls-1" d="M23.5,2H.5a.5.5,0,0,0-.5.5v19a.5.5,0,0,0,.5.5h23a.5.5,0,0,0,.5-.5V2.5A.5.5,0,0,0,23.5,2ZM23,3V5.5H1V3ZM1,21V6.5H23V21Z"/><circle class="cls-1" cx="2.5" cy="4.25" r="0.5"/><circle class="cls-1" cx="4.5" cy="4.25" r="0.5"/><circle class="cls-1" cx="6.5" cy="4.25" r="0.5"/><path class="cls-1" d="M21.75,20h-8.5a.5.5,0,0,1-.5-.5V8a.5.5,0,0,1,.5-.5h8.5a.5.5,0,0,1,.5.5V19.5A.5.5,0,0,1,21.75,20Z"/><path class="cls-1" d="M11,7.5H2.5A.5.5,0,0,0,2,8V19.5a.5.5,0,0,0,.5.5H11a.5.5,0,0,0,.5-.5V8A.5.5,0,0,0,11,7.5ZM5.72,12.93l-1.21.55,1.21.5v.57l-2-.88v-.33l2-1Zm.84,2H5.89L7,12h.68Zm3.19-1.27-2,.88V14L9,13.48l-1.21-.55v-.58l2,1Z"/></g></svg>