<?xml version="1.0" encoding="UTF-8"?>
<svg id="export" xmlns="http://www.w3.org/2000/svg" width="24" height="24" viewBox="0 0 24 24">
  <defs>
    <style>
      .cls-1 {
        fill: #bb2649;
      }
    </style>
  </defs>
  <g id="icon_edit_inv">
    <path class="cls-1" d="m19.5,24H.5C.22,24,0,23.78,0,23.5V2.5C0,2.22.22,2,.5,2h15.19c.2,0,.39.12.46.31.08.19.04.4-.11.55L6.18,12.76c-.24.24-.39.56-.43.89l-.38,3.43c-.05.46.11.9.43,1.23.32.32.75.48,1.22.43l3.42-.38c.34-.04.65-.19.89-.43h0l7.8-7.83c.14-.14.36-.19.55-.11.19.08.31.26.31.46v13.05c0,.28-.22.5-.5.5Z"/>
    <path class="cls-1" d="m6.84,17.76c-.13,0-.26-.05-.35-.15-.11-.11-.16-.26-.14-.41l.38-3.43c.01-.11.06-.22.14-.3L20.12.15c.09-.09.22-.15.35-.15h0c.13,0,.26.05.35.15l3.02,3.05c.19.2.19.51,0,.71l-13.25,13.33c-.08.08-.19.13-.3.14l-3.41.38s-.04,0-.06,0Z"/>
  </g>
</svg>