<?xml version="1.0" encoding="UTF-8"?>
<svg id="export" xmlns="http://www.w3.org/2000/svg" width="24" height="24" viewBox="0 0 24 24">
  <defs>
    <style>
      .cls-1 {
        fill: #bb2649;
        stroke-width: 0px;
      }
    </style>
  </defs>
  <g id="icon-visual-edit">
    <path class="cls-1" d="m21.5,4.75h-13c-.28,0-.5-.22-.5-.5s.22-.5.5-.5h13c.28,0,.5.22.5.5s-.22.5-.5.5Z"/>
    <circle class="cls-1" cx="2.5" cy="4.25" r=".5"/>
    <circle class="cls-1" cx="4.5" cy="4.25" r=".5"/>
    <circle class="cls-1" cx="6.5" cy="4.25" r=".5"/>
    <g id="component">
      <path class="cls-1" d="m21.5,16.17H2.5c-.28,0-.5-.22-.5-.5v-7c0-.28.22-.5.5-.5h19c.28,0,.5.22.5.5v7c0,.28-.22.5-.5.5Zm-18.5-1h18v-6H3v6Z"/>
      <path class="cls-1" d="m15.5,13.12h-6c-.28,0-.5-.22-.5-.5s.22-.5.5-.5h6c.28,0,.5.22.5.5s-.22.5-.5.5Z"/>
      <path class="cls-1" d="m19.5,11.3h-10c-.28,0-.5-.22-.5-.5s.22-.5.5-.5h10c.28,0,.5.22.5.5s-.22.5-.5.5Z"/>
      <path class="cls-1" d="m7.5,14.17h-3c-.28,0-.5-.22-.5-.5v-3c0-.28.22-.5.5-.5h3c.28,0,.5.22.5.5v3c0,.28-.22.5-.5.5Zm-2.5-1h2v-2h-2v2Z"/>
    </g>
    <path class="cls-1" d="m23.5,2H.5c-.28,0-.5.22-.5.5v19c0,.28.22.5.5.5h23c.28,0,.5-.22.5-.5V2.5c0-.28-.22-.5-.5-.5Zm-11.1,18.92l.07-.14.07.14h-.14Zm8.6,0h-2.73l-.35-.53c-.19-.28-.65-.28-.83,0l-.35.53h-3.08l-.7-1.46c-.08-.17-.25-.28-.44-.29-.18,0-.36.1-.45.27l-.79,1.48h-3.54c0-.11-.02-.21-.07-.3-.37-.55-.99-.88-1.66-.88-.71,0-1.38.38-1.73,1-.03.05-.02.12-.03.18h-1.24v-2h18v2Zm2,.08h-1v-2.58c0-.28-.22-.5-.5-.5H2.5c-.28,0-.5.22-.5.5v2.58h-1V6.5h22v14.5Zm0-15.5H1v-2.5h22v2.5Z"/>
  </g>
</svg>