<?xml version="1.0" encoding="UTF-8"?>
<svg id="export" xmlns="http://www.w3.org/2000/svg" width="24" height="24" viewBox="0 0 24 24">
  <defs>
    <style>
      .cls-1 {
        fill: #bb2649;
        stroke-width: 0px;
      }
    </style>
  </defs>
  <path id="icon_success_inv" class="cls-1" d="m12,0C5.37,0,0,5.37,0,12s5.37,12,12,12,12-5.37,12-12S18.63,0,12,0Zm6.71,17.29c.39.39.39,1.02,0,1.41-.2.2-.45.29-.71.29s-.51-.1-.71-.29l-5.29-5.29-5.29,5.29c-.2.2-.45.29-.71.29s-.51-.1-.71-.29c-.39-.39-.39-1.02,0-1.41l5.29-5.29-5.29-5.29c-.39-.39-.39-1.02,0-1.41s1.02-.39,1.41,0l5.29,5.29,5.29-5.29c.39-.39,1.02-.39,1.41,0s.39,1.02,0,1.41l-5.29,5.29,5.29,5.29Z"/>
</svg>