<?xml version="1.0" encoding="UTF-8"?>
<svg id="export" xmlns="http://www.w3.org/2000/svg" width="24" height="24" viewBox="0 0 24 24">
  <defs>
    <style>
      .cls-1 {
        fill: #bb2649;
        stroke-width: 0px;
      }
    </style>
  </defs>
  <g id="icon_error">
    <path class="cls-1" d="m12,24C5.38,24,0,18.62,0,12S5.38,0,12,0s12,5.38,12,12-5.38,12-12,12Zm0-23C5.93,1,1,5.93,1,12s4.93,11,11,11,11-4.93,11-11S18.07,1,12,1Z"/>
    <path class="cls-1" d="m12.71,12l5.65-5.65c.2-.2.2-.51,0-.71s-.51-.2-.71,0l-5.65,5.65-5.65-5.65c-.2-.2-.51-.2-.71,0s-.2.51,0,.71l5.65,5.65-5.65,5.65c-.2.2-.2.51,0,.71.1.1.23.15.35.15s.26-.05.35-.15l5.65-5.65,5.65,5.65c.1.1.23.15.35.15s.26-.05.35-.15c.2-.2.2-.51,0-.71l-5.65-5.65Z"/>
  </g>
</svg>