<?xml version="1.0" encoding="UTF-8"?>
<svg id="export" xmlns="http://www.w3.org/2000/svg" width="24" height="24" viewBox="0 0 24 24">
  <defs>
    <style>
      .cls-1 {
        fill: #bb2649;
      }
    </style>
  </defs>
  <g id="icon_expand">
    <path class="cls-1" d="m.5,7.27c-.28,0-.5-.22-.5-.5V.5C0,.22.22,0,.5,0h6.27c.28,0,.5.22.5.5s-.22.5-.5.5H1v5.77c0,.28-.22.5-.5.5Z"/>
    <path class="cls-1" d="m6.77,24H.5c-.28,0-.5-.22-.5-.5v-6.27c0-.28.22-.5.5-.5s.5.22.5.5v5.77h5.77c.28,0,.5.22.5.5s-.22.5-.5.5Z"/>
    <path class="cls-1" d="m23.5,24h-6.27c-.28,0-.5-.22-.5-.5s.22-.5.5-.5h5.77v-5.77c0-.28.22-.5.5-.5s.5.22.5.5v6.27c0,.28-.22.5-.5.5Z"/>
    <path class="cls-1" d="m23.5,7.27c-.28,0-.5-.22-.5-.5V1h-5.77c-.28,0-.5-.22-.5-.5s.22-.5.5-.5h6.27c.28,0,.5.22.5.5v6.27c0,.28-.22.5-.5.5Z"/>
  </g>
</svg>