<?xml version="1.0" encoding="UTF-8"?>
<svg id="export" xmlns="http://www.w3.org/2000/svg" width="24" height="24" viewBox="0 0 24 24">
  <defs>
    <style>
      .cls-1 {
        fill: #bb2649;
        stroke-width: 0px;
      }
    </style>
  </defs>
  <g id="icon_feedback">
    <path class="cls-1" d="M.27,22.96c-.17-.08-.27-.26-.27-.44V1.52c0-.28.22-.5.5-.5h23c.28,0,.5.22.5.5v15c0,.28-.22.5-.5.5h-14.48L.79,22.92c-.09.06-.45.08-.52.04ZM1,2.02v19.53l7.57-5.43c.08-.06.19-.09.29-.09h14.14V2.02H1Z"/>
    <path class="cls-1" d="M13.5,13.02H4.5c-.28,0-.5-.22-.5-.5s.22-.5.5-.5h9c.28,0,.5.22.5.5s-.22.5-.5.5Z"/>
    <path class="cls-1" d="M19.5,10.02H4.5c-.28,0-.5-.22-.5-.5s.22-.5.5-.5h15c.28,0,.5.22.5.5s-.22.5-.5.5Z"/>
    <path class="cls-1" d="M19.5,7.02H4.5c-.28,0-.5-.22-.5-.5s.22-.5.5-.5h15c.28,0,.5.22.5.5s-.22.5-.5.5Z"/>
  </g>
</svg>