<?xml version="1.0" encoding="UTF-8"?>
<svg id="export" xmlns="http://www.w3.org/2000/svg" width="24" height="24" viewBox="0 0 24 24">
  <defs>
    <style>
      .cls-1 {
        fill: #bb2649;
        stroke-width: 0px;
      }
    </style>
  </defs>
  <path class="cls-1" d="M23.5,1.02H.5c-.28,0-.5.22-.5.5v21c0,.19.1.36.27.44.07.04.43.02.52-.04l8.23-5.91h14.48c.28,0,.5-.22.5-.5V1.52c0-.28-.22-.5-.5-.5ZM13.5,13.02H4.5c-.28,0-.5-.22-.5-.5s.22-.5.5-.5h9c.28,0,.5.22.5.5s-.22.5-.5.5ZM19.5,10.02H4.5c-.28,0-.5-.22-.5-.5s.22-.5.5-.5h15c.28,0,.5.22.5.5s-.22.5-.5.5ZM19.5,7.02H4.5c-.28,0-.5-.22-.5-.5s.22-.5.5-.5h15c.28,0,.5.22.5.5s-.22.5-.5.5Z"/>
</svg>