<?xml version="1.0" encoding="UTF-8"?>
<svg id="export" xmlns="http://www.w3.org/2000/svg" width="24" height="24" viewBox="0 0 24 24">
  <defs>
    <style>
      .cls-1 {
        fill: #bb2649;
        stroke-width: 0px;
      }
    </style>
  </defs>
  <path id="icon_filter_inv" class="cls-1" d="M24,2.59C24,.03,12.49,0,12,0S0,.03,0,2.59c0,.22,1.15,2.4,1.15,2.4l7.21,9.27v7.39c-.08.94,1.95,1.62,3.17,1.94.49.13,1.67.41,2.63.41.65,0,1.2-.13,1.39-.5.02-.04.07-9.24.07-9.24l7.26-9.36s1.1-2.1,1.1-2.31ZM12.01,1c6.41,0,10.12.95,10.49,1.5-.37.55-4.08,1.5-10.49,1.5S1.75,3.02,1.5,2.53c.25-.55,3.98-1.53,10.51-1.53Z"/>
</svg>