<?xml version="1.0" encoding="UTF-8"?>
<svg id="icons" xmlns="http://www.w3.org/2000/svg" viewBox="0 0 24 24">
  <defs>
    <style>
      .cls-1 {
        fill: #bb2649;
      }
    </style>
  </defs>
  <path id="icon_folder-move-to_inv" class="cls-1" d="M23.5,5.5h-11.21l-1.86-3.25c-.09-.16-.25-.25-.43-.25H.5c-.28,0-.5.22-.5.5v19c0,.28.22.5.5.5h23c.28,0,.5-.22.5-.5V6c0-.28-.22-.5-.5-.5ZM20.83,13.87l-5,4.5c-.1.09-.22.13-.33.13-.14,0-.27-.06-.37-.17-.18-.21-.17-.52.04-.71l4.03-3.63H3.5c-.28,0-.5-.22-.5-.5s.22-.5.5-.5h15.7l-4.03-3.63c-.21-.19-.22-.5-.04-.71.19-.2.5-.22.71-.04l5,4.5c.1.1.17.23.17.37s-.06.28-.17.37Z"/>
</svg>