<?xml version="1.0" encoding="UTF-8"?>
<svg id="export" xmlns="http://www.w3.org/2000/svg" viewBox="0 0 24 24">
  <defs>
    <style>
      .cls-1 {
        fill: #bb2649;
      }
    </style>
  </defs>
  <g id="icon_folder-move-to">
    <path class="cls-1" d="M23.5,22H.5c-.28,0-.5-.22-.5-.5V2.5c0-.28.22-.5.5-.5h9.5c.18,0,.34.1.43.25l1.86,3.25h11.21c.28,0,.5.22.5.5v15.5c0,.28-.22.5-.5.5ZM1,21h22V6.5h-11c-.18,0-.34-.1-.43-.25l-1.86-3.25H1v18Z"/>
    <path class="cls-1" d="M20.83,13.13l-5-4.5c-.21-.18-.52-.17-.71.04-.18.21-.17.52.04.71l4.03,3.63H3.5c-.28,0-.5.22-.5.5s.22.5.5.5h15.7l-4.03,3.63c-.21.19-.22.5-.04.71.1.11.24.17.37.17.12,0,.24-.04.33-.13l5-4.5c.1-.1.17-.23.17-.37s-.06-.28-.17-.37Z"/>
  </g>
</svg>