<?xml version="1.0" encoding="UTF-8"?>
<svg id="icons" xmlns="http://www.w3.org/2000/svg" viewBox="0 0 24 24">
  <defs>
    <style>
      .cls-1 {
        fill: #bb2649;
      }
    </style>
  </defs>
  <path id="icon_folder-add_inv" class="cls-1" d="M23.5,5.5h-11.21l-1.86-3.25c-.09-.16-.25-.25-.43-.25H.5c-.28,0-.5.22-.5.5v19c0,.28.22.5.5.5h23c.28,0,.5-.22.5-.5V6c0-.28-.22-.5-.5-.5ZM16.5,14h-4v4c0,.28-.22.5-.5.5s-.5-.22-.5-.5v-4h-4c-.28,0-.5-.22-.5-.5s.22-.5.5-.5h4v-4c0-.28.22-.5.5-.5s.5.22.5.5v4h4c.28,0,.5.22.5.5s-.22.5-.5.5Z"/>
</svg>