<?xml version="1.0" encoding="UTF-8"?>
<svg id="icons" xmlns="http://www.w3.org/2000/svg" viewBox="0 0 24 24">
  <defs>
    <style>
      .cls-1 {
        fill: #bb2649;
      }
    </style>
  </defs>
  <g id="icon_folder-add">
    <path class="cls-1" d="M23.5,22H.5c-.28,0-.5-.22-.5-.5V2.5c0-.28.22-.5.5-.5h9.5c.18,0,.34.1.43.25l1.86,3.25h11.21c.28,0,.5.22.5.5v15.5c0,.28-.22.5-.5.5ZM1,21h22V6.5h-11c-.18,0-.34-.1-.43-.25l-1.86-3.25H1v18Z"/>
    <path class="cls-1" d="M16.5,13h-4v-4c0-.28-.22-.5-.5-.5s-.5.22-.5.5v4h-4c-.28,0-.5.22-.5.5s.22.5.5.5h4v4c0,.28.22.5.5.5s.5-.22.5-.5v-4h4c.28,0,.5-.22.5-.5s-.22-.5-.5-.5Z"/>
  </g>
</svg>