<?xml version="1.0" encoding="UTF-8"?>
<svg id="export" xmlns="http://www.w3.org/2000/svg" width="24" height="24" viewBox="0 0 24 24">
  <defs>
    <style>
      .cls-1 {
        fill: #bb2649;
      }
    </style>
  </defs>
  <g id="icon_gallery">
    <path class="cls-1" d="m10.5,11H.5c-.28,0-.5-.22-.5-.5V.5C0,.22.22,0,.5,0h10c.28,0,.5.22.5.5v10c0,.28-.22.5-.5.5Zm-9.5-1h9V1H1v9Z"/>
    <path class="cls-1" d="m23.5,7h-10c-.28,0-.5-.22-.5-.5V.5c0-.28.22-.5.5-.5h10c.28,0,.5.22.5.5v6c0,.28-.22.5-.5.5Zm-9.5-1h9V1h-9v5Z"/>
    <path class="cls-1" d="m23.5,15.5h-10c-.28,0-.5-.22-.5-.5v-6c0-.28.22-.5.5-.5h10c.28,0,.5.22.5.5v6c0,.28-.22.5-.5.5Zm-9.5-1h9v-5h-9v5Z"/>
    <path class="cls-1" d="m23.5,24h-10c-.28,0-.5-.22-.5-.5v-6c0-.28.22-.5.5-.5h10c.28,0,.5.22.5.5v6c0,.28-.22.5-.5.5Zm-9.5-1h9v-5h-9v5Z"/>
    <path class="cls-1" d="m10.5,24H.5c-.28,0-.5-.22-.5-.5v-10c0-.28.22-.5.5-.5h10c.28,0,.5.22.5.5v10c0,.28-.22.5-.5.5Zm-9.5-1h9v-9H1v9Z"/>
  </g>
</svg>