<svg id="export" xmlns="http://www.w3.org/2000/svg" width="24" height="24" viewBox="0 0 24 24"><defs><style>.cls-1{fill:#3c5583;}</style></defs><g id="icon_gallery"><path class="cls-1" d="M10.5,11H.5a.5.5,0,0,1-.5-.5V.5A.5.5,0,0,1,.5,0h10a.5.5,0,0,1,.5.5v10A.5.5,0,0,1,10.5,11ZM1,10h9V1H1Z"/><path class="cls-1" d="M23.5,7h-10a.5.5,0,0,1-.5-.5V.5a.5.5,0,0,1,.5-.5h10a.5.5,0,0,1,.5.5v6A.5.5,0,0,1,23.5,7ZM14,6h9V1H14Z"/><path class="cls-1" d="M23.5,15.5h-10A.5.5,0,0,1,13,15V9a.5.5,0,0,1,.5-.5h10A.5.5,0,0,1,24,9v6A.5.5,0,0,1,23.5,15.5Zm-9.5-1h9v-5H14Z"/><path class="cls-1" d="M23.5,24h-10a.5.5,0,0,1-.5-.5v-6a.5.5,0,0,1,.5-.5h10a.5.5,0,0,1,.5.5v6A.5.5,0,0,1,23.5,24ZM14,23h9V18H14Z"/><path class="cls-1" d="M10.5,24H.5a.5.5,0,0,1-.5-.5v-10A.5.5,0,0,1,.5,13h10a.5.5,0,0,1,.5.5v10A.5.5,0,0,1,10.5,24ZM1,23h9V14H1Z"/></g></svg>