<?xml version="1.0" encoding="UTF-8"?>
<svg id="export" xmlns="http://www.w3.org/2000/svg" width="24" height="24" viewBox="0 0 24 24">
  <defs>
    <style>
      .cls-1 {
        fill: #bb2649;
        stroke-width: 0px;
      }
    </style>
  </defs>
  <g id="path_hamburger-menue">
    <path class="cls-1" d="M23,21H1c-.55,0-1-.45-1-1s.45-1,1-1h22c.55,0,1,.45,1,1s-.45,1-1,1Z"/>
    <path class="cls-1" d="M23,13H1c-.55,0-1-.45-1-1s.45-1,1-1h22c.55,0,1,.45,1,1s-.45,1-1,1Z"/>
    <path class="cls-1" d="M23,5H1c-.55,0-1-.45-1-1s.45-1,1-1h22c.55,0,1,.45,1,1s-.45,1-1,1Z"/>
  </g>
</svg>