<?xml version="1.0" encoding="UTF-8"?>
<svg id="export" xmlns="http://www.w3.org/2000/svg" width="24" height="24" viewBox="0 0 24 24">
  <defs>
    <style>
      .cls-1 {
        fill: #bb2649;
        stroke-width: 0px;
      }
    </style>
  </defs>
  <path id="like_inv" class="cls-1" d="m12,23c-.14,0-.27-.06-.36-.15L1.97,12.79C.71,11.47,0,9.69,0,7.78c0-1.92.69-3.73,1.96-5.08,1.05-1.11,2.41-1.7,3.95-1.7,1.91,0,4.1,1.04,5.86,2.77.08.08.16.15.23.21.07-.06.15-.13.23-.21,1.76-1.73,3.95-2.77,5.86-2.77,1.53,0,2.9.59,3.95,1.7,1.27,1.35,1.97,3.16,1.96,5.08,0,1.91-.71,3.69-1.97,5l-9.67,10.06c-.09.1-.22.15-.36.15Z"/>
</svg>