<?xml version="1.0" encoding="UTF-8"?>
<svg id="export" xmlns="http://www.w3.org/2000/svg" width="24" height="24" viewBox="0 0 24 24">
  <defs>
    <style>
      .cls-1 {
        fill: #3c5583;
      }
    </style>
  </defs>
  <g id="icon-help">
    <path class="cls-1" d="m12,24C5.38,24,0,18.62,0,12S5.38,0,12,0s12,5.38,12,12-5.38,12-12,12Zm0-23C5.93,1,1,5.93,1,12s4.93,11,11,11,11-4.93,11-11S18.07,1,12,1Z"/>
    <path class="cls-1" d="m11.13,20c0-.7.29-1.05.86-1.05s.88.35.88,1.05-.29,1.05-.88,1.05-.86-.35-.86-1.05Z"/>
    <path class="cls-1" d="m11.61,15v-.4c0-.89.13-1.62.4-2.18.27-.56.76-1.17,1.49-1.81l.98-.86c.52-.44.88-.88,1.11-1.31s.33-.93.33-1.5c0-.92-.3-1.65-.9-2.19-.6-.54-1.38-.81-2.36-.81-.57,0-1.1.06-1.59.19-.49.13-1.03.33-1.6.61l-.4-.87c.79-.35,1.45-.58,1.98-.69.53-.12,1.08-.17,1.65-.17,1.31,0,2.34.36,3.09,1.07.75.71,1.13,1.69,1.13,2.93,0,.49-.06.92-.19,1.29s-.31.71-.54,1.03c-.23.31-.51.62-.84.91s-.69.61-1.1.95c-.46.39-.81.75-1.06,1.07-.25.32-.43.66-.54,1.01-.11.35-.17.88-.17,1.58v.15h-.88Z"/>
  </g>
</svg>