<?xml version="1.0" encoding="UTF-8"?>
<svg id="export" xmlns="http://www.w3.org/2000/svg" width="24" height="24" viewBox="0 0 24 24">
  <defs>
    <style>
      .cls-1 {
        fill: #bb2649;
        stroke-width: 0px;
      }
    </style>
  </defs>
  <path id="icon_help_inv" class="cls-1" d="m12,0C5.38,0,0,5.38,0,12s5.38,12,12,12,12-5.38,12-12S18.62,0,12,0Zm1.11,20.46c-.25.28-.6.42-1.04.42-.41,0-.74-.12-1.01-.37s-.4-.65-.4-1.21c0-1.06.47-1.59,1.41-1.59.45,0,.8.14,1.05.41s.37.67.37,1.18-.12.89-.38,1.17Zm4.18-11.59c-.15.43-.38.84-.67,1.23s-.94,1.01-1.92,1.87c-.79.67-1.31,1.23-1.56,1.68s-.38,1.04-.38,1.78v.39h-1.51v-.63c0-.91.14-1.67.42-2.26s.8-1.21,1.57-1.87c1.06-.9,1.73-1.57,2.01-2.03s.42-1,.42-1.64c0-.8-.26-1.41-.77-1.85s-1.25-.65-2.21-.65c-.62,0-1.22.07-1.8.22s-1.26.41-2.02.79l-.69-1.58c1.48-.77,3.02-1.16,4.63-1.16,1.49,0,2.65.37,3.48,1.1s1.24,1.77,1.24,3.11c0,.57-.08,1.07-.23,1.51Z"/>
</svg>