<?xml version="1.0" encoding="UTF-8"?>
<svg id="export" xmlns="http://www.w3.org/2000/svg" width="24" height="24" viewBox="0 0 24 24">
  <defs>
    <style>
      .cls-1 {
        fill: #bb2649;
      }
    </style>
  </defs>
  <g id="icon-hide">
    <path class="cls-1" d="m18.14,4.85c.2-.2.2-.51,0-.71s-.51-.2-.71,0l-.96.96c-1.38-.67-2.88-1.11-4.47-1.11C5.46,4,.3,11.4.09,11.72c-.12.17-.12.4,0,.57.12.18,1.83,2.63,4.48,4.73l-2.14,2.14c-.2.2-.2.51,0,.71.1.1.23.15.35.15s.26-.05.35-.15l15-15Zm-8.14,1.65c1.1,0,2,.9,2,2s-.9,2-2,2-2-.9-2-2,.9-2,2-2Zm-4.7,9.78c-2.11-1.65-3.65-3.57-4.18-4.28.75-1,3.45-4.37,6.97-6.04-1.27,1.1-2.09,2.72-2.09,4.54,0,1.42.5,2.73,1.33,3.76l-2.03,2.03Z"/>
    <path class="cls-1" d="m23.91,11.72c-.14-.2-2.35-3.35-5.65-5.56l-.73.73c2.71,1.77,4.72,4.28,5.35,5.11-1,1.34-5.55,7-10.88,7-1.8,0-3.51-.65-5.02-1.56l-.74.74c1.7,1.05,3.66,1.82,5.76,1.82,6.54,0,11.7-7.4,11.91-7.72.12-.17.12-.4,0-.57Z"/>
    <path class="cls-1" d="m18,10.5c0-1.16-.35-2.24-.92-3.16l-8.24,8.24c.92.58,2,.91,3.17.91,3.31,0,6-2.69,6-6Z"/>
  </g>
</svg>