<svg xmlns="http://www.w3.org/2000/svg" width="24" height="16" viewBox="0 0 24 16"><defs><style>.a{fill:#4e6080;}</style></defs><path class="a" d="M526.144,105.354a.5.5,0,0,0-.707-.708l-.964.964A10.257,10.257,0,0,0,520,104.5c-6.54,0-11.7,7.4-11.912,7.717a.5.5,0,0,0,0,.566,23.973,23.973,0,0,0,4.484,4.728l-2.135,2.135a.5.5,0,0,0,.707.708ZM518,107a2,2,0,1,1-2,2A2,2,0,0,1,518,107Zm-4.7,9.784a24,24,0,0,1-4.181-4.284,21.014,21.014,0,0,1,6.967-6.041,5.987,5.987,0,0,0-.759,8.3Z" transform="translate(-508 -104.5)"/><path class="a" d="M531.912,112.217a23.528,23.528,0,0,0-5.647-5.565l-.734.734a22.968,22.968,0,0,1,5.351,5.114c-1,1.343-5.551,7-10.882,7a9.858,9.858,0,0,1-5.021-1.563l-.741.743A11.043,11.043,0,0,0,520,120.5c6.54,0,11.7-7.4,11.912-7.717A.5.5,0,0,0,531.912,112.217Z" transform="translate(-508 -104.5)"/><path class="a" d="M526,111a5.919,5.919,0,0,0-.925-3.158l-8.243,8.243A5.987,5.987,0,0,0,526,111Z" transform="translate(-508 -104.5)"/></svg>