<svg id="export" xmlns="http://www.w3.org/2000/svg" width="24" height="24" viewBox="0 0 24 24"><defs><style>.cls-1{fill:#3c5583;}</style></defs><g id="icon-picture"><path class="cls-1" d="M23.5,0H.5A.5.5,0,0,0,0,.5v23a.5.5,0,0,0,.5.5h23a.5.5,0,0,0,.5-.5V.5A.5.5,0,0,0,23.5,0ZM23,1V16.06l-6.85-5.94a.5.5,0,0,0-.66,0l-5.43,5-3-2.39a.49.49,0,0,0-.65,0l-5.4,5V1ZM1,23V19a.5.5,0,0,0,.34-.13l5.42-5,3,2.39a.49.49,0,0,0,.65,0l5.41-5,6.83,5.93a.52.52,0,0,0,.33.12V23Z"/><path class="cls-1" d="M7,9a3,3,0,1,1,3-3A3,3,0,0,1,7,9ZM7,4A2,2,0,1,0,9,6,2,2,0,0,0,7,4Z"/></g></svg>