<?xml version="1.0" encoding="UTF-8"?>
<svg id="export" xmlns="http://www.w3.org/2000/svg" width="24" height="24" viewBox="0 0 24 24">
  <defs>
    <style>
      .cls-1 {
        fill: #bb2649;
      }
    </style>
  </defs>
  <g id="icon-picture">
    <path class="cls-1" d="m23.5,0H.5C.22,0,0,.22,0,.5v23c0,.28.22.5.5.5h23c.28,0,.5-.22.5-.5V.5c0-.28-.22-.5-.5-.5Zm-.5,1v15.06l-6.85-5.94c-.19-.17-.48-.16-.67.01l-5.42,5.04-3.01-2.4c-.19-.15-.47-.14-.65.02l-5.4,5.02V1h22ZM1,23v-4c.12,0,.24-.04.34-.13l5.42-5.04,3.01,2.4c.19.15.47.14.65-.02l5.41-5.03,6.83,5.93c.09.08.21.12.33.12v5.78H1Z"/>
    <path class="cls-1" d="m7,9c-1.65,0-3-1.35-3-3s1.35-3,3-3,3,1.35,3,3-1.35,3-3,3Zm0-5c-1.1,0-2,.9-2,2s.9,2,2,2,2-.9,2-2-.9-2-2-2Z"/>
  </g>
</svg>