<?xml version="1.0" encoding="UTF-8"?>
<svg id="export" xmlns="http://www.w3.org/2000/svg" width="24" height="24" viewBox="0 0 24 24">
  <defs>
    <style>
      .cls-1 {
        fill: #bb2649;
      }
    </style>
  </defs>
  <g id="icon_import">
    <path class="cls-1" d="m1,23.5V.5c0-.28.22-.5.5-.5h9c.28,0,.5.22.5.5s-.22.5-.5.5H2v22h8.5c.28,0,.5.22.5.5s-.22.5-.5.5H1.5c-.28,0-.5-.22-.5-.5Z"/>
    <path class="cls-1" d="m5.15,12.37l5.15,5.47c.2.21.51.21.71,0s.2-.54,0-.75l-4.29-4.56h15.79c.28,0,.5-.24.5-.53,0-.15-.06-.28-.15-.38s-.22-.16-.35-.16H6.71l4.29-4.56c.2-.21.2-.54,0-.75s-.51-.21-.71,0l-5.14,5.47c-.2.21-.2.54,0,.75Z"/>
  </g>
</svg>