<?xml version="1.0" encoding="UTF-8"?>
<svg id="export" xmlns="http://www.w3.org/2000/svg" width="24" height="24" viewBox="0 0 24 24">
  <defs>
    <style>
      .cls-1 {
        fill: #bb2649;
      }
    </style>
  </defs>
  <g id="icon_info">
    <path class="cls-1" d="m12,24C5.38,24,0,18.62,0,12S5.38,0,12,0s12,5.38,12,12-5.38,12-12,12Zm0-23C5.93,1,1,5.93,1,12s4.93,11,11,11,11-4.93,11-11S18.07,1,12,1Z"/>
    <path class="cls-1" d="m10.86,4.21c0-.45.11-.77.33-.98s.49-.31.82-.31.58.11.81.32.34.54.34.97-.11.76-.34.98-.5.32-.81.32c-.33,0-.6-.11-.82-.32s-.33-.54-.33-.98Zm2.11,16.32h-1.95V7.69h1.95v12.84Z"/>
  </g>
</svg>