<?xml version="1.0" encoding="UTF-8"?>
<svg id="export" xmlns="http://www.w3.org/2000/svg" width="24" height="24" viewBox="0 0 24 24">
  <defs>
    <style>
      .cls-1 {
        fill: #3c5583;
      }
    </style>
  </defs>
  <path id="icon-info" class="cls-1" d="m12,0C5.38,0,0,5.38,0,12s5.38,12,12,12,12-5.38,12-12S18.62,0,12,0Zm1.26,20.22h-2.52v-11.88h2.52v11.88Zm-.21-14.01c-.25.25-.59.37-1.04.37s-.81-.12-1.06-.37c-.25-.25-.37-.59-.37-1.02,0-.45.12-.8.37-1.04.25-.24.6-.37,1.06-.37s.79.12,1.04.37c.25.24.37.59.37,1.04s-.12.77-.37,1.02Z"/>
</svg>