<?xml version="1.0" encoding="UTF-8"?>
<svg id="export" xmlns="http://www.w3.org/2000/svg" width="24" height="24" viewBox="0 0 24 24">
  <defs>
    <style>
      .cls-1 {
        fill: #bb2649;
        stroke-width: 0px;
      }
    </style>
  </defs>
  <path id="icon_info_inv" class="cls-1" d="m12,0C5.38,0,0,5.38,0,12s5.38,12,12,12,12-5.38,12-12S18.62,0,12,0Zm.97,20.53h-1.95V7.69h1.95v12.84Zm-.15-15.35c-.23.21-.5.32-.81.32-.33,0-.6-.11-.82-.32s-.33-.54-.33-.98.11-.77.33-.98.49-.31.82-.31.58.11.81.32.34.54.34.97-.11.76-.34.98Z"/>
</svg>