<?xml version="1.0" encoding="UTF-8"?>
<svg id="export" xmlns="http://www.w3.org/2000/svg" width="24" height="24" viewBox="0 0 24 24">
  <defs>
    <style>
      .cls-1 {
        fill: #3c5583;
      }
    </style>
  </defs>
  <g id="icon-info">
    <path class="cls-1" d="m12,24C5.38,24,0,18.62,0,12S5.38,0,12,0s12,5.38,12,12-5.38,12-12,12Zm0-23C5.93,1,1,5.93,1,12s4.93,11,11,11,11-4.93,11-11S18.07,1,12,1Z"/>
    <path class="cls-1" d="m11.31,4.03c0-.69.23-1.03.68-1.03.22,0,.4.09.52.27.13.18.19.43.19.76s-.06.58-.19.76c-.12.19-.3.28-.52.28-.45,0-.68-.35-.68-1.04Zm1.21,16.92h-1.06v-11.68h1.06v11.68Z"/>
  </g>
</svg>