<?xml version="1.0" encoding="UTF-8"?>
<svg id="export" xmlns="http://www.w3.org/2000/svg" viewBox="0 0 24 24">
  <defs>
    <style>
      .cls-1 {
        fill: #bb2649;
      }
    </style>
  </defs>
  <g id="icon_integrations_inv">
    <path class="cls-1" d="M10.53,19.35h-4.36c-.28,0-.5-.22-.5-.5v-7.43c0-.28.22-.51.52-.5.22,0,.42-.04.6-.12l1.37-.59c.36-.16.65-.46.8-.83.03-.06.05-.13.06-.19.04-.17.17-.3.34-.36.05-.01.1-.03.14-.05.36-.16.66-.46.8-.83l.59-1.51c.15-.38.14-.82-.04-1.19-.03-.07-.08-.14-.12-.21-.1-.15-.12-.35-.04-.51.2-.4.21-.87.04-1.27l-.07-.16c-.07-.15-.05-.33.04-.47.09-.14.25-.22.42-.22h7.72c.28,0,.5.22.5.5v7.63c0,.25-.19.46-.43.5-.16.02-.29.05-.39.1-.13.05-.24.12-.35.21-.17.14-.4.15-.59.03-.08-.05-.17-.1-.26-.14-.37-.15-.78-.14-1.15.02l-1.68.73c-.36.16-.65.46-.8.83-.04.1-.07.2-.08.31-.04.23-.23.4-.46.42-.58.04-1.07.4-1.28.93l-.75,1.85c-.19.47-.13,1,.16,1.41.12.17.12.4,0,.57-.07.1-.13.21-.18.32,0,0,0,0,0,0-.04.09-.06.19-.08.32-.04.24-.25.42-.49.42ZM10.64,18.43h0,0Z"/>
    <path class="cls-1" d="M23.95,18.88c-.06-.12-.17-.22-.3-.26l-.47-.15c.04-.41.02-.83-.04-1.23l.39-.17c.25-.11.37-.4.26-.66l-.78-1.8c-.05-.12-.15-.22-.28-.27-.12-.05-.26-.05-.38,0l-.53.23c-.18-.21-.38-.4-.6-.57l.21-.58c.09-.25-.03-.53-.28-.63l-1.85-.75c-.12-.05-.26-.05-.38,0-.12.05-.22.15-.27.28l-.21.52c-.34-.03-.69-.03-1.02,0l-.19-.43c-.05-.12-.15-.22-.27-.27-.12-.05-.26-.05-.38,0l-1.68.73c-.12.05-.22.15-.27.28-.05.12-.05.26,0,.38l.17.4c-.3.23-.58.5-.8.81l-.57-.21c-.26-.09-.53.03-.63.28l-.75,1.85c-.1.25.01.52.25.64l.59.28c-.02.28-.02.57,0,.85l-.6.26c-.12.05-.22.15-.27.28s-.05.26,0,.38l.78,1.8c.11.25.4.37.66.26l.46-.2c.25.33.55.63.88.88l-.21.49c-.05.12-.05.27,0,.39s.15.22.28.27l1.83.71c.06.02.12.03.18.03.19,0,.37-.11.46-.29l.27-.59c.38.04.77.03,1.14-.04l.23.53c.05.12.15.22.28.27.12.05.26.05.38,0l1.68-.73c.25-.11.37-.4.26-.66l-.24-.56c.26-.22.5-.47.71-.74l.53.21c.12.05.26.05.38,0s.22-.15.27-.28l.73-1.84c.05-.13.05-.27-.01-.4ZM19.33,21.14h0c-.44.19-.9.29-1.37.29-.43,0-.85-.08-1.26-.24-.85-.34-1.53-.99-1.89-1.83-.75-1.74.05-3.77,1.79-4.52.84-.37,1.78-.38,2.63-.04.85.34,1.53.99,1.89,1.83.75,1.74-.05,3.77-1.79,4.52Z"/>
    <path class="cls-1" d="M9.95,5.68c-.06-.12-.17-.22-.3-.26l-.32-.1c.02-.3.01-.59-.03-.89l.25-.11c.25-.11.37-.4.26-.66l-.64-1.47c-.11-.25-.4-.37-.66-.26l-.37.16c-.13-.14-.26-.27-.41-.39l.15-.42c.09-.25-.03-.53-.28-.63L6.1.04c-.13-.05-.26-.05-.38,0-.12.05-.22.15-.27.28l-.15.37c-.24-.02-.48-.02-.72,0l-.13-.29c-.05-.12-.15-.22-.27-.27-.12-.05-.26-.05-.38,0l-1.37.59c-.12.05-.22.15-.27.28-.05.12-.05.26,0,.38l.11.26c-.21.17-.41.37-.58.58l-.4-.15c-.26-.09-.53.03-.63.28L.05,3.88c-.1.25.01.52.25.64l.43.2c-.01.19-.01.39,0,.58l-.43.19c-.12.05-.22.15-.27.28-.05.12-.05.26,0,.38l.64,1.47c.05.12.15.22.28.27.13.05.26.05.38,0l.31-.13c.19.24.4.45.64.64l-.14.34c-.05.12-.05.27,0,.39s.15.22.28.27l1.5.58c.06.02.12.03.18.03.19,0,.37-.11.46-.29l.19-.43c.27.02.55.02.82-.03l.16.37c.05.12.15.22.28.27.12.05.26.05.38,0l1.37-.59c.12-.05.22-.15.27-.28s.05-.26,0-.38l-.17-.4c.18-.16.35-.33.5-.52l.37.15c.12.05.26.05.38,0s.22-.15.27-.28l.59-1.51c.05-.13.05-.27-.01-.4ZM6.12,7.65h0c-.37.16-.76.24-1.15.24-.36,0-.72-.07-1.07-.21-.72-.29-1.29-.83-1.6-1.55-.64-1.47.04-3.18,1.51-3.82.71-.31,1.5-.32,2.22-.04s1.29.83,1.6,1.55c.64,1.47-.04,3.18-1.51,3.82Z"/>
  </g>
  <g id="icon_integrations">
    <path class="cls-1" d="M18.38,19.35h-2.3c-.19,0-.36-.11-.45-.27-.5-.99-.32-2.15.47-2.95.79-.82,1.96-1.03,2.97-.55.17.08.29.26.29.45v2.35c0,.54-.44.98-.98.98Z"/>
  </g>
</svg>