<?xml version="1.0" encoding="UTF-8"?>
<svg id="export" xmlns="http://www.w3.org/2000/svg" viewBox="0 0 24 24">
  <defs>
    <style>
      .cls-1 {
        fill: #bb2649;
      }
    </style>
  </defs>
  <g id="icon_integrations">
    <g>
      <path class="cls-1" d="M18.85,11.03c-.28,0-.5-.22-.5-.5V3.4h-7.22c-.28,0-.5-.22-.5-.5s.22-.5.5-.5h7.72c.28,0,.5.22.5.5v7.63c0,.28-.22.5-.5.5Z"/>
      <path class="cls-1" d="M10.53,19.35h-4.36c-.28,0-.5-.22-.5-.5v-7.43c0-.28.22-.5.5-.5s.51.22.51.5c0,.04,0,.07-.01.11v6.83h3.86c.28,0,.5.22.5.5s-.22.5-.5.5Z"/>
      <path class="cls-1" d="M18.85,19.35h-1.41c-.28,0-.5-.22-.5-.5s.22-.5.5-.5h.91v-.97c0-.28.22-.5.5-.5s.5.22.5.5v1.47c0,.28-.22.5-.5.5Z"/>
    </g>
    <path class="cls-1" d="M16.9,24c-.06,0-.12-.01-.18-.03l-1.83-.71c-.13-.05-.23-.15-.28-.27s-.05-.27,0-.39l.21-.49c-.33-.25-.63-.55-.88-.88l-.46.2c-.26.11-.55,0-.66-.26l-.78-1.8c-.05-.12-.05-.26,0-.38s.14-.22.27-.28l.6-.26c-.03-.28-.03-.57,0-.85l-.59-.28c-.24-.11-.35-.39-.25-.64l.75-1.85c.1-.25.38-.37.63-.28l.57.21c.23-.3.5-.58.8-.81l-.17-.4c-.05-.12-.05-.26,0-.38.05-.12.14-.22.27-.28l1.68-.73c.12-.05.26-.05.38,0,.12.05.22.14.27.27l.19.43c.34-.04.68-.04,1.02,0l.21-.52c.05-.12.15-.22.27-.28.12-.05.26-.05.38,0l1.85.75c.25.1.37.38.28.63l-.21.58c.22.17.42.36.6.57l.53-.23c.12-.05.26-.05.38,0,.12.05.22.14.28.27l.78,1.8c.11.25,0,.55-.26.66l-.39.17c.07.41.08.82.04,1.23l.47.15c.13.04.24.14.3.26.06.12.06.27.01.4l-.73,1.84c-.05.12-.14.22-.27.28s-.26.05-.38,0l-.53-.21c-.21.27-.45.51-.71.74l.24.56c.11.25,0,.55-.26.66l-1.68.73c-.12.05-.26.05-.38,0-.12-.05-.22-.14-.28-.27l-.23-.53c-.38.07-.76.08-1.14.04l-.27.59c-.08.18-.26.29-.46.29ZM15.73,22.51l.91.35.23-.51c.1-.21.33-.33.56-.28.49.1,1,.08,1.49-.06.24-.07.5.05.6.28l.2.45.76-.33-.2-.45c-.09-.21-.03-.46.16-.6.4-.3.75-.66,1.03-1.07.13-.2.38-.27.6-.18l.42.17.35-.88-.36-.12c-.24-.08-.38-.32-.33-.57.1-.55.08-1.12-.06-1.66-.06-.24.06-.49.29-.58l.3-.13-.38-.88-.42.18c-.21.09-.46.03-.6-.16-.26-.35-.57-.65-.93-.88-.19-.13-.27-.37-.19-.58l.17-.48-.94-.38-.17.42c-.09.22-.31.35-.54.31-.49-.08-.99-.07-1.49.01-.22.04-.45-.08-.55-.29l-.14-.32-.76.33.14.32c.1.23.01.5-.2.63-.43.26-.8.63-1.06,1.06-.12.2-.38.29-.6.21l-.48-.17-.39.97.49.23c.2.1.32.31.28.54-.07.43-.07.86,0,1.29.04.23-.08.45-.29.54l-.49.21.38.88.37-.16c.22-.1.49-.02.62.19.3.47.71.87,1.17,1.17.21.13.29.39.19.62l-.17.39ZM17.96,21.42c-.43,0-.85-.08-1.26-.24-.85-.34-1.53-.99-1.89-1.83-.75-1.74.05-3.77,1.79-4.52.84-.37,1.78-.38,2.63-.04.85.34,1.53.99,1.89,1.83.75,1.74-.05,3.77-1.79,4.52h0c-.44.19-.9.29-1.37.29ZM19.13,20.68h0,0ZM17.96,15.54c-.33,0-.66.07-.97.2-1.23.54-1.8,1.97-1.27,3.21.26.6.74,1.06,1.34,1.3.6.24,1.27.23,1.86-.03h0c1.23-.54,1.8-1.97,1.27-3.21-.26-.6-.74-1.06-1.34-1.3-.29-.11-.59-.17-.9-.17Z"/>
    <path class="cls-1" d="M4.1,10c-.06,0-.12-.01-.18-.03l-1.5-.58c-.13-.05-.23-.15-.28-.27s-.05-.27,0-.39l.14-.34c-.23-.19-.45-.4-.64-.64l-.31.13c-.12.05-.26.06-.38,0-.12-.05-.22-.14-.28-.27L.04,6.15c-.05-.12-.05-.26,0-.38.05-.12.14-.22.27-.28l.43-.19c-.01-.19-.01-.39,0-.58l-.43-.2c-.24-.11-.35-.39-.25-.64l.61-1.51c.1-.25.38-.37.63-.28l.4.15c.17-.22.36-.41.58-.58l-.11-.26c-.05-.12-.05-.26,0-.38.05-.12.14-.22.27-.28L3.8.14c.12-.05.26-.05.38,0,.12.05.22.15.27.27l.13.29c.24-.02.48-.02.72,0l.15-.37c.05-.12.15-.22.27-.28.12-.05.26-.05.38,0l1.51.61c.25.1.37.38.28.63l-.15.42c.15.12.28.25.41.39l.37-.16c.26-.11.55,0,.66.26l.64,1.47c.11.25,0,.55-.26.66l-.25.11c.04.29.05.59.03.89l.32.1c.13.04.24.14.3.26.06.12.06.27.01.4l-.59,1.51c-.05.12-.14.22-.27.28s-.26.06-.38,0l-.37-.15c-.15.19-.32.36-.5.52l.17.4c.05.12.05.26,0,.38s-.14.22-.27.28l-1.37.59c-.12.05-.26.05-.38,0-.12-.05-.22-.14-.28-.27l-.16-.37c-.27.04-.55.05-.82.03l-.19.43c-.08.18-.26.29-.46.29ZM3.26,8.64l.58.22.15-.34c.1-.21.33-.33.56-.28.39.08.79.07,1.18-.05.24-.07.5.05.6.28l.12.29.45-.2-.13-.29c-.09-.21-.03-.46.16-.6.32-.24.6-.52.82-.85.13-.2.38-.27.6-.18l.26.1.22-.55-.21-.07c-.24-.08-.38-.32-.34-.57.08-.43.07-.89-.04-1.32-.06-.24.06-.49.29-.58l.17-.07-.24-.55-.26.11c-.21.09-.46.03-.6-.16-.21-.28-.45-.51-.74-.7-.19-.13-.27-.37-.19-.58l.11-.31-.6-.24-.1.25c-.09.22-.31.35-.54.31-.39-.06-.79-.06-1.19,0-.22.04-.46-.08-.55-.29l-.08-.18-.46.2.08.18c.1.23.01.5-.2.63-.34.21-.63.49-.84.83-.12.2-.38.29-.6.21l-.31-.11-.25.63.33.16c.2.1.32.31.28.54-.06.34-.06.68,0,1.02.04.23-.08.45-.29.54l-.31.14.24.55.22-.1c.22-.1.49-.02.62.19.24.37.56.69.93.93.21.13.29.39.19.62l-.1.23ZM4.97,7.89c-.36,0-.72-.07-1.07-.21-.72-.29-1.29-.83-1.6-1.55-.64-1.47.04-3.18,1.51-3.82.71-.31,1.5-.32,2.22-.04.72.29,1.29.83,1.6,1.55.64,1.47-.04,3.18-1.51,3.82h0c-.37.16-.76.24-1.15.24ZM5.92,7.19h0,0ZM4.97,3.08c-.26,0-.51.05-.76.16-.96.42-1.41,1.54-.99,2.51.2.47.57.83,1.05,1.01.47.19.99.18,1.46-.02h0c.96-.42,1.41-1.54.99-2.5-.2-.47-.57-.83-1.05-1.01-.23-.09-.46-.13-.7-.13Z"/>
  </g>
</svg>