<?xml version="1.0" encoding="UTF-8"?>
<svg id="export" xmlns="http://www.w3.org/2000/svg" width="24" height="24" viewBox="0 0 24 24">
  <defs>
    <style>
      .cls-1 {
        fill: #bb2649;
        stroke-width: 0px;
      }
    </style>
  </defs>
  <g id="icon_json">
    <path class="cls-1" d="m21.85,6.42L15.52.14c-.09-.09-.22-.14-.35-.14H2.5c-.28,0-.5.22-.5.5v23c0,.28.22.5.5.5h19c.28,0,.5-.22.5-.5V6.77c0-.13-.05-.26-.15-.36Zm-.85.56v.34h-6.39V1h.35l6.04,5.98Zm0,16.02H3V1h10.61v6.82c0,.28.22.5.5.5h6.89v14.68Z"/>
    <g>
      <path class="cls-1" d="m6.36,17.38c0-.61-.43-.91-1.3-.91v-.93c.44,0,.77-.07.98-.22.21-.15.32-.37.32-.68v-1.52c0-.51.18-.88.53-1.12.35-.24.88-.36,1.59-.36v.89c-.37.02-.64.09-.81.23-.17.14-.25.34-.25.6v1.45c0,.65-.37,1.04-1.12,1.16v.06c.75.12,1.12.5,1.12,1.16v1.46c0,.27.08.47.25.61s.44.21.81.21v.89c-.75,0-1.29-.13-1.62-.38-.33-.25-.5-.65-.5-1.21v-1.39Z"/>
      <path class="cls-1" d="m12.62,17.62l.07.11c-.16.61-.44,1.38-.86,2.34h-.84c.22-.88.39-1.7.5-2.45h1.13Zm-1.3-3.62c0-.49.24-.74.72-.74.24,0,.43.07.55.2s.18.31.18.54-.06.41-.19.55c-.13.13-.31.2-.54.2s-.41-.07-.54-.2-.19-.32-.19-.55Z"/>
      <path class="cls-1" d="m17.71,18.88c0,.51-.16.88-.49,1.12-.32.24-.84.36-1.56.37v-.89c.31,0,.55-.07.72-.19.17-.12.26-.33.26-.63v-1.28c0-.39.09-.7.26-.91s.46-.36.86-.42v-.06c-.75-.13-1.12-.51-1.12-1.16v-1.45c0-.27-.07-.47-.22-.6-.15-.13-.4-.21-.76-.23v-.89c.73,0,1.25.12,1.57.37.32.25.48.66.48,1.22v1.4c0,.33.1.56.31.69.21.14.51.21.92.21v.93c-.4,0-.71.07-.92.21-.21.14-.32.37-.32.7v1.5Z"/>
    </g>
  </g>
</svg>