<?xml version="1.0" encoding="UTF-8"?>
<svg id="export" xmlns="http://www.w3.org/2000/svg" width="24" height="24" viewBox="0 0 24 24">
  <defs>
    <style>
      .cls-1 {
        fill: #bb2649;
        stroke-width: 0px;
      }
    </style>
  </defs>
  <g>
    <path class="cls-1" d="M23.5,17h-10c-.28,0-.5-.22-.5-.5v-2c0-.28.22-.5.5-.5s.5.22.5.5v1.5h9v-8h-9v1.5c0,.28-.22.5-.5.5s-.5-.22-.5-.5v-2c0-.28.22-.5.5-.5h10c.28,0,.5.22.5.5v9c0,.28-.22.5-.5.5Z"/>
    <path class="cls-1" d="M10.5,17H.5c-.28,0-.5-.22-.5-.5V7.5c0-.28.22-.5.5-.5h10c.28,0,.5.22.5.5v2c0,.28-.22.5-.5.5s-.5-.22-.5-.5v-1.5H1v8h9v-1.5c0-.28.22-.5.5-.5s.5.22.5.5v2c0,.28-.22.5-.5.5Z"/>
  </g>
  <path class="cls-1" d="M20.5,12.5H3.5c-.28,0-.5-.22-.5-.5s.22-.5.5-.5h17c.28,0,.5.22.5.5s-.22.5-.5.5Z"/>
</svg>