<svg id="export" xmlns="http://www.w3.org/2000/svg" width="24" height="24" viewBox="0 0 24 24"><defs><style>.cls-1{fill:#3c5583;}</style></defs><g id="icon_list"><path class="cls-1" d="M23.5,3H.5a.5.5,0,0,1,0-1h23a.5.5,0,0,1,0,1Z"/><path class="cls-1" d="M23.5,9.33H.5a.5.5,0,0,1-.5-.5.5.5,0,0,1,.5-.5h23a.5.5,0,0,1,.5.5A.5.5,0,0,1,23.5,9.33Z"/><path class="cls-1" d="M23.5,15.67H.5a.5.5,0,0,1-.5-.5.5.5,0,0,1,.5-.5h23a.5.5,0,0,1,.5.5A.5.5,0,0,1,23.5,15.67Z"/><path class="cls-1" d="M23.5,22H.5a.5.5,0,0,1,0-1h23a.5.5,0,0,1,0,1Z"/></g></svg>