<?xml version="1.0" encoding="UTF-8"?>
<svg id="icons" xmlns="http://www.w3.org/2000/svg" viewBox="0 0 24 24">
  <defs>
    <style>
      .cls-1 {
        fill: #bb2649;
      }
    </style>
  </defs>
  <g id="icon_magic">
    <path class="cls-1" d="M21.5,18.5h-4v-4c0-.28-.22-.5-.5-.5s-.5.22-.5.5v4h-4c-.28,0-.5.22-.5.5s.22.5.5.5h4v4c0,.28.22.5.5.5s.5-.22.5-.5v-4h4c.28,0,.5-.22.5-.5s-.22-.5-.5-.5Z"/>
    <path class="cls-1" d="M3.5,21.5h-1v-1c0-.28-.22-.5-.5-.5s-.5.22-.5.5v1H.5c-.28,0-.5.22-.5.5s.22.5.5.5h1v1c0,.28.22.5.5.5s.5-.22.5-.5v-1h1c.28,0,.5-.22.5-.5s-.22-.5-.5-.5Z"/>
    <path class="cls-1" d="M23.5,3.5h-3V.5c0-.28-.22-.5-.5-.5s-.5.22-.5.5v3h-3c-.28,0-.5.22-.5.5s.22.5.5.5h3v3c0,.28.22.5.5.5s.5-.22.5-.5v-3h3c.28,0,.5-.22.5-.5s-.22-.5-.5-.5Z"/>
    <path class="cls-1" d="M8,17c-.35,0-.68-.2-.84-.52l-2.24-4.41L.51,9.83c-.31-.15-.51-.48-.51-.84s.2-.68.52-.84l4.41-2.24L7.16,1.49c.31-.61,1.36-.61,1.67,0l2.24,4.42,4.41,2.24c.31.15.51.48.51.83s-.2.68-.51.83l-4.41,2.24-2.24,4.41c-.16.31-.49.52-.84.52ZM8.06,16.03h0ZM1.08,8.99l4.45,2.26c.09.05.17.12.22.22l2.26,4.45,2.26-4.45c.05-.09.12-.17.22-.22l4.45-2.26-4.45-2.26c-.09-.05-.17-.12-.22-.22l-2.26-4.45-2.26,4.45c-.05.09-.12.17-.22.22l-4.45,2.26ZM.97,9.04h0ZM15.03,8.93h0Z"/>
  </g>
</svg>