<?xml version="1.0" encoding="UTF-8"?>
<svg id="export" xmlns="http://www.w3.org/2000/svg" width="24" height="24" viewBox="0 0 24 24">
  <defs>
    <style>
      .cls-1 {
        fill: #fff;
        stroke-width: 0px;
      }
    </style>
  </defs>
  <path class="cls-1" d="M0,11.45c.04-.3.13-.65.17-.95.73-2.99,3.44-5.06,6.51-4.98,2.06.02,3.98,1.04,5.16,2.72,0,.04.09.09.13.13.31-.44.68-.85,1.09-1.21,2.71-2.41,6.85-2.17,9.26.54,0,0,.02.02.02.03.37.42.69.89.95,1.39.44.89.68,1.86.69,2.86v6.28c0,.22-.04.26-.26.26h-1.74c-.22,0-.26-.04-.26-.26v-6.19c.05-2.03-1.35-3.81-3.34-4.24-2.31-.55-4.62.88-5.16,3.19,0,0,0,0,0,.01-.09.31-.13.63-.13.95v6.19c0,.35.04.3-.3.3h-1.65c-.22,0-.26-.04-.26-.26v-6.18c.06-2.11-1.47-3.93-3.56-4.24-2.31-.41-4.52,1.11-4.95,3.42-.05.24-.08.49-.09.74v6.23c-.04.3-.09.35-.3.35H0v-7.06Z"/>
</svg>