<svg xmlns="http://www.w3.org/2000/svg" width="24" height="13" viewBox="0 0 24 13"><path d="M.4,18.905c.043-.3.13-.649.174-.952a6.517,6.517,0,0,1,6.51-4.977A6.4,6.4,0,0,1,12.248,15.7c0,.043.087.087.13.13a7.025,7.025,0,0,1,1.085-1.212,6.561,6.561,0,0,1,9.288.563,7.181,7.181,0,0,1,.955,1.385,6.6,6.6,0,0,1,.694,2.856V25.7c0,.216-.043.26-.26.26H22.4c-.217,0-.26-.043-.26-.26V19.511A4.234,4.234,0,0,0,18.8,15.27a4.289,4.289,0,0,0-5.165,3.2,3.366,3.366,0,0,0-.13.952v6.188c0,.346.043.3-.3.3H11.554c-.217,0-.26-.043-.26-.26V19.468a4.177,4.177,0,0,0-3.559-4.241,4.268,4.268,0,0,0-4.948,3.419,4.805,4.805,0,0,0-.087.736v6.232c-.043.3-.087.346-.3.346H.4Z" transform="translate(-0.4 -12.959)"/></svg>