<?xml version="1.0" encoding="UTF-8"?>
<svg id="export" xmlns="http://www.w3.org/2000/svg" viewBox="0 0 24 24">
  <defs>
    <style>
      .cls-1 {
        fill: #bb2649;
      }
    </style>
  </defs>
  <path class="cls-1" d="M22.72,8.6v-4.31c.19-1.65-.58-2.66-1.35-3.06-.8-.41-1.73-.27-2.4.35-2.13,1.97-4.15,3.32-5.99,4.02-1.3.49-2.7.74-4.17.74H2.42c-1.14,0-2.42,1.01-2.42,2.46v3.92c0,2.02,1.31,2.45,2.42,2.46h1.09c-.18.93-.2,1.89-.06,2.88.11.71.37,1.69.79,3.05.48,1.15.71,1.28.79,1.33.5.32,1.18.5,2.06.55.13,0,.26.01.38.01.69,0,1.29-.11,1.78-.31.47-.2.77-.58.87-1.08.1-.51-.06-.98-.43-1.32-.35-.36-.58-.68-.7-.99-.13-.31-.13-.63,0-.93.16-.32.13-.67-.07-.98-.23-.36-.26-.75-.09-1.23.17-.46.45-.75.9-.93,1.28.09,2.52.37,3.69.85,1,.42,2.02,1.01,3.05,1.77.39.29,1.22.99,1.82,1.5.33.28.6.51.72.61.64.52,1.46.62,2.19.27.95-.46,1.54-1.58,1.54-2.94v-4.36c.83-.42,1.28-1.18,1.28-2.16s-.45-1.74-1.28-2.16ZM17.05,17.05c-1.09-.81-2.19-1.45-3.26-1.9-.59-.25-1.2-.44-1.83-.6l-.92-7.4c.79-.13,1.56-.34,2.3-.62,1.72-.65,3.5-1.78,5.41-3.42v15.34c-.61-.52-1.32-1.11-1.7-1.4Z"/>
</svg>