<?xml version="1.0" encoding="UTF-8"?>
<svg id="export" xmlns="http://www.w3.org/2000/svg" viewBox="0 0 24 24">
  <defs>
    <style>
      .cls-1 {
        fill: #bb2649;
      }
    </style>
  </defs>
  <path class="cls-1" d="M22.72,8.6v-4.31c.19-1.65-.58-2.66-1.35-3.06-.8-.41-1.73-.27-2.4.35-2.13,1.97-4.15,3.32-5.99,4.02-1.3.49-2.7.74-4.17.74H2.42c-1.14,0-2.42,1.01-2.42,2.46v3.92c0,2.02,1.31,2.45,2.42,2.46h1.09c-.18.93-.2,1.89-.06,2.88.11.71.37,1.69.79,3.05.48,1.15.71,1.28.79,1.33.5.32,1.18.5,2.06.55.13,0,.26.01.38.01.69,0,1.29-.11,1.78-.31.47-.2.77-.58.87-1.08.1-.51-.06-.98-.43-1.32-.35-.36-.58-.68-.7-.99-.13-.31-.13-.63,0-.93.16-.32.13-.67-.07-.98-.23-.36-.26-.75-.09-1.23.17-.46.45-.75.9-.93,1.28.09,2.52.37,3.69.85,1,.42,2.02,1.01,3.05,1.77.39.29,1.22.99,1.82,1.5.33.28.6.51.72.61.64.52,1.46.62,2.19.27.95-.46,1.54-1.58,1.54-2.94v-4.36c.83-.42,1.28-1.18,1.28-2.16s-.45-1.74-1.28-2.16ZM9.67,14.22c-.07,0-.13,0-.19.03-.79.27-1.33.8-1.61,1.57-.28.78-.22,1.49.19,2.14-.24.59-.24,1.17,0,1.71.16.42.46.86.93,1.33.16.15.18.27.15.41-.04.18-.12.28-.29.35-.43.19-1.02.26-1.71.23-.69-.04-1.22-.17-1.52-.35-.08-.09-.29-.52-.44-.87-.39-1.25-.64-2.21-.74-2.86-.15-1.07-.09-2.11.19-3.1.04-.15,0-.31-.08-.44-.09-.12-.24-.2-.4-.2h-1.72c-1.31,0-1.42-.72-1.42-1.46v-3.92c0-.83.75-1.46,1.42-1.46h6.39c.42,0,.83-.02,1.24-.06l.88,7.06c-.41-.07-.83-.11-1.25-.13ZM17.05,17.05c-1.09-.81-2.19-1.45-3.26-1.9-.59-.25-1.2-.44-1.83-.6l-.92-7.4c.79-.13,1.56-.34,2.3-.62,1.72-.65,3.5-1.78,5.41-3.42v15.34c-.61-.52-1.32-1.11-1.7-1.4ZM22.05,12.13c-.2.07-.33.26-.33.47v4.69c0,1.16-.5,1.82-.98,2.04-.33.16-.68.13-1-.07V2.25c.35-.27.78-.32,1.17-.12.48.24.94.91.81,2.11v4.69c0,.21.13.4.33.47.65.24.95.67.95,1.37s-.3,1.13-.95,1.37Z"/>
</svg>