<?xml version="1.0" encoding="UTF-8"?>
<svg id="icons" xmlns="http://www.w3.org/2000/svg" viewBox="0 0 24 24">
  <defs>
    <style>
      .cls-1 {
        fill: #bb2649;
      }
    </style>
  </defs>
  <g id="icon_messages_inv">
    <path class="cls-1" d="M16.22,12.26s-.13.03-.19.07l-4.77,3.68c-.08.05-.17.08-.26.08s-.18-.03-.27-.08L.89,10.5h5.11c.28,0,.5-.22.5-.5s-.22-.5-.5-.5H1.79l4.54-4.13c.21-.19.22-.5.03-.71-.19-.21-.5-.22-.71-.03L.16,9.63c-.11.1-.16.37-.16.37v13.48c0,.29.22.52.5.52h21c.28,0,.5-.23.5-.52v-10.73c0-.28-.22-.5-.5-.5h-5.28Z"/>
    <path class="cls-1" d="M23.5,0h-15c-.28,0-.5.22-.5.5v11.5c0,.19.11.35.27.43,0,0,2.01,1.01,2.01,1.01.07.03.14.05.22.05.11,0,.22-.03.31-.11l3.36-2.61h9.33c.28,0,.5-.22.5-.5V.5c0-.28-.22-.5-.5-.5ZM16.98,8.17h-5.87c-.28,0-.5-.22-.5-.5s.22-.5.5-.5h5.87c.28,0,.5.22.5.5s-.22.5-.5.5ZM20.89,6.22h-9.78c-.28,0-.5-.22-.5-.5s.22-.5.5-.5h9.78c.28,0,.5.22.5.5s-.22.5-.5.5ZM20.89,4.26h-9.78c-.28,0-.5-.22-.5-.5s.22-.5.5-.5h9.78c.28,0,.5.22.5.5s-.22.5-.5.5Z"/>
  </g>
</svg>