<?xml version="1.0" encoding="UTF-8"?>
<svg id="icons" xmlns="http://www.w3.org/2000/svg" viewBox="0 0 24 24">
  <defs>
    <style>
      .cls-1 {
        fill: #bb2649;
      }
    </style>
  </defs>
  <g id="icon_messages">
    <path class="cls-1" d="M21.5,12c-.28,0-.5.22-.5.5v10.5H1v-12.59l9.73,6.21c.08.05.17.08.27.08s.18-.02.26-.07l6-3.7c.24-.14.31-.45.16-.69-.15-.24-.46-.31-.69-.16l-5.73,3.53L1,9.23v-.73h5.5c.28,0,.5-.22.5-.5s-.22-.5-.5-.5H2l4.8-3.6c.22-.17.27-.48.1-.7-.17-.22-.48-.27-.7-.1L.2,7.6s0,.01,0,.02c-.11.09-.19.23-.19.38v15.5c0,.28.22.5.5.5h21c.28,0,.5-.22.5-.5v-11c0-.28-.22-.5-.5-.5Z"/>
    <path class="cls-1" d="M10.5,13.5c-.15,0-.3-.07-.39-.19-.17-.22-.13-.53.09-.7l3.5-2.72c.09-.07.2-.11.31-.11h9V1h-14v11c0,.28-.22.5-.5.5s-.5-.22-.5-.5V.5c0-.28.22-.5.5-.5h15c.28,0,.5.22.5.5v9.78c0,.28-.22.5-.5.5h-9.33l-3.36,2.61c-.09.07-.2.11-.31.11Z"/>
    <path class="cls-1" d="M16.98,8.17h-5.87c-.28,0-.5-.22-.5-.5s.22-.5.5-.5h5.87c.28,0,.5.22.5.5s-.22.5-.5.5Z"/>
    <path class="cls-1" d="M20.89,6.22h-9.78c-.28,0-.5-.22-.5-.5s.22-.5.5-.5h9.78c.28,0,.5.22.5.5s-.22.5-.5.5Z"/>
    <path class="cls-1" d="M20.89,4.26h-9.78c-.28,0-.5-.22-.5-.5s.22-.5.5-.5h9.78c.28,0,.5.22.5.5s-.22.5-.5.5Z"/>
  </g>
</svg>