<svg id="export" xmlns="http://www.w3.org/2000/svg" width="24" height="24" viewBox="0 0 24 24"><defs><style>.cls-1{fill:#3c5583;}</style></defs><g id="icon_mobilepush"><path class="cls-1" d="M14.5,9.5A.5.5,0,0,0,15,9V.5a.5.5,0,0,0-.5-.5H2.5A.5.5,0,0,0,2,.5v23a.5.5,0,0,0,.5.5h12a.5.5,0,0,0,.5-.5V20a.5.5,0,0,0-1,0v.5H3v-17H14V9A.5.5,0,0,0,14.5,9.5Zm-.5,12V23H3V21.5ZM3,2.48V1H14V2.48Z"/><g id="path_mobile-push"><path class="cls-1" d="M21.5,18.5H9.5A.5.5,0,0,1,9,18V11a.5.5,0,0,1,.5-.5h12a.5.5,0,0,1,.5.5v7A.5.5,0,0,1,21.5,18.5ZM10,17.5H21v-6H10Z"/><path class="cls-1" d="M14.5,16.5h-3A.5.5,0,0,1,11,16V13a.5.5,0,0,1,.5-.5h3a.5.5,0,0,1,.5.5v3A.5.5,0,0,1,14.5,16.5Zm-2.5-1h2v-2H12Z"/><path class="cls-1" d="M19.5,14h-3a.5.5,0,0,1,0-1h3a.5.5,0,0,1,0,1Z"/><path class="cls-1" d="M18.5,16h-2a.5.5,0,0,1,0-1h2a.5.5,0,0,1,0,1Z"/></g></g></svg>