<?xml version="1.0" encoding="UTF-8"?>
<svg id="icons" xmlns="http://www.w3.org/2000/svg" viewBox="0 0 24 24">
  <defs>
    <style>
      .cls-1 {
        fill: #bb2649;
      }
    </style>
  </defs>
  <path id="icon_mouse_inv" class="cls-1" d="M15.29.1c-.18-.13-.41-.13-.59,0-.27.2-6.71,4.94-6.71,10.96s1.94,8.72,6.45,8.92c-.25,1.7-1.77,3.02-3.62,3.02-2.02,0-3.67-1.57-3.67-3.5,0-2.48-2.09-4.5-4.67-4.5-.28,0-.5.22-.5.5s.22.5.5.5c2.02,0,3.67,1.57,3.67,3.5,0,2.48,2.09,4.5,4.67,4.5,2.4,0,4.36-1.76,4.62-4.02,4.58-.16,6.55-2.86,6.55-8.93S15.57.29,15.29.1ZM13.11,12c-.5.5-1.15.75-1.81.75s-1.31-.25-1.8-.75c-.99-.99-.99-2.61,0-3.61.19-.19.5-.19.7,0,.19.19.19.5,0,.7-.61.61-.61,1.61,0,2.22.61.61,1.61.61,2.22,0,.19-.19.5-.19.7,0,.19.19.19.5,0,.7ZM13.5,8c0,.28-.22.5-.5.5s-.5-.22-.5-.5v-1c0-.28.22-.5.5-.5s.5.22.5.5v1ZM16.5,8v-1c0-.28.22-.5.5-.5s.5.22.5.5v1c0,.28-.22.5-.5.5s-.5-.22-.5-.5ZM18.7,12.75c-.65,0-1.31-.25-1.8-.75-.19-.19-.19-.5,0-.7.19-.19.5-.19.7,0,.61.61,1.61.61,2.22,0,.61-.61.61-1.61,0-2.22-.19-.19-.19-.5,0-.7.19-.19.5-.19.7,0,.99,1,.99,2.62,0,3.61-.5.5-1.15.75-1.81.75Z"/>
</svg>