<?xml version="1.0" encoding="UTF-8"?>
<svg id="icons" xmlns="http://www.w3.org/2000/svg" viewBox="0 0 24 24">
  <defs>
    <style>
      .cls-1 {
        fill: #bb2649;
      }
    </style>
  </defs>
  <g id="icon_mouse">
    <path class="cls-1" d="M13,8.5c-.28,0-.5-.22-.5-.5v-1c0-.28.22-.5.5-.5s.5.22.5.5v1c0,.28-.22.5-.5.5Z"/>
    <path class="cls-1" d="M17,8.5c-.28,0-.5-.22-.5-.5v-1c0-.28.22-.5.5-.5s.5.22.5.5v1c0,.28-.22.5-.5.5Z"/>
    <path class="cls-1" d="M22,11.06C22,5.04,15.57.29,15.29.1c-.18-.13-.41-.13-.59,0-.27.2-6.71,4.94-6.71,10.96s1.94,8.72,6.45,8.92c-.25,1.7-1.77,3.02-3.62,3.02-2.02,0-3.67-1.57-3.67-3.5,0-2.48-2.09-4.5-4.67-4.5-.28,0-.5.22-.5.5s.22.5.5.5c2.02,0,3.67,1.57,3.67,3.5,0,2.48,2.09,4.5,4.67,4.5,2.4,0,4.36-1.76,4.62-4.02,4.58-.16,6.55-2.86,6.55-8.93ZM15,19c-4.24,0-5.93-2.15-5.99-7.63.12.24.27.46.47.66.51.51,1.17.76,1.83.76s1.33-.25,1.83-.76c.2-.2.2-.51,0-.71s-.51-.2-.71,0c-.6.6-1.65.6-2.25,0-.3-.3-.47-.7-.47-1.13s.17-.83.47-1.13c.2-.2.2-.51,0-.71s-.5-.19-.7,0c1.24-3.59,4.52-6.42,5.52-7.22,1.01.81,4.36,3.69,5.56,7.33-.02-.02-.04-.05-.06-.07-.2-.2-.51-.2-.71,0s-.2.51,0,.71c.29.29.45.68.45,1.1s-.16.8-.45,1.1c-.61.6-1.59.6-2.19,0-.2-.2-.51-.2-.71,0s-.2.51,0,.71c.48.48,1.12.75,1.8.75s1.32-.27,1.8-.75c.21-.21.37-.46.49-.72-.05,5.54-1.74,7.71-6,7.71Z"/>
  </g>
</svg>