<?xml version="1.0" encoding="UTF-8"?>
<svg id="export" xmlns="http://www.w3.org/2000/svg" viewBox="0 0 24 24">
  <defs>
    <style>
      .cls-1 {
        fill: #bb2649;
      }
    </style>
  </defs>
  <g id="icon_net-path_inv">
    <g>
      <path class="cls-1" d="M20.36,5.18h-4.18c-.28,0-.5-.22-.5-.5V.5c0-.28.22-.5.5-.5h4.18c.28,0,.5.22.5.5v4.18c0,.28-.22.5-.5.5ZM16.68,4.18h3.18V1h-3.18v3.18Z"/>
      <path class="cls-1" d="M23.5,16.73h-6.27c-.28,0-.5.22-.5.5v1.11c-3.28-.67-6.4-1.9-9.17-3.79,4.16.02,8.41-1.32,10.64-5.1.98-1.67-1.61-3.18-2.59-1.51-.14.24-.72,1.02-.82,1.13-.18.19-.36.37-.56.54-.09.08-.38.31-.4.32-.39.27-.8.51-1.23.71-.1.05-.9.35-1.14.42-.44.13-.89.24-1.35.32-.13.02-.9.12-1.13.14-.57.04-1.14.04-1.71.03v-.58c0-.28-.22-.5-.5-.5H.5c-.28,0-.5.22-.5.5v7.32c0,.28.22.5.5.5h6.27c.28,0,.5-.22.5-.5v-.34c2.9,1.73,6.13,2.82,9.46,3.43v2.13c0,.28.22.5.5.5h6.27c.28,0,.5-.22.5-.5v-6.27c0-.28-.22-.5-.5-.5Z"/>
    </g>
  </g>
</svg>