<?xml version="1.0" encoding="UTF-8"?>
<svg id="export" xmlns="http://www.w3.org/2000/svg" viewBox="0 0 24 24">
  <defs>
    <style>
      .cls-1 {
        fill: #bb2649;
      }
    </style>
  </defs>
  <g id="icon_net-path">
    <path class="cls-1" d="M20.36,5.18h-4.18c-.28,0-.5-.22-.5-.5V.5c0-.28.22-.5.5-.5h4.18c.28,0,.5.22.5.5v4.18c0,.28-.22.5-.5.5ZM16.68,4.18h3.18V1h-3.18v3.18Z"/>
    <path class="cls-1" d="M23.5,24h-6.27c-.28,0-.5-.22-.5-.5v-1.63c-3.57-.65-6.76-1.79-9.5-3.39-.08.17-.25.29-.45.29H.5c-.28,0-.5-.22-.5-.5v-7.32c0-.28.22-.5.5-.5h6.27c.28,0,.5.22.5.5v.08c.2,0,.39.02.59.01.61,0,3.19-.4,3.45-.48,1.2-.36,2.15-.9,2.92-1.66.13-.13.25-.26.37-.39.06-.08.58-.85.73-1.13.03-.06.06-.13.08-.2l.07-.19c.11-.25.41-.37.66-.26.25.11.37.4.26.66l-.06.14c-.04.11-.08.22-.14.31-.18.35-.79,1.23-.87,1.33-.13.15-.26.29-.4.43-.88.88-1.97,1.51-3.34,1.91-.36.11-3.07.51-3.72.52-.3,0-.59-.01-.89-.03h-.24c-.27-.03-.48-.25-.48-.51v-.06H1v6.32h5.27v-.15c0-.18.1-.35.26-.44.16-.09.35-.08.51.01,2.89,1.82,6.34,3.09,10.27,3.76.24.04.42.25.42.49v1.55h5.27v-5.27h-5.27v.7c0,.15-.07.29-.18.38-.11.1-.26.14-.41.11-3.63-.68-6.86-1.94-9.58-3.75l-.23-.16c-.18-.12-.27-.35-.2-.56s.26-.35.48-.35h.03c2.43,0,5.86-.49,8.43-2.79,1.17-1.04,2.06-2.51,2.6-4.25.08-.26.36-.41.63-.33.26.08.41.36.33.63-.59,1.9-1.59,3.53-2.89,4.69-2.27,2.04-5.13,2.78-7.51,2.98,2.21,1.28,4.73,2.22,7.51,2.79v-.6c0-.28.22-.5.5-.5h6.27c.28,0,.5.22.5.5v6.27c0,.28-.22.5-.5.5Z"/>
  </g>
</svg>