<?xml version="1.0" encoding="UTF-8"?>
<svg id="export" xmlns="http://www.w3.org/2000/svg" viewBox="0 0 24 24">
  <defs>
    <style>
      .cls-1 {
        fill: #bb2649;
      }
    </style>
  </defs>
  <path class="cls-1" d="M21.5,0H2.5c-.28,0-.5.22-.5.5v23c0,.28.22.5.5.5h19c.28,0,.5-.22.5-.5V.5c0-.28-.22-.5-.5-.5ZM7.5,4.5h7c.28,0,.5.22.5.5s-.22.5-.5.5h-7c-.28,0-.5-.22-.5-.5s.22-.5.5-.5ZM12.9,19.5h-5.4c-.28,0-.5-.22-.5-.5s.22-.5.5-.5h5.4c.28,0,.5.22.5.5s-.22.5-.5.5ZM16.5,16.5H7.5c-.28,0-.5-.22-.5-.5s.22-.5.5-.5h9c.28,0,.5.22.5.5s-.22.5-.5.5ZM16.5,13.5H7.5c-.28,0-.5-.22-.5-.5s.22-.5.5-.5h9c.28,0,.5.22.5.5s-.22.5-.5.5ZM16.5,10.5H7.5c-.28,0-.5-.22-.5-.5s.22-.5.5-.5h9c.28,0,.5.22.5.5s-.22.5-.5.5Z"/>
</svg>