<?xml version="1.0" encoding="UTF-8"?>
<svg id="export" xmlns="http://www.w3.org/2000/svg" viewBox="0 0 24 24">
  <defs>
    <style>
      .cls-1 {
        fill: #bb2649;
      }
    </style>
  </defs>
  <g id="icon_notifications">
    <path class="cls-1" d="M21.5,24H.5c-.28,0-.5-.22-.5-.5V2.5c0-.28.22-.5.5-.5h15c.28,0,.5.22.5.5s-.22.5-.5.5H1v20h20v-14.5c0-.28.22-.5.5-.5s.5.22.5.5v15c0,.28-.22.5-.5.5Z"/>
    <path class="cls-1" d="M21,6c-1.65,0-3-1.35-3-3s1.35-3,3-3,3,1.35,3,3-1.35,3-3,3ZM21,1c-1.1,0-2,.9-2,2s.9,2,2,2,2-.9,2-2-.9-2-2-2Z"/>
  </g>
</svg>