<?xml version="1.0" encoding="UTF-8"?>
<svg id="export" xmlns="http://www.w3.org/2000/svg" viewBox="0 0 24 24">
  <defs>
    <style>
      .cls-1 {
        fill: #bb2649;
      }
    </style>
  </defs>
  <g id="icon_notifications_inv">
    <path class="cls-1" d="M21,24H.5c-.28,0-.5-.22-.5-.5V3c0-.28.22-.5.5-.5h15.05c.14,0,.28.06.37.17.09.11.14.25.12.39l-.02.17c-.01.09-.03.18-.03.27,0,2.48,2.02,4.5,4.5,4.5.09,0,.18-.01.27-.03l.17-.02c.14-.01.28.03.39.12.1.1.17.23.17.37v15.05c0,.28-.22.5-.5.5Z"/>
    <path class="cls-1" d="M21,6c-1.65,0-3-1.35-3-3s1.35-3,3-3,3,1.35,3,3-1.35,3-3,3Z"/>
  </g>
</svg>