<?xml version="1.0" encoding="UTF-8"?>
<svg id="export" xmlns="http://www.w3.org/2000/svg" viewBox="0 0 24 24">
  <defs>
    <style>
      .cls-1 {
        fill: #bb2649;
      }
    </style>
  </defs>
  <path class="cls-1" d="M23.5,17.5h-7.21l1.43-11h5.78c.28,0,.5-.22.5-.5s-.22-.5-.5-.5h-5.65l.64-4.94c.04-.27-.16-.52-.43-.56-.27-.04-.52.16-.56.43l-.66,5.06h-7.99l.64-4.94c.04-.27-.16-.52-.43-.56-.27-.04-.52.16-.56.43l-.66,5.06H.5c-.28,0-.5.22-.5.5s.22.5.5.5h7.21l-1.43,11H.5c-.28,0-.5.22-.5.5s.22.5.5.5h5.65l-.64,4.94c-.04.27.16.52.43.56.02,0,.04,0,.07,0,.25,0,.46-.18.5-.44l.66-5.06h7.99l-.64,4.94c-.04.27.16.52.43.56.02,0,.04,0,.07,0,.25,0,.46-.18.5-.44l.66-5.06h7.34c.28,0,.5-.22.5-.5s-.22-.5-.5-.5ZM7.29,17.5l1.43-11h7.99l-1.43,11h-7.99Z"/>
</svg>
