<?xml version="1.0" encoding="UTF-8"?>
<svg id="export" xmlns="http://www.w3.org/2000/svg" viewBox="0 0 24 24">
  <defs>
    <style>
      .cls-1 {
        fill: #bb2649;
      }
    </style>
  </defs>
  <g id="icon_parameters">
    <g id="path_parameters">
      <path class="cls-1" d="M23.5,3.5h-11.5c-.28,0-.5-.22-.5-.5s.22-.5.5-.5h11.5c.28,0,.5.22.5.5s-.22.5-.5.5Z"/>
      <path class="cls-1" d="M2,3.5H.5c-.28,0-.5-.22-.5-.5s.22-.5.5-.5h1.5c.28,0,.5.22.5.5s-.22.5-.5.5Z"/>
      <path class="cls-1" d="M23.5,12.5h-3.5c-.28,0-.5-.22-.5-.5s.22-.5.5-.5h3.5c.28,0,.5.22.5.5s-.22.5-.5.5Z"/>
      <path class="cls-1" d="M10,12.5H.5c-.28,0-.5-.22-.5-.5s.22-.5.5-.5h9.5c.28,0,.5.22.5.5s-.22.5-.5.5Z"/>
      <path class="cls-1" d="M23.5,21.5h-8.5c-.28,0-.5-.22-.5-.5s.22-.5.5-.5h8.5c.28,0,.5.22.5.5s-.22.5-.5.5Z"/>
      <path class="cls-1" d="M5,21.5H.5c-.28,0-.5-.22-.5-.5s.22-.5.5-.5h4.5c.28,0,.5.22.5.5s-.22.5-.5.5Z"/>
      <path class="cls-1" d="M9.5,6h-5c-.28,0-.5-.22-.5-.5V.5c0-.28.22-.5.5-.5h5c.28,0,.5.22.5.5v5c0,.28-.22.5-.5.5ZM5,5h4V1h-4v4Z"/>
      <path class="cls-1" d="M17.5,15h-5c-.28,0-.5-.22-.5-.5v-5c0-.28.22-.5.5-.5h5c.28,0,.5.22.5.5v5c0,.28-.22.5-.5.5ZM13,14h4v-4h-4v4Z"/>
      <path class="cls-1" d="M12.5,24h-5c-.28,0-.5-.22-.5-.5v-5c0-.28.22-.5.5-.5h5c.28,0,.5.22.5.5v5c0,.28-.22.5-.5.5ZM8,23h4v-4h-4v4Z"/>
    </g>
  </g>
</svg>