<?xml version="1.0" encoding="UTF-8"?>
<svg id="export" xmlns="http://www.w3.org/2000/svg" viewBox="0 0 24 24">
  <defs>
    <style>
      .cls-1 {
        fill: #bb2649;
      }
    </style>
  </defs>
  <g id="icon_parameters_inv">
    <g id="path_parameters">
      <path class="cls-1" d="M23.5,2.5h-13.5V.5c0-.28-.22-.5-.5-.5h-5c-.28,0-.5.22-.5.5v2H.5c-.28,0-.5.22-.5.5s.22.5.5.5h3.5v2c0,.28.22.5.5.5h5c.28,0,.5-.22.5-.5v-2h13.5c.28,0,.5-.22.5-.5s-.22-.5-.5-.5Z"/>
      <path class="cls-1" d="M23.5,11.5h-5.5v-2c0-.28-.22-.5-.5-.5h-5c-.28,0-.5.22-.5.5v2H.5c-.28,0-.5.22-.5.5s.22.5.5.5h11.5v2c0,.28.22.5.5.5h5c.28,0,.5-.22.5-.5v-2h5.5c.28,0,.5-.22.5-.5s-.22-.5-.5-.5Z"/>
      <path class="cls-1" d="M23.5,20.5h-10.5v-2c0-.28-.22-.5-.5-.5h-5c-.28,0-.5.22-.5.5v2H.5c-.28,0-.5.22-.5.5s.22.5.5.5h6.5v2c0,.28.22.5.5.5h5c.28,0,.5-.22.5-.5v-2h10.5c.28,0,.5-.22.5-.5s-.22-.5-.5-.5Z"/>
    </g>
  </g>
</svg>