<?xml version="1.0" encoding="UTF-8"?>
<svg id="export" xmlns="http://www.w3.org/2000/svg" viewBox="0 0 24 24">
  <defs>
    <style>
      .cls-1 {
        fill: #bb2649;
      }
    </style>
  </defs>
  <g id="icon_placements">
    <path class="cls-1" d="M12,24c-.09,0-.18-.02-.25-.07-.44-.26-10.75-6.42-10.75-12.98S5.32,0,12,0s11,4.3,11,10.95-10.31,12.72-10.75,12.98c-.08.05-.17.07-.25.07ZM12,1C5.92,1,2,4.91,2,10.95c0,5.46,8.42,10.97,10,11.96,1.58-.99,10-6.5,10-11.96,0-6.05-3.92-9.95-10-9.95Z"/>
    <path class="cls-1" d="M12,16.5c-3.58,0-6.5-2.92-6.5-6.5s2.92-6.5,6.5-6.5,6.5,2.92,6.5,6.5-2.92,6.5-6.5,6.5ZM12,4.5c-3.03,0-5.5,2.47-5.5,5.5s2.47,5.5,5.5,5.5,5.5-2.47,5.5-5.5-2.47-5.5-5.5-5.5Z"/>
  </g>
</svg>