<?xml version="1.0" encoding="UTF-8"?>
<svg id="export" xmlns="http://www.w3.org/2000/svg" viewBox="0 0 24 24">
  <defs>
    <style>
      .cls-1 {
        fill: #bb2649;
      }
    </style>
  </defs>
  <path id="icon_play_inv" class="cls-1" d="M23.5,0H.5C.22,0,0,.22,0,.5v23c0,.28.22.5.5.5h23c.28,0,.5-.22.5-.5V.5c0-.28-.22-.5-.5-.5ZM19.72,12.45l-15,7.5c-.07.04-.15.05-.22.05-.09,0-.18-.03-.26-.07-.15-.09-.24-.25-.24-.43V4.5c0-.17.09-.33.24-.43.15-.09.33-.1.49-.02l15,7.5c.17.08.28.26.28.45s-.11.36-.28.45Z"/>
</svg>