<?xml version="1.0" encoding="UTF-8"?>
<svg id="export" xmlns="http://www.w3.org/2000/svg" width="24" height="24" viewBox="0 0 24 24">
  <defs>
    <style>
      .cls-1 {
        fill: #bb2649;
        stroke-width: 0px;
      }
    </style>
  </defs>
  <g id="icon_play">
    <path class="cls-1" d="M23.5,24H.5c-.28,0-.5-.22-.5-.5V.5C0,.22.22,0,.5,0h23c.28,0,.5.22.5.5v23c0,.28-.22.5-.5.5ZM1,23h22V1H1v22Z"/>
    <path class="cls-1" d="M6,20c-.17,0-.34-.04-.5-.13-.31-.18-.5-.51-.5-.87V5c0-.36.19-.69.5-.87s.69-.18,1,0l12,7c.31.18.5.51.5.86s-.19.68-.5.86l-12,7c-.16.09-.33.14-.5.14Z"/>
  </g>
</svg>