<?xml version="1.0" encoding="UTF-8"?>
<svg id="export" xmlns="http://www.w3.org/2000/svg" width="24" height="24" viewBox="0 0 24 24">
  <defs>
    <style>
      .cls-1 {
        fill: #bb2649;
        stroke-width: 0px;
      }
    </style>
  </defs>
  <path id="icon_play_inv" class="cls-1" d="M23.5,0H.5C.22,0,0,.22,0,.5v23c0,.28.22.5.5.5h23c.28,0,.5-.22.5-.5V.5c0-.28-.22-.5-.5-.5ZM18.5,12.86l-12,7c-.16.09-.33.14-.5.14s-.34-.04-.5-.13c-.31-.18-.5-.51-.5-.87V5c0-.36.19-.69.5-.87.31-.18.69-.18,1,0l12,7c.31.18.5.51.5.86s-.19.68-.5.86Z"/>
</svg>