<?xml version="1.0" encoding="UTF-8"?>
<svg id="export" xmlns="http://www.w3.org/2000/svg" viewBox="0 0 24 24">
  <defs>
    <style>
      .cls-1 {
        fill: #bb2649;
      }
    </style>
  </defs>
  <g id="icon_plugings">
    <path class="cls-1" d="M6.14,11H.5c-.13,0-.26-.05-.35-.15s-.15-.22-.15-.35V.5C0,.22.22,0,.5,0h17.38c.28,0,.5.22.5.5v1.87c0,.77.5.77.66.77.07,0,.25-.14.38-.25.36-.29.91-.73,1.81-.73h.01c.95,0,1.71.34,2.21.97.56.72.7,1.76.4,2.92-.24.94-1.04,2.19-2.47,2.62-1.05.31-1.67-.31-2.05-.68-.09-.09-.24-.24-.29-.26-.13,0-.63,0-.63.77l-.02,1.99c0,.27-.23.5-.5.5h0l-7.45-.02c-.17,0-.33-.09-.42-.23-.09-.14-.1-.32-.03-.48,0-.02.89-1.96.89-3.49s-1.35-2.86-3-2.86-3,1.28-3,2.86c0,2.11,1.51,3.27,1.58,3.32.17.13.24.36.17.56-.07.2-.26.34-.47.34ZM1,10h3.96c-.53-.69-1.1-1.78-1.1-3.22,0-2.13,1.79-3.86,4-3.86s4,1.73,4,3.86c0,1.15-.4,2.43-.69,3.2h6.22s.01-1.48.01-1.48c0-1.07.65-1.77,1.66-1.77.43,0,.72.29.98.55.36.37.59.57,1.05.43,1.11-.33,1.65-1.36,1.79-1.91.22-.86.15-1.59-.22-2.06-.3-.38-.81-.63-1.43-.58-.55,0-.86.25-1.19.51-.27.22-.58.46-1,.46-1.01,0-1.66-.7-1.66-1.77v-1.37H1v9Z"/>
    <path class="cls-1" d="M17.86,24H.5c-.28,0-.5-.22-.5-.5v-5.29c0-.28.22-.5.5-.5h5.1c-.44-.55-.86-1.35-.86-2.38,0-1.71,1.5-3.11,3.35-3.11s3.35,1.39,3.35,3.11c0,.84-.38,1.75-.71,2.38h7.13c.28,0,.5.22.5.5v5.29c0,.28-.22.5-.5.5ZM1,23h16.36v-4.29h-7.5c-.19,0-.35-.1-.44-.27-.09-.16-.08-.36.03-.52.01-.01,1-1.48,1-2.6s-1.05-2.11-2.35-2.11-2.35.95-2.35,2.11c0,1.55,1.37,2.45,1.38,2.46.19.12.27.35.21.56s-.26.36-.48.36H1v4.29Z"/>
  </g>
</svg>