<?xml version="1.0" encoding="UTF-8"?>
<svg id="export" xmlns="http://www.w3.org/2000/svg" width="24" height="24" viewBox="0 0 24 24">
  <defs>
    <style>
      .cls-1 {
        fill: #bb2649;
        stroke-width: 0px;
      }
    </style>
  </defs>
  <g id="prio_rev">
    <path class="cls-1" d="M10.5,0H.5C.22,0,0,.22,0,.5s.22.5.5.5h10c.28,0,.5-.22.5-.5s-.22-.5-.5-.5Z"/>
    <path class="cls-1" d="M9,11.5H.5c-.28,0-.5.22-.5.5s.22.5.5.5h8.5c.28,0,.5-.22.5-.5s-.22-.5-.5-.5Z"/>
    <path class="cls-1" d="M7.5,23H.5c-.28,0-.5.22-.5.5s.22.5.5.5h7c.28,0,.5-.22.5-.5s-.22-.5-.5-.5Z"/>
    <path class="cls-1" d="M22.06,1.1l-4.61.22c3.94,2.02,6.55,6.15,6.55,10.68,0,6.62-5.38,12-12,12-.28,0-.5-.22-.5-.5s.22-.5.5-.5c6.07,0,11-4.93,11-11,0-4.62-2.95-8.77-7.25-10.34l-.29,6.03c-.01.28-.25.51-.52.48-.28-.01-.49-.25-.48-.52,0,0,.33-6.77.33-6.78.03-.24.22-.43.46-.44,0,0,6.77-.32,6.78-.32.27,0,.49.21.5.48.01.28-.2.51-.48.52Z"/>
  </g>
</svg>