<?xml version="1.0" encoding="UTF-8"?>
<svg id="export" xmlns="http://www.w3.org/2000/svg" viewBox="0 0 24 24">
  <defs>
    <style>
      .cls-1 {
        fill: #bb2649;
      }
    </style>
  </defs>
  <path class="cls-1" d="M23.5,14h-4.3V.5c0-.28-.22-.5-.5-.5H.5C.22,0,0,.22,0,.5v20.12c0,1.86,1.64,3.38,3.65,3.38h17.35c1.37,0,3-.67,3-3.88v-5.62c0-.28-.22-.5-.5-.5ZM4.63,3.18h8.69c.28,0,.5.22.5.5s-.22.5-.5.5H4.63c-.28,0-.5-.22-.5-.5s.22-.5.5-.5ZM8.99,20.81h-4.67c-.28,0-.5-.22-.5-.5s.22-.5.5-.5h4.67c.28,0,.5.22.5.5s-.22.5-.5.5ZM8.99,16.97h-4.67c-.28,0-.5-.22-.5-.5s.22-.5.5-.5h4.67c.28,0,.5.22.5.5s-.22.5-.5.5ZM8.99,13.14h-4.67c-.28,0-.5-.22-.5-.5s.22-.5.5-.5h4.67c.28,0,.5.22.5.5s-.22.5-.5.5ZM8.99,9.31h-4.67c-.28,0-.5-.22-.5-.5s.22-.5.5-.5h4.67c.28,0,.5.22.5.5s-.22.5-.5.5ZM16.33,20.81h-4.67c-.28,0-.5-.22-.5-.5s.22-.5.5-.5h4.67c.28,0,.5.22.5.5s-.22.5-.5.5ZM16.33,16.97h-4.67c-.28,0-.5-.22-.5-.5s.22-.5.5-.5h4.67c.28,0,.5.22.5.5s-.22.5-.5.5ZM16.33,13.14h-4.67c-.28,0-.5-.22-.5-.5s.22-.5.5-.5h4.67c.28,0,.5.22.5.5s-.22.5-.5.5ZM16.33,9.31h-4.67c-.28,0-.5-.22-.5-.5s.22-.5.5-.5h4.67c.28,0,.5.22.5.5s-.22.5-.5.5ZM23,20.12c0,2.55-1.07,2.88-2,2.88-1.31,0-1.8-.78-1.8-2.88v-5.12h3.8v5.12Z"/>
</svg>