<?xml version="1.0" encoding="UTF-8"?>
<svg id="export" xmlns="http://www.w3.org/2000/svg" viewBox="0 0 24 24">
  <defs>
    <style>
      .cls-1 {
        fill: #bb2649;
      }
    </style>
  </defs>
  <g id="icon_productfeed">
    <path class="cls-1" d="M23.5,14h-4.3V.5c0-.28-.22-.5-.5-.5H.5C.22,0,0,.22,0,.5v20.12c0,1.86,1.64,3.38,3.65,3.38h17.35c1.37,0,3-.67,3-3.88v-5.62c0-.28-.22-.5-.5-.5ZM1,20.62V1h17.2v19.12c0,.65,0,1.96.65,2.88H3.65c-1.46,0-2.65-1.07-2.65-2.38ZM23,20.12c0,2.55-1.07,2.88-2,2.88-1.31,0-1.8-.78-1.8-2.88v-5.12h3.8v5.12Z"/>
    <path class="cls-1" d="M15.51,9.25h-4.67c-.28,0-.5-.22-.5-.5s.22-.5.5-.5h4.67c.28,0,.5.22.5.5s-.22.5-.5.5Z"/>
    <path class="cls-1" d="M8.17,9.25H3.49c-.28,0-.5-.22-.5-.5s.22-.5.5-.5h4.67c.28,0,.5.22.5.5s-.22.5-.5.5Z"/>
    <path class="cls-1" d="M15.51,13.08h-4.67c-.28,0-.5-.22-.5-.5s.22-.5.5-.5h4.67c.28,0,.5.22.5.5s-.22.5-.5.5Z"/>
    <path class="cls-1" d="M8.17,13.08H3.49c-.28,0-.5-.22-.5-.5s.22-.5.5-.5h4.67c.28,0,.5.22.5.5s-.22.5-.5.5Z"/>
    <path class="cls-1" d="M15.51,16.92h-4.67c-.28,0-.5-.22-.5-.5s.22-.5.5-.5h4.67c.28,0,.5.22.5.5s-.22.5-.5.5Z"/>
    <path class="cls-1" d="M8.17,16.92H3.49c-.28,0-.5-.22-.5-.5s.22-.5.5-.5h4.67c.28,0,.5.22.5.5s-.22.5-.5.5Z"/>
    <path class="cls-1" d="M15.51,20.75h-4.67c-.28,0-.5-.22-.5-.5s.22-.5.5-.5h4.67c.28,0,.5.22.5.5s-.22.5-.5.5Z"/>
    <path class="cls-1" d="M8.17,20.75H3.49c-.28,0-.5-.22-.5-.5s.22-.5.5-.5h4.67c.28,0,.5.22.5.5s-.22.5-.5.5Z"/>
    <path class="cls-1" d="M13.32,4.18H4.63c-.28,0-.5-.22-.5-.5s.22-.5.5-.5h8.69c.28,0,.5.22.5.5s-.22.5-.5.5Z"/>
  </g>
</svg>