<?xml version="1.0" encoding="UTF-8"?>
<svg id="export" xmlns="http://www.w3.org/2000/svg" width="24" height="24" viewBox="0 0 24 24">
  <defs>
    <style>
      .cls-1 {
        fill: #bb2649;
      }
    </style>
  </defs>
  <g id="icon-profile">
    <path class="cls-1" d="m12,24C5.38,24,0,18.62,0,12S5.38,0,12,0s12,5.38,12,12-5.38,12-12,12Zm0-23C5.93,1,1,5.93,1,12s4.93,11,11,11,11-4.93,11-11S18.07,1,12,1Z"/>
    <path class="cls-1" d="m13.94,11.48c1.22-.68,2.06-1.98,2.06-3.48,0-2.21-1.79-4-4-4s-4,1.79-4,4c0,1.5.84,2.79,2.06,3.48-2.65,1.35-4.06,5.24-4.06,7.02v.5h12v-.5c0-1.78-1.41-5.67-4.06-7.02Zm-4.94-3.48c0-1.65,1.35-3,3-3s3,1.35,3,3-1.35,3-3,3-3-1.35-3-3Zm-1.97,10c.26-2.15,2.1-6,4.97-6s4.7,3.85,4.97,6H7.03Z"/>
  </g>
</svg>