<?xml version="1.0" encoding="UTF-8"?>
<svg id="export" xmlns="http://www.w3.org/2000/svg" viewBox="0 0 24 24">
  <defs>
    <style>
      .cls-1 {
        fill: #bb2649;
      }
    </style>
  </defs>
  <path id="icon_my-profile" class="cls-1" d="M12,0C5.38,0,0,5.38,0,12c0,3.13,1.2,5.98,3.17,8.12,2.19,2.38,5.34,3.88,8.83,3.88s6.78-1.57,8.98-4.05c1.88-2.12,3.02-4.9,3.02-7.95C24,5.38,18.62,0,12,0ZM7.22,7.47v-1.39c0-2.79,2.15-5.07,4.77-5.08,0,0,0,0,0,0,2.63,0,4.77,2.29,4.78,5.08v1.39c0,2.79-2.15,5.07-4.78,5.08-2.63,0-4.77-2.29-4.78-5.08ZM7.92,1.79c-1.04,1.1-1.69,2.61-1.7,4.28v1.39h0c0,2.49,1.45,4.64,3.5,5.57-2.31.92-4.86,3.05-6.38,5.72-1.46-1.87-2.34-4.21-2.34-6.76C1,7.38,3.87,3.42,7.92,1.79ZM12,23c-3.14,0-5.96-1.33-7.96-3.44,1.84-3.52,5.71-6.01,7.96-6.01s6.13,2.5,7.97,6.02c-2.01,2.11-4.83,3.44-7.97,3.44ZM20.66,18.77c-1.51-2.68-4.06-4.8-6.37-5.72,2.05-.94,3.49-3.08,3.5-5.57v-1.39c0-1.67-.66-3.19-1.71-4.29,4.06,1.62,6.93,5.58,6.93,10.21,0,2.55-.88,4.9-2.34,6.77Z"/>
</svg>