<?xml version="1.0" encoding="UTF-8"?>
<svg id="export" xmlns="http://www.w3.org/2000/svg" width="24" height="24" viewBox="0 0 24 24">
  <defs>
    <style>
      .cls-1 {
        fill: #bb2649;
        stroke-width: 0px;
      }
    </style>
  </defs>
  <g id="icon_release-notes_inv">
    <path class="cls-1" d="M15.5,21H7.5c-.28,0-.5-.22-.5-.5v-4.5h-3.5c-.28,0-.5-.22-.5-.5s.22-.5.5-.5h3.5v-1h-3.5c-.28,0-.5-.22-.5-.5s.22-.5.5-.5h3.5v-3h-3.5c-.28,0-.5-.22-.5-.5s.22-.5.5-.5h3.5v-4.5c0-.28-.22-.5-.5-.5H.5c-.28,0-.5.22-.5.5v19c0,.28.22.5.5.5h15c.28,0,.5-.22.5-.5v-2c0-.28-.22-.5-.5-.5Z"/>
    <path class="cls-1" d="M23.5,0h-15c-.28,0-.5.22-.5.5v19c0,.28.22.5.5.5h15c.28,0,.5-.22.5-.5V.5c0-.28-.22-.5-.5-.5ZM11.5,5h7c.28,0,.5.22.5.5s-.22.5-.5.5h-7c-.28,0-.5-.22-.5-.5s.22-.5.5-.5ZM18.5,16h-7c-.28,0-.5-.22-.5-.5s.22-.5.5-.5h7c.28,0,.5.22.5.5s-.22.5-.5.5ZM11,13.5c0-.28.22-.5.5-.5h5c.28,0,.5.22.5.5s-.22.5-.5.5h-5c-.28,0-.5-.22-.5-.5ZM20.5,12h-9c-.28,0-.5-.22-.5-.5s.22-.5.5-.5h9c.28,0,.5.22.5.5s-.22.5-.5.5ZM20.5,10h-9c-.28,0-.5-.22-.5-.5s.22-.5.5-.5h9c.28,0,.5.22.5.5s-.22.5-.5.5Z"/>
  </g>
</svg>