<?xml version="1.0" encoding="UTF-8"?>
<svg id="export" xmlns="http://www.w3.org/2000/svg" width="24" height="24" viewBox="0 0 24 24">
  <defs>
    <style>
      .cls-1 {
        fill: #bb2649;
        stroke-width: 0px;
      }
    </style>
  </defs>
  <g id="icon_release-notes">
    <g id="path_changelog">
      <path class="cls-1" d="M15.5,24H.5c-.28,0-.5-.22-.5-.5V4.5c0-.28.22-.5.5-.5h6c.28,0,.5.22.5.5s-.22.5-.5.5H1v18h14v-1.5c0-.28.22-.5.5-.5s.5.22.5.5v2c0,.28-.22.5-.5.5Z"/>
      <path class="cls-1" d="M6.5,16h-3c-.28,0-.5-.22-.5-.5s.22-.5.5-.5h3c.28,0,.5.22.5.5s-.22.5-.5.5Z"/>
      <path class="cls-1" d="M6.5,14h-3c-.28,0-.5-.22-.5-.5s.22-.5.5-.5h3c.28,0,.5.22.5.5s-.22.5-.5.5Z"/>
      <path class="cls-1" d="M6.5,10h-3c-.28,0-.5-.22-.5-.5s.22-.5.5-.5h3c.28,0,.5.22.5.5s-.22.5-.5.5Z"/>
    </g>
    <g id="path_changelog-2" data-name="path_changelog">
      <path class="cls-1" d="M23.5,20h-15c-.28,0-.5-.22-.5-.5V.5c0-.28.22-.5.5-.5h15c.28,0,.5.22.5.5v19c0,.28-.22.5-.5.5ZM9,19h14V1h-14v18Z"/>
      <path class="cls-1" d="M16.5,14h-5c-.28,0-.5-.22-.5-.5s.22-.5.5-.5h5c.28,0,.5.22.5.5s-.22.5-.5.5Z"/>
      <path class="cls-1" d="M18.5,16h-7c-.28,0-.5-.22-.5-.5s.22-.5.5-.5h7c.28,0,.5.22.5.5s-.22.5-.5.5Z"/>
      <path class="cls-1" d="M20.5,12h-9c-.28,0-.5-.22-.5-.5s.22-.5.5-.5h9c.28,0,.5.22.5.5s-.22.5-.5.5Z"/>
      <path class="cls-1" d="M20.5,10h-9c-.28,0-.5-.22-.5-.5s.22-.5.5-.5h9c.28,0,.5.22.5.5s-.22.5-.5.5Z"/>
      <path class="cls-1" d="M18.5,6h-7c-.28,0-.5-.22-.5-.5s.22-.5.5-.5h7c.28,0,.5.22.5.5s-.22.5-.5.5Z"/>
    </g>
  </g>
</svg>