<?xml version="1.0" encoding="UTF-8"?>
<svg id="export" xmlns="http://www.w3.org/2000/svg" viewBox="0 0 24 24">
  <defs>
    <style>
      .cls-1 {
        fill: #bb2649;
      }
    </style>
  </defs>
  <g id="icon_reports">
    <path class="cls-1" d="M23.5,24h-9c-.28,0-.5-.22-.5-.5v-9c0-.28.22-.5.5-.5h9c.28,0,.5.22.5.5v9c0,.28-.22.5-.5.5ZM15,23h8v-8h-8v8Z"/>
    <path class="cls-1" d="M9.5,10H.5c-.28,0-.5-.22-.5-.5V.5C0,.22.22,0,.5,0h9c.28,0,.5.22.5.5v9c0,.28-.22.5-.5.5ZM1,9h8V1H1v8Z"/>
    <path class="cls-1" d="M23.5,10h-9c-.28,0-.5-.22-.5-.5V.5c0-.28.22-.5.5-.5h9c.28,0,.5.22.5.5v9c0,.28-.22.5-.5.5ZM15,9h8V1h-8v8Z"/>
    <path class="cls-1" d="M9.5,24H.5c-.28,0-.5-.22-.5-.5v-9c0-.28.22-.5.5-.5h9c.28,0,.5.22.5.5v9c0,.28-.22.5-.5.5ZM1,23h8v-8H1v8Z"/>
  </g>
</svg>