<svg id="export" xmlns="http://www.w3.org/2000/svg" width="24" height="24" viewBox="0 0 24 24"><defs><style>.cls-1{fill:#3c5583;}</style></defs><path id="icon_reset" class="cls-1" d="M12,0A12,12,0,0,0,3.55,3.49l0,0-.1.12c-.27.28-.53.58-.78.89l-.24.32a10.06,10.06,0,0,0-.59.86l-.26.44-.21.38a.09.09,0,0,0,0,.05L1.1,1.94a.51.51,0,0,0-.52-.48A.5.5,0,0,0,.1,2L.42,8.74a.51.51,0,0,0,.47.47h0l6.75.32h0a.49.49,0,0,0,.5-.47.5.5,0,0,0-.47-.53l-6-.28a10.33,10.33,0,0,1,.64-1.44q.27-.48.57-.93a4,4,0,0,1,.23-.34,8.4,8.4,0,0,1,.65-.8c.1-.12.19-.24.3-.35A11,11,0,1,1,1,12q0-.39,0-.78a.51.51,0,0,0-.46-.54.51.51,0,0,0-.53.46A8.25,8.25,0,0,0,0,12,12,12,0,1,0,12,0Z"/></svg>