<?xml version="1.0" encoding="UTF-8"?>
<svg id="export" xmlns="http://www.w3.org/2000/svg" width="24" height="24" viewBox="0 0 24 24">
  <defs>
    <style>
      .cls-1 {
        fill: #bb2649;
      }
    </style>
  </defs>
  <path id="icon_reset" class="cls-1" d="m12,0c-3.23,0-6.24,1.29-8.45,3.49-.01.01-.03.01-.04.03-.04.04-.07.08-.1.12-.27.28-.54.58-.78.89-.08.11-.16.21-.24.32-.21.28-.4.56-.59.86-.09.14-.17.29-.25.44-.07.13-.15.25-.21.38,0,.01,0,.03-.01.04l-.22-4.63c-.01-.28-.26-.49-.52-.48-.28.01-.49.25-.48.52l.32,6.75c.01.25.21.45.46.47,0,0,0,0,.01,0l6.75.32s.02,0,.02,0c.27,0,.49-.21.5-.48.01-.28-.2-.51-.48-.52l-6.02-.28c.18-.5.39-.98.64-1.44.17-.32.36-.63.56-.93.08-.11.15-.23.23-.34.2-.28.42-.54.65-.8.1-.11.2-.23.3-.34,2.04-2.14,4.88-3.39,7.93-3.39,6.07,0,11,4.93,11,11s-4.93,11-11,11S1,18.07,1,12c0-.26.01-.52.03-.78.02-.28-.18-.52-.46-.54-.26-.01-.52.18-.54.46-.02.28-.04.57-.04.86,0,6.62,5.38,12,12,12s12-5.38,12-12S18.62,0,12,0Z"/>
</svg>