<?xml version="1.0" encoding="UTF-8"?>
<svg id="export" xmlns="http://www.w3.org/2000/svg" width="24" height="24" viewBox="0 0 24 24">
  <defs>
    <style>
      .cls-1 {
        fill: #bb2649;
        stroke-width: 0px;
      }
    </style>
  </defs>
  <g id="icon_reset-pw">
    <path id="arrow" class="cls-1" d="M12,2C7.43,2,3.34,4.56,1.32,8.53l-.22-4.59c-.01-.28-.24-.51-.52-.48-.28.01-.49.25-.48.52,0,0,.33,6.77.33,6.77.02.25.21.45.47.46l6.75.32s.02,0,.02,0c.27,0,.49-.21.5-.48.01-.28-.2-.51-.48-.52l-6.03-.29C3.24,5.9,7.35,3,12,3c6.07,0,11,4.93,11,11,0,.61-.06,1.23-.18,1.91-.05.27.13.53.41.58.03,0,.06,0,.09,0,.24,0,.45-.17.49-.41.13-.74.19-1.42.19-2.09,0-6.62-5.38-12-12-12Z"/>
    <path id="key" class="cls-1" d="M20.5,18H7.94c-.28-1.69-1.93-3-3.94-3-2.21,0-4,1.57-4,3.5s1.79,3.5,4,3.5c2.01,0,3.66-1.31,3.94-3h12.06v2.5c0,.28.22.5.5.5s.5-.22.5-.5v-3c0-.28-.22-.5-.5-.5ZM4,21c-1.65,0-3-1.12-3-2.5s1.35-2.5,3-2.5,3,1.12,3,2.5-1.35,2.5-3,2.5Z"/>
  </g>
</svg>