<?xml version="1.0" encoding="UTF-8"?>
<svg id="export" xmlns="http://www.w3.org/2000/svg" width="24" height="24" viewBox="0 0 24 24">
  <defs>
    <style>
      .cls-1 {
        fill: #bb2649;
        stroke-width: 0px;
      }
    </style>
  </defs>
  <g id="restore-version">
    <g id="icon_sorting">
      <path class="cls-1" d="m15.5,18.5h-7c-.28,0-.5.22-.5.5s.22.5.5.5h7c.28,0,.5-.22.5-.5s-.22-.5-.5-.5Z"/>
      <path class="cls-1" d="m13.5,15.5h-5c-.28,0-.5.22-.5.5s.22.5.5.5h5c.28,0,.5-.22.5-.5s-.22-.5-.5-.5Z"/>
      <path class="cls-1" d="m15.5,12.5h-7c-.28,0-.5.22-.5.5s.22.5.5.5h7c.28,0,.5-.22.5-.5s-.22-.5-.5-.5Z"/>
    </g>
    <path class="cls-1" d="m12,0C7.41,0,3.34,2.56,1.32,6.53l-.22-4.59c-.01-.28-.26-.49-.52-.48-.28.01-.49.25-.48.52l.32,6.75c.01.25.21.45.46.47,0,0,0,0,.01,0l6.75.32s.02,0,.02,0c.27,0,.49-.21.5-.48.01-.28-.2-.51-.48-.52l-6.02-.28v-.03C3.26,3.88,7.34,1,12,1c6.07,0,11,4.93,11,11s-4.93,11-11,11S1,18.07,1,12c0-.26.01-.52.03-.78.02-.28-.18-.52-.46-.54-.26-.01-.52.18-.54.46-.02.28-.04.57-.04.86,0,6.62,5.38,12,12,12s12-5.38,12-12S18.62,0,12,0Z"/>
  </g>
</svg>