<?xml version="1.0" encoding="UTF-8"?>
<svg id="export" xmlns="http://www.w3.org/2000/svg" viewBox="0 0 24 24">
  <defs>
    <style>
      .cls-1 {
        fill: #bb2649;
      }
    </style>
  </defs>
  <g id="icon_roles_inv">
    <g id="path_roles">
      <path class="cls-1" d="M5.5,24H.5c-.28,0-.5-.22-.5-.5v-5c0-.28.22-.5.5-.5h5c.28,0,.5.22.5.5v5c0,.28-.22.5-.5.5Z"/>
      <path class="cls-1" d="M14.5,24h-5c-.28,0-.5-.22-.5-.5v-5c0-.28.22-.5.5-.5h5c.28,0,.5.22.5.5v5c0,.28-.22.5-.5.5Z"/>
      <path class="cls-1" d="M23.5,24h-5c-.28,0-.5-.22-.5-.5v-5c0-.28.22-.5.5-.5h5c.28,0,.5.22.5.5v5c0,.28-.22.5-.5.5Z"/>
    </g>
    <path class="cls-1" d="M19.13,15.28c-1.16-2.32-3.24-4.08-5.11-4.88,1.56-.8,2.64-2.46,2.65-4.39v-1.1c0-2.7-2.1-4.89-4.67-4.9-2.56,0-4.66,2.21-4.67,4.9v1.1h0c0,1.93,1.09,3.6,2.65,4.39-1.88.81-3.96,2.56-5.11,4.88-.08.15-.07.34.02.49.09.15.25.24.42.24h13.36c.17,0,.33-.09.42-.24.09-.15.1-.33.02-.49Z"/>
  </g>
</svg>