<?xml version="1.0" encoding="UTF-8"?>
<svg id="export" xmlns="http://www.w3.org/2000/svg" viewBox="0 0 24 24">
  <defs>
    <style>
      .cls-1 {
        fill: #bb2649;
      }
    </style>
  </defs>
  <g id="icon_rules">
    <g>
      <path class="cls-1" d="M23.5,24h-10c-.28,0-.5-.22-.5-.5V.5c0-.28.22-.5.5-.5h10c.28,0,.5.22.5.5v23c0,.28-.22.5-.5.5ZM14,23h9V1h-9v22Z"/>
      <path class="cls-1" d="M16,9c-.13,0-.26-.05-.35-.15-.2-.2-.2-.51,0-.71l5-5c.2-.2.51-.2.71,0s.2.51,0,.71l-5,5c-.1.1-.23.15-.35.15Z"/>
      <path class="cls-1" d="M21,9c-.13,0-.26-.05-.35-.15l-5-5c-.2-.2-.2-.51,0-.71s.51-.2.71,0l5,5c.2.2.2.51,0,.71-.1.1-.23.15-.35.15Z"/>
      <path class="cls-1" d="M10.5,24H.5c-.28,0-.5-.22-.5-.5V.5C0,.22.22,0,.5,0h10c.28,0,.5.22.5.5v23c0,.28-.22.5-.5.5ZM1,23h9V1H1v22Z"/>
      <g id="path-check16">
        <path class="cls-1" d="M4.67,8.29c-.12,0-.25-.04-.34-.13-.2-.19-.21-.5-.02-.71l3.33-3.57c.19-.2.51-.21.71-.02.2.19.21.5.02.71l-3.33,3.57c-.1.11-.23.16-.37.16Z"/>
        <path class="cls-1" d="M4.67,8.29c-.13,0-.25-.05-.35-.14l-1.67-1.62c-.2-.19-.2-.51,0-.71.2-.2.51-.2.71,0l1.67,1.62c.2.19.2.51,0,.71-.1.1-.23.15-.36.15Z"/>
      </g>
    </g>
    <path class="cls-1" d="M8,13H3c-.28,0-.5-.22-.5-.5s.22-.5.5-.5h5c.28,0,.5.22.5.5s-.22.5-.5.5Z"/>
    <path class="cls-1" d="M8,16H3c-.28,0-.5-.22-.5-.5s.22-.5.5-.5h5c.28,0,.5.22.5.5s-.22.5-.5.5Z"/>
    <path class="cls-1" d="M8,19H3c-.28,0-.5-.22-.5-.5s.22-.5.5-.5h5c.28,0,.5.22.5.5s-.22.5-.5.5Z"/>
    <path class="cls-1" d="M21,13h-5c-.28,0-.5-.22-.5-.5s.22-.5.5-.5h5c.28,0,.5.22.5.5s-.22.5-.5.5Z"/>
    <path class="cls-1" d="M21,16h-5c-.28,0-.5-.22-.5-.5s.22-.5.5-.5h5c.28,0,.5.22.5.5s-.22.5-.5.5Z"/>
    <path class="cls-1" d="M21,19h-5c-.28,0-.5-.22-.5-.5s.22-.5.5-.5h5c.28,0,.5.22.5.5s-.22.5-.5.5Z"/>
  </g>
</svg>