<?xml version="1.0" encoding="UTF-8"?>
<svg id="export" xmlns="http://www.w3.org/2000/svg" viewBox="0 0 24 24">
  <defs>
    <style>
      .cls-1 {
        fill: #bb2649;
      }
    </style>
  </defs>
  <g id="icon_rules_inv">
    <path class="cls-1" d="M10.5,0H.5C.22,0,0,.22,0,.5v23c0,.28.22.5.5.5h10c.28,0,.5-.22.5-.5V.5c0-.28-.22-.5-.5-.5ZM2.64,5.81c.2-.2.51-.2.71,0l1.3,1.27,2.98-3.2c.19-.2.51-.21.71-.02.2.19.21.5.02.71l-3.33,3.57c-.1.11-.23.16-.37.16-.12,0-.25-.04-.34-.13,0,0,0,0,0,0,0,0,0,0,0,0l-1.67-1.62c-.2-.19-.2-.51,0-.71ZM8,19H3c-.28,0-.5-.22-.5-.5s.22-.5.5-.5h5c.28,0,.5.22.5.5s-.22.5-.5.5ZM8,16H3c-.28,0-.5-.22-.5-.5s.22-.5.5-.5h5c.28,0,.5.22.5.5s-.22.5-.5.5ZM8,13H3c-.28,0-.5-.22-.5-.5s.22-.5.5-.5h5c.28,0,.5.22.5.5s-.22.5-.5.5Z"/>
    <path class="cls-1" d="M23.5,0h-10c-.28,0-.5.22-.5.5v23c0,.28.22.5.5.5h10c.28,0,.5-.22.5-.5V.5c0-.28-.22-.5-.5-.5ZM21,19h-5c-.28,0-.5-.22-.5-.5s.22-.5.5-.5h5c.28,0,.5.22.5.5s-.22.5-.5.5ZM21,16h-5c-.28,0-.5-.22-.5-.5s.22-.5.5-.5h5c.28,0,.5.22.5.5s-.22.5-.5.5ZM21,13h-5c-.28,0-.5-.22-.5-.5s.22-.5.5-.5h5c.28,0,.5.22.5.5s-.22.5-.5.5ZM21.35,8.15c.2.2.2.51,0,.71-.1.1-.23.15-.35.15s-.26-.05-.35-.15l-2.15-2.15-2.15,2.15c-.1.1-.23.15-.35.15s-.26-.05-.35-.15c-.2-.2-.2-.51,0-.71l2.15-2.15-2.15-2.15c-.2-.2-.2-.51,0-.71s.51-.2.71,0l2.15,2.15,2.15-2.15c.2-.2.51-.2.71,0s.2.51,0,.71l-2.15,2.15,2.15,2.15Z"/>
  </g>
</svg>