<?xml version="1.0" encoding="UTF-8"?>
<svg id="export" xmlns="http://www.w3.org/2000/svg" width="24" height="24" viewBox="0 0 24 24">
  <defs>
    <style>
      .cls-1 {
        fill: #bb2649;
      }
    </style>
  </defs>
  <g id="search-replace">
    <path class="cls-1" d="m23,22l-5.57-5.29c1.51-1.67,2.46-3.85,2.57-6.28.16-3.8-1.83-7.27-5.02-9.1l4.55.13c.28.01.51-.21.51-.49,0-.28-.21-.51-.49-.51l-7.42-.21c-.27-.02-.48.18-.51.44l-.91,7.38c-.03.27.16.52.43.56.02,0,.04,0,.06,0,.25,0,.46-.19.5-.44l.84-6.83s.03.02.05.03c3.94,1.19,6.56,4.89,6.38,9-.21,4.85-4.14,8.61-8.97,8.61-.04,0-.08,0-.13,0-.27,0-.5.22-.5.49,0,.28.22.5.49.51.05,0,.09,0,.14,0,2.58,0,4.92-.97,6.69-2.57l5.28,5.58s.45,1,1,1,1-.45,1-1-1-1-1-1Z"/>
    <path class="cls-1" d="m8.89,11.37c-.29-.04-.52.16-.56.43l-.84,6.82c-3.98-1.17-6.62-4.86-6.44-9.02C1.26,4.76,5.18,1,10.02,1c.04,0,.08,0,.13,0,.27,0,.5-.22.5-.49,0-.28-.22-.5-.49-.51C4.72-.11.28,4.13.05,9.56c-.16,3.82,1.81,7.28,5,9.1l-4.53-.13c-.29,0-.51.21-.51.49,0,.28.21.51.49.51l7.42.21h.01c.25,0,.46-.19.5-.44l.91-7.38c.03-.27-.16-.52-.43-.56Z"/>
  </g>
</svg>