<?xml version="1.0" encoding="UTF-8"?>
<svg id="export" xmlns="http://www.w3.org/2000/svg" width="24" height="24" viewBox="0 0 24 24">
  <defs>
    <style>
      .cls-1 {
        fill: #bb2649;
        stroke-width: 0px;
      }
    </style>
  </defs>
  <g id="search-replace">
    <path class="cls-1" d="m9.18,1c.27-.03.48-.27.45-.55-.03-.27-.25-.47-.54-.45C4.15.46.26,4.56.05,9.53c-.16,3.82,1.81,7.29,5,9.12l-4.53-.13c-.29,0-.51.21-.51.49,0,.28.21.51.49.51l7.42.21h.01c.25,0,.46-.19.5-.44l.91-7.39c.03-.27-.16-.52-.43-.56-.28-.04-.52.16-.56.44l-.84,6.83c-3.98-1.17-6.62-4.87-6.44-9.03C1.24,5.1,4.74,1.42,9.18,1Z"/>
    <path class="cls-1" d="m23,22l-5.59-5.32c1.52-1.68,2.48-3.87,2.59-6.27.16-3.81-1.83-7.29-5.02-9.12l4.55.13c.28.01.51-.21.51-.49,0-.28-.21-.51-.49-.51l-7.42-.21c-.26-.02-.48.18-.51.44l-.91,7.39c-.03.27.16.53.43.56.02,0,.04,0,.06,0,.25,0,.46-.19.5-.44l.85-6.87s.03.04.05.05c3.94,1.19,6.56,4.9,6.38,9.02-.19,4.48-3.69,8.16-8.13,8.58-.27.03-.48.27-.45.55.02.26.24.45.5.45.02,0,.03,0,.05,0,2.2-.21,4.19-1.14,5.74-2.55l5.3,5.61s.45,1,1,1,1-.45,1-1-1-1-1-1Z"/>
  </g>
</svg>