<?xml version="1.0" encoding="UTF-8"?>
<svg id="export" xmlns="http://www.w3.org/2000/svg" width="24" height="24" viewBox="0 0 24 24">
  <defs>
    <style>
      .cls-1 {
        fill: #bb2649;
        stroke-width: 0px;
      }
    </style>
  </defs>
  <g id="path_send">
    <path class="cls-1" d="M15.03,24c-.15,0-.29-.07-.39-.18l-5.7-7.16c-.17-.21-.15-.51.05-.69l4.69-6.32-8.14,3.24c-.16.08-.35.08-.5-.02L.23,10.19c-.16-.1-.25-.28-.23-.47.02-.19.14-.35.31-.42L23.31.04c.18-.08.39-.03.54.11.14.14.19.35.12.53l-8.47,23c-.06.17-.21.29-.39.32-.03,0-.06,0-.08,0Z"/>
    <path class="cls-1" d="M1.55,21.91c-.1,0-.21-.03-.29-.1-.13-.1-.21-.25-.21-.41l.14-7.32c0-.19.12-.37.29-.45s.38-.05.53.07l6.13,5.14c.14.12.2.3.17.47-.03.18-.16.32-.33.38l-6.27,2.18c-.05.02-.11.03-.16.03Z"/>
  </g>
</svg>