<?xml version="1.0" encoding="UTF-8"?>
<svg id="illustartions" xmlns="http://www.w3.org/2000/svg" viewBox="0 0 24 24">
  <defs>
    <style>
      .cls-1 {
        fill: #bb2649;
      }
    </style>
  </defs>
  <g id="icon_server-info_inv">
    <path class="cls-1" d="M10.74,23.06c-1.72-.95-2.98-2.43-3.55-4.16-.06-.19-.24-.33-.44-.34l-.77-.08c-1.96-.22-3.63-.59-4.67-1.11-.19-.09-.36-.19-.51-.3-.15-.11-.36-.08-.53,0-.17.08-.28.29-.28.46v3.56c0,.94,1.72,1.64,3.16,2.07,1.83.54,4.26.84,6.84.84h.51c.23,0,.42-.16.47-.38.05-.22-.05-.45-.24-.55ZM5.5,21h-3c-.28,0-.5-.22-.5-.5s.22-.5.5-.5h3c.28,0,.5.22.5.5s-.22.5-.5.5Z"/>
    <path class="cls-1" d="M7.57,12.31c-.08-.13-.22-.21-.37-.22-.02,0-.03,0-.05,0-2.83-.21-5.25-.73-6.35-1.51-.15-.11-.36-.08-.53,0-.17.08-.28.29-.28.46v3.56c0,.94,1.72,1.64,3.16,2.07.98.29,2.13.5,3.38.64h.08c.1,0,.2-.05.27-.12.11-.1.16-.25.15-.4-.02-.26-.04-.52-.04-.79,0-1.1.21-2.19.61-3.24.06-.15.04-.32-.04-.45ZM5.5,14.5h-3c-.28,0-.5-.22-.5-.5s.22-.5.5-.5h3c.28,0,.5.22.5.5s-.22.5-.5.5Z"/>
    <path class="cls-1" d="M19.72,4.07c-.17-.08-.37-.11-.53,0-1.45,1.03-5.24,1.62-9.2,1.62s-7.74-.59-9.2-1.62c-.15-.11-.36-.08-.53,0-.17.08-.28.29-.28.46v3.56c0,.94,1.72,1.64,3.16,2.07.01,0,.03,0,.04.01,1.36.4,3.04.66,4.87.77.13-.02.26-.09.34-.2,1.57-2.34,4.29-3.74,7.29-3.74,1.25,0,2.46.25,3.6.74.16.06.33.05.47-.04.14-.09.22-.25.22-.42v-2.74c0-.18-.11-.38-.28-.46ZM2.5,8c-.28,0-.5-.22-.5-.5s.22-.5.5-.5h3c.28,0,.5.22.5.5s-.22.5-.5.5h-3Z"/>
    <path class="cls-1" d="M10,5C5.03,5,0,3.83,0,2.31S5.03,0,10,0s10,.79,10,2.31-5.03,2.69-10,2.69Z"/>
    <path class="cls-1" d="M16,8c-4.41,0-8,3.59-8,8s3.59,8,8,8,8-3.59,8-8-3.59-8-8-8ZM16.63,21.41h-1.27v-8.38h1.27v8.38ZM16.54,11.4c-.15.14-.32.21-.53.21-.21,0-.39-.07-.54-.21-.14-.14-.21-.35-.21-.64s.07-.5.21-.64.32-.2.54-.2.38.07.53.21c.15.14.22.35.22.63s-.07.5-.22.64Z"/>
  </g>
</svg>