<?xml version="1.0" encoding="UTF-8"?>
<svg id="illustartions" xmlns="http://www.w3.org/2000/svg" viewBox="0 0 24 24">
  <defs>
    <style>
      .cls-1 {
        fill: #bb2649;
      }
    </style>
  </defs>
  <g id="icon_server-info">
    <path class="cls-1" d="M19.43,4.1c-.35-.14-.7-.13-.96.04-1.22.78-4.62,1.31-8.47,1.31s-7.24-.53-8.47-1.31c-.27-.17-.62-.19-.96-.04-.34.14-.58.49-.58.86v3.05c0,.93,1.07,1.64,3.37,2.26,1.35.36,3.04.6,4.91.69,0,0,.02,0,.02,0,.26,0,.49-.21.5-.48.01-.28-.2-.51-.47-.52-1.79-.09-3.42-.32-4.7-.66-2.16-.57-2.63-1.13-2.63-1.29v-3.03c1.68,1.08,5.75,1.46,9,1.46s7.32-.38,9-1.49v1.9c0,.28.22.5.5.5s.5-.22.5-.5v-1.9c0-.37-.24-.72-.57-.86Z"/>
    <path class="cls-1" d="M16,24c-4.41,0-8-3.59-8-8s3.59-8,8-8,8,3.59,8,8-3.59,8-8,8ZM16,9c-3.86,0-7,3.14-7,7s3.14,7,7,7,7-3.14,7-7-3.14-7-7-7Z"/>
    <path class="cls-1" d="M15.26,10.92c0-.29.07-.5.21-.64s.32-.2.54-.2.38.07.53.21c.15.14.22.35.22.63s-.07.5-.22.64c-.15.14-.32.21-.53.21-.21,0-.39-.07-.54-.21-.14-.14-.21-.35-.21-.64ZM16.63,21.56h-1.27v-8.38h1.27v8.38Z"/>
    <path class="cls-1" d="M7.26,11.85c-.42-.03-.82-.07-1.21-.11-2.1-.22-3.74-.61-4.52-1.11-.27-.17-.62-.19-.96-.04-.34.14-.58.49-.58.86v3.05c0,.93,1.07,1.64,3.37,2.26.92.24,1.98.43,3.17.56.02,0,.04,0,.05,0,.25,0,.47-.19.5-.45.03-.27-.17-.52-.44-.55-1.13-.12-2.15-.3-3.01-.53-2.16-.57-2.63-1.13-2.63-1.29v-3.03c.89.58,2.65,1.01,4.91,1.26.02,0,.98.09,1.29.11.27,0,.51-.19.53-.46.02-.28-.19-.51-.46-.53Z"/>
    <path class="cls-1" d="M10,24c-2.49,0-4.85-.26-6.63-.73-2.3-.61-3.37-1.33-3.37-2.26v-3.05c0-.37.24-.72.58-.86.34-.14.69-.13.96.04.87.55,2.91,1,5.47,1.2.28.02.48.26.46.54-.02.28-.26.49-.54.46-1.62-.12-4.55-.46-5.94-1.35v3.03c0,.16.48.72,2.63,1.29,1.7.45,3.96.7,6.37.7.28,0,.5.22.5.5s-.22.5-.5.5Z"/>
    <path class="cls-1" d="M10,5c-2.78,0-10-.48-10-2.65S7.65,0,10,0s10,.17,10,2.35-7.22,2.65-10,2.65ZM10,1C4.5,1,1.18,1.8,1,2.36c.14.55,3.76,1.64,9,1.64s8.86-1.09,9-1.66c-.18-.54-3.5-1.34-9-1.34Z"/>
    <path class="cls-1" d="M5.5,7.75h-3c-.28,0-.5-.22-.5-.5s.22-.5.5-.5h3c.28,0,.5.22.5.5s-.22.5-.5.5Z"/>
    <path class="cls-1" d="M5.5,14.25h-3c-.28,0-.5-.22-.5-.5s.22-.5.5-.5h3c.28,0,.5.22.5.5s-.22.5-.5.5Z"/>
    <path class="cls-1" d="M5.5,20.75h-3c-.28,0-.5-.22-.5-.5s.22-.5.5-.5h3c.28,0,.5.22.5.5s-.22.5-.5.5Z"/>
  </g>
</svg>