<?xml version="1.0" encoding="UTF-8"?>
<svg id="export" xmlns="http://www.w3.org/2000/svg" width="24" height="24" viewBox="0 0 24 24">
  <defs>
    <style>
      .cls-1 {
        fill: #bb2649;
      }
    </style>
  </defs>
  <g id="icon-settings">
    <path class="cls-1" d="m14.07,24h-4.13c-.26,0-.47-.2-.5-.45l-.24-2.65c-1.43-.41-2.75-1.13-3.85-2.11l-2.58,1.12c-.23.1-.5.02-.63-.2L.07,16.32c-.14-.23-.07-.52.15-.67l2.28-1.55c-.33-1.38-.33-2.82,0-4.2L.22,8.37C0,8.22-.07,7.92.07,7.7l2.07-3.4c.13-.21.4-.3.63-.2l2.58,1.12c1.1-.98,2.42-1.7,3.85-2.11l.24-2.65c.02-.26.24-.45.5-.45h4.13c.26,0,.47.2.5.45l.24,2.65c1.43.41,2.75,1.13,3.85,2.11l2.58-1.12c.23-.1.5-.02.63.2l2.07,3.41c.14.23.07.53-.15.68l-2.29,1.53c.34,1.38.34,2.82,0,4.2l2.29,1.55c.22.15.29.45.15.67l-2.06,3.39c-.13.21-.4.3-.63.2l-2.58-1.12c-1.1.98-2.42,1.71-3.85,2.11l-.24,2.65c-.02.26-.24.45-.5.45Zm-3.68-1h3.22l.23-2.54c.02-.21.17-.39.38-.44,1.5-.37,2.88-1.13,3.99-2.19.14-.14.36-.18.54-.1l2.48,1.08,1.59-2.61-2.19-1.48c-.18-.12-.26-.34-.2-.55.41-1.43.4-2.93,0-4.36-.06-.21.02-.43.2-.56l2.19-1.46-1.59-2.62-2.48,1.08c-.18.08-.4.04-.55-.1-1.11-1.06-2.49-1.81-3.99-2.18-.21-.05-.36-.23-.38-.44l-.23-2.54h-3.22l-.23,2.54c-.02.21-.17.39-.38.44-1.5.37-2.88,1.13-3.99,2.18-.15.14-.36.18-.55.1l-2.48-1.08-1.59,2.62,2.19,1.46c.18.12.26.35.2.56-.41,1.42-.42,2.93-.01,4.35.06.21-.02.43-.2.55l-2.18,1.48,1.59,2.61,2.48-1.08c.19-.08.4-.04.55.1,1.11,1.06,2.49,1.81,3.99,2.19.21.05.36.23.38.44l.23,2.54Z"/>
    <path class="cls-1" d="m12,16c-1.04,0-2.02-.39-2.77-1.11-.77-.74-1.21-1.74-1.23-2.8-.02-1.07.37-2.08,1.11-2.85.74-.77,1.73-1.21,2.8-1.23h.05c2.21,0,4.01,1.78,4.04,3.99,0,2.17-1.76,3.96-3.92,4-.03,0-.06,0-.09,0Zm-.06-7c-.8.02-1.55.35-2.1.92-.55.58-.85,1.34-.83,2.14.02.8.34,1.55.92,2.1.58.55,1.36.87,2.14.83,1.62-.03,2.94-1.38,2.94-3-.02-1.66-1.38-3-3.04-3h-.03Z"/>
  </g>
</svg>