<?xml version="1.0" encoding="UTF-8"?>
<svg id="export" xmlns="http://www.w3.org/2000/svg" viewBox="0 0 24 24">
  <defs>
    <style>
      .cls-1 {
        fill: #bb2649;
      }
    </style>
  </defs>
  <path class="cls-1" d="M21.49,14.1c.33-1.38.33-2.82,0-4.2l2.29-1.53c.22-.15.29-.45.15-.68l-2.07-3.41c-.13-.21-.4-.3-.63-.2l-2.58,1.12c-1.1-.98-2.42-1.7-3.85-2.11l-.24-2.65c-.02-.26-.24-.45-.5-.45h-4.13c-.26,0-.47.2-.5.45l-.24,2.65c-1.43.41-2.75,1.13-3.85,2.11l-2.58-1.12c-.23-.1-.5-.02-.63.2L.07,7.7c-.14.23-.07.53.15.68l2.29,1.53c-.34,1.38-.34,2.82,0,4.2L.22,15.65c-.22.15-.29.45-.15.67l2.07,3.39c.13.21.4.3.63.2l2.58-1.12c1.1.98,2.42,1.71,3.85,2.11l.24,2.65c.02.26.24.45.5.45h4.13c.26,0,.47-.2.5-.45l.24-2.65c1.43-.41,2.75-1.13,3.85-2.11l2.58,1.12c.23.1.5.02.63-.2l2.06-3.39c.14-.23.07-.52-.15-.67l-2.29-1.55ZM12,16c-2.21,0-4-1.79-4-4s1.79-4,4-4,4,1.79,4,4-1.79,4-4,4Z"/>
</svg>