<svg id="export" xmlns="http://www.w3.org/2000/svg" width="24" height="24" viewBox="0 0 24 24"><defs><style>.cls-1{fill:#3c5583;}</style></defs><g id="icon-settings"><path class="cls-1" d="M14.07,24H9.93a.5.5,0,0,1-.49-.45L9.19,20.9a9.9,9.9,0,0,1-3.85-2.12L2.77,19.91a.51.51,0,0,1-.63-.2L.07,16.32a.5.5,0,0,1,.15-.67L2.5,14.1a8.9,8.9,0,0,1,0-4.2L.22,8.37A.5.5,0,0,1,.07,7.7L2.14,4.29a.51.51,0,0,1,.63-.2L5.34,5.22A9.9,9.9,0,0,1,9.19,3.1L9.44.45A.49.49,0,0,1,9.93,0h4.13a.5.5,0,0,1,.5.45l.25,2.65a9.9,9.9,0,0,1,3.85,2.12l2.57-1.13a.51.51,0,0,1,.63.2L23.93,7.7a.5.5,0,0,1-.15.67L21.49,9.9a8.77,8.77,0,0,1,0,4.2l2.29,1.55a.5.5,0,0,1,.15.67l-2.07,3.39a.5.5,0,0,1-.62.2l-2.58-1.13a9.9,9.9,0,0,1-3.85,2.12l-.25,2.65A.49.49,0,0,1,14.07,24Zm-3.68-1h3.22l.23-2.54a.5.5,0,0,1,.38-.44,8.76,8.76,0,0,0,4-2.19.49.49,0,0,1,.55-.09l2.48,1.08,1.59-2.61-2.19-1.48a.5.5,0,0,1-.2-.55,7.88,7.88,0,0,0,0-4.36.49.49,0,0,1,.2-.55l2.19-1.46L21.23,5.18,18.76,6.26a.5.5,0,0,1-.55-.09,8.86,8.86,0,0,0-4-2.19.5.5,0,0,1-.38-.44L13.61,1H10.39l-.23,2.54A.5.5,0,0,1,9.78,4a8.76,8.76,0,0,0-4,2.19.5.5,0,0,1-.55.09L2.77,5.18,1.18,7.81,3.36,9.27a.48.48,0,0,1,.21.55,7.79,7.79,0,0,0,0,4.36.5.5,0,0,1-.2.55L1.17,16.21l1.6,2.61,2.47-1.08a.5.5,0,0,1,.55.09,8.81,8.81,0,0,0,4,2.19.5.5,0,0,1,.38.44Z"/><path class="cls-1" d="M12,16a4,4,0,0,1-.08-8h0a4,4,0,0,1,.12,8Zm-.07-7a3,3,0,0,0-2.1.92A3,3,0,1,0,15,12a3,3,0,0,0-3-3Z"/></g></svg>