<svg xmlns="http://www.w3.org/2000/svg" width="24" height="16" viewBox="0 0 24 16"><defs><style>.a{fill:#4e6080;}</style></defs><path class="a" d="M471.912,112.217C471.7,111.9,466.54,104.5,460,104.5s-11.7,7.4-11.912,7.717a.5.5,0,0,0,0,.566c.216.315,5.372,7.717,11.912,7.717s11.7-7.4,11.912-7.717A.5.5,0,0,0,471.912,112.217ZM460,109a2,2,0,1,1-2-2A2,2,0,0,1,460,109Zm0,10.5c-5.324,0-9.877-5.657-10.882-7a21.014,21.014,0,0,1,6.967-6.041,6,6,0,1,0,7.834,0,21.066,21.066,0,0,1,6.963,6.037C469.878,113.843,465.331,119.5,460,119.5Z" transform="translate(-448 -104.5)"/></svg>