<?xml version="1.0" encoding="UTF-8"?>
<svg id="export" xmlns="http://www.w3.org/2000/svg" width="24" height="24" viewBox="0 0 24 24">
  <defs>
    <style>
      .cls-1 {
        fill: #bb2649;
      }
    </style>
  </defs>
  <path id="icon-show" class="cls-1" d="m23.91,11.72c-.22-.31-5.37-7.72-11.91-7.72S.3,11.4.09,11.72c-.12.17-.12.4,0,.57.22.31,5.37,7.72,11.91,7.72s11.7-7.4,11.91-7.72c.12-.17.12-.4,0-.57Zm-11.91-3.22c0,1.1-.9,2-2,2s-2-.9-2-2,.9-2,2-2,2,.9,2,2Zm0,10.5c-5.32,0-9.88-5.66-10.88-7,.75-1,3.45-4.37,6.97-6.04-1.27,1.1-2.09,2.72-2.09,4.54,0,3.31,2.69,6,6,6s6-2.69,6-6c0-1.81-.81-3.44-2.08-4.54,3.52,1.67,6.22,5.04,6.96,6.04-1,1.34-5.55,7-10.88,7Z"/>
</svg>