<?xml version="1.0" encoding="UTF-8"?>
<svg id="export" xmlns="http://www.w3.org/2000/svg" width="24" height="24" viewBox="0 0 24 24">
  <defs>
    <style>
      .cls-1 {
        fill: #bb2649;
        stroke-width: 0px;
      }
    </style>
  </defs>
  <g id="path_adcode">
    <g id="path_document">
      <g>
        <path class="cls-1" d="M13.46,10.45c-.12,0-.24-.04-.34-.13l-1.3-1.19c-.2-.19-.22-.5-.03-.71.19-.2.5-.22.71-.03l1.3,1.19c.2.19.22.5.03.71-.1.11-.23.16-.37.16ZM10.85,8.06c-.12,0-.24-.04-.34-.13l-1.3-1.19c-.2-.19-.22-.5-.03-.71s.5-.22.71-.03l1.3,1.19c.2.19.22.5.03.71-.1.11-.23.16-.37.16Z"/>
        <path class="cls-1" d="M16,11.81s-.01-.07-.02-.11c0-.03,0-.06-.02-.08,0-.02-.03-.04-.04-.06-.02-.04-.04-.07-.07-.1,0,0,0,0,0,0l-.74-.67c-.2-.19-.52-.17-.71.03-.19.2-.17.52.03.71l.58.53v10.96H1V5h6.31l.6.54c.1.09.22.13.34.13.14,0,.27-.05.37-.16.19-.2.17-.52-.03-.71l-.74-.67c-.09-.08-.34-.13-.34-.13H.5c-.28,0-.5.22-.5.5v19c0,.28.22.5.5.5h15c.28,0,.5-.22.5-.5v-11.68s0,0,0-.01Z"/>
      </g>
      <path class="cls-1" d="M23.5,10c-.28,0-.5-.22-.5-.5V1h-10.5c-.28,0-.5-.22-.5-.5s.22-.5.5-.5h11c.28,0,.5.22.5.5v9c0,.28-.22.5-.5.5Z"/>
      <path class="cls-1" d="M22.19,9.66c-.11,0-.22-.04-.32-.11l-.39-.32c-.21-.17-.25-.49-.07-.7.17-.21.49-.25.7-.07l.39.32c.21.17.25.49.07.7-.1.12-.24.18-.39.18Z"/>
      <path class="cls-1" d="M13.74,2.83c-.11,0-.22-.04-.32-.11l-.77-.63c-.21-.17-.25-.49-.07-.7s.49-.25.7-.07l.77.63c.21.17.25.49.07.7-.1.12-.24.18-.39.18Z"/>
    </g>
    <g>
      <path class="cls-1" d="M6.1,19.41l-3.74-1.64v-.46l3.74-1.87v.75l-2.8,1.32,2.8,1.16v.75Z"/>
      <path class="cls-1" d="M9.46,14.66l-2.08,5.59h-.85l2.08-5.59h.84Z"/>
      <path class="cls-1" d="M9.9,18.65l2.8-1.16-2.8-1.32v-.75l3.74,1.87v.46l-3.74,1.64v-.75Z"/>
    </g>
    <g id="path_bulb">
      <path class="cls-1" d="M19.36,10.9h-1.71c-.28,0-.5-.22-.5-.5s.22-.5.5-.5h1.71c.28,0,.5.22.5.5s-.22.5-.5.5Z"/>
      <path class="cls-1" d="M19.36,12.1h-1.71c-.28,0-.5-.22-.5-.5s.22-.5.5-.5h1.71c.28,0,.5.22.5.5s-.22.5-.5.5Z"/>
      <path class="cls-1" d="M19.55,9.59h-2.1c-.19,0-.37-.11-.45-.29-.16-.34-.43-.7-.71-1.09-.6-.81-1.28-1.73-1.28-2.89,0-2.11,1.34-3.43,3.5-3.43s3.5,1.31,3.5,3.43c0,1.16-.68,2.08-1.28,2.89-.29.38-.55.75-.71,1.09-.08.17-.26.29-.45.29ZM17.75,8.59h1.5c.19-.32.42-.64.66-.97.54-.72,1.09-1.47,1.09-2.29,0-1.56-.89-2.43-2.5-2.43s-2.5.86-2.5,2.43c0,.83.55,1.57,1.09,2.29.24.33.48.64.66.97Z"/>
      <path class="cls-1" d="M20,6.4c-.28,0-.5-.22-.5-.5,0-.83-.67-1.5-1.5-1.5-.28,0-.5-.22-.5-.5s.22-.5.5-.5c1.38,0,2.5,1.12,2.5,2.5,0,.28-.22.5-.5.5Z"/>
    </g>
  </g>
</svg>