<?xml version="1.0" encoding="UTF-8"?>
<svg id="export" xmlns="http://www.w3.org/2000/svg" width="24" height="24" viewBox="0 0 24 24">
  <defs>
    <style>
      .cls-1 {
        fill: #bb2649;
        stroke-width: 0px;
      }
    </style>
  </defs>
  <g id="path_smart-snippet">
    <g>
      <path class="cls-1" d="M10.08,9.44l-3.78-1.68v-.47l3.78-1.91v.76l-2.84,1.34,2.84,1.18v.77Z"/>
      <path class="cls-1" d="M13.48,4.59l-2.11,5.71h-.86l2.11-5.71h.86Z"/>
      <path class="cls-1" d="M13.92,8.67l2.84-1.18-2.84-1.34v-.76l3.78,1.91v.47l-3.78,1.68v-.77Z"/>
    </g>
  </g>
  <g id="path_bulb">
    <path class="cls-1" d="M14.14,21h-4.29c-.28,0-.5-.22-.5-.5s.22-.5.5-.5h4.29c.28,0,.5.22.5.5s-.22.5-.5.5Z"/>
    <path class="cls-1" d="M14.14,24h-4.29c-.28,0-.5-.22-.5-.5s.22-.5.5-.5h4.29c.28,0,.5.22.5.5s-.22.5-.5.5Z"/>
    <path class="cls-1" d="M14.62,17.73h-5.25c-.19,0-.37-.11-.45-.29-.43-.92-1.12-1.85-1.86-2.85-1.43-1.94-3.06-4.13-3.06-6.77C4,2.92,6.99,0,12,0s8,2.92,8,7.82c0,2.64-1.63,4.84-3.06,6.77-.74.99-1.43,1.93-1.86,2.85-.08.18-.26.29-.45.29ZM9.69,16.73h4.63c.47-.91,1.13-1.79,1.82-2.73,1.41-1.9,2.87-3.87,2.87-6.18,0-4.33-2.55-6.82-7-6.82s-7,2.49-7,6.82c0,2.31,1.46,4.28,2.87,6.18.69.94,1.35,1.82,1.82,2.73Z"/>
  </g>
</svg>