<?xml version="1.0" encoding="UTF-8"?>
<svg id="export" xmlns="http://www.w3.org/2000/svg" width="24" height="24" viewBox="0 0 24 24">
  <defs>
    <style>
      .cls-1 {
        fill: #bb2649;
      }
    </style>
  </defs>
  <g id="icon_sort-chronological_dec">
    <path class="cls-1" d="m20,12.5h-1.5v-2.5c0-.28-.22-.5-.5-.5s-.5.22-.5.5v3c0,.28.22.5.5.5h2c.28,0,.5-.22.5-.5s-.22-.5-.5-.5Z"/>
    <path class="cls-1" d="m20.92,7.76c.05-.08.08-.16.08-.26v-2c0-.28-.22-.5-.5-.5h-5c-.28,0-.5.22-.5.5v2c0,.1.04.18.08.26-1.84,1.03-3.08,2.99-3.08,5.24,0,3.31,2.69,6,6,6s6-2.69,6-6c0-2.25-1.25-4.21-3.08-5.24Zm-4.92-.76v-1h4v1h-4Zm2,11c-2.76,0-5-2.24-5-5s2.24-5,5-5,5,2.24,5,5-2.24,5-5,5Z"/>
    <g id="path-caret-up-down">
      <path class="cls-1" d="m5,19c-.14,0-.28-.06-.37-.17L.13,13.83c-.13-.15-.17-.36-.08-.54.08-.18.26-.3.46-.3h9c.2,0,.38.12.46.3.08.18.05.39-.08.54l-4.5,5c-.1.1-.23.17-.37.17Z"/>
      <path class="cls-1" d="m9.5,11H.5c-.2,0-.38-.12-.46-.3-.08-.18-.05-.39.08-.54l4.5-5c.19-.21.55-.21.74,0l4.5,5c.13.15.17.36.08.54-.08.18-.26.3-.46.3Zm-7.88-1h6.75l-3.38-3.75-3.38,3.75Z"/>
    </g>
  </g>
</svg>