<?xml version="1.0" encoding="UTF-8"?>
<svg id="export" xmlns="http://www.w3.org/2000/svg" width="24" height="24" viewBox="0 0 24 24">
  <defs>
    <style>
      .cls-1 {
        fill: #bb2649;
      }
    </style>
  </defs>
  <g id="icon_sort-alphabetical">
    <path class="cls-1" d="m21.98,24h-7.97v-1.47l5.13-7.36h-5v-1.88h7.69v1.46l-5.13,7.37h5.27v1.88Z"/>
    <path class="cls-1" d="m21.55,10.75l-.78-2.55h-3.9l-.78,2.55h-2.45L17.43,0h2.78l3.79,10.75h-2.45Zm-1.32-4.45c-.72-2.31-1.12-3.62-1.21-3.92-.09-.3-.16-.54-.19-.72-.16.62-.62,2.17-1.38,4.64h2.79Z"/>
    <g id="path-caret-up-down">
      <path class="cls-1" d="m5,19c-.14,0-.28-.06-.37-.17L.13,13.83c-.13-.15-.17-.36-.08-.54.08-.18.26-.3.46-.3h9c.2,0,.38.12.46.3.08.18.05.39-.08.54l-4.5,5c-.1.1-.23.17-.37.17Zm-3.38-5l3.38,3.75,3.38-3.75H1.62Z"/>
      <path class="cls-1" d="m9.5,11H.5c-.2,0-.38-.12-.46-.3-.08-.18-.05-.39.08-.54l4.5-5c.19-.21.55-.21.74,0l4.5,5c.13.15.17.36.08.54-.08.18-.26.3-.46.3Zm-7.88-1h6.75l-3.38-3.75-3.38,3.75Z"/>
    </g>
  </g>
</svg>