<?xml version="1.0" encoding="UTF-8"?>
<svg id="icons" xmlns="http://www.w3.org/2000/svg" viewBox="0 0 24 24">
  <defs>
    <style>
      .cls-1 {
        fill: #bb2649;
      }
    </style>
  </defs>
  <g id="icon_sort-list-dec">
    <g id="icon_sorting">
      <path class="cls-1" d="M23.5,5h-9c-.28,0-.5-.22-.5-.5s.22-.5.5-.5h9c.28,0,.5.22.5.5s-.22.5-.5.5Z"/>
      <path class="cls-1" d="M21.5,10h-7c-.28,0-.5-.22-.5-.5s.22-.5.5-.5h7c.28,0,.5.22.5.5s-.22.5-.5.5Z"/>
      <path class="cls-1" d="M19.5,15h-5c-.28,0-.5-.22-.5-.5s.22-.5.5-.5h5c.28,0,.5.22.5.5s-.22.5-.5.5Z"/>
      <path class="cls-1" d="M17.5,20h-3c-.28,0-.5-.22-.5-.5s.22-.5.5-.5h3c.28,0,.5.22.5.5s-.22.5-.5.5Z"/>
    </g>
    <g id="path-caret-up-down">
      <path class="cls-1" d="M5,15c-.14,0-.28-.06-.37-.17L.13,9.83c-.13-.15-.17-.36-.08-.54.08-.18.26-.3.46-.3h9c.2,0,.38.12.46.3.08.18.05.39-.08.54l-4.5,5c-.1.1-.23.17-.37.17Z"/>
    </g>
  </g>
</svg>