<?xml version="1.0" encoding="UTF-8"?>
<svg id="export" xmlns="http://www.w3.org/2000/svg" width="24" height="24" viewBox="0 0 24 24">
  <defs>
    <style>
      .cls-1 {
        fill: #bb2649;
        stroke-width: 0px;
      }
    </style>
  </defs>
  <g id="icon_sort-list-asc">
    <g id="icon_sorting">
      <path class="cls-1" d="m23.5,19h-9c-.28,0-.5.22-.5.5s.22.5.5.5h9c.28,0,.5-.22.5-.5s-.22-.5-.5-.5Z"/>
      <path class="cls-1" d="m21.5,14h-7c-.28,0-.5.22-.5.5s.22.5.5.5h7c.28,0,.5-.22.5-.5s-.22-.5-.5-.5Z"/>
      <path class="cls-1" d="m19.5,9h-5c-.28,0-.5.22-.5.5s.22.5.5.5h5c.28,0,.5-.22.5-.5s-.22-.5-.5-.5Z"/>
      <path class="cls-1" d="m17.5,4h-3c-.28,0-.5.22-.5.5s.22.5.5.5h3c.28,0,.5-.22.5-.5s-.22-.5-.5-.5Z"/>
    </g>
    <g id="path-caret-up-down">
      <path class="cls-1" d="m5,19c-.14,0-.28-.06-.37-.17L.13,13.83c-.13-.15-.17-.36-.08-.54.08-.18.26-.3.46-.3h9c.2,0,.38.12.46.3.08.18.05.39-.08.54l-4.5,5c-.1.1-.23.17-.37.17Z"/>
      <path class="cls-1" d="m9.5,11H.5c-.2,0-.38-.12-.46-.3-.08-.18-.05-.39.08-.54l4.5-5c.19-.21.55-.21.74,0l4.5,5c.13.15.17.36.08.54-.08.18-.26.3-.46.3Zm-7.88-1h6.75l-3.38-3.75-3.38,3.75Z"/>
    </g>
  </g>
</svg>