<?xml version="1.0" encoding="UTF-8"?>
<svg id="export" xmlns="http://www.w3.org/2000/svg" width="24" height="24" viewBox="0 0 24 24">
  <defs>
    <style>
      .cls-1 {
        fill: #3c5583;
      }
    </style>
  </defs>
  <g id="icon-sort-alphabet-dec">
    <path class="cls-1" d="m21.55,24l-.78-2.55h-3.9l-.78,2.55h-2.45l3.78-10.75h2.78l3.79,10.75h-2.45Zm-1.32-4.45c-.72-2.31-1.12-3.62-1.21-3.92-.09-.3-.16-.54-.19-.72-.16.62-.62,2.17-1.38,4.64h2.79Z"/>
    <path class="cls-1" d="m21.98,10.71h-7.97v-1.47l5.13-7.36h-5V0h7.69v1.46l-5.13,7.37h5.27v1.88Z"/>
    <g id="icon-caret-up-down">
      <path class="cls-1" d="m6,19c-.12,0-.24-.04-.34-.13L.16,13.87c-.15-.14-.21-.36-.13-.55.08-.19.26-.32.47-.32h11c.21,0,.39.13.47.32.07.19.02.41-.13.55l-5.5,5c-.09.09-.22.13-.34.13Z"/>
      <path class="cls-1" d="m11.5,11H.5c-.21,0-.39-.13-.47-.32-.07-.19-.02-.41.13-.55l5.5-5c.19-.17.48-.17.67,0l5.5,5c.15.14.21.36.13.55-.08.19-.26.32-.47.32Zm-9.71-1h8.41l-4.21-3.82-4.21,3.82Z"/>
    </g>
  </g>
</svg>