<?xml version="1.0" encoding="UTF-8"?>
<svg id="export" xmlns="http://www.w3.org/2000/svg" width="24" height="24" viewBox="0 0 24 24">
  <defs>
    <style>
      .cls-1 {
        fill: #3c5583;
      }
    </style>
  </defs>
  <g id="abstract-sorting_default">
    <g id="icon-caret-up-down">
      <path class="cls-1" d="m18,19c-.12,0-.24-.04-.34-.13l-5.5-5c-.15-.14-.21-.36-.13-.55.08-.19.26-.32.47-.32h11c.21,0,.39.13.47.32.07.19.02.41-.13.55l-5.5,5c-.09.09-.22.13-.34.13Zm-4.21-5l4.21,3.82,4.21-3.82h-8.41Z"/>
      <path class="cls-1" d="m23.5,11h-11c-.21,0-.39-.13-.47-.32-.07-.19-.02-.41.13-.55l5.5-5c.19-.17.48-.17.67,0l5.5,5c.15.14.21.36.13.55-.08.19-.26.32-.47.32Zm-9.71-1h8.41l-4.21-3.82-4.21,3.82Z"/>
    </g>
    <g id="icon_sorting">
      <path class="cls-1" d="m9.5,5H.5C.22,5,0,4.78,0,4.5s.22-.5.5-.5h9c.28,0,.5.22.5.5s-.22.5-.5.5Z"/>
      <path class="cls-1" d="m7.5,10H.5C.22,10,0,9.78,0,9.5s.22-.5.5-.5h7c.28,0,.5.22.5.5s-.22.5-.5.5Z"/>
      <path class="cls-1" d="m5.5,15H.5C.22,15,0,14.78,0,14.5s.22-.5.5-.5h5c.28,0,.5.22.5.5s-.22.5-.5.5Z"/>
      <path class="cls-1" d="m3.5,20H.5C.22,20,0,19.78,0,19.5s.22-.5.5-.5h3c.28,0,.5.22.5.5s-.22.5-.5.5Z"/>
    </g>
  </g>
</svg>