<?xml version="1.0" encoding="UTF-8"?>
<svg id="export" xmlns="http://www.w3.org/2000/svg" width="24" height="24" viewBox="0 0 24 24">
  <defs>
    <style>
      .cls-1 {
        fill: #bb2649;
      }
    </style>
  </defs>
  <g id="sort-numeric-dec">
    <path class="cls-1" d="m20.92,24h-2.26v-6.37l.02-1.05.04-1.14c-.38.39-.64.64-.78.76l-1.23,1.02-1.09-1.4,3.44-2.82h1.86v11Z"/>
    <path class="cls-1" d="m23,11h-7.47v-1.59l2.68-2.75c.79-.83,1.31-1.4,1.56-1.72.24-.32.42-.61.53-.89s.16-.55.16-.85c0-.44-.12-.76-.35-.97-.24-.21-.55-.32-.95-.32-.41,0-.82.1-1.21.29-.39.19-.8.47-1.22.82l-1.23-1.48c.53-.45.96-.78,1.31-.96.35-.19.72-.33,1.13-.43.41-.1.87-.15,1.37-.15.67,0,1.26.12,1.77.37s.91.59,1.19,1.04c.28.45.42.95.42,1.53,0,.5-.09.97-.26,1.41-.17.44-.44.89-.8,1.35-.36.46-1,1.12-1.92,1.97l-1.37,1.31v.1h4.66v1.93Z"/>
    <g id="path-caret-up-down">
      <path class="cls-1" d="m7,19c-.12,0-.24-.04-.34-.13L1.16,13.87c-.15-.14-.21-.36-.13-.55.08-.19.26-.32.47-.32h11c.21,0,.39.13.47.32.07.19.02.41-.13.55l-5.5,5c-.09.09-.22.13-.34.13Z"/>
      <path class="cls-1" d="m12.5,11H1.5c-.21,0-.39-.13-.47-.32-.07-.19-.02-.41.13-.55l5.5-5c.19-.17.48-.17.67,0l5.5,5c.15.14.21.36.13.55-.08.19-.26.32-.47.32Zm-9.71-1h8.41l-4.21-3.82-4.21,3.82Z"/>
    </g>
  </g>
</svg>