<?xml version="1.0" encoding="UTF-8"?>
<svg id="export" xmlns="http://www.w3.org/2000/svg" width="24" height="24" viewBox="0 0 24 24">
  <defs>
    <style>
      .cls-1 {
        fill: #bb2649;
        stroke-width: 0px;
      }
    </style>
  </defs>
  <path id="favourite_inv" class="cls-1" d="m19.13,24c-.08,0-.17-.02-.24-.06l-6.88-3.8-6.88,3.8c-.17.09-.37.08-.53-.03-.16-.11-.24-.3-.21-.49l1.32-8.08L.14,9.64c-.13-.13-.18-.33-.12-.51.06-.18.21-.31.4-.34l7.67-1.17L11.55.26c.16-.35.74-.35.9,0l3.46,7.36,7.67,1.17c.19.03.34.16.4.34.06.18.01.37-.12.51l-5.56,5.69,1.32,8.08c.03.19-.05.38-.21.49-.09.06-.19.09-.29.09Z"/>
</svg>