<?xml version="1.0" encoding="UTF-8"?>
<svg id="illustartions" xmlns="http://www.w3.org/2000/svg" viewBox="0 0 24 24">
  <defs>
    <style>
      .cls-1 {
        fill: #bb2649;
      }
    </style>
  </defs>
  <g id="icon_stats_inv">
    <path class="cls-1" d="M2.5,24c-1.38,0-2.5-1.12-2.5-2.5v-9c0-1.38,1.12-2.5,2.5-2.5s2.5,1.12,2.5,2.5v9c0,1.38-1.12,2.5-2.5,2.5Z"/>
    <path class="cls-1" d="M12,24c-1.38,0-2.5-1.17-2.5-2.62V7.62c0-1.44,1.12-2.62,2.5-2.62s2.5,1.17,2.5,2.62v13.77c0,1.44-1.12,2.62-2.5,2.62Z"/>
    <path class="cls-1" d="M21.5,24c-1.38,0-2.5-.99-2.5-2.2V2.2c0-1.22,1.12-2.2,2.5-2.2s2.5.99,2.5,2.2v19.59c0,1.22-1.12,2.2-2.5,2.2Z"/>
  </g>
</svg>