<?xml version="1.0" encoding="UTF-8"?>
<svg id="export" xmlns="http://www.w3.org/2000/svg" viewBox="0 0 24 24">
  <defs>
    <style>
      .cls-1 {
        fill: #bb2649;
      }
    </style>
  </defs>
  <g id="icon_streams">
    <path class="cls-1" d="M21.5,24H.5c-.28,0-.5-.22-.5-.5V.5C0,.22.22,0,.5,0h21c.28,0,.5.22.5.5v1.5c0,.28-.22.5-.5.5s-.5-.22-.5-.5v-1H1v22h20v-3c0-.28.22-.5.5-.5s.5.22.5.5v3.5c0,.28-.22.5-.5.5Z"/>
    <path class="cls-1" d="M15.83,11c-2.12,0-2.77-2.49-3.25-4.31l-.14-.52c-.1-.37-.36-.43-.47-.4-.09,0-.38.03-.48.4-.12.43-.21.88-.3,1.3-.31,1.5-.64,3.06-2.09,3.06-1.71,0-2.2-1.95-2.56-3.38l-.07-.29c-.47-1.86-.52-1.86-.95-1.86-.28,0-.5-.22-.5-.5s.22-.5.5-.5c1.26,0,1.45.77,1.92,2.62l.05.19c.38,1.53.75,2.72,1.61,2.72.6,0,.82-.86,1.11-2.26.09-.45.19-.92.32-1.37.19-.68.77-1.13,1.44-1.13h0c.68,0,1.24.45,1.43,1.13l.14.53c.53,2.02,1.03,3.56,2.28,3.56.73,0,1.01-1.67,1.22-2.89.21-1.25.37-2.16,1.02-2.34.25-.07.51-.03.72.11.52.35.61,1.23.71,2.17.04.38.08.76.14,1,.1.37.4.4.5.4.21-.04.43-.1.51-.4.08-.27.15-.57.23-.87.5-1.96,1.07-4.17,2.62-4.17.28,0,.5.22.5.5s-.22.5-.5.5c-.78,0-1.3,2.06-1.65,3.42-.08.31-.16.61-.24.89-.19.68-.78,1.13-1.47,1.13h0c-.69,0-1.27-.46-1.46-1.13-.09-.31-.13-.72-.17-1.16-.04-.36-.1-.97-.2-1.28-.07.29-.19.95-.26,1.41-.28,1.66-.63,3.72-2.2,3.72Z"/>
    <path class="cls-1" d="M15.83,20c-2.12,0-2.77-2.49-3.25-4.31l-.14-.52c-.1-.37-.36-.42-.47-.4-.09,0-.38.03-.48.4-.12.43-.21.88-.3,1.3-.31,1.5-.64,3.06-2.09,3.06-1.71,0-2.2-1.95-2.56-3.38l-.07-.29c-.47-1.86-.52-1.86-.95-1.86-.28,0-.5-.22-.5-.5s.22-.5.5-.5c1.26,0,1.45.77,1.92,2.62l.05.19c.38,1.53.75,2.72,1.61,2.72.6,0,.82-.86,1.11-2.26.09-.45.19-.92.32-1.37.19-.68.77-1.13,1.44-1.13h0c.68,0,1.24.45,1.43,1.13l.14.53c.53,2.02,1.03,3.56,2.28,3.56.73,0,1.01-1.67,1.22-2.89.21-1.25.37-2.16,1.02-2.34.25-.07.51-.03.72.11.52.35.61,1.23.71,2.17.04.38.08.76.14,1,.1.37.4.4.5.4.21.05.43-.1.51-.4.08-.27.15-.57.23-.87.5-1.96,1.07-4.17,2.62-4.17.28,0,.5.22.5.5s-.22.5-.5.5c-.78,0-1.3,2.06-1.65,3.42-.08.31-.16.61-.24.89-.19.68-.78,1.13-1.47,1.13h0c-.69,0-1.27-.46-1.46-1.13-.09-.31-.13-.72-.17-1.16-.04-.36-.1-.97-.2-1.28-.07.29-.19.95-.26,1.41-.28,1.66-.63,3.72-2.2,3.72Z"/>
  </g>
</svg>