<?xml version="1.0" encoding="UTF-8"?>
<svg id="export" xmlns="http://www.w3.org/2000/svg" viewBox="0 0 24 24">
  <defs>
    <style>
      .cls-1 {
        fill: #bb2649;
      }
    </style>
  </defs>
  <g id="icon_streams_inv">
    <g>
      <path class="cls-1" d="M18.5,11.76c.5.03.99.18,1.41.46.06.04.11.08.17.12.18-.34.38-.66.61-.94-.18.03-.36.04-.54.04-.44.02-.86-.08-1.25-.22-.12.19-.25.37-.39.54Z"/>
      <path class="cls-1" d="M15.35,14.38v.03c.14-.51.33-1,.61-1.42-.04,0-.08,0-.13,0-.53,0-1-.09-1.43-.23.44.43.77.97.94,1.61Z"/>
      <path class="cls-1" d="M20.14,20.44c-.44-.01-.86-.08-1.25-.22-.61,1.01-1.55,1.78-3.06,1.78-1.81,0-2.97-.92-3.74-2.1-.59.92-1.51,1.64-2.98,1.64-3.27,0-4.13-3.42-4.5-4.89l-.07-.28c-.05-.21-.11-.44-.16-.64-.8-.42-1.34-1.26-1.34-2.22,0-1.38,1.12-2.5,2.5-2.5.19,0,.37.02.54.04-.88-1.11-1.25-2.57-1.46-3.4l-.07-.28c-.05-.21-.11-.44-.16-.64-.8-.42-1.34-1.26-1.34-2.22,0-1.38,1.12-2.5,2.5-2.5,2.04,0,2.91,1.21,3.41,2.57.61-1.11,1.75-1.81,3.05-1.81h.01c1.58,0,2.93,1.06,3.35,2.61v.03c.31-1.13.85-2.19,2.19-2.57.82-.23,1.69-.09,2.38.38.06.04.11.08.17.12.45-.87,1.07-1.61,1.92-2.01v-.83c0-.28-.22-.5-.5-.5H.5C.22,0,0,.22,0,.5v23c0,.28.22.5.5.5h21c.28,0,.5-.22.5-.5v-3.6c-.54.34-1.18.54-1.86.54Z"/>
      <path class="cls-1" d="M11.21,11.86c.25-.06.5-.09.77-.09h.01c.34,0,.66.06.97.15-.33-.3-.62-.65-.87-1.02-.24.36-.53.69-.88.96Z"/>
      <path class="cls-1" d="M8.39,12.47c.22.34.4.72.55,1.11.25-.45.59-.84,1-1.13-.25.05-.52.09-.82.09-.26,0-.49-.03-.72-.07Z"/>
    </g>
    <path class="cls-1" d="M15.83,11c-2.12,0-2.77-2.49-3.25-4.31l-.14-.52c-.1-.37-.41-.43-.47-.4-.09,0-.38.03-.48.4-.12.43-.21.88-.3,1.3-.31,1.5-.64,3.06-2.09,3.06-1.71,0-2.2-1.95-2.56-3.38l-.07-.29c-.47-1.86-.52-1.86-.95-1.86-.28,0-.5-.22-.5-.5s.22-.5.5-.5c1.26,0,1.45.77,1.92,2.62l.05.19c.38,1.53.75,2.72,1.61,2.72.6,0,.82-.86,1.11-2.26.09-.45.19-.92.32-1.37.19-.68.77-1.13,1.44-1.13h0c.68,0,1.24.45,1.43,1.13l.14.53c.53,2.02,1.03,3.56,2.28,3.56.73,0,1.01-1.67,1.22-2.89.21-1.25.37-2.16,1.02-2.34.25-.07.51-.03.72.11.52.35.61,1.23.71,2.17.04.38.08.76.14,1,.1.37.4.4.5.4h0c.19,0,.43-.1.51-.4.08-.27.15-.57.23-.87.5-1.96,1.07-4.17,2.62-4.17.28,0,.5.22.5.5s-.22.5-.5.5c-.78,0-1.3,2.06-1.65,3.42-.08.31-.16.61-.24.89-.19.68-.78,1.13-1.47,1.13h0c-.69,0-1.27-.46-1.46-1.13-.09-.31-.13-.72-.17-1.16-.04-.36-.1-.97-.2-1.28-.07.29-.19.95-.26,1.41-.28,1.66-.63,3.72-2.2,3.72Z"/>
    <path class="cls-1" d="M15.83,20c-2.12,0-2.77-2.49-3.25-4.31l-.14-.52c-.1-.37-.41-.42-.47-.4-.09,0-.38.03-.48.4-.12.43-.21.88-.3,1.3-.31,1.5-.64,3.06-2.09,3.06-1.71,0-2.2-1.95-2.56-3.38l-.07-.29c-.47-1.86-.52-1.86-.95-1.86-.28,0-.5-.22-.5-.5s.22-.5.5-.5c1.26,0,1.45.77,1.92,2.62l.05.19c.38,1.53.75,2.72,1.61,2.72.6,0,.82-.86,1.11-2.26.09-.45.19-.92.32-1.37.19-.68.77-1.13,1.44-1.13h0c.68,0,1.24.45,1.43,1.13l.14.53c.53,2.02,1.03,3.56,2.28,3.56.73,0,1.01-1.67,1.22-2.89.21-1.25.37-2.16,1.02-2.34.25-.07.51-.03.72.11.52.35.61,1.23.71,2.17.04.38.08.76.14,1,.1.37.4.4.5.4h0c.19,0,.43-.1.51-.4.08-.27.15-.57.23-.87.5-1.96,1.07-4.17,2.62-4.17.28,0,.5.22.5.5s-.22.5-.5.5c-.78,0-1.3,2.06-1.65,3.42-.08.31-.16.61-.24.89-.19.68-.78,1.13-1.47,1.13h0c-.69,0-1.27-.46-1.46-1.13-.09-.31-.13-.72-.17-1.16-.04-.36-.1-.97-.2-1.28-.07.29-.19.95-.26,1.41-.28,1.66-.63,3.72-2.2,3.72Z"/>
  </g>
</svg>