<?xml version="1.0" encoding="UTF-8"?>
<svg id="export" xmlns="http://www.w3.org/2000/svg" viewBox="0 0 24 24">
  <defs>
    <style>
      .cls-1 {
        fill: #bb2649;
      }
    </style>
  </defs>
  <g id="icon_sync">
    <path class="cls-1" d="M23.98,22.13s-1.81-6.53-1.82-6.54c-.08-.23-.31-.39-.56-.34l-6.68,1.17c-.27.05-.45.31-.41.58.04.24.25.41.49.41.03,0,.06,0,.09,0l5.87-1.03c-1.68,3.43-5.13,5.63-8.99,5.63-5.53,0-10.03-4.49-10.03-10,0-.37.02-.73.06-1.09.03-.28-.17-.52-.44-.55-.28-.03-.52.17-.55.44-.04.39-.06.79-.06,1.2,0,6.07,4.95,11,11.03,11,4.04,0,7.7-2.18,9.63-5.65l1.39,5.04c.06.22.26.37.48.37.04,0,.09,0,.13-.02.27-.07.42-.35.35-.62Z"/>
    <path class="cls-1" d="M11.99,1C7.84,1,4.1,3.29,2.21,6.92L.99,1.59c-.06-.27-.33-.44-.6-.38C.12,1.28-.05,1.55.01,1.82l1.51,6.59c.05.23.26.39.49.39.02,0,6.79-.88,6.79-.88.28-.04.47-.29.43-.56-.04-.27-.29-.47-.56-.43l-5.71.74c1.67-3.46,5.15-5.67,9.04-5.67,5.53,0,10.03,4.49,10.03,10,0,.4-.02.8-.07,1.2-.03.27.16.52.44.55.02,0,.04,0,.06,0,.25,0,.47-.19.5-.44.05-.44.08-.88.08-1.32,0-6.07-4.95-11-11.03-11Z"/>
  </g>
</svg>