<?xml version="1.0" encoding="UTF-8"?>
<svg id="export" xmlns="http://www.w3.org/2000/svg" viewBox="0 0 24 24">
  <defs>
    <style>
      .cls-1 {
        fill: #bb2649;
      }
    </style>
  </defs>
  <path id="icon_target-group_inv" class="cls-1" d="M12,0C5.38,0,0,5.38,0,12s5.38,12,12,12,12-5.38,12-12S18.62,0,12,0ZM12,1c6.07,0,11,4.93,11,11,0,2.1-.6,4.06-1.63,5.73-.79-1.13-1.75-2.01-2.63-2.48,1.18-.73,1.96-2.29,1.97-4.06v-1.02c0-2.37-1.42-4.34-3.23-4.48-.02,0-.05,0-.07,0-.19.02-.33.22-.33.45,0,.05,0,.09.02.13.04.34.06.7.06,1.05v1.22c0,1.58-.39,3.07-1.1,4.32-.11.18-.08.43.06.58.36.36.7.76,1.02,1.19.18.23.35.47.51.71,0,.02.02.04.03.06l.2.31s.03.04.05.06c.8,1.3,1.35,2.72,1.66,4.18-.26.24-.52.48-.8.7-.7-3.35-3.07-6.18-5.18-7.23,1.44-.82,2.46-2.7,2.46-4.88v-1.22c0-2.92-1.83-4.81-4.07-4.82-2.23,0-4.06,1.89-4.06,4.82v1.22h0c0,2.18,1.02,4.06,2.47,4.88-2.1,1.05-4.47,3.88-5.18,7.23-.28-.22-.55-.45-.8-.69.31-1.46.86-2.88,1.66-4.19.02-.02.03-.04.05-.06l.2-.31s.02-.04.03-.06c.16-.24.33-.48.51-.71.32-.42.67-.82,1.02-1.19.14-.15.17-.4.06-.58-.72-1.25-1.1-2.74-1.1-4.32v-1.22c0-.35.02-.7.06-1.05.01-.04.02-.09.02-.13,0-.23-.14-.42-.33-.45-.03,0-.05,0-.07,0-1.81.14-3.23,2.1-3.23,4.48v1.02c0,1.77.78,3.34,1.97,4.06-.88.48-1.84,1.36-2.63,2.48-1.03-1.67-1.63-3.63-1.63-5.73C1,5.93,5.93,1,12,1Z"/>
</svg>