<?xml version="1.0" encoding="UTF-8"?>
<svg id="export" xmlns="http://www.w3.org/2000/svg" viewBox="0 0 24 24">
  <defs>
    <style>
      .cls-1 {
        fill: #bb2649;
      }
    </style>
  </defs>
  <path id="icon_target-group" class="cls-1" d="M12,0C5.38,0,0,5.38,0,12s5.38,12,12,12,12-5.38,12-12S18.62,0,12,0ZM6.11,21.27c.48-3.45,2.72-6.38,4.65-7.42.16-.08.26-.25.26-.43,0-.18-.09-.35-.24-.44-1.24-.76-2.05-2.51-2.05-4.45v-1.22c0-2.49,1.38-4.31,3.27-4.32,1.89,0,3.27,1.82,3.28,4.32v1.22c0,1.95-.81,3.7-2.05,4.45-.15.09-.24.26-.24.44,0,.18.11.34.26.43,1.93,1.03,4.17,3.97,4.65,7.42-1.71,1.09-3.73,1.73-5.89,1.73s-4.19-.64-5.89-1.73ZM18.8,20.63c-.6-3.19-2.55-5.93-4.43-7.26,1.17-1.07,1.9-2.88,1.91-4.84v-1.22c0-3.07-1.8-5.3-4.28-5.31-2.47.01-4.27,2.25-4.27,5.32v1.22c0,1.96.74,3.77,1.91,4.84-1.88,1.32-3.83,4.07-4.43,7.26-.83-.65-1.55-1.42-2.16-2.28.73-1.15,1.72-2.15,2.7-2.67.16-.08.26-.25.26-.43,0-.18-.09-.35-.24-.44-1.05-.65-1.73-2.08-1.73-3.64v-1.02c0-2.26,1.08-4.05,2.51-4.16.28-.02.48-.26.46-.54-.02-.28-.28-.5-.54-.46-1.98.15-3.42,2.32-3.43,5.16v1.02c0,1.62.6,3.1,1.59,4.02-.79.56-1.55,1.34-2.17,2.23-.92-1.6-1.45-3.46-1.45-5.43C1,5.93,5.93,1,12,1s11,4.93,11,11c0,1.98-.53,3.83-1.45,5.43-.63-.89-1.38-1.68-2.17-2.23.99-.93,1.59-2.4,1.59-4.02v-1.02c0-2.83-1.45-5-3.43-5.16-.27-.04-.52.18-.54.46-.02.28.18.52.46.54,1.42.11,2.5,1.9,2.51,4.16v1.02c0,1.57-.68,3-1.73,3.64-.15.09-.24.26-.24.44,0,.18.11.34.26.43.98.53,1.96,1.52,2.7,2.67-.61.86-1.34,1.62-2.16,2.28Z"/>
</svg>