<?xml version="1.0" encoding="UTF-8"?>
<svg id="export" xmlns="http://www.w3.org/2000/svg" width="24" height="24" viewBox="0 0 24 24">
  <defs>
    <style>
      .cls-1 {
        fill: #3c5583;
      }
    </style>
  </defs>
  <g id="icon-time-sorting-recent">
    <g id="path-caret-up-down">
      <path class="cls-1" d="m19,18c-.12,0-.25-.05-.34-.14l-4.5-4.23c-.15-.14-.2-.36-.12-.55.08-.19.26-.32.46-.32h9c.21,0,.39.12.46.32.08.19.03.41-.12.55l-4.5,4.23c-.1.09-.22.14-.34.14Zm-3.24-4.23l3.24,3.04,3.24-3.04h-6.48Z"/>
      <path class="cls-1" d="m23.5,11.23h-9c-.21,0-.39-.12-.46-.32-.08-.19-.03-.41.12-.55l4.5-4.23c.19-.18.49-.18.69,0l4.5,4.23c.15.14.2.36.12.55-.08.19-.26.32-.46.32Zm-7.74-1h6.48l-3.24-3.04-3.24,3.04Z"/>
    </g>
    <g id="recent_clock">
      <path class="cls-1" d="m8,12.5h-1.5v-2.5c0-.28-.22-.5-.5-.5s-.5.22-.5.5v3c0,.28.22.5.5.5h2c.28,0,.5-.22.5-.5s-.22-.5-.5-.5Z"/>
      <path class="cls-1" d="m8.92,7.76c.05-.08.08-.16.08-.26v-2c0-.28-.22-.5-.5-.5H3.5c-.28,0-.5.22-.5.5v2c0,.1.04.18.08.26C1.25,8.79,0,10.75,0,13,0,16.31,2.69,19,6,19s6-2.69,6-6c0-2.25-1.25-4.21-3.08-5.24Zm-4.92-.76v-1h4v1h-4Zm2,11c-2.76,0-5-2.24-5-5s2.24-5,5-5,5,2.24,5,5-2.24,5-5,5Z"/>
    </g>
  </g>
</svg>