<?xml version="1.0" encoding="UTF-8"?>
<svg id="export" xmlns="http://www.w3.org/2000/svg" width="24" height="24" viewBox="0 0 24 24">
  <defs>
    <style>
      .cls-1 {
        fill: #bb2649;
      }
    </style>
  </defs>
  <g id="recent-time">
    <path class="cls-1" d="m17,13.5h-4.5v-6.5c0-.28-.22-.5-.5-.5s-.5.22-.5.5v7c0,.28.22.5.5.5h5c.28,0,.5-.22.5-.5s-.22-.5-.5-.5Z"/>
    <path class="cls-1" d="m15,4.46v-1.46h1.5c.28,0,.5-.22.5-.5V.5c0-.28-.22-.5-.5-.5H7.5c-.28,0-.5.22-.5.5v2c0,.28.22.5.5.5h1.5v1.46c-4.05,1.28-7,5.07-7,9.54,0,5.51,4.49,10,10,10s10-4.49,10-10c0-4.47-2.95-8.26-7-9.54Zm-7-3.46h8v1h-8v-1Zm2,2h4v1.2c-.65-.13-1.32-.2-2-.2s-1.35.07-2,.2v-1.2Zm2,20c-4.96,0-9-4.04-9-9S7.04,5,12,5s9,4.04,9,9-4.04,9-9,9Z"/>
  </g>
</svg>
