<svg id="export" xmlns="http://www.w3.org/2000/svg" width="24" height="24" viewBox="0 0 24 24"><defs><style>.cls-1{fill:#3c5583;}</style></defs><g id="icon_trash"><path class="cls-1" d="M8.5,19.5A.5.5,0,0,1,8,19V8A.5.5,0,0,1,9,8V19A.5.5,0,0,1,8.5,19.5Z"/><path class="cls-1" d="M15.5,19.5A.5.5,0,0,1,15,19V8a.5.5,0,0,1,1,0V19A.5.5,0,0,1,15.5,19.5Z"/><path class="cls-1" d="M22.5,3H18.3L17.08.67A1,1,0,0,0,16.21,0H7.77a1,1,0,0,0-.85.65L5.7,3H1.5a.5.5,0,0,0,0,1H3V23.5a.5.5,0,0,0,.5.5h17a.5.5,0,0,0,.5-.5V4h1.5a.5.5,0,0,0,0-1ZM7.81,1.09l0-.07,8.33,0,1.05,2H6.82ZM20,23H4V4H20Z"/></g></svg>