<?xml version="1.0" encoding="UTF-8"?>
<svg id="export" xmlns="http://www.w3.org/2000/svg" width="24" height="24" viewBox="0 0 24 24">
  <defs>
    <style>
      .cls-1 {
        fill: #bb2649;
        stroke-width: 0px;
      }
    </style>
  </defs>
  <path id="icon_trash_inv" class="cls-1" d="m23.5,3h-5.2l-1.22-2.33c-.17-.39-.47-.63-.87-.67H7.77c-.36.02-.68.26-.85.65l-1.22,2.35H.5c-.28,0-.5.22-.5.5s.22.5.5.5h1.5l1,19.5c0,.28.22.5.5.5h17c.28,0,.5-.22.5-.5l1-19.5h1.5c.28,0,.5-.22.5-.5s-.22-.5-.5-.5Zm-14,16c0,.28-.22.5-.5.5h-1c-.28,0-.5-.22-.5-.5v-11c0-.28.22-.5.5-.5h1c.28,0,.5.22.5.5v11Zm7,0c0,.28-.22.5-.5.5h-1c-.28,0-.5-.22-.5-.5v-11c0-.28.22-.5.5-.5h1c.28,0,.5.22.5.5v11ZM6.82,3l.99-1.91-.03-.08,8.34-.02,1.05,2H6.82Z"/>
</svg>