<?xml version="1.0" encoding="UTF-8"?>
<svg id="export" xmlns="http://www.w3.org/2000/svg" width="24" height="24" viewBox="0 0 24 24">
  <defs>
    <style>
      .cls-1 {
        fill: #bb2649;
        stroke-width: 0px;
      }
    </style>
  </defs>
  <path id="icon_trigger" class="cls-1" d="m23.5,18.89h-1.12l-1.52-14.33s0,0,0-.02c-.13-2.01-5.82-2.54-8.85-2.54S3.28,2.54,3.15,4.54c0,0,0,0,0,.02l-1.52,14.33H.5c-.28,0-.5.22-.5.5s.22.5.5.5h1.98c.7.33,4.66,2.11,9.52,2.11s8.83-1.78,9.52-2.11h1.98c.28,0,.5-.22.5-.5s-.22-.5-.5-.5ZM12,3c5.19,0,7.86,1.13,7.86,1.61s-2.68,1.61-7.86,1.61-7.86-1.13-7.86-1.61,2.68-1.61,7.86-1.61Zm0,18c-5.01,0-9.14-2.04-9.19-2.06-.06-.03-.13-.05-.19-.05l1.39-13.05c1.73,1.07,5.65,1.39,7.99,1.39s6.26-.32,7.99-1.39l1.39,13.05c-.06,0-.13.02-.19.05-.04.02-4.18,2.06-9.19,2.06Z"/>
</svg>