<?xml version="1.0" encoding="UTF-8"?>
<svg id="export" xmlns="http://www.w3.org/2000/svg" width="24" height="24" viewBox="0 0 24 24">
  <defs>
    <style>
      .cls-1 {
        fill: #bb2649;
        stroke-width: 0px;
      }
    </style>
  </defs>
  <path id="icon_trigger_inv" class="cls-1" d="M23.5,18.89h-1.12l-1.52-14.33s0,0,0-.02c-.13-2.01-5.82-2.54-8.85-2.54S3.28,2.54,3.15,4.54c0,0,0,0,0,.02l-1.52,14.33H.5C.22,18.89,0,19.11,0,19.39s.22.5.5.5h1.98c.7.33,4.66,2.11,9.52,2.11s8.83-1.78,9.52-2.11h1.98c.28,0,.5-.22.5-.5s-.22-.5-.5-.5ZM18.88,6.33c-.17.2-1.3,1.17-6.88,1.17s-6.71-.98-6.88-1.17c-.18-.21-.16-.52.05-.71.2-.17.5-.16.68.03.06.05,1.17.85,6.14.85s6.14-.84,6.15-.85c.18-.21.48-.22.69-.04.21.18.22.51.04.72Z"/>
</svg>