<?xml version="1.0" encoding="UTF-8"?>
<svg id="export" xmlns="http://www.w3.org/2000/svg" width="24" height="24" viewBox="0 0 24 24">
  <defs>
    <style>
      .cls-1 {
        fill: #bb2649;
        stroke-width: 0px;
      }
    </style>
  </defs>
  <g id="icon_unarchive">
    <path class="cls-1" d="m21.44,24.14H2.44c-.28,0-.5-.22-.5-.5v-13c0-.28.22-.5.5-.5s.5.22.5.5v12.5h18v-12.5c0-.28.22-.5.5-.5s.5.22.5.5v13c0,.28-.22.5-.5.5Z"/>
    <path class="cls-1" d="m15.44,17.14h-7c-.28,0-.5-.22-.5-.5v-2c0-.28.22-.5.5-.5h7c.28,0,.5.22.5.5v2c0,.28-.22.5-.5.5Zm-6.5-1h6v-1h-6v1Z"/>
    <path class="cls-1" d="m20.28,5.27L14.77.27c-.19-.17-.48-.17-.67,0l-5.5,4.99c-.21.19-.22.5-.03.71.19.21.5.22.71.03L13.94,1.76v9.87c0,.28.22.5.5.5s.5-.22.5-.5V1.77l4.66,4.24c.1.09.22.13.34.13.14,0,.27-.06.37-.16.19-.2.17-.52-.03-.71Z"/>
    <path class="cls-1" d="m.44,13.14c-.28,0-.5-.22-.5-.5v-4c0-.28.22-.5.5-.5h11c.28,0,.5.22.5.5s-.22.5-.5.5H.94v3.5c0,.28-.22.5-.5.5Z"/>
    <path class="cls-1" d="m23.44,13.14c-.28,0-.5-.22-.5-.5v-3.5h-5.5c-.28,0-.5-.22-.5-.5s.22-.5.5-.5h6c.28,0,.5.22.5.5v4c0,.28-.22.5-.5.5Z"/>
  </g>
</svg>