<?xml version="1.0" encoding="UTF-8"?>
<svg id="export" xmlns="http://www.w3.org/2000/svg" width="24" height="24" viewBox="0 0 24 24">
  <defs>
    <style>
      .cls-1 {
        fill: #bb2649;
        stroke-width: 0px;
      }
    </style>
  </defs>
  <path class="cls-1" d="M23.5,6.9h-10c-.28,0-.5.23-.5.51v2.04c0,.28.22.51.5.51s.5-.23.5-.51v-1.53h9v8.16h-6.29l-6.03-6.15c.19-.07.33-.26.33-.47v-2.04c0-.28-.22-.51-.5-.51h-2.79l-1.72-1.75c-.2-.2-.51-.2-.71,0s-.2.52,0,.72l1.01,1.03H.5c-.28,0-.5.23-.5.51v9.18c0,.28.22.51.5.51h10c.28,0,.5-.23.5-.51v-2.04c0-.28-.22-.51-.5-.51s-.5.23-.5.51v1.53H1V7.92h6.29l6.03,6.15c-.19.07-.33.26-.33.47v2.04c0,.28.22.51.5.51h2.79l1.72,1.75c.1.1.23.15.35.15s.26-.05.35-.15c.2-.2.2-.52,0-.72l-1.01-1.03h5.79c.28,0,.5-.23.5-.51V7.41c0-.28-.22-.51-.5-.51ZM10,7.92v1.32l-1.29-1.32h1.29ZM14,16.08v-1.32l1.29,1.32h-1.29Z"/>
</svg>