<?xml version="1.0" encoding="UTF-8"?>
<svg id="export" xmlns="http://www.w3.org/2000/svg" width="24" height="24" viewBox="0 0 24 24">
  <defs>
    <style>
      .cls-1 {
        fill: #bb2649;
        stroke-width: 0px;
      }
    </style>
  </defs>
  <g id="unlock">
    <path class="cls-1" d="M22.5,0h-9c-.28,0-.5.22-.5.5v3.5H1.5c-.28,0-.5.22-.5.5l1,19c0,.28.22.5.5.5h15c.28,0,.5-.22.5-.5l1-19c0-.28-.22-.5-.5-.5h-4.5V1h8v3.5c0,.28.22.5.5.5s.5-.22.5-.5V.5c0-.28-.22-.5-.5-.5ZM17,23H3L2,5h16l-1,18Z"/>
    <rect class="cls-1" x="9" y="11" width="2" height="10" rx=".5" ry=".5"/>
  </g>
</svg>