<svg id="export" xmlns="http://www.w3.org/2000/svg" width="24" height="24" viewBox="0 0 24 24"><defs><style>.cls-1{fill:#3c5583;}</style></defs><g id="icon_upload"><path class="cls-1" d="M23.5,23H.5a.5.5,0,0,1-.5-.5v-9A.5.5,0,0,1,.5,13a.5.5,0,0,1,.5.5V22H23V13.5a.5.5,0,0,1,1,0v9A.5.5,0,0,1,23.5,23Z"/><path class="cls-1" d="M11.63,1.15,6.16,6.29a.48.48,0,0,0,0,.71.54.54,0,0,0,.75,0l4.56-4.29V18.5A.51.51,0,0,0,12,19a.56.56,0,0,0,.38-.15.49.49,0,0,0,.15-.35V2.71L17.09,7a.56.56,0,0,0,.75,0,.48.48,0,0,0,0-.71L12.38,1.15A.54.54,0,0,0,11.63,1.15Z"/></g></svg>