<?xml version="1.0" encoding="UTF-8"?>
<svg id="export" xmlns="http://www.w3.org/2000/svg" width="24" height="24" viewBox="0 0 24 24">
  <defs>
    <style>
      .cls-1 {
        fill: #bb2649;
      }
    </style>
  </defs>
  <g id="icon_upload">
    <path class="cls-1" d="m23.5,23H.5c-.28,0-.5-.22-.5-.5v-9c0-.28.22-.5.5-.5s.5.22.5.5v8.5h22v-8.5c0-.28.22-.5.5-.5s.5.22.5.5v9c0,.28-.22.5-.5.5Z"/>
    <path class="cls-1" d="m11.63,1.15l-5.47,5.15c-.21.2-.21.51,0,.71s.54.2.75,0l4.56-4.29v15.79c0,.28.24.5.53.5.15,0,.28-.06.38-.15s.16-.22.16-.35V2.71l4.56,4.29c.21.2.54.2.75,0s.21-.51,0-.71L12.38,1.15c-.21-.2-.54-.2-.75,0Z"/>
  </g>
</svg>