<?xml version="1.0" encoding="UTF-8"?>
<svg id="export" xmlns="http://www.w3.org/2000/svg" viewBox="0 0 24 24">
  <defs>
    <style>
      .cls-1 {
        fill: #bb2649;
      }
    </style>
  </defs>
  <path id="icon_user_inv" class="cls-1" d="M14.28,13.04c2.05-.94,3.49-3.08,3.5-5.57v-1.39c0-3.34-2.6-6.07-5.78-6.08-3.18,0-5.77,2.73-5.78,6.08v1.39h0c0,2.49,1.45,4.64,3.5,5.57-3.57,1.42-7.71,5.7-7.72,10.46,0,.13.05.26.15.35s.22.15.35.15h19c.13,0,.26-.05.35-.15s.15-.22.15-.35c-.01-4.76-4.15-9.04-7.72-10.46Z"/>
</svg>