<?xml version="1.0" encoding="UTF-8"?>
<svg id="icons" xmlns="http://www.w3.org/2000/svg" viewBox="0 0 24 24">
  <defs>
    <style>
      .cls-1 {
        fill: #bb2649;
      }
    </style>
  </defs>
  <g id="icon_user-add_inv">
    <path class="cls-1" d="M23.5,0H.5C.22,0,0,.22,0,.5v19c0,.28.22.5.5.5h9.5v3h-4.5c-.28,0-.5.22-.5.5s.22.5.5.5h13c.28,0,.5-.22.5-.5s-.22-.5-.5-.5h-4.5v-3h4.69c-.42-.37-.69-.9-.69-1.5v-1.5h-1.5c-1.1,0-2-.9-2-2,0-.04.01-.09.01-.13-1.19-1.84-2.92-3.3-4.53-4.02,1.57-.82,2.67-2.57,2.68-4.6v-1.15c0-1.69-.77-3.17-1.93-4.11h12.26v11.75c0,.28.22.5.5.5s.5-.22.5-.5V.5c0-.28-.22-.5-.5-.5ZM1,15V1h4.26c-1.16.93-1.93,2.42-1.93,4.11v1.15h0c0,2.03,1.11,3.77,2.68,4.59-1.65.73-3.42,2.24-4.62,4.15h-.4ZM12,19.5c-.83,0-1.5-.67-1.5-1.5s.67-1.5,1.5-1.5,1.5.67,1.5,1.5-.67,1.5-1.5,1.5Z"/>
    <path class="cls-1" d="M23.5,17h-1.5v1.5c0,.6-.27,1.13-.69,1.5h2.19c.28,0,.5-.22.5-.5v-2.57c-.16.04-.33.07-.5.07Z"/>
    <path class="cls-1" d="M23.5,14.5h-3v-3c0-.28-.22-.5-.5-.5s-.5.22-.5.5v3h-3c-.28,0-.5.22-.5.5s.22.5.5.5h3v3c0,.28.22.5.5.5s.5-.22.5-.5v-3h3c.28,0,.5-.22.5-.5s-.22-.5-.5-.5Z"/>
  </g>
</svg>