<?xml version="1.0" encoding="UTF-8"?>
<svg id="export" xmlns="http://www.w3.org/2000/svg" viewBox="0 0 24 24">
  <defs>
    <style>
      .cls-1 {
        fill: #bb2649;
      }
    </style>
  </defs>
  <path id="icon_users" class="cls-1" d="M23.5,0H.5C.22,0,0,.22,0,.5v19c0,.28.22.5.5.5h9.5v3h-4.5c-.28,0-.5.22-.5.5s.22.5.5.5h13c.28,0,.5-.22.5-.5s-.22-.5-.5-.5h-4.5v-3h9.5c.28,0,.5-.22.5-.5V.5c0-.28-.22-.5-.5-.5ZM8,1c2.02,0,3.66,1.85,3.67,4.11v1.15c0,2.26-1.65,4.1-3.67,4.11-2.02,0-3.66-1.85-3.67-4.11v-1.15c0-2.26,1.65-4.1,3.67-4.11ZM1,15V1h4.26c-1.16.93-1.93,2.42-1.93,4.11v1.15h0c0,2.03,1.11,3.77,2.68,4.59-1.65.73-3.42,2.24-4.62,4.15h-.4ZM2.58,15c1.57-2.18,3.94-3.64,5.42-3.64s3.85,1.46,5.42,3.64H2.58ZM12,19.5c-.83,0-1.5-.67-1.5-1.5s.67-1.5,1.5-1.5,1.5.67,1.5,1.5-.67,1.5-1.5,1.5ZM23,15h-4.32c-.91-1.09-2.02-1.93-3.04-2.39,1.35-.69,2.24-2.18,2.24-3.87v-.97c0-2.26-1.63-4.14-3.69-4.27-.23-.03-.43.16-.44.39-.01.23.16.43.39.44,1.63.1,2.91,1.61,2.91,3.44v.97c0,1.62-.99,3-2.39,3.36-.13.04-.24.14-.29.27-.05.13-.02.28.06.39l.23.3c.05.07.12.12.2.14.85.28,1.84.93,2.7,1.8h-2.96c-1.19-1.91-2.97-3.42-4.61-4.15,1.57-.82,2.67-2.57,2.68-4.6v-1.15c0-1.69-.77-3.17-1.93-4.11h12.26v14Z"/>
</svg>