<?xml version="1.0" encoding="UTF-8"?>
<svg id="export" xmlns="http://www.w3.org/2000/svg" viewBox="0 0 24 24">
  <defs>
    <style>
      .cls-1 {
        fill: #bb2649;
      }
    </style>
  </defs>
  <path id="icon_users_inv" class="cls-1" d="M23.5,0H.5C.22,0,0,.22,0,.5v19c0,.28.22.5.5.5h9.5v3h-4.5c-.28,0-.5.22-.5.5s.22.5.5.5h13c.28,0,.5-.22.5-.5s-.22-.5-.5-.5h-4.5v-3h9.5c.28,0,.5-.22.5-.5V.5c0-.28-.22-.5-.5-.5ZM1,15V1h4.26c-1.16.93-1.93,2.42-1.93,4.11v1.15h0c0,2.03,1.11,3.77,2.68,4.59-1.65.73-3.42,2.24-4.62,4.15h-.4ZM12,19.5c-.83,0-1.5-.67-1.5-1.5s.67-1.5,1.5-1.5,1.5.67,1.5,1.5-.67,1.5-1.5,1.5ZM23,15h-4.32c-.91-1.09-2.03-1.93-3.04-2.39,1.35-.69,2.24-2.18,2.24-3.87v-.97c0-2.26-1.62-4.13-3.69-4.27-.03,0-.05,0-.08,0-.22.02-.38.21-.37.42,0,.04,0,.09.02.12.04.33.07.66.07,1v1.17c0,1.51-.44,2.93-1.26,4.12-.12.18-.09.41.07.55.41.35.8.73,1.17,1.13.2.22.4.45.58.68,0,.02.02.04.03.05l.23.3s.03.04.05.06c.44.61.82,1.24,1.13,1.89h-1.23c-1.19-1.91-2.97-3.42-4.61-4.15,1.57-.82,2.67-2.57,2.68-4.6v-1.15c0-1.69-.77-3.17-1.93-4.11h12.26v14Z"/>
</svg>