<?xml version="1.0" encoding="UTF-8"?>
<svg id="illustartions" xmlns="http://www.w3.org/2000/svg" viewBox="0 0 24 24">
  <defs>
    <style>
      .cls-1 {
        fill: #bb2649;
      }
    </style>
  </defs>
  <g id="icon_user-management">
    <path class="cls-1" d="M13.69,24c-.08,0-.16-.02-.24-.06l-2.17-1.16c-.21-.11-.31-.35-.25-.58l.41-1.45c-.33-.34-.62-.71-.86-1.1-.24-.39-.45-.81-.61-1.26l-1.41-.2c-.24-.03-.42-.23-.43-.47l-.13-2.55c-.01-.24.15-.45.38-.51l1.36-.34c.23-.94.65-1.81,1.24-2.57l-.61-1.54c-.09-.22,0-.47.18-.6l2.04-1.39c.21-.14.48-.11.65.08l1.08,1.19c.89-.25,1.82-.29,2.72-.13l.85-1.16c.15-.2.42-.26.64-.14l2.17,1.16c.21.11.31.35.25.58l-.41,1.45c.33.34.62.71.86,1.1.24.39.45.81.61,1.26l1.41.2c.24.03.42.23.43.47l.13,2.55c.01.24-.15.45-.38.51l-1.36.34c-.23.94-.65,1.81-1.24,2.57l.61,1.54c.09.22,0,.47-.18.6l-2.04,1.39c-.2.14-.48.11-.65-.08l-1.08-1.19c-.89.25-1.82.29-2.72.13l-.85,1.16c-.1.13-.25.2-.4.2ZM12.11,22.09l1.44.77.78-1.06c.12-.16.32-.24.51-.19.93.21,1.91.17,2.82-.14.19-.07.4,0,.53.14l1,1.1,1.35-.92-.57-1.44c-.07-.17-.04-.37.08-.51.64-.75,1.09-1.67,1.28-2.66.04-.19.18-.34.37-.39l1.26-.32-.09-1.73-1.3-.18c-.19-.03-.35-.16-.41-.34-.15-.49-.36-.93-.61-1.33-.25-.4-.56-.78-.92-1.12-.13-.13-.19-.32-.14-.5l.38-1.34-1.44-.77-.78,1.06c-.12.16-.32.24-.51.19-.93-.22-1.91-.17-2.82.14-.19.06-.4,0-.53-.14l-1-1.1-1.35.92.57,1.44c.07.17.04.37-.08.51-.64.75-1.09,1.67-1.28,2.66-.04.19-.18.34-.37.39l-1.26.32.09,1.73,1.3.18c.19.03.35.16.41.34.15.49.36.93.61,1.33.25.4.56.78.92,1.12.13.13.19.32.14.5l-.38,1.34Z"/>
    <path class="cls-1" d="M16,20.5c-2.48,0-4.5-2.02-4.5-4.5s2.02-4.5,4.5-4.5,4.5,2.02,4.5,4.5-2.02,4.5-4.5,4.5ZM16,12.5c-1.93,0-3.5,1.57-3.5,3.5s1.57,3.5,3.5,3.5,3.5-1.57,3.5-3.5-1.57-3.5-3.5-3.5Z"/>
    <path class="cls-1" d="M17.26,18.04c-.15,0-.3-.07-.4-.19-.77-1-1.72-1.91-2.75-2.64-.22-.16-.28-.47-.12-.7.16-.22.47-.28.7-.12,1.1.78,2.13,1.77,2.96,2.84.17.22.13.53-.09.7-.09.07-.2.1-.31.1Z"/>
    <path class="cls-1" d="M10,24H.5c-.13,0-.26-.05-.35-.15s-.15-.22-.15-.35c0-4.2,4.07-9.12,7.18-10.73-1.8-1.05-2.95-3.05-2.96-5.3v-1.39C4.23,2.73,6.82,0,10,0c3.18,0,5.77,2.73,5.78,6.08v1.67c0,.28-.22.5-.5.5s-.5-.22-.5-.5v-1.67c0-2.79-2.15-5.07-4.78-5.08-2.63,0-4.77,2.29-4.78,5.08v1.39c0,2.25,1.38,4.21,3.41,4.86.21.07.36.27.35.5,0,.22-.17.42-.39.47-2.67.62-7.21,5.53-7.57,9.71h8.98c.28,0,.5.22.5.5s-.22.5-.5.5Z"/>
  </g>
</svg>