<?xml version="1.0" encoding="UTF-8"?>
<svg id="illustartions" xmlns="http://www.w3.org/2000/svg" viewBox="0 0 24 24">
  <defs>
    <style>
      .cls-1 {
        fill: #bb2649;
      }
    </style>
  </defs>
  <g id="path_user-management">
    <path class="cls-1" d="M23.87,14.28c-.01-.24-.19-.44-.43-.47l-1.41-.2c-.16-.45-.37-.87-.61-1.26-.24-.39-.53-.76-.86-1.1l.41-1.45c.06-.23-.04-.46-.25-.58l-2.17-1.16c-.22-.12-.49-.06-.64.14l-.85,1.16c-.91-.16-1.84-.11-2.72.13l-1.08-1.19c-.17-.18-.44-.21-.65-.08l-2.04,1.39c-.19.13-.27.38-.18.6l.61,1.54c-.59.75-1.01,1.63-1.24,2.57l-1.36.34c-.23.06-.39.27-.38.51l.13,2.55c.01.24.19.44.43.47l1.41.2c.16.45.37.87.61,1.26.24.39.53.76.86,1.1l-.41,1.45c-.06.23.04.46.25.58l2.17,1.16c.07.04.16.06.24.06.15,0,.31-.07.4-.2l.85-1.16c.9.16,1.83.11,2.72-.13l1.08,1.19c.17.18.45.22.65.08l2.04-1.39c.19-.13.27-.38.18-.6l-.61-1.54c.59-.75,1.01-1.63,1.24-2.57l1.36-.34c.23-.06.39-.27.38-.51l-.13-2.55ZM16,19.5c-1.93,0-3.5-1.57-3.5-3.5s1.57-3.5,3.5-3.5,3.5,1.57,3.5,3.5-1.57,3.5-3.5,3.5Z"/>
    <path class="cls-1" d="M16,18.5c-1.38,0-2.5-1.12-2.5-2.5,0-.7.29-1.35.81-1.83.18-.17.46-.18.65-.03,1.09.85,2.07,1.88,2.86,2.99.14.2.12.47-.06.64-.47.47-1.1.73-1.76.73Z"/>
    <path class="cls-1" d="M10,0c-3.18,0-5.77,2.73-5.78,6.08v1.39c0,2.25,1.16,4.25,2.96,5.3C4.07,14.37,0,19.3,0,23.5c0,.13.05.26.15.35s.22.15.35.15h8.81c.18,0,.34-.09.43-.24.09-.15.1-.34.01-.49-.24-.46-.3-.98-.16-1.47l.12-.43c.04-.15.01-.31-.08-.43l-.72-1.29h-.01c-.25-.33-.99.18-1.4-.64-.5-1-.74-4.9.49-5.5.21-.09.41-.16.6-.2.14-.03.24-.13.3-.25.08-.1.11-.37.11-.38,0-.26.07-.73.17-.9.08-.13.09-.29.03-.43l-.22-.57c-.35-.88-.04-1.86.74-2.39l2-1.36c1.25-.67,2.53.39,3.18,1.08.01.01.03.01.05.02.09.08.21.14.34.14.28,0,.5-.22.5-.5v-1.67c0-3.34-2.6-6.07-5.78-6.08Z"/>
  </g>
</svg>