<?xml version="1.0" encoding="UTF-8"?>
<svg id="export" xmlns="http://www.w3.org/2000/svg" viewBox="0 0 24 24">
  <defs>
    <style>
      .cls-1 {
        fill: #bb2649;
        fill-rule: evenodd;
      }
    </style>
  </defs>
  <g id="icon_user">
    <path id="icon_user-2" data-name="icon_user" class="cls-1" d="M23.5,0H.5C.22,0,0,.22,0,.5v19c0,.28.22.5.5.5h9.5v3h-4.5c-.28,0-.5.22-.5.5s.22.5.5.5h13c.28,0,.5-.22.5-.5s-.22-.5-.5-.5h-4.5v-3h9.5c.28,0,.5-.22.5-.5V.5c0-.28-.22-.5-.5-.5ZM8,1c2.02,0,3.66,1.85,3.67,4.11v1.15c0,2.26-1.65,4.1-3.67,4.11-2.02,0-3.66-1.85-3.67-4.11v-1.15c0-2.26,1.65-4.1,3.67-4.11ZM1,15V1h4.26c-1.16.93-1.93,2.42-1.93,4.11v1.15h0c0,2.03,1.11,3.77,2.68,4.59-1.65.73-3.42,2.24-4.62,4.15h-.4ZM2.58,15c1.57-2.18,3.94-3.64,5.42-3.64s3.85,1.46,5.42,3.64H2.58ZM12,19.5c-.83,0-1.5-.67-1.5-1.5s.67-1.5,1.5-1.5,1.5.67,1.5,1.5-.67,1.5-1.5,1.5ZM23,15h-8.4c-1.19-1.91-2.97-3.42-4.61-4.15,1.57-.82,2.67-2.57,2.68-4.6v-1.15c0-1.69-.77-3.17-1.93-4.11h12.26v14Z"/>
  </g>
</svg>