<?xml version="1.0" encoding="UTF-8"?>
<svg id="illustartions" xmlns="http://www.w3.org/2000/svg" viewBox="0 0 24 24">
  <defs>
    <style>
      .cls-1 {
        fill: #bb2649;
      }
    </style>
  </defs>
  <path id="icon_video-analytics_inv" class="cls-1" d="M19.5,2H4.5C2.02,2,0,4.02,0,6.5v11c0,2.48,2.02,4.5,4.5,4.5h15c2.48,0,4.5-2.02,4.5-4.5V6.5c0-2.48-2.02-4.5-4.5-4.5ZM18.72,12.45l-13,6.5c-.07.04-.15.05-.22.05-.09,0-.18-.03-.26-.07-.15-.09-.24-.25-.24-.43V5.5c0-.17.09-.33.24-.43.15-.09.33-.1.49-.02l13,6.5c.17.08.28.26.28.45s-.11.36-.28.45Z"/>
</svg>