<?xml version="1.0" encoding="UTF-8"?>
<svg id="export" xmlns="http://www.w3.org/2000/svg" viewBox="0 0 24 24">
  <defs>
    <style>
      .cls-1 {
        fill: #bb2649;
      }
    </style>
  </defs>
  <g id="icon_view-details">
    <path class="cls-1" d="M23.5,1H.5c-.28,0-.5-.22-.5-.5s.22-.5.5-.5h23c.28,0,.5.22.5.5s-.22.5-.5.5Z"/>
    <path class="cls-1" d="M23.5,7.33h-10.72c-.28,0-.5-.22-.5-.5s.22-.5.5-.5h10.72c.28,0,.5.22.5.5s-.22.5-.5.5Z"/>
    <path class="cls-1" d="M5.22,7.33H.5c-.28,0-.5-.22-.5-.5s.22-.5.5-.5h4.72c.28,0,.5.22.5.5s-.22.5-.5.5Z"/>
    <path class="cls-1" d="M23.5,13.67h-5.69c-.28,0-.5-.22-.5-.5s.22-.5.5-.5h5.69c.28,0,.5.22.5.5s-.22.5-.5.5Z"/>
    <path class="cls-1" d="M11.84,13.5h-5.69c-.28,0-.5-.22-.5-.5s.22-.5.5-.5h5.69c.28,0,.5.22.5.5s-.22.5-.5.5Z"/>
    <path class="cls-1" d="M23.5,20h-6.71c-.28,0-.5-.22-.5-.5s.22-.5.5-.5h6.71c.28,0,.5.22.5.5s-.22.5-.5.5Z"/>
    <path class="cls-1" d="M9,8c-3.86,0-7,3.14-7,7,0,1.76.66,3.36,1.73,4.59-.03.02-.06.03-.08.05l-3.01,3.01s0,.02-.01.03c-.35.02-.63.3-.63.65s.3.66.66.66.64-.28.65-.63c0,0,.02,0,.03,0l3.01-3.01s.04-.06.05-.08c1.23,1.07,2.83,1.73,4.59,1.73,3.86,0,7-3.14,7-7s-3.14-7-7-7ZM9,21c-3.31,0-6-2.69-6-6s2.69-6,6-6,6,2.69,6,6-2.69,6-6,6Z"/>
  </g>
</svg>