<?xml version="1.0" encoding="UTF-8"?>
<svg id="export" xmlns="http://www.w3.org/2000/svg" viewBox="0 0 24 24">
  <defs>
    <style>
      .cls-1 {
        fill: #bb2649;
      }
    </style>
  </defs>
  <g id="icon_view-notifications">
    <g id="path_view-list">
      <path class="cls-1" d="M23.5,1H.5c-.28,0-.5-.22-.5-.5s.22-.5.5-.5h23c.28,0,.5.22.5.5s-.22.5-.5.5Z"/>
      <path class="cls-1" d="M23.5,7.33h-14.5c-.28,0-.5-.22-.5-.5s.22-.5.5-.5h14.5c.28,0,.5.22.5.5s-.22.5-.5.5Z"/>
      <path class="cls-1" d="M4.5,7.33H.5c-.28,0-.5-.22-.5-.5s.22-.5.5-.5h4c.28,0,.5.22.5.5s-.22.5-.5.5Z"/>
      <path class="cls-1" d="M23.5,13.67h-10c-.28,0-.5-.22-.5-.5s.22-.5.5-.5h10c.28,0,.5.22.5.5s-.22.5-.5.5Z"/>
      <path class="cls-1" d="M23.5,20h-8c-.28,0-.5-.22-.5-.5s.22-.5.5-.5h8c.28,0,.5.22.5.5s-.22.5-.5.5Z"/>
    </g>
    <g id="path-bell">
      <path class="cls-1" d="M6.7,24c-1.17,0-2.13-.81-2.13-1.8,0-.28.22-.5.5-.5s.5.22.5.5c0,.44.52.8,1.13.8s1.13-.37,1.13-.8c0-.28.22-.5.5-.5s.5.22.5.5c0,1-.96,1.8-2.13,1.8Z"/>
      <path class="cls-1" d="M12.89,21.39H.5c-.19,0-.36-.11-.45-.28-.08-.17-.07-.37.05-.52l1.88-2.52v-3.96c.02-1.96,1.27-3.69,3.09-4.34.04-.38.17-.94.56-1.34.56-.58,1.59-.57,2.15,0,.38.4.51.96.56,1.34,1.82.65,3.07,2.38,3.09,4.34v3.96l1.88,2.52c.11.15.13.35.05.52-.08.17-.26.28-.45.28ZM1.5,20.39h10.4l-1.38-1.85c-.06-.09-.1-.19-.1-.3v-4.12c-.01-1.63-1.12-3.06-2.7-3.48-.22-.06-.38-.27-.37-.5,0-.18-.04-.75-.3-1.01-.18-.19-.53-.19-.71,0-.25.26-.3.83-.3,1.01,0,.23-.15.44-.37.5-1.58.42-2.68,1.86-2.7,3.49v4.12c0,.11-.04.21-.1.3l-1.38,1.85Z"/>
    </g>
  </g>
</svg>