<?xml version="1.0" encoding="UTF-8"?>
<svg id="export" xmlns="http://www.w3.org/2000/svg" viewBox="0 0 24 24">
  <defs>
    <style>
      .cls-1 {
        fill: #bb2649;
      }
    </style>
  </defs>
  <g id="icon_view-folder">
    <path class="cls-1" d="M17.5,24H.5c-.28,0-.5-.22-.5-.5v-14c0-.28.22-.5.5-.5h7.02c.18,0,.34.1.43.25l1.33,2.33h8.21c.28,0,.5.22.5.5v11.42c0,.28-.22.5-.5.5ZM1,23h16v-10.42h-8c-.18,0-.34-.1-.43-.25l-1.33-2.33H1v13Z"/>
    <path class="cls-1" d="M23.5,1H.5c-.28,0-.5-.22-.5-.5s.22-.5.5-.5h23c.28,0,.5.22.5.5s-.22.5-.5.5Z"/>
    <path class="cls-1" d="M23.5,7.33H.5c-.28,0-.5-.22-.5-.5s.22-.5.5-.5h23c.28,0,.5.22.5.5s-.22.5-.5.5Z"/>
    <path class="cls-1" d="M23.5,13.67h-3.5c-.28,0-.5-.22-.5-.5s.22-.5.5-.5h3.5c.28,0,.5.22.5.5s-.22.5-.5.5Z"/>
    <path class="cls-1" d="M23.5,20h-3.5c-.28,0-.5-.22-.5-.5s.22-.5.5-.5h3.5c.28,0,.5.22.5.5s-.22.5-.5.5Z"/>
  </g>
</svg>