<?xml version="1.0" encoding="UTF-8"?>
<svg id="export" xmlns="http://www.w3.org/2000/svg" width="24" height="24" viewBox="0 0 24 24">
  <defs>
    <style>
      .cls-1 {
        fill: #bb2649;
        stroke-width: 0px;
      }
    </style>
  </defs>
  <g id="icon-code">
    <path class="cls-1" d="m6.6,19.5c-.16,0-.33-.07-.44-.2L.16,12.42c-.21-.24-.21-.6,0-.84l6-6.87c.22-.26.6-.27.85-.04.25.23.26.63.04.88L1.41,12l5.63,6.45c.22.26.21.65-.04.88-.11.11-.26.16-.4.16Z"/>
    <path class="cls-1" d="m8.4,22c-.07,0-.15-.01-.22-.04-.31-.13-.46-.49-.33-.81L15.04,2.39c.12-.32.47-.48.78-.35.31.13.46.49.33.81l-7.2,18.75c-.09.24-.32.39-.56.39Z"/>
    <path class="cls-1" d="m17.4,19.5c-.14,0-.29-.05-.4-.16-.25-.23-.26-.63-.04-.88l5.63-6.45-5.63-6.45c-.22-.26-.21-.65.04-.88.25-.23.62-.21.85.04l6,6.87c.21.24.21.6,0,.84l-6,6.87c-.12.14-.28.2-.44.2Z"/>
  </g>
</svg>