<?xml version="1.0" encoding="UTF-8"?>
<svg id="export" xmlns="http://www.w3.org/2000/svg" width="24" height="24" viewBox="0 0 24 24">
  <defs>
    <style>
      .cls-1 {
        fill: #bb2649;
      }
    </style>
  </defs>
  <g id="icon_list">
    <path class="cls-1" d="m23.5,3H.5c-.28,0-.5-.22-.5-.5s.22-.5.5-.5h23c.28,0,.5.22.5.5s-.22.5-.5.5Z"/>
    <path class="cls-1" d="m23.5,9.33H.5c-.28,0-.5-.22-.5-.5s.22-.5.5-.5h23c.28,0,.5.22.5.5s-.22.5-.5.5Z"/>
    <path class="cls-1" d="m23.5,15.67H.5c-.28,0-.5-.22-.5-.5s.22-.5.5-.5h23c.28,0,.5.22.5.5s-.22.5-.5.5Z"/>
    <path class="cls-1" d="m23.5,22H.5c-.28,0-.5-.22-.5-.5s.22-.5.5-.5h23c.28,0,.5.22.5.5s-.22.5-.5.5Z"/>
  </g>
</svg>