<?xml version="1.0" encoding="UTF-8"?>
<svg id="export" xmlns="http://www.w3.org/2000/svg" width="24" height="24" viewBox="0 0 24 24">
  <defs>
    <style>
      .cls-1 {
        fill: #3c5583;
      }
    </style>
  </defs>
  <path id="icon-warning" class="cls-1" d="m12,0C5.38,0,0,5.38,0,12s5.38,12,12,12,12-5.38,12-12S18.62,0,12,0Zm1.51,3.99l-.55,10.94h-1.87l-.56-10.94h2.98Zm-.33,15.57c-.28.3-.66.45-1.17.45s-.9-.14-1.19-.43c-.28-.29-.42-.69-.42-1.22s.14-.93.42-1.21c.28-.28.68-.41,1.19-.41s.9.14,1.17.43c.27.29.41.68.41,1.19s-.14.91-.41,1.21Z"/>
</svg>