<?xml version="1.0" encoding="UTF-8"?>
<svg id="export" xmlns="http://www.w3.org/2000/svg" width="24" height="24" viewBox="0 0 24 24">
  <defs>
    <style>
      .cls-1 {
        fill: #bb2649;
      }
    </style>
  </defs>
  <g id="icon_info">
    <path class="cls-1" d="m12,24C5.38,24,0,18.62,0,12S5.38,0,12,0s12,5.38,12,12-5.38,12-12,12Zm0-23C5.93,1,1,5.93,1,12s4.93,11,11,11,11-4.93,11-11S18.07,1,12,1Z"/>
    <path class="cls-1" d="m10.59,19.15c0-1.06.47-1.59,1.41-1.59.45,0,.8.14,1.05.41s.37.67.37,1.18-.12.89-.38,1.17-.6.42-1.04.42c-.41,0-.74-.12-1.01-.37s-.4-.65-.4-1.21Zm2.04-3.48h-1.23l-.6-12.41h2.43l-.6,12.41Z"/>
  </g>
</svg>