<?xml version="1.0" encoding="utf-8"?>
<!-- Generator: Adobe Illustrator 27.5.0, SVG Export Plug-In . SVG Version: 6.00 Build 0)  -->
<svg version="1.1" id="export" xmlns="http://www.w3.org/2000/svg" xmlns:xlink="http://www.w3.org/1999/xlink" x="0px" y="0px"
	 viewBox="0 0 24 24" style="enable-background:new 0 0 24 24;" xml:space="preserve">
<style type="text/css">
	.st0{fill:#BB2649;}
</style>
<path id="icon_info_inv" class="st0" d="M12,0C5.4,0,0,5.4,0,12s5.4,12,12,12s12-5.4,12-12S18.6,0,12,0z M13.2,3.3l-0.6,12.4h-1.2
	L10.8,3.3C10.8,3.3,13.2,3.3,13.2,3.3z M13,20.3c-0.2,0.3-0.6,0.4-1,0.4c-0.4,0-0.7-0.1-1-0.4s-0.4-0.6-0.4-1.2
	c0-1.1,0.5-1.6,1.4-1.6c0.4,0,0.8,0.1,1.1,0.4s0.4,0.7,0.4,1.2S13.3,20,13,20.3L13,20.3z"/>
</svg>
