<?xml version="1.0" encoding="UTF-8"?>
<svg id="export" xmlns="http://www.w3.org/2000/svg" viewBox="0 0 24 24">
  <defs>
    <style>
      .cls-1 {
        fill: #bb2649;
      }
    </style>
  </defs>
  <path id="icon_whatsapp_inv" class="cls-1" d="M23.77,9.55c-.46-2.3-1.57-4.4-3.22-6.07-.01-.01-.02-.03-.04-.04C18.46,1.42,15.73.2,12.85.02c-2.9-.18-5.74.69-8.03,2.44C2.52,4.22.94,6.74.36,9.56c-.56,2.76-.13,5.62,1.22,8.09L.02,23.37c-.05.17,0,.36.13.48.09.1.22.15.36.15.04,0,.08,0,.13-.02l5.89-1.54c1.7.89,3.61,1.36,5.53,1.36h0c2.37,0,4.67-.7,6.64-2.02,1.97-1.32,3.49-3.17,4.4-5.35.91-2.18,1.14-4.56.68-6.88ZM18.12,16.12c-.32.93-1.69,1.59-2.33,1.69-.24.04-.49.06-.73.06-.43,0-.87-.06-1.29-.19-.58-.18-1.14-.39-1.68-.62-2.58-1.11-4.4-3.47-5.07-4.44-.86-1.19-1.29-2.3-1.29-3.28,0-.51.1-1.01.3-1.48.2-.47.5-.89.87-1.24.11-.13.28-.25.47-.34.2-.09.41-.14.62-.15h.2c.14,0,.27,0,.39,0,.36,0,.76.08,1.07.79.12.28.32.77.5,1.21.18.43.33.81.37.88.07.1.12.27.12.44,0,.17-.03.35-.1.5-.08.18-.2.39-.34.57l-.11.14c-.11.14-.23.29-.35.4l-.02.02c.41.69.9,1.29,1.47,1.82.63.55,1.35,1,2.14,1.31.11.05.14.06.14.06.25-.36.66-.85.79-1.05.42-.64,1.01-.43,1.23-.34.3.11,1.74.81,2,.95l.1.05c.29.14.51.24.65.48.21.36.08,1.18-.13,1.78Z"/>
</svg>