<?xml version="1.0" encoding="UTF-8"?>
<svg id="export" xmlns="http://www.w3.org/2000/svg" viewBox="0 0 24 24">
  <defs>
    <style>
      .cls-1 {
        fill: #bb2649;
      }
    </style>
  </defs>
  <g id="icon_whatsapp">
    <path class="cls-1" d="M.5,24c-.13,0-.26-.05-.36-.15-.13-.13-.17-.31-.13-.48l1.57-5.72C.24,15.18-.2,12.32.36,9.56c.57-2.83,2.15-5.35,4.45-7.1C7.11.71,9.95-.16,12.85.02c2.89.18,5.61,1.4,7.66,3.42.01.01.03.03.04.04,1.65,1.67,2.77,3.76,3.22,6.07.46,2.32.22,4.7-.68,6.88-.91,2.18-2.43,4.03-4.4,5.35-1.97,1.31-4.27,2.01-6.64,2.02h0c-1.92,0-3.83-.47-5.53-1.36l-5.89,1.54s-.08.02-.13.02ZM6.57,21.41c.08,0,.17.02.24.06,1.6.87,3.41,1.33,5.23,1.33h0c2.17,0,4.28-.64,6.08-1.85,1.81-1.21,3.2-2.9,4.03-4.9.83-2,1.05-4.18.63-6.3-.42-2.13-1.46-4.06-2.99-5.59-.01-.01-.02-.02-.03-.04-1.88-1.83-4.36-2.93-6.98-3.1-2.65-.17-5.26.63-7.36,2.24-2.1,1.61-3.55,3.92-4.08,6.5-.53,2.59-.1,5.28,1.21,7.57.07.12.08.25.05.38l-1.4,5.08,5.24-1.37s.08-.02.13-.02Z"/>
    <path class="cls-1" d="M15.05,17.87c-.43,0-.87-.06-1.29-.19-.58-.18-1.14-.39-1.68-.62-2.58-1.11-4.4-3.47-5.07-4.44-.86-1.19-1.29-2.3-1.29-3.28,0-.51.1-1.01.3-1.48.2-.47.5-.89.87-1.24.11-.13.28-.25.47-.34.2-.09.41-.14.62-.15h.2c.14,0,.27,0,.39,0,.36,0,.76.08,1.07.79.12.28.32.77.5,1.21.18.43.33.81.37.88.07.1.12.27.12.44,0,.17-.03.35-.1.5-.08.18-.2.39-.34.57l-.11.14c-.11.14-.23.29-.35.4l-.02.02c.41.69.9,1.29,1.47,1.82.63.55,1.35,1,2.14,1.31.11.05.14.06.14.06.25-.36.66-.85.79-1.05.42-.64,1.01-.43,1.23-.34.3.11,1.74.81,2,.95l.1.05c.29.14.51.24.65.48.21.36.08,1.18-.13,1.78-.32.93-1.69,1.59-2.33,1.69-.24.04-.49.06-.73.06ZM8.37,7.12c-.06,0-.11,0-.17,0h-.2c-.06,0-.14.02-.21.05-.07.03-.13.08-.18.14-.31.29-.52.59-.67.94-.15.34-.22.71-.22,1.08,0,.77.37,1.7,1.05,2.63,0,0,.06.09.06.09.61.89,2.3,3.08,4.64,4.09.51.22,1.04.42,1.58.58.5.15,1.05.19,1.57.1.47-.07,1.4-.6,1.54-1.03.15-.42.18-.76.18-.93-.05-.03-.13-.06-.19-.09l-.11-.05s0,0,0,0c-.35-.18-1.69-.83-1.9-.91-.02,0-.04-.02-.06-.02-.26.38-.82,1.01-.93,1.15-.32.37-.73.43-1.22.19-.86-.34-1.69-.84-2.41-1.48-.67-.62-1.24-1.32-1.69-2.1-.36-.62.06-1.05.2-1.19.09-.09.19-.21.28-.32l.12-.14c.08-.1.15-.22.21-.35-.05-.17-.22-.57-.4-1.03-.18-.43-.38-.92-.5-1.2-.07-.17-.12-.21-.12-.21l-.08.03s-.1,0-.15,0ZM17.42,14.9h0,0Z"/>
  </g>
</svg>