<?xml version="1.0" encoding="UTF-8"?>
<svg id="icons" xmlns="http://www.w3.org/2000/svg" viewBox="0 0 24 24">
  <defs>
    <style>
      .cls-1 {
        fill: #bb2649;
      }
    </style>
  </defs>
  <g id="icon_zoom-in">
    <path id="search" class="cls-1" d="M0,23c0,.55.45,1,1,1s1-1,1-1l5.3-5.6c1.77,1.61,4.12,2.6,6.7,2.6,5.51,0,10-4.49,10-10C24,4.49,19.51,0,14,0,8.49,0,4,4.49,4,10c0,2.58.99,4.92,2.6,6.7L1,22S0,22.45,0,23ZM5,10c0-4.96,4.04-9,9-9s9,4.04,9,9-4.04,9-9,9S5,14.96,5,10Z"/>
    <path class="cls-1" d="M18.5,9.5h-4v-4c0-.28-.22-.5-.5-.5s-.5.22-.5.5v4h-4c-.28,0-.5.22-.5.5s.22.5.5.5h4v4c0,.28.22.5.5.5s.5-.22.5-.5v-4h4c.28,0,.5-.22.5-.5s-.22-.5-.5-.5Z"/>
  </g>
</svg>