<?xml version="1.0" encoding="UTF-8"?>
<svg id="illustartions" xmlns="http://www.w3.org/2000/svg" viewBox="0 0 64 64">
  <defs>
    <style>
      .cls-1 {
        fill: #0a0a0a;
      }

      .cls-2 {
        fill: #8d77f7;
      }
    </style>
  </defs>
  <path class="cls-1" d="M63.5,59.5h-3v-3c0-.28-.22-.5-.5-.5s-.5.22-.5.5v3h-3c-.28,0-.5.22-.5.5s.22.5.5.5h3v3c0,.28.22.5.5.5s.5-.22.5-.5v-3h3c.28,0,.5-.22.5-.5s-.22-.5-.5-.5Z"/>
  <path class="cls-1" d="M52.5,14.5h1v1c0,.28.22.5.5.5s.5-.22.5-.5v-1h1c.28,0,.5-.22.5-.5s-.22-.5-.5-.5h-1v-1c0-.28-.22-.5-.5-.5s-.5.22-.5.5v1h-1c-.28,0-.5.22-.5.5s.22.5.5.5Z"/>
  <path class="cls-1" d="M11.5,3.5h-3V.5c0-.28-.22-.5-.5-.5s-.5.22-.5.5v3h-3c-.28,0-.5.22-.5.5s.22.5.5.5h3v3c0,.28.22.5.5.5s.5-.22.5-.5v-3h3c.28,0,.5-.22.5-.5s-.22-.5-.5-.5Z"/>
  <path class="cls-1" d="M16.5,26.5h1c.28,0,.5-.22.5-.5s-.22-.5-.5-.5h-1v-1c0-.28-.22-.5-.5-.5s-.5.22-.5.5v1h-1c-.28,0-.5.22-.5.5s.22.5.5.5h1v1c0,.28.22.5.5.5s.5-.22.5-.5v-1Z"/>
  <path class="cls-1" d="M3.5,19.5h-1v-1c0-.28-.22-.5-.5-.5s-.5.22-.5.5v1H.5c-.28,0-.5.22-.5.5s.22.5.5.5h1v1c0,.28.22.5.5.5s.5-.22.5-.5v-1h1c.28,0,.5-.22.5-.5s-.22-.5-.5-.5Z"/>
  <path class="cls-2" d="M15.5,37c0,3,4.5,2,17.5,2v13c0,2.6,0,5,3,4,.95-.32.95-1.21.4-1.05-.13.04-.27.05-.4.05-.62,0-1.45-.3-1.45-2.91v-14.64h-14.64c-2.58,0-2.91-.78-2.91-1.45,0-.16.02-.31.09-.47.21-.45-1.59-.53-1.59,1.47Z"/>
  <path class="cls-1" d="M51.09,34.55h-13.64v-13.64c0-2.6-.82-3.91-2.45-3.91-2.45,0-2.45,2.94-2.45,3.91v13.64h-13.64c-2.6,0-3.91.82-3.91,2.45,0,2.45,2.94,2.45,3.91,2.45h13.64v13.64c0,2.6.82,3.91,2.45,3.91,2.45,0,2.45-2.94,2.45-3.91v-13.64h13.64c2.6,0,3.91-.82,3.91-2.45,0-2.45-2.94-2.45-3.91-2.45ZM51.09,38.45h-14.64v14.64c0,2.58-.78,2.91-1.45,2.91-.62,0-1.45-.3-1.45-2.91v-14.64h-14.64c-2.58,0-2.91-.78-2.91-1.45,0-.62.3-1.45,2.91-1.45h14.64v-14.64c0-2.58.78-2.91,1.45-2.91.62,0,1.45.3,1.45,2.91v14.64h14.64c2.58,0,2.91.78,2.91,1.45,0,.62-.3,1.45-2.91,1.45Z"/>
</svg>