<?xml version="1.0" encoding="UTF-8"?>
<svg id="illustartions" xmlns="http://www.w3.org/2000/svg" viewBox="0 0 64 64">
  <defs>
    <style>
      .cls-1 {
        fill: #ded6fc;
      }

      .cls-2 {
        fill: #999;
      }
    </style>
  </defs>
  <g id="ai_dis">
    <circle class="cls-1" cx="40.5" cy="21.5" r="2"/>
    <circle class="cls-1" cx="40.5" cy="40.5" r="2"/>
    <circle class="cls-1" cx="35" cy="44.75" r="2"/>
    <path class="cls-2" d="M33.79,52.5c-.15,0-.32,0-.48-.01-1.03-.07-2-.35-2.91-.84-.9-.49-1.68-1.15-2.31-1.97-.07-.09-.1-.19-.1-.3v-11.25c0-.28.22-.5.5-.5h3.36c.75,0,1.48.31,2.01.84.53.54.83,1.26.83,2.03v2.04c0,.21-.13.4-.33.47-.41.15-.75.44-.97.82-.22.38-.3.83-.23,1.27.07.44.3.83.63,1.12.66.56,1.7.56,2.36,0,.33-.28.55-.68.63-1.12.07-.44,0-.89-.23-1.27-.22-.38-.56-.67-.97-.82-.2-.07-.33-.26-.33-.47v-2.04c0-.92-.35-1.79-1-2.44-.64-.65-1.49-1.01-2.39-1.01h-3.36c-.28,0-.5-.22-.5-.5v-2.68c0-.28.22-.5.5-.5h8.8c.76,0,1.47.3,2.01.84.53.54.83,1.26.83,2.03v2.04c0,.21-.13.4-.33.47-.41.15-.75.44-.97.82-.22.38-.3.83-.23,1.27.07.44.3.83.63,1.12.66.57,1.7.57,2.36,0,.33-.28.55-.68.63-1.12.07-.44,0-.89-.23-1.27-.22-.38-.56-.67-.97-.82-.2-.07-.33-.26-.33-.47v-2.04c0-.92-.35-1.79-1-2.44-.64-.65-1.49-1.01-2.39-1.01h-8.8c-.28,0-.5-.22-.5-.5v-2.54c0-.28.22-.5.5-.5h8.8c.9,0,1.75-.36,2.39-1.01.64-.65,1-1.52,1-2.44v-2.04c0-.21.13-.4.33-.47.41-.15.75-.44.97-.82.22-.38.3-.83.23-1.27-.07-.44-.3-.83-.63-1.12-.66-.57-1.7-.57-2.36,0-.33.28-.55.68-.63,1.12-.07.44,0,.89.23,1.27.22.38.56.67.97.82.2.07.33.26.33.47v2.04c0,.77-.29,1.49-.83,2.03-.54.54-1.25.84-2,.84h-8.8c-.28,0-.5-.22-.5-.5v-2.68c0-.28.22-.5.5-.5h3.36c.9,0,1.75-.36,2.39-1.01.64-.65,1-1.52,1-2.44v-2.04c0-.21.13-.4.33-.47.41-.15.75-.44.97-.82.22-.38.3-.83.23-1.27-.07-.44-.3-.83-.63-1.12-.66-.56-1.7-.56-2.36,0-.33.28-.55.68-.63,1.12-.07.44,0,.89.23,1.27.22.38.56.67.97.82.2.07.33.26.33.47v2.04c0,.77-.3,1.49-.83,2.03-.53.54-1.26.84-2.01.84h-3.36c-.28,0-.5-.22-.5-.5v-11.25c0-.11.04-.22.1-.3.62-.8,1.38-1.46,2.26-1.94.88-.49,1.84-.77,2.84-.86,1-.09,1.99.04,2.94.37.95.33,1.8.85,2.54,1.54,1.22,1.14,2.03,2.66,2.32,4.31,1.64.28,3.15,1.12,4.26,2.38,1.2,1.36,1.86,3.12,1.87,4.95,0,.02,0,.13,0,.15-.06.49,0,1,.15,1.47.16.47.42.9.76,1.25,1.27,1.39,1.97,3.18,1.96,5.06h0c0,1.87-.69,3.66-1.94,5.04-.36.36-.62.8-.78,1.27-.16.47-.21.98-.15,1.47,0,.02,0,.13,0,.15,0,1.83-.67,3.6-1.87,4.96-1.12,1.27-2.62,2.11-4.27,2.39-.26,1.61-1.04,3.09-2.22,4.21-1.35,1.3-3.12,2.01-4.98,2.01ZM29,49.2c.52.65,1.16,1.18,1.88,1.57.78.42,1.62.66,2.5.72.14,0,.28,0,.41.01,1.6,0,3.12-.61,4.29-1.73,1.1-1.05,1.8-2.46,1.97-3.99.03-.23.21-.41.44-.44,1.55-.18,2.98-.93,4.02-2.11,1.04-1.18,1.62-2.71,1.62-4.31-.08-.67,0-1.33.2-1.94.21-.61.55-1.17,1-1.63,1.07-1.18,1.67-2.73,1.67-4.35h0c0-1.63-.6-3.18-1.69-4.37-.43-.45-.78-1.01-.98-1.62-.21-.61-.27-1.27-.2-1.9,0-1.62-.58-3.14-1.62-4.32-1.04-1.18-2.46-1.93-4.01-2.1-.23-.03-.41-.21-.44-.44-.19-1.56-.93-3.01-2.06-4.08-.64-.59-1.37-1.04-2.19-1.33-.82-.28-1.67-.39-2.53-.32-.86.07-1.68.32-2.44.74-.71.39-1.33.91-1.84,1.54v10.58h2.86c.49,0,.95-.19,1.29-.55.35-.35.54-.82.54-1.33v-1.71c-.48-.25-.89-.63-1.17-1.11-.34-.58-.46-1.27-.35-1.93.11-.67.45-1.27.96-1.71,1.02-.87,2.64-.87,3.66,0,.51.44.85,1.04.96,1.71.11.67-.01,1.35-.35,1.93-.28.48-.68.87-1.17,1.11v1.71c0,1.19-.46,2.3-1.28,3.14-.82.83-1.95,1.31-3.1,1.31h-2.86v1.68h8.3c.49,0,.95-.19,1.29-.55.35-.35.54-.82.54-1.33v-1.71c-.48-.25-.89-.63-1.17-1.11-.34-.58-.46-1.27-.35-1.93.11-.67.45-1.27.96-1.71,1.02-.88,2.64-.88,3.66,0,.51.44.85,1.04.96,1.71.11.66-.01,1.35-.35,1.93-.28.48-.68.87-1.17,1.11v1.71c0,1.19-.46,2.3-1.28,3.14-.83.84-1.93,1.31-3.1,1.31h-8.3v1.54h8.3c1.17,0,2.28.47,3.1,1.31.83.84,1.28,1.96,1.28,3.14v1.71c.48.25.89.63,1.17,1.11.34.58.46,1.27.35,1.93-.11.67-.45,1.27-.96,1.71-1.02.88-2.63.88-3.66,0-.51-.44-.85-1.04-.96-1.71-.11-.66.01-1.35.35-1.93.28-.48.68-.86,1.17-1.11v-1.71c0-.5-.19-.97-.54-1.33-.35-.35-.81-.54-1.29-.55h-8.3v1.68h2.86c1.16,0,2.29.48,3.1,1.31.83.84,1.28,1.96,1.28,3.14v1.71c.48.25.89.63,1.17,1.11.34.58.46,1.27.35,1.93-.11.67-.45,1.27-.96,1.71-1.02.88-2.64.88-3.66,0-.51-.44-.85-1.04-.96-1.71-.11-.67.01-1.35.35-1.93.28-.48.68-.87,1.17-1.11v-1.71c0-.5-.19-.97-.54-1.33-.35-.35-.8-.54-1.29-.55h-2.86v10.58ZM50,31h0,0Z"/>
    <g>
      <path class="cls-1" d="M16.52,45.01c-.13.09-.26.19-.38.29-.6.54-1.06,1.22-1.36,1.97.36,1.09.97,2.06,1.79,2.85,1.07,1.03,2.43,1.66,3.88,1.82.02-.02.03-.03.05-.04-1.57-1.57-2.94-3.95-3.98-6.89Z"/>
      <path class="cls-1" d="M16.65,11.81c-.79.74-1.39,1.65-1.78,2.66.3,1.03.85,1.96,1.57,2.73,1.05-3.04,2.45-5.5,4.06-7.11-.02-.02-.03-.03-.05-.04-.5.06-1,.17-1.48.34-.86.31-1.65.79-2.32,1.42Z"/>
      <path class="cls-1" d="M8.21,37.19c.18.56.23,1.15.16,1.73,0,1.6.54,3.15,1.53,4.38.99,1.24,2.37,2.09,3.91,2.42.35-.6.78-1.14,1.3-1.6.28-.25.59-.46.91-.65-1.07-3.59-1.69-7.87-1.69-12.47s.59-8.61,1.6-12.13c-.07-.06-.15-.11-.22-.17-.75-.68-1.35-1.5-1.78-2.42-1.56.3-2.96,1.15-3.98,2.39-1.01,1.24-1.57,2.8-1.57,4.41.08.58.02,1.18-.16,1.74-.18.56-.49,1.07-.9,1.49-1.17,1.28-1.81,2.96-1.81,4.71,0,0,0,0,0,0,0,1.74.65,3.42,1.82,4.7.4.42.71.93.89,1.48Z"/>
    </g>
    <path class="cls-2" d="M21.21,52.5c-1.86,0-3.63-.71-4.98-2.01-.87-.84-1.54-1.89-1.92-3.05-.04-.11-.03-.23,0-.34.32-.82.84-1.57,1.49-2.16,1.33-1.17,3.2-1.58,5.58-1.25.06,0,.13-.01.18-.06.06-.05.1-.12.11-.19.01-.08,0-.15-.05-.22-.04-.06-.11-.1-.18-.11-2.53-.36-4.55.11-6,1.39-.47.42-.88.92-1.2,1.47-.11.19-.32.28-.54.24-1.65-.35-3.14-1.27-4.2-2.59-1.06-1.32-1.64-2.99-1.64-4.7.07-.57.03-1.09-.13-1.57-.16-.48-.43-.93-.78-1.29-1.27-1.38-1.96-3.17-1.96-5.05,0-1.88.69-3.67,1.94-5.04.36-.37.63-.82.79-1.31.16-.49.21-1.01.14-1.52,0-1.79.6-3.47,1.68-4.8,1.08-1.33,2.6-2.24,4.27-2.57.23-.04.45.07.55.28.41.87.97,1.63,1.67,2.27,1.2,1.04,2.74,1.62,4.34,1.54.4,0,.79-.02,1.19-.07.04,0,.07-.02.1-.03.03-.02.06-.04.08-.07.02-.03.04-.07.05-.1.01-.04.01-.08,0-.12,0-.04-.02-.07-.04-.11-.02-.03-.04-.06-.07-.08-.03-.02-.06-.04-.1-.05-.03-.01-.07-.02-.11,0-.85.16-1.79.13-2.67-.09-.88-.23-1.71-.65-2.42-1.22-.97-.91-1.66-2.04-2.02-3.29-.03-.1-.03-.22.01-.32.41-1.08,1.07-2.06,1.91-2.85.73-.68,1.56-1.19,2.49-1.52.93-.33,1.9-.47,2.89-.4,1.02.07,2,.35,2.9.84.9.49,1.68,1.15,2.31,1.97.07.09.1.19.1.3v14.65c0,.23-.16.43-.39.49-1.33.31-5.77,1.01-7.12-3.07-.02-.07-.08-.13-.14-.17-.07-.03-.14-.04-.21-.01-.07.02-.13.08-.16.14-.03.07-.04.15-.02.23.27.87.76,1.66,1.42,2.28.14.13.19.32.14.5-.05.18-.2.32-.39.35-.6.12-1.17.35-1.68.7s-.94.79-1.28,1.32c-.01.02-.03.06-.03.1,0,.04,0,.08,0,.12,0,.04.03.07.05.1.02.03.05.06.08.07.03.02.07.03.1.04.04,0,.08,0,.11,0,.04,0,.07-.03.1-.05.03-.02.05-.05.07-.09,1.14-1.99,4.2-1.99,4.81-1.99.04,0,.08,0,.11.02.64.17,1.31.28,1.96.25.62,0,1.24-.07,1.85-.19.15-.03.3,0,.42.1.12.09.18.24.18.39v20.47c0,.11-.04.22-.1.3-.67.87-1.54,1.59-2.51,2.08-.98.49-2.07.75-3.16.75h-.02ZM15.31,47.3c.34.94.89,1.79,1.6,2.47,1.17,1.12,2.69,1.73,4.29,1.73h.02c.94,0,1.87-.22,2.71-.64.79-.39,1.5-.97,2.06-1.66v-19.7c-.48.07-.97.11-1.45.11-.74-.02-1.45-.09-2.16-.27-.5-.02-3.03.03-3.85,1.47-.08.14-.19.27-.32.38-.14.11-.29.19-.45.23-.17.05-.34.06-.51.04-.16-.02-.33-.08-.48-.17-.15-.09-.28-.2-.38-.34-.1-.14-.18-.3-.22-.46-.04-.17-.05-.34-.02-.51s.08-.33.17-.48c.42-.65.94-1.19,1.56-1.62.39-.26.8-.47,1.23-.63-.49-.61-.87-1.32-1.1-2.07-.1-.31-.08-.67.07-.97.15-.31.42-.54.74-.65.32-.11.67-.09.98.07.3.15.53.42.64.75.97,2.93,3.97,2.8,5.56,2.5v-14.07c-.52-.65-1.15-1.18-1.88-1.57-.78-.42-1.61-.66-2.49-.72h0c-.84-.06-1.68.06-2.48.34-.8.29-1.52.73-2.15,1.31-.69.64-1.23,1.44-1.59,2.32.33,1.02.9,1.93,1.67,2.66.57.46,1.27.82,2.01,1.01.75.19,1.51.22,2.27.08.2-.03.37-.01.53.04.16.05.31.12.44.23.13.11.24.24.32.38.08.15.13.31.15.47.02.17,0,.34-.04.5-.04.16-.12.31-.22.45-.1.13-.23.25-.38.33-.15.08-.31.14-.48.16-.43.05-.87.08-1.29.08-1.83.08-3.61-.58-5.02-1.79-.71-.64-1.29-1.39-1.73-2.23-1.29.33-2.46,1.08-3.32,2.13-.94,1.15-1.46,2.61-1.46,4.1.08.59.02,1.26-.18,1.89s-.56,1.21-1.02,1.68c-1.08,1.18-1.67,2.73-1.67,4.36s.6,3.18,1.69,4.37c.45.46.79,1.04,1,1.67.2.62.26,1.3.18,1.95,0,1.41.51,2.86,1.42,4,.84,1.05,2,1.81,3.28,2.16.34-.52.74-.99,1.2-1.4,1.68-1.48,3.97-2.03,6.82-1.63.35.06.64.24.84.52.2.27.28.61.23.94-.05.33-.22.63-.48.84-.26.21-.6.3-.93.27-2.09-.3-3.69.04-4.78,1-.49.44-.89,1-1.15,1.61Z"/>
    <path class="cls-2" d="M3.5,9.5h-1v-1c0-.28-.22-.5-.5-.5s-.5.22-.5.5v1H.5c-.28,0-.5.22-.5.5s.22.5.5.5h1v1c0,.28.22.5.5.5s.5-.22.5-.5v-1h1c.28,0,.5-.22.5-.5s-.22-.5-.5-.5Z"/>
    <path class="cls-2" d="M53.5,49.5h-1v-1c0-.28-.22-.5-.5-.5s-.5.22-.5.5v1h-1c-.28,0-.5.22-.5.5s.22.5.5.5h1v1c0,.28.22.5.5.5s.5-.22.5-.5v-1h1c.28,0,.5-.22.5-.5s-.22-.5-.5-.5Z"/>
    <path class="cls-2" d="M63.5,58.5h-1v-1c0-.28-.22-.5-.5-.5s-.5.22-.5.5v1h-1c-.28,0-.5.22-.5.5s.22.5.5.5h1v1c0,.28.22.5.5.5s.5-.22.5-.5v-1h1c.28,0,.5-.22.5-.5s-.22-.5-.5-.5Z"/>
    <path class="cls-2" d="M15.5,59.5h-3v-3c0-.28-.22-.5-.5-.5s-.5.22-.5.5v3h-3c-.28,0-.5.22-.5.5s.22.5.5.5h3v3c0,.28.22.5.5.5s.5-.22.5-.5v-3h3c.28,0,.5-.22.5-.5s-.22-.5-.5-.5Z"/>
    <path class="cls-2" d="M63.5,3.5h-3V.5c0-.28-.22-.5-.5-.5s-.5.22-.5.5v3h-3c-.28,0-.5.22-.5.5s.22.5.5.5h3v3c0,.28.22.5.5.5s.5-.22.5-.5v-3h3c.28,0,.5-.22.5-.5s-.22-.5-.5-.5Z"/>
  </g>
</svg>