<?xml version="1.0" encoding="UTF-8"?>
<svg id="illustartions" xmlns="http://www.w3.org/2000/svg" viewBox="0 0 64 64">
  <defs>
    <style>
      .cls-1 {
        fill: #8696b2;
      }

      .cls-2 {
        fill: #dff0fe;
      }
    </style>
  </defs>
  <path class="cls-2" d="M63.5,13c0-1.97-.9-2-2-2h-11c-4.03,0-2.9-3-4-3h-8c-1.1,0,0,3-4,3h-11c-1.1,0-2,0-2,2,0,1.69.64,1.95,1.5,1.99v2.51h39v-2.51c.86-.05,1.5-.33,1.5-1.99ZM39,10.5c0-.27.22-.5.5-.5h6c.28,0,.5.23.5.5v1c0,.27-.22.5-.5.5h-6c-.28,0-.5-.23-.5-.5v-1Z"/>
  <path class="cls-1" d="M64,13c0-2.5-1.44-2.5-2.5-2.5h-11c-2.28,0-2.6-.98-2.88-1.84-.16-.49-.38-1.16-1.12-1.16h-8c-.74,0-.97.67-1.13,1.16-.29.86-.61,1.84-2.87,1.84h-11c-1.11,0-2.5,0-2.5,2.5,0,1.77.7,2.29,1.5,2.44v26.56c0,2.48,2.02,4.5,4.5,4.5h15v7s.01.06.02.09c-.59.2-1.02.76-1.02,1.41,0,.83.67,1.5,1.5,1.5s1.5-.67,1.5-1.5c0-.66-.43-1.21-1.02-1.41,0-.03.02-.06.02-.09v-7h15c2.48,0,4.5-2.02,4.5-4.5V15.43c.79-.16,1.5-.68,1.5-2.43ZM43,55c0,.28-.22.5-.5.5s-.5-.22-.5-.5.22-.5.5-.5.5.22.5.5ZM61.5,42c0,1.93-1.57,3.5-3.5,3.5h-31c-1.93,0-3.5-1.57-3.5-3.5v-23c0-1.93,1.57-3.5,3.5-3.5h31c1.93,0,3.5,1.57,3.5,3.5v23ZM61.5,14.5H23.5c-1.09,0-1.5,0-1.5-1.5s.41-1.5,1.5-1.5h11c2.98,0,3.51-1.58,3.82-2.52.06-.18.15-.44.18-.48l7.97-.02c.06.05.14.31.2.49.31.94.82,2.53,3.83,2.53h11c1.06,0,1.5,0,1.5,1.5s-.44,1.5-1.5,1.5Z"/>
  <path class="cls-1" d="M45.5,9.5h-6c-.55,0-1,.45-1,1v1c0,.55.45,1,1,1h6c.55,0,1-.45,1-1v-1c0-.55-.45-1-1-1ZM45.5,11.5h-6v-1h6v1Z"/>
  <path class="cls-1" d="M27.5,61.5h-1v-1c0-.28-.22-.5-.5-.5s-.5.22-.5.5v1h-1c-.28,0-.5.22-.5.5s.22.5.5.5h1v1c0,.28.22.5.5.5s.5-.22.5-.5v-1h1c.28,0,.5-.22.5-.5s-.22-.5-.5-.5Z"/>
  <path class="cls-1" d="M59.5,37.5h-3v-3c0-.28-.22-.5-.5-.5s-.5.22-.5.5v3h-3c-.28,0-.5.22-.5.5s.22.5.5.5h3v3c0,.28.22.5.5.5s.5-.22.5-.5v-3h3c.28,0,.5-.22.5-.5s-.22-.5-.5-.5Z"/>
  <path class="cls-1" d="M29.5,23h-.5v-.5c0-.28-.22-.5-.5-.5s-.5.22-.5.5v.5h-.5c-.28,0-.5.22-.5.5s.22.5.5.5h.5v.5c0,.28.22.5.5.5s.5-.22.5-.5v-.5h.5c.28,0,.5-.22.5-.5s-.22-.5-.5-.5Z"/>
  <path class="cls-1" d="M17.5,26.5h-1v-1c0-.28-.22-.5-.5-.5s-.5.22-.5.5v1h-1c-.28,0-.5.22-.5.5s.22.5.5.5h1v1c0,.28.22.5.5.5s.5-.22.5-.5v-1h1c.28,0,.5-.22.5-.5s-.22-.5-.5-.5Z"/>
  <path class="cls-1" d="M3.5,20.5h-1v-1c0-.28-.22-.5-.5-.5s-.5.22-.5.5v1H.5c-.28,0-.5.22-.5.5s.22.5.5.5h1v1c0,.28.22.5.5.5s.5-.22.5-.5v-1h1c.28,0,.5-.22.5-.5s-.22-.5-.5-.5Z"/>
  <path class="cls-1" d="M9.5,3.5h-3V.5c0-.28-.22-.5-.5-.5s-.5.22-.5.5v3h-3c-.28,0-.5.22-.5.5s.22.5.5.5h3v3c0,.28.22.5.5.5s.5-.22.5-.5v-3h3c.28,0,.5-.22.5-.5s-.22-.5-.5-.5Z"/>
  <circle class="cls-2" cx="57.5" cy="25.5" r="2"/>
  <circle class="cls-2" cx="45.5" cy="36.5" r="2"/>
  <circle class="cls-2" cx="37.5" cy="28.5" r="2"/>
  <circle class="cls-2" cx="25.5" cy="39.5" r="2"/>
  <path class="cls-1" d="M59.98,25.2c-.16-1.37-1.42-2.35-2.78-2.19h0c-1.37.16-2.35,1.41-2.19,2.78.05.39.19.75.39,1.06l-8.53,7.58c-.48-.32-1.06-.49-1.68-.42h0c-.4.05-.76.2-1.08.4l-4.55-4.55c.32-.48.48-1.05.41-1.66-.16-1.37-1.42-2.35-2.78-2.19h0c-1.37.16-2.35,1.41-2.19,2.78.05.39.19.75.39,1.06l-8.53,7.58c-.48-.32-1.07-.49-1.68-.42h0c-1.37.16-2.35,1.41-2.19,2.78.15,1.27,1.23,2.2,2.48,2.2.1,0,.2,0,.3-.02,1.37-.16,2.35-1.41,2.19-2.78-.05-.39-.19-.75-.39-1.06l8.53-7.58c.4.27.88.43,1.39.43.1,0,.2,0,.3-.02.4-.05.76-.2,1.08-.4l4.55,4.55c-.31.48-.48,1.05-.41,1.66.15,1.27,1.23,2.2,2.48,2.2.1,0,.2,0,.3-.02,1.37-.16,2.35-1.41,2.19-2.78-.05-.39-.19-.75-.39-1.06l8.53-7.58c.4.27.88.43,1.39.43.1,0,.2,0,.3-.02,1.37-.16,2.35-1.41,2.19-2.78ZM25.68,40.99c-.83.09-1.57-.49-1.67-1.31-.1-.82.49-1.57,1.31-1.67.82-.09,1.57.49,1.67,1.31.1.82-.49,1.57-1.31,1.67ZM37.68,29.99c-.82.1-1.57-.49-1.67-1.31-.1-.82.49-1.57,1.31-1.67.82-.1,1.57.49,1.67,1.31.1.82-.49,1.57-1.31,1.67ZM45.68,37.99c-.82.1-1.57-.49-1.67-1.31-.1-.82.49-1.57,1.31-1.67.82-.1,1.57.49,1.67,1.31.1.82-.49,1.57-1.31,1.67ZM57.68,26.99c-.82.09-1.57-.49-1.67-1.31-.1-.82.49-1.57,1.31-1.67.81-.1,1.57.49,1.67,1.31.1.82-.49,1.57-1.31,1.67Z"/>
</svg>