<svg xmlns="http://www.w3.org/2000/svg" width="64" height="64" viewBox="0 0 64 64"><defs><style>.a{fill:#dff0fe;}.b{fill:#4788c7;}</style></defs><path class="a" d="M433.5,201c0-1.97-.9-2-2-2h-11c-4.032,0-2.9-3-4-3h-8c-1.1,0-.005,3-4,3h-11c-1.1,0-2,0-2,2,0,1.685.64,1.947,1.5,1.989V205.5h39v-2.513C432.86,202.939,433.5,202.66,433.5,201ZM409,198.5a.5.5,0,0,1,.5-.5h6a.5.5,0,0,1,.5.5v1a.5.5,0,0,1-.5.5h-6a.5.5,0,0,1-.5-.5Z" transform="translate(-370 -188)"/><path class="b" d="M434,201c0-2.5-1.445-2.5-2.5-2.5h-11c-2.284,0-2.6-.976-2.88-1.836-.16-.491-.378-1.164-1.12-1.164h-8c-.74,0-.965.673-1.129,1.164-.287.861-.613,1.836-2.871,1.836h-11c-1.114,0-2.5,0-2.5,2.5,0,1.773.7,2.287,1.5,2.437V230a4.505,4.505,0,0,0,4.5,4.5h15v7a.433.433,0,0,0,.018.087,1.5,1.5,0,1,0,.964,0A.433.433,0,0,0,413,241.5v-7h15a4.505,4.505,0,0,0,4.5-4.5V203.432C433.289,203.276,434,202.754,434,201Zm-21,42a.5.5,0,1,1-.5-.5A.5.5,0,0,1,413,243Zm18.5-13a3.5,3.5,0,0,1-3.5,3.5H397a3.5,3.5,0,0,1-3.5-3.5V207a3.5,3.5,0,0,1,3.5-3.5h31a3.5,3.5,0,0,1,3.5,3.5Zm0-27.5h-38c-1.092,0-1.5,0-1.5-1.5s.408-1.5,1.5-1.5h11c2.979,0,3.505-1.577,3.82-2.519a3.625,3.625,0,0,1,.18-.481l7.97-.017a1.986,1.986,0,0,1,.2.49c.307.945.82,2.527,3.831,2.527h11c1.061,0,1.5,0,1.5,1.5S432.561,202.5,431.5,202.5Z" transform="translate(-370 -188)"/><path class="b" d="M415.5,197.5h-6a1,1,0,0,0-1,1v1a1,1,0,0,0,1,1h6a1,1,0,0,0,1-1v-1A1,1,0,0,0,415.5,197.5Zm0,2h-6v-1h6Z" transform="translate(-370 -188)"/><path class="b" d="M398,249.5h-1v-1a.5.5,0,0,0-1,0v1h-1a.5.5,0,0,0,0,1h1v1a.5.5,0,0,0,1,0v-1h1a.5.5,0,0,0,0-1Z" transform="translate(-370.5 -188)"/><path class="b" d="M427.756,221.047h-3v-3a.5.5,0,0,0-1,0v3h-3a.5.5,0,0,0,0,1h3v3a.5.5,0,0,0,1,0v-3h3a.5.5,0,0,0,0-1Z" transform="translate(-368.256 -183.547)"/><path class="b" d="M399.5,211.5H399V211a.5.5,0,0,0-1,0v.5h-.5a.5.5,0,0,0,0,1h.5v.5a.5.5,0,0,0,1,0v-.5h.5a.5.5,0,0,0,0-1Z" transform="translate(-370 -188.5)"/><path class="b" d="M388,215h-1v-1a.5.5,0,0,0-1,0v1h-1a.5.5,0,0,0,0,1h1v1a.5.5,0,0,0,1,0v-1h1a.5.5,0,0,0,0-1Z" transform="translate(-370.5 -188.5)"/><path class="b" d="M373.5,209h-1v-1a.5.5,0,0,0-1,0v1h-1a.5.5,0,0,0,0,1h1v1a.5.5,0,0,0,1,0v-1h1a.5.5,0,0,0,0-1Z" transform="translate(-370 -188.5)"/><path class="b" d="M379,191.5h-3v-3a.5.5,0,0,0-1,0v3h-3a.5.5,0,0,0,0,1h3v3a.5.5,0,0,0,1,0v-3h3a.5.5,0,0,0,0-1Z" transform="translate(-369.5 -188)"/><g transform="translate(-428.5 -198.5)"><circle class="a" cx="2" cy="2" r="2" transform="translate(484 222)"/><circle class="a" cx="2" cy="2" r="2" transform="translate(472 233)"/><circle class="a" cx="2" cy="2" r="2" transform="translate(464 225)"/><circle class="a" cx="2" cy="2" r="2" transform="translate(452 236)"/><path class="b" d="M488.482,223.705a2.508,2.508,0,0,0-2.776-2.187h0a2.5,2.5,0,0,0-2.187,2.777,2.466,2.466,0,0,0,.393,1.059l-8.529,7.581a2.474,2.474,0,0,0-1.676-.417h0a2.476,2.476,0,0,0-1.076.4l-4.553-4.553a2.469,2.469,0,0,0,.406-1.664,2.506,2.506,0,0,0-2.776-2.187h0a2.5,2.5,0,0,0-2.187,2.777,2.466,2.466,0,0,0,.393,1.059l-8.528,7.581a2.475,2.475,0,0,0-1.677-.417h0A2.5,2.5,0,0,0,454,240.5a2.473,2.473,0,0,0,.3-.018,2.5,2.5,0,0,0,2.187-2.777,2.442,2.442,0,0,0-.394-1.059l8.525-7.577a2.442,2.442,0,0,0,2.758.009l4.553,4.553a2.469,2.469,0,0,0-.406,1.664A2.5,2.5,0,0,0,474,237.5a2.473,2.473,0,0,0,.3-.018,2.5,2.5,0,0,0,2.187-2.777,2.45,2.45,0,0,0-.394-1.058l8.525-7.578a2.49,2.49,0,0,0,3.869-2.364Zm-34.3,15.785a1.5,1.5,0,1,1,1.313-1.667A1.5,1.5,0,0,1,454.177,239.49Zm12-11a1.5,1.5,0,1,1,1.313-1.667A1.5,1.5,0,0,1,466.177,228.49Zm8,8a1.5,1.5,0,1,1,1.313-1.667A1.5,1.5,0,0,1,474.177,236.49Zm12-11a1.5,1.5,0,1,1,1.313-1.667A1.51,1.51,0,0,1,486.177,225.49Z"/></g></svg>