<svg xmlns="http://www.w3.org/2000/svg" width="64" height="64" viewBox="0 0 64 64"><defs><style>.a{fill:#dff0fe;}.b{fill:#4788c7;}</style></defs><g transform="translate(-573 -258)"><path class="a" d="M589.5,311.5v.119c0,4.352,1.5,7.881,5.867,7.881h19.266c4.367,0,5.867-3.529,5.867-7.881V311.5Zm15.5,5.064a1.5,1.5,0,1,1,1.5-1.5A1.5,1.5,0,0,1,605,316.564Z"/><path class="a" d="M589.5,270.5v-.089a5.889,5.889,0,0,1,5.868-5.911h19.264a5.889,5.889,0,0,1,5.868,5.911h0v.089Z"/><path class="b" d="M620.5,309a.5.5,0,0,0-.5.5v4.072A5.4,5.4,0,0,1,614.633,319H595.367A5.4,5.4,0,0,1,590,313.572V270.428A5.4,5.4,0,0,1,595.367,265h19.266A5.4,5.4,0,0,1,620,270.428v14.251a.5.5,0,0,0,1,0V270.428A6.4,6.4,0,0,0,614.633,264H595.367A6.405,6.405,0,0,0,589,270.428v43.144A6.405,6.405,0,0,0,595.367,320h19.266A6.405,6.405,0,0,0,621,313.572V309.5A.5.5,0,0,0,620.5,309Z"/><path class="b" d="M605,317.063a2,2,0,1,1,2-2A2,2,0,0,1,605,317.063Zm0-3a1,1,0,1,0,1,1A1,1,0,0,0,605,314.063Z"/><path class="b" d="M608.5,269.063h-7a.5.5,0,0,1,0-1h7a.5.5,0,0,1,0,1Z"/><path class="b" d="M610.5,284.5h-15a.5.5,0,0,1,0-1h15a.5.5,0,0,1,0,1Z"/><path class="b" d="M614.5,279.5h-19a.5.5,0,0,1,0-1h19a.5.5,0,0,1,0,1Z"/></g><path class="a" d="M631.19,294.594l1.7-.738-1.741-4.013-1.958.849a9.538,9.538,0,0,0-2.344-2.235l.752-2.089-4.134-1.67-.783,1.972a11,11,0,0,0-3.7.03l-.751-1.742-3.75,1.625.755,1.741a8,8,0,0,0-2.752,2.743l-2.087-.753-1.666,4.133,2.056.977a9.572,9.572,0,0,0,.009,3.248l-2.113.916,1.741,4.013,1.858-.806a9.76,9.76,0,0,0,2.961,2.961l-.823,1.924,4.1,1.587.955-2.1a8,8,0,0,0,3.874-.154l.882,2.042,3.746-1.624-.885-2.038a10.92,10.92,0,0,0,2.562-2.66l1.992.794,1.621-4.113-1.936-.636A9.7,9.7,0,0,0,631.19,294.594ZM623.5,302.97a6.565,6.565,0,1,1,3.412-8.637,6.565,6.565,0,0,1-3.412,8.637Z" transform="translate(-573 -258)"/><path class="b" d="M618.52,309.767a.477.477,0,0,1-.181-.035l-4.1-1.586a.5.5,0,0,1-.279-.663l.66-1.543a10.321,10.321,0,0,1-2.521-2.521l-1.476.641a.5.5,0,0,1-.658-.26l-1.741-4.013a.5.5,0,0,1,.259-.658l1.76-.763a10.05,10.05,0,0,1-.005-2.65l-1.721-.819a.5.5,0,0,1-.249-.637l1.666-4.133a.5.5,0,0,1,.633-.284l1.71.617a8.568,8.568,0,0,1,2.33-2.33l-.585-1.349a.5.5,0,0,1,0-.383.5.5,0,0,1,.266-.275l3.75-1.623a.5.5,0,0,1,.657.261l.6,1.383a11.438,11.438,0,0,1,3.076-.026l.638-1.605a.5.5,0,0,1,.269-.276.512.512,0,0,1,.383,0l4.134,1.67a.5.5,0,0,1,.283.633l-.623,1.73a10.022,10.022,0,0,1,1.9,1.812l1.6-.694a.5.5,0,0,1,.658.26l1.742,4.012a.5.5,0,0,1-.26.658l-1.318.573a10.3,10.3,0,0,1,.122,3.55l1.53.5a.5.5,0,0,1,.308.659l-1.621,4.113a.5.5,0,0,1-.266.275.5.5,0,0,1-.384.006l-1.626-.648a11.4,11.4,0,0,1-2.128,2.21l.729,1.677a.5.5,0,0,1-.26.659l-3.745,1.624a.513.513,0,0,1-.383.006.5.5,0,0,1-.276-.267l-.711-1.648a8.489,8.489,0,0,1-3.292.124l-.794,1.745A.5.5,0,0,1,618.52,309.767Zm-3.437-2.367,3.177,1.23.76-1.67a.492.492,0,0,1,.556-.282,7.582,7.582,0,0,0,3.632-.145.5.5,0,0,1,.6.281l.684,1.582,2.826-1.225-.684-1.578a.5.5,0,0,1,.162-.6,10.441,10.441,0,0,0,2.445-2.539.505.505,0,0,1,.6-.183l1.525.608,1.243-3.153-1.433-.471a.5.5,0,0,1-.335-.565,9.3,9.3,0,0,0-.134-3.97.5.5,0,0,1,.285-.583l1.242-.539-1.343-3.1-1.5.65a.5.5,0,0,1-.6-.161,9.02,9.02,0,0,0-2.222-2.118.5.5,0,0,1-.191-.584l.589-1.637-3.221-1.3-.6,1.5a.487.487,0,0,1-.544.309,10.5,10.5,0,0,0-3.533.028.506.506,0,0,1-.547-.294l-.552-1.281-2.831,1.226.555,1.282a.5.5,0,0,1-.2.628,7.533,7.533,0,0,0-2.58,2.572.506.506,0,0,1-.6.213l-1.633-.59-1.31,3.25,1.631.776a.5.5,0,0,1,.278.534,9.067,9.067,0,0,0,.008,3.079.5.5,0,0,1-.293.545l-1.654.717,1.343,3.1,1.4-.607a.5.5,0,0,1,.62.189,9.346,9.346,0,0,0,2.811,2.81.5.5,0,0,1,.19.617Zm5.8-3.384a7.081,7.081,0,1,1,2.81-.588h0A7.064,7.064,0,0,1,620.887,304.016Zm-.011-13.134a6.065,6.065,0,1,0,2.421,11.629h0a6.065,6.065,0,0,0-2.423-11.628Z" transform="translate(-573 -258)"/><path class="b" d="M629.5,274.5a.5.5,0,0,0,0-1h-1v-1a.5.5,0,0,0-1,0v1h-1a.5.5,0,0,0,0,1h1v1a.5.5,0,0,0,1,0v-1Z" transform="translate(-573 -258)"/><path class="b" d="M580.5,262.5a.5.5,0,0,0,0-1h-3v-3a.5.5,0,0,0-1,0v3h-3a.5.5,0,0,0,0,1h3v3a.5.5,0,0,0,1,0v-3Z" transform="translate(-573 -258)"/><path class="b" d="M636.5,317.5h-3v-3a.5.5,0,0,0-1,0v3h-3a.5.5,0,0,0,0,1h3v3a.5.5,0,0,0,1,0v-3h3a.5.5,0,0,0,0-1Z" transform="translate(-573 -258)"/><path class="b" d="M583.25,293.5h-1v-1a.5.5,0,0,0-1,0v1h-1a.5.5,0,0,0,0,1h1v1a.5.5,0,0,0,1,0v-1h1a.5.5,0,0,0,0-1Z" transform="translate(-573 -258)"/><path class="b" d="M599.75,304h-.5v-.5a.5.5,0,0,0-1,0v.5h-.5a.5.5,0,0,0,0,1h.5v.5a.5.5,0,0,0,1,0V305h.5a.5.5,0,0,0,0-1Z" transform="translate(-573 -258)"/></svg>