<?xml version="1.0" encoding="UTF-8"?>
<svg id="illustartions" xmlns="http://www.w3.org/2000/svg" viewBox="0 0 64 64">
  <defs>
    <style>
      .cls-1 {
        fill: #ef609d;
      }

      .cls-2 {
        fill: #999;
      }
    </style>
  </defs>
  <g>
    <path class="cls-1" d="M16.5,53.5v.12c0,4.35,1.5,7.88,5.87,7.88h19.27c4.37,0,5.87-3.53,5.87-7.88v-.12h-31ZM32,58.56c-.83,0-1.5-.67-1.5-1.5s.67-1.5,1.5-1.5,1.5.67,1.5,1.5-.67,1.5-1.5,1.5Z"/>
    <path class="cls-1" d="M16.5,12.5v-.09c-.01-3.25,2.61-5.9,5.87-5.91h19.27c3.25.01,5.88,2.66,5.87,5.91h0v.09h-31Z"/>
    <path class="cls-2" d="M47.5,51c-.28,0-.5.22-.5.5v4.07c.02,2.98-2.39,5.41-5.37,5.43h-19.27c-2.98-.02-5.38-2.45-5.37-5.43V12.43c-.02-2.98,2.39-5.41,5.37-5.43h19.27c2.98.02,5.38,2.45,5.37,5.43v14.25c0,.28.22.5.5.5s.5-.22.5-.5v-14.25c.02-3.53-2.83-6.41-6.37-6.43h-19.27c-3.53.02-6.38,2.9-6.37,6.43v43.14c-.01,3.53,2.84,6.41,6.37,6.43h19.27c3.53-.02,6.38-2.9,6.37-6.43v-4.07c0-.28-.22-.5-.5-.5Z"/>
    <path class="cls-2" d="M32,59.06c-1.1,0-2-.9-2-2s.9-2,2-2,2,.9,2,2-.9,2-2,2ZM32,56.06c-.55,0-1,.45-1,1s.45,1,1,1,1-.45,1-1-.45-1-1-1Z"/>
    <path class="cls-2" d="M35.5,11.06h-7c-.28,0-.5-.22-.5-.5s.22-.5.5-.5h7c.28,0,.5.22.5.5s-.22.5-.5.5Z"/>
    <path class="cls-2" d="M37.5,26.5h-15c-.28,0-.5-.22-.5-.5s.22-.5.5-.5h15c.28,0,.5.22.5.5s-.22.5-.5.5Z"/>
    <path class="cls-2" d="M41.5,21.5h-19c-.28,0-.5-.22-.5-.5s.22-.5.5-.5h19c.28,0,.5.22.5.5s-.22.5-.5.5Z"/>
  </g>
  <path class="cls-1" d="M58.19,36.59l1.7-.74-1.74-4.01-1.96.85c-.65-.87-1.44-1.63-2.34-2.23l.75-2.09-4.13-1.67-.78,1.97c-1.23-.2-2.48-.19-3.7.03l-.75-1.74-3.75,1.62.76,1.74c-1.13.67-2.07,1.62-2.75,2.74l-2.09-.75-1.67,4.13,2.06.98c-.18,1.08-.18,2.17,0,3.25l-2.11.92,1.74,4.01,1.86-.81c.76,1.19,1.77,2.2,2.96,2.96l-.82,1.92,4.1,1.59.96-2.1c1.28.27,2.61.21,3.87-.15l.88,2.04,3.75-1.62-.89-2.04c1-.73,1.87-1.63,2.56-2.66l1.99.79,1.62-4.11-1.94-.64c.26-1.39.21-2.82-.14-4.18ZM50.5,44.97c-3.33,1.44-7.19-.09-8.63-3.41-1.44-3.33.09-7.19,3.41-8.63,3.33-1.44,7.19.09,8.63,3.41,1.44,3.33-.08,7.19-3.41,8.64,0,0,0,0,0,0Z"/>
  <path class="cls-2" d="M45.52,51.77c-.06,0-.12-.01-.18-.04l-4.1-1.59c-.26-.1-.39-.39-.29-.65,0,0,0-.01,0-.02l.66-1.54c-.98-.69-1.83-1.54-2.52-2.52l-1.48.64c-.25.11-.55,0-.66-.26,0,0,0,0,0,0l-1.74-4.01c-.11-.25,0-.55.26-.66h0l1.76-.76c-.12-.88-.12-1.77,0-2.65l-1.72-.82c-.24-.11-.35-.39-.25-.64l1.67-4.13c.1-.25.38-.37.63-.28l1.71.62c.62-.92,1.41-1.71,2.33-2.33l-.59-1.35c-.05-.12-.05-.26,0-.38.05-.12.14-.22.27-.27l3.75-1.62c.25-.11.55,0,.66.26l.6,1.38c1.02-.15,2.05-.16,3.08-.03l.64-1.61c.05-.12.15-.22.27-.28.12-.05.26-.05.38,0l4.13,1.67c.25.1.37.38.28.63l-.62,1.73c.71.52,1.35,1.13,1.9,1.81l1.6-.69c.25-.11.55,0,.66.26,0,0,0,0,0,0l1.74,4.01c.11.25,0,.55-.26.66,0,0,0,0,0,0l-1.32.57c.25,1.17.29,2.37.12,3.55l1.53.5c.26.09.4.37.32.63,0,0,0,.02,0,.03l-1.62,4.11c-.05.12-.14.22-.27.27-.12.05-.26.06-.38,0l-1.63-.65c-.61.83-1.32,1.57-2.13,2.21l.73,1.68c.11.25,0,.55-.26.66,0,0,0,0,0,0l-3.74,1.62c-.12.05-.26.05-.38,0-.12-.05-.22-.14-.28-.27l-.71-1.65c-1.08.26-2.2.3-3.29.12l-.79,1.74c-.08.18-.26.29-.46.29ZM42.08,49.4l3.18,1.23.76-1.67c.09-.21.33-.33.56-.28,1.2.25,2.45.2,3.63-.14.24-.07.5.05.6.28l.68,1.58,2.83-1.23-.68-1.58c-.09-.21-.02-.46.16-.6.95-.7,1.78-1.56,2.45-2.54.13-.19.38-.27.6-.18l1.53.61,1.24-3.15-1.43-.47c-.24-.08-.38-.32-.34-.57.24-1.32.2-2.67-.13-3.97-.06-.24.06-.49.28-.58l1.24-.54-1.34-3.1-1.5.65c-.21.09-.46.03-.6-.16-.61-.83-1.37-1.54-2.22-2.12-.19-.13-.27-.37-.19-.58l.59-1.64-3.22-1.3-.6,1.5c-.08.22-.31.35-.54.31-1.17-.19-2.37-.18-3.53.03-.23.04-.45-.08-.55-.29l-.55-1.28-2.83,1.23.55,1.28c.1.23.01.5-.2.63-1.06.63-1.94,1.52-2.58,2.57-.12.2-.37.29-.6.21l-1.63-.59-1.31,3.25,1.63.78c.2.1.31.31.28.53-.17,1.02-.17,2.06,0,3.08.04.23-.08.45-.29.55l-1.65.72,1.34,3.1,1.4-.61c.23-.1.49-.02.62.19.72,1.13,1.68,2.09,2.81,2.81.21.13.29.39.19.62l-.62,1.45ZM47.88,46.02c-3.91,0-7.09-3.16-7.1-7.07,0-3.91,3.16-7.09,7.07-7.1,3.91,0,7.09,3.16,7.1,7.07,0,2.82-1.67,5.38-4.26,6.51h0c-.89.39-1.84.59-2.81.59h0ZM47.87,32.88c-3.35,0-6.06,2.72-6.06,6.07,0,3.35,2.72,6.06,6.07,6.06.83,0,1.65-.17,2.41-.5h0c3.07-1.33,4.48-4.91,3.15-7.98-.96-2.22-3.15-3.65-5.57-3.65h0Z"/>
  <path class="cls-2" d="M56.5,16.5c.28,0,.5-.22.5-.5s-.22-.5-.5-.5h-1v-1c0-.28-.22-.5-.5-.5s-.5.22-.5.5v1h-1c-.28,0-.5.22-.5.5s.22.5.5.5h1v1c0,.28.22.5.5.5s.5-.22.5-.5v-1h1Z"/>
  <path class="cls-2" d="M7.5,4.5c.28,0,.5-.22.5-.5s-.22-.5-.5-.5h-3V.5c0-.28-.22-.5-.5-.5s-.5.22-.5.5v3H.5c-.28,0-.5.22-.5.5s.22.5.5.5h3v3c0,.28.22.5.5.5s.5-.22.5-.5v-3h3Z"/>
  <path class="cls-2" d="M63.5,59.5h-3v-3c0-.28-.22-.5-.5-.5s-.5.22-.5.5v3h-3c-.28,0-.5.22-.5.5s.22.5.5.5h3v3c0,.28.22.5.5.5s.5-.22.5-.5v-3h3c.28,0,.5-.22.5-.5s-.22-.5-.5-.5Z"/>
  <path class="cls-2" d="M10.25,35.5h-1v-1c0-.28-.22-.5-.5-.5s-.5.22-.5.5v1h-1c-.28,0-.5.22-.5.5s.22.5.5.5h1v1c0,.28.22.5.5.5s.5-.22.5-.5v-1h1c.28,0,.5-.22.5-.5s-.22-.5-.5-.5Z"/>
  <path class="cls-2" d="M26.75,46h-.5v-.5c0-.28-.22-.5-.5-.5s-.5.22-.5.5v.5h-.5c-.28,0-.5.22-.5.5s.22.5.5.5h.5v.5c0,.28.22.5.5.5s.5-.22.5-.5v-.5h.5c.28,0,.5-.22.5-.5s-.22-.5-.5-.5Z"/>
</svg>