<svg xmlns="http://www.w3.org/2000/svg" width="64" height="64" viewBox="0 0 64 64"><defs><style>.a{fill:#dff0fe;}.b{fill:#4788c7;}</style></defs><g transform="translate(-430 -258)"><path class="a" d="M446.5,311.5v.119c0,4.352,1.5,7.881,5.867,7.881h19.266c4.367,0,5.867-3.529,5.867-7.881V311.5Zm15.5,5.064a1.5,1.5,0,1,1,1.5-1.5A1.5,1.5,0,0,1,462,316.564Z"/><path class="a" d="M446.5,270.5v-.089a5.889,5.889,0,0,1,5.868-5.911h19.264a5.889,5.889,0,0,1,5.868,5.911h0v.089Z"/><path class="b" d="M478,270.428A6.4,6.4,0,0,0,471.633,264H452.367A6.405,6.405,0,0,0,446,270.428v43.144A6.405,6.405,0,0,0,452.367,320h19.266A6.405,6.405,0,0,0,478,313.572V300a.5.5,0,0,0-1,0v13.572A5.4,5.4,0,0,1,471.633,319H452.367A5.4,5.4,0,0,1,447,313.572V270.428A5.4,5.4,0,0,1,452.367,265h19.266A5.4,5.4,0,0,1,477,270.428v16.608a.5.5,0,0,0,1,0Z"/><path class="b" d="M462,317.063a2,2,0,1,1,2-2A2,2,0,0,1,462,317.063Zm0-3a1,1,0,1,0,1,1A1,1,0,0,0,462,314.063Z"/><path class="b" d="M465.5,269.063h-7a.5.5,0,0,1,0-1h7a.5.5,0,0,1,0,1Z"/></g><g transform="translate(-430 -258)"><path class="b" d="M487.5,298.5h-21a.5.5,0,0,1-.5-.5v-9a.5.5,0,0,1,.5-.5h21a.5.5,0,0,1,.5.5v9A.5.5,0,0,1,487.5,298.5Zm-20.5-1h20v-8H467Z"/><path class="b" d="M482.5,295.5h-9a.5.5,0,0,1,0-1h9a.5.5,0,0,1,0,1Z"/><path class="b" d="M480.5,293.5h-7a.5.5,0,0,1,0-1h7a.5.5,0,0,1,0,1Z"/><path class="b" d="M484.5,291.5h-11a.5.5,0,0,1,0-1h11a.5.5,0,0,1,0,1Z"/><rect class="a" width="3" height="3" transform="translate(468.5 291)"/><path class="b" d="M471.5,294.5h-3a.5.5,0,0,1-.5-.5v-3a.5.5,0,0,1,.5-.5h3a.5.5,0,0,1,.5.5v3A.5.5,0,0,1,471.5,294.5Zm-2.5-1h2v-2h-2Z"/></g><path class="b" d="M486.5,273.5h-1v-1a.5.5,0,0,0-1,0v1h-1a.5.5,0,0,0,0,1h1v1a.5.5,0,0,0,1,0v-1h1a.5.5,0,0,0,0-1Z" transform="translate(-430 -258)"/><path class="b" d="M433.5,265.5a.5.5,0,0,0,1,0v-3h3a.5.5,0,0,0,0-1h-3v-3a.5.5,0,0,0-1,0v3h-3a.5.5,0,0,0,0,1h3Z" transform="translate(-430 -258)"/><path class="b" d="M439.5,282.5a.5.5,0,0,0,0-1h-3v-3a.5.5,0,0,0-1,0v3h-3a.5.5,0,0,0,0,1h3v3a.5.5,0,0,0,1,0v-3Z" transform="translate(-430 -258)"/><path class="b" d="M493.5,319.5h-1v-1a.5.5,0,0,0-1,0v1h-1a.5.5,0,0,0,0,1h1v1a.5.5,0,0,0,1,0v-1h1a.5.5,0,0,0,0-1Z" transform="translate(-430 -258)"/><path class="b" d="M441.75,294h-.5v-.5a.5.5,0,0,0-1,0v.5h-.5a.5.5,0,0,0,0,1h.5v.5a.5.5,0,0,0,1,0V295h.5a.5.5,0,0,0,0-1Z" transform="translate(-430 -258)"/></svg>