<?xml version="1.0" encoding="UTF-8"?>
<svg id="illustartions" xmlns="http://www.w3.org/2000/svg" viewBox="0 0 64 64">
  <defs>
    <style>
      .cls-1 {
        fill: #0a0a0a;
      }

      .cls-2 {
        fill: #8d77f7;
      }
    </style>
  </defs>
  <g id="branding">
    <path class="cls-1" d="M31.03,61.98c-2.11,0-3.83-1.72-3.83-3.83v-.65c0-.28.22-.5.5-.5h0c.28,0,.5.22.5.5v.65c0,1.56,1.27,2.83,2.83,2.83h20.47c.28,0,.5.21.5.49s-.22.5-.5.5h-20.47Z"/>
    <path class="cls-2" d="M26.5,15v-1.07c0-1.88,1.55-3.42,3.44-3.42h30.12c1.89,0,3.44,1.54,3.44,3.42v1.07H26.5Z"/>
    <path class="cls-1" d="M60.06,10.01h-30.12c-2.17,0-3.94,1.76-3.94,3.92v20.57c0,.28.22.5.5.5s.5-.22.5-.5V15.5h36v42.59c0,1.61-1.32,2.92-2.94,2.92h-1.56c-.28,0-.5.22-.5.5s.22.5.5.5h1.56c2.17,0,3.94-1.76,3.94-3.92V13.93c0-2.16-1.77-3.92-3.94-3.92ZM27,14.5v-.57c0-1.61,1.32-2.92,2.94-2.92h30.12c1.62,0,2.94,1.31,2.94,2.92v.57H27Z"/>
    <path class="cls-1" d="M49.5,34.5h-17c-.28,0-.5-.22-.5-.5s.22-.5.5-.5h17c.28,0,.5.22.5.5s-.22.5-.5.5Z"/>
    <path class="cls-1" d="M51.5,28.5h-19c-.28,0-.5-.22-.5-.5s.22-.5.5-.5h19c.28,0,.5.22.5.5s-.22.5-.5.5Z"/>
    <path class="cls-1" d="M57.5,22.5h-25c-.28,0-.5-.22-.5-.5s.22-.5.5-.5h25c.28,0,.5.22.5.5s-.22.5-.5.5Z"/>
    <rect class="cls-2" x="53.5" y="57.75" width="3" height="2.5"/>
    <path class="cls-2" d="M53.5,37.6l1.5-3,1.5,3h-3Z"/>
    <path class="cls-1" d="M56.95,37.28l-1.5-3c-.17-.34-.72-.34-.89,0l-1.5,3c-.03.07-.05.15-.05.22v26c0,.28.22.5.5.5h3c.28,0,.5-.22.5-.5v-26c0-.08-.02-.15-.05-.22ZM54,58.25h2v1.5h-2v-1.5ZM56,63h-2v-2.25h2v2.25ZM54,57.25v-19.63l1-2,1,2v19.63h-2Z"/>
    <path class="cls-1" d="M37.5,55H6.5c-.28,0-.5-.22-.5-.5v-17c0-.28.22-.5.5-.5h31c.28,0,.5.22.5.5v17c0,.28-.22.5-.5.5ZM7,54h30v-16H7v16Z"/>
    <g>
      <rect class="cls-2" x="10.5" y="41.5" width="7" height="9"/>
      <path class="cls-2" d="M11,50h6v-8h-6v8Z"/>
    </g>
    <path class="cls-1" d="M17.5,51h-7c-.28,0-.5-.22-.5-.5v-9c0-.28.22-.5.5-.5h7c.28,0,.5.22.5.5v9c0,.28-.22.5-.5.5ZM11,50h6v-8h-6v8Z"/>
    <path class="cls-1" d="M34,42h-13c-.28,0-.5-.22-.5-.5s.22-.5.5-.5h13c.28,0,.5.22.5.5s-.22.5-.5.5Z"/>
    <path class="cls-1" d="M28,45h-7c-.28,0-.5-.22-.5-.5s.22-.5.5-.5h7c.28,0,.5.22.5.5s-.22.5-.5.5Z"/>
    <path class="cls-1" d="M22,51c-.83,0-1.5-.67-1.5-1.5s.67-1.5,1.5-1.5,1.5.67,1.5,1.5-.67,1.5-1.5,1.5ZM22,49c-.28,0-.5.22-.5.5s.22.5.5.5.5-.22.5-.5-.22-.5-.5-.5Z"/>
    <path class="cls-1" d="M27,51c-.83,0-1.5-.67-1.5-1.5s.67-1.5,1.5-1.5,1.5.67,1.5,1.5-.67,1.5-1.5,1.5ZM27,49c-.28,0-.5.22-.5.5s.22.5.5.5.5-.22.5-.5-.22-.5-.5-.5Z"/>
    <g>
      <circle class="cls-2" cx="32" cy="49.5" r="1"/>
      <path class="cls-1" d="M32,51c-.83,0-1.5-.67-1.5-1.5s.67-1.5,1.5-1.5,1.5.67,1.5,1.5-.67,1.5-1.5,1.5ZM32,49c-.28,0-.5.22-.5.5s.22.5.5.5.5-.22.5-.5-.22-.5-.5-.5Z"/>
    </g>
    <path class="cls-1" d="M17.5,27.5h-1v-1c0-.28-.22-.5-.5-.5s-.5.22-.5.5v1h-1c-.28,0-.5.22-.5.5s.22.5.5.5h1v1c0,.28.22.5.5.5s.5-.22.5-.5v-1h1c.28,0,.5-.22.5-.5s-.22-.5-.5-.5Z"/>
    <path class="cls-1" d="M48.5,54.5h-1v-1c0-.28-.22-.5-.5-.5s-.5.22-.5.5v1h-1c-.28,0-.5.22-.5.5s.22.5.5.5h1v1c0,.28.22.5.5.5s.5-.22.5-.5v-1h1c.28,0,.5-.22.5-.5s-.22-.5-.5-.5Z"/>
    <path class="cls-1" d="M7.5,3.5h-3V.5c0-.28-.22-.5-.5-.5s-.5.22-.5.5v3H.5c-.28,0-.5.22-.5.5s.22.5.5.5h3v3c0,.28.22.5.5.5s.5-.22.5-.5v-3h3c.28,0,.5-.22.5-.5s-.22-.5-.5-.5Z"/>
  </g>
</svg>