<svg xmlns="http://www.w3.org/2000/svg" width="64" height="64" viewBox="0 0 64 64"><defs><style>.a{fill:#dff0fe;}.b{fill:none;stroke:#4788c7;stroke-linecap:round;stroke-linejoin:round;}.c{fill:#4788c7;}</style></defs><path class="a" d="M889.5,239.5v.119c0,4.352,2.626,7.881,5.867,7.881h19.266c3.241,0,5.867-3.529,5.867-7.881V239.5Zm15.5,5.064a1.5,1.5,0,1,1,1.5-1.5A1.5,1.5,0,0,1,905,244.564Z" transform="translate(-873 -188)"/><path class="a" d="M889.5,198.5v-.089a5.889,5.889,0,0,1,5.868-5.911h19.264a5.889,5.889,0,0,1,5.868,5.911h0v.089Z" transform="translate(-873 -188)"/><path class="b" d="M920.5,209.97v31.6a5.9,5.9,0,0,1-5.867,5.928H895.367a5.9,5.9,0,0,1-5.867-5.928h0V198.428a5.9,5.9,0,0,1,5.867-5.928h19.265a5.9,5.9,0,0,1,5.867,5.928h0V209.97" transform="translate(-873 -188)"/><path class="c" d="M905,245.063a2,2,0,1,1,2-2A2,2,0,0,1,905,245.063Zm0-3a1,1,0,1,0,1,1A1,1,0,0,0,905,242.063Z" transform="translate(-873 -188)"/><path class="c" d="M908.5,197.063h-7a.5.5,0,0,1,0-1h7a.5.5,0,0,1,0,1Z" transform="translate(-873 -188)"/><path class="c" d="M910.5,212.5h-15a.5.5,0,0,1,0-1h15a.5.5,0,0,1,0,1Z" transform="translate(-873 -188)"/><path class="c" d="M914.5,207.5h-19a.5.5,0,0,1,0-1h19a.5.5,0,0,1,0,1Z" transform="translate(-873 -188)"/><path class="c" d="M876.5,213h-1v-1a.5.5,0,0,0-1,0v1h-1a.5.5,0,0,0,0,1h1v1a.5.5,0,0,0,1,0v-1h1a.5.5,0,0,0,0-1Z" transform="translate(-873 -188)"/><path class="c" d="M936.5,206h-3v-3a.5.5,0,0,0-1,0v3h-3a.5.5,0,0,0,0,1h3v3a.5.5,0,0,0,1,0v-3h3a.5.5,0,0,0,0-1Z" transform="translate(-873 -188)"/><path class="c" d="M883.25,191.5h-3v-3a.5.5,0,0,0-1,0v3h-3a.5.5,0,0,0,0,1h3v3a.5.5,0,0,0,1,0v-3h3a.5.5,0,0,0,0-1Z" transform="translate(-873 -188)"/><path class="c" d="M930.5,247.5h-3v-3a.5.5,0,0,0-1,0v3h-3a.5.5,0,0,0,0,1h3v3a.5.5,0,0,0,1,0v-3h3a.5.5,0,0,0,0-1Z" transform="translate(-873 -188)"/></svg>