<svg id="Ebene_1" data-name="Ebene 1" xmlns="http://www.w3.org/2000/svg" width="64" height="64" viewBox="0 0 64 64"><defs><style>.cls-1{fill:#4788c7;}.cls-2{fill:#dff0fe;}</style></defs><g id="illustration-email"><path class="cls-1" d="M63.5,59.5h-3v-3a.5.5,0,0,0-1,0v3h-3a.5.5,0,0,0,0,1h3v3a.5.5,0,0,0,1,0v-3h3a.5.5,0,0,0,0-1Z"/><path class="cls-1" d="M21,20H19.5V18.5a.5.5,0,0,0-1,0V20H17a.5.5,0,0,0,0,1h1.5v1.5a.5.5,0,0,0,1,0V21H21a.5.5,0,0,0,0-1Z"/><path class="cls-1" d="M57,1.5H56V.5a.5.5,0,0,0-1,0v1H54a.5.5,0,0,0,0,1h1v1a.5.5,0,0,0,1,0v-1h1a.5.5,0,0,0,0-1Z"/><path class="cls-1" d="M7.5,8.5h-3v-3a.5.5,0,0,0-1,0v3H.5a.5.5,0,0,0,0,1h3v3a.5.5,0,0,0,1,0v-3h3a.5.5,0,0,0,0-1Z"/><path class="cls-2" d="M54,55.5H13c-1.93,0-3.5-.38-3.5-3.5V30c0-.83.67-.6,1.5-.6s1.5,1.07,1.5,1.07V52a.5.5,0,0,0,.5.5H56a.81.81,0,0,1,.77.3C57,53.07,56.69,55.5,54,55.5Z"/><circle id="Dot" class="cls-2" cx="41" cy="27.5" r="2"/><path class="cls-1" d="M41,30a2.5,2.5,0,1,1,2.5-2.5A2.5,2.5,0,0,1,41,30Zm0-4a1.5,1.5,0,1,0,1.5,1.5A1.5,1.5,0,0,0,41,26Z"/><circle id="Dot-2" class="cls-2" cx="33" cy="27.5" r="2"/><path class="cls-1" d="M33,30a2.5,2.5,0,1,1,2.5-2.5A2.5,2.5,0,0,1,33,30Zm0-4a1.5,1.5,0,1,0,1.5,1.5A1.5,1.5,0,0,0,33,26Z"/><circle id="Dot-3" class="cls-2" cx="25" cy="27.5" r="2"/><path class="cls-1" d="M25,30a2.5,2.5,0,1,1,2.5-2.5A2.5,2.5,0,0,1,25,30Zm0-4a1.5,1.5,0,1,0,1.5,1.5A1.5,1.5,0,0,0,25,26Z"/><path class="cls-1" d="M55.37,28.17,53.5,26.43V15a.5.5,0,0,0-.5-.5H40.2L33.34,8.13a.52.52,0,0,0-.68,0L25.8,14.5H13a.5.5,0,0,0-.5.5V26.43l-1.87,1.74A2.49,2.49,0,0,0,9,30.5v23a2.5,2.5,0,0,0,1.46,2.27,2.59,2.59,0,0,0,1,.23h43a2.59,2.59,0,0,0,1-.23A2.5,2.5,0,0,0,57,53.5v-23A2.49,2.49,0,0,0,55.37,28.17Zm-1.87-.38L54.69,29,53.5,30ZM33,9.18l5.73,5.32H27.27ZM13.5,15.5h39V30.85L39.18,42l-5.86-4.91a.49.49,0,0,0-.64,0L26.82,42,13.5,30.85Zm-1,12.29V30l-1.19-1ZM11.39,55A1.5,1.5,0,0,1,10,53.5v-23a1.46,1.46,0,0,1,.37-1L26,42.69Zm1.54,0L33,38.15,53.07,55ZM56,53.5A1.5,1.5,0,0,1,54.61,55L40,42.69,55.63,29.53a1.46,1.46,0,0,1,.37,1Z"/></g></svg>