<svg xmlns="http://www.w3.org/2000/svg" width="64" height="64" viewBox="0 0 64 64"><defs><style>.a,.c{fill:#dff0fe;}.b{fill:#4788c7;}.c{isolation:isolate;}</style></defs><g transform="translate(-722 -258)"><path class="a" d="M738.5,311.5v.119c0,4.352,1.5,7.881,5.867,7.881h19.266c4.367,0,5.867-3.529,5.867-7.881V311.5Zm15.5,5.064a1.5,1.5,0,1,1,1.5-1.5A1.5,1.5,0,0,1,754,316.564Z"/><path class="a" d="M738.5,270.5v-.089a5.889,5.889,0,0,1,5.868-5.911h19.264a5.889,5.889,0,0,1,5.868,5.911h0v.089Z"/><path class="b" d="M754,317.063a2,2,0,1,1,2-2A2,2,0,0,1,754,317.063Zm0-3a1,1,0,1,0,1,1A1,1,0,0,0,754,314.063Z"/><path class="b" d="M757.5,269.063h-7a.5.5,0,0,1,0-1h7a.5.5,0,0,1,0,1Z"/><path class="b" d="M759.5,284.5h-15a.5.5,0,0,1,0-1h15a.5.5,0,0,1,0,1Z"/><path class="b" d="M763.5,279.5h-19a.5.5,0,0,1,0-1h19a.5.5,0,0,1,0,1Z"/><path class="b" d="M770,270.428A6.4,6.4,0,0,0,763.633,264H744.367A6.405,6.405,0,0,0,738,270.428v43.144A6.405,6.405,0,0,0,744.367,320h19.266A6.405,6.405,0,0,0,770,313.572V307.5a.5.5,0,0,0-1,0v6.072A5.4,5.4,0,0,1,763.633,319H744.367A5.4,5.4,0,0,1,739,313.572V270.428A5.4,5.4,0,0,1,744.367,265h19.266A5.4,5.4,0,0,1,769,270.428v15.858a.5.5,0,0,0,1,0Z"/></g><g transform="translate(-722 -258)"><path class="c" d="M782.868,304.509H765.255v-9.948a2.819,2.819,0,0,0-.789-.681c-.205-.039-.335.335-.335.681v9.827l1.495,1.11h16.957a1.336,1.336,0,0,0,.9-.474Z"/><path class="b" d="M783.934,293.432l-.01,0h0l-1.068-1.038.014-3.878a.49.49,0,0,0-.153-.354.538.538,0,0,0-.372-.148h-3.993l-3.976-3.865a.558.558,0,0,0-.75,0l-3.976,3.865h-3.976a.513.513,0,0,0-.525.5v3.874l-1.073,1.043,0,.005-.008,0a1.914,1.914,0,0,0-.566,1.357v9.25A2.005,2.005,0,0,0,765.526,306h16.948a2,2,0,0,0,2.026-1.962v-9.249A1.914,1.914,0,0,0,783.934,293.432Zm-6.429,5.975,5.9-4.85a.909.909,0,0,1,.046.232v9.248a.88.88,0,0,1-.043.205Zm-3.5-14.2,2.881,2.8H771.12Zm7.817,3.8-.019,5.542-5.1,4.193-2.357-1.93a.539.539,0,0,0-.658-.008c-.008,0-.019,0-.026.007l-2.365,1.925-5.094-4.189v-5.54ZM764.584,304.2a.886.886,0,0,1-.034-.161v-9.249a.891.891,0,0,1,.047-.235l5.888,4.841Zm17.889.8H765.528a1.022,1.022,0,0,1-.247-.05l8.717-7.1,8.675,7.107A.957.957,0,0,1,782.473,305Z"/><ellipse class="c" cx="0.8" cy="0.816" rx="0.8" ry="0.816" transform="translate(770.066 292.372)"/><path class="b" d="M770.864,294.505a1.289,1.289,0,0,1-.8-.278,1.321,1.321,0,0,1,.646-2.345,1.263,1.263,0,0,1,.952.268,1.321,1.321,0,0,1-.643,2.345A1.179,1.179,0,0,1,770.864,294.505Zm0-1.633-.034,0a.321.321,0,0,0-.145.567.283.283,0,0,0,.214.062.315.315,0,0,0,.263-.353.32.32,0,0,0-.118-.214A.293.293,0,0,0,770.865,292.872Z"/><ellipse class="c" cx="0.8" cy="0.816" rx="0.8" ry="0.816" transform="translate(773.344 292.372)"/><path class="b" d="M774.143,294.505a1.28,1.28,0,0,1-.8-.277,1.321,1.321,0,0,1,.643-2.346,1.277,1.277,0,0,1,.953.268,1.321,1.321,0,0,1-.644,2.345A1.175,1.175,0,0,1,774.143,294.505Zm0-1.633-.035,0a.313.313,0,0,0-.262.353.307.307,0,0,0,.118.214.288.288,0,0,0,.214.062.313.313,0,0,0,.262-.354.307.307,0,0,0-.117-.213A.293.293,0,0,0,774.144,292.872Z"/><ellipse class="c" cx="0.8" cy="0.816" rx="0.8" ry="0.816" transform="translate(776.622 292.372)"/><path class="b" d="M777.42,294.505a1.286,1.286,0,0,1-.8-.278,1.321,1.321,0,0,1,.646-2.345,1.267,1.267,0,0,1,.952.268,1.321,1.321,0,0,1-.645,2.345A1.164,1.164,0,0,1,777.42,294.505Zm0-1.633-.034,0h0a.313.313,0,0,0-.264.352.322.322,0,0,0,.118.215.286.286,0,0,0,.214.062.322.322,0,0,0,.146-.567A.3.3,0,0,0,777.422,292.872Zm-.084.506"/></g><path class="b" d="M780.5,274.5h1v1a.5.5,0,0,0,1,0v-1h1a.5.5,0,0,0,0-1h-1v-1a.5.5,0,0,0-1,0v1h-1a.5.5,0,0,0,0,1Z" transform="translate(-722 -258)"/><path class="b" d="M729.5,262.5a.5.5,0,0,0,0-1h-3v-3a.5.5,0,0,0-1,0v3h-3a.5.5,0,0,0,0,1h3v3a.5.5,0,0,0,1,0v-3Z" transform="translate(-722 -258)"/><path class="b" d="M785.5,317.5h-3v-3a.5.5,0,0,0-1,0v3h-3a.5.5,0,0,0,0,1h3v3a.5.5,0,0,0,1,0v-3h3a.5.5,0,0,0,0-1Z" transform="translate(-722 -258)"/><path class="b" d="M732.25,293.5h-1v-1a.5.5,0,0,0-1,0v1h-1a.5.5,0,0,0,0,1h1v1a.5.5,0,0,0,1,0v-1h1a.5.5,0,0,0,0-1Z" transform="translate(-722 -258)"/><path class="b" d="M758.75,304h-.5v-.5a.5.5,0,0,0-1,0v.5h-.5a.5.5,0,0,0,0,1h.5v.5a.5.5,0,0,0,1,0V305h.5a.5.5,0,0,0,0-1Z" transform="translate(-722 -258)"/></svg>