<?xml version="1.0" encoding="UTF-8"?>
<svg id="export" xmlns="http://www.w3.org/2000/svg" viewBox="0 0 64 64">
  <defs>
    <style>
      .cls-1 {
        fill: #3c5583;
      }

      .cls-2 {
        fill: #dff0fe;
      }
    </style>
  </defs>
  <path class="cls-2" d="M18.5,12h41c2.21,0,4,1.79,4,4h0v4H14.5v-4h0c0-2.21,1.79-4,4-4Z"/>
  <path class="cls-1" d="M3.5,21h-1v-1c0-.28-.22-.5-.5-.5s-.5.22-.5.5v1H.5c-.28,0-.5.22-.5.5s.22.5.5.5h1v1c0,.28.22.5.5.5s.5-.22.5-.5v-1h1c.28,0,.5-.22.5-.5s-.22-.5-.5-.5Z"/>
  <path class="cls-1" d="M57,39h-3v-3c0-.28-.22-.5-.5-.5s-.5.22-.5.5v3h-3c-.28,0-.5.22-.5.5s.22.5.5.5h3v3c0,.28.22.5.5.5s.5-.22.5-.5v-3h3c.28,0,.5-.22.5-.5s-.22-.5-.5-.5Z"/>
  <path class="cls-1" d="M28,61.5h-1v-1c0-.28-.22-.5-.5-.5s-.5.22-.5.5v1h-1c-.28,0-.5.22-.5.5s.22.5.5.5h1v1c0,.28.22.5.5.5s.5-.22.5-.5v-1h1c.28,0,.5-.22.5-.5s-.22-.5-.5-.5Z"/>
  <path class="cls-1" d="M30,23.5h-.5v-.5c0-.28-.22-.5-.5-.5s-.5.22-.5.5v.5h-.5c-.28,0-.5.22-.5.5s.22.5.5.5h.5v.5c0,.28.22.5.5.5s.5-.22.5-.5v-.5h.5c.28,0,.5-.22.5-.5s-.22-.5-.5-.5Z"/>
  <path class="cls-1" d="M9,3.5h-3V.5c0-.28-.22-.5-.5-.5s-.5.22-.5.5v3h-3c-.28,0-.5.22-.5.5s.22.5.5.5h3v3c0,.28.22.5.5.5s.5-.22.5-.5v-3h3c.28,0,.5-.22.5-.5s-.22-.5-.5-.5Z"/>
  <path class="cls-1" d="M59.5,11.5H18.44c-2.49,0-4.5,2.01-4.5,4.5v31c0,2.49,2.01,4.5,4.5,4.5h41.06c2.48,0,4.5-2.02,4.5-4.5v-31c0-2.48-2.02-4.5-4.5-4.5ZM18.44,12.5h41.06c1.93,0,3.5,1.57,3.5,3.5v3.5H14.94v-3.5c0-1.93,1.57-3.5,3.5-3.5ZM59.5,50.5H18.44c-1.93,0-3.5-1.57-3.5-3.5v-26.5h48.06v26.5c0,1.93-1.57,3.5-3.5,3.5Z"/>
  <circle class="cls-1" cx="19" cy="16" r="1"/>
  <circle class="cls-1" cx="22" cy="16" r="1"/>
  <circle class="cls-1" cx="25" cy="16" r="1"/>
  <g>
    <path class="cls-1" d="M60,31.5h-21c-.28,0-.5-.22-.5-.5v-7c0-.28.22-.5.5-.5h21c.28,0,.5.22.5.5v7c0,.28-.22.5-.5.5ZM39.5,30.5h20v-6h-20v6Z"/>
    <path class="cls-1" d="M53,28.5h-7c-.28,0-.5-.22-.5-.5s.22-.5.5-.5h7c.28,0,.5.22.5.5s-.22.5-.5.5Z"/>
    <path class="cls-1" d="M57,26.5h-11c-.28,0-.5-.22-.5-.5s.22-.5.5-.5h11c.28,0,.5.22.5.5s-.22.5-.5.5Z"/>
    <path class="cls-1" d="M44,29.5h-3c-.28,0-.5-.22-.5-.5v-3c0-.28.22-.5.5-.5h3c.28,0,.5.22.5.5v3c0,.28-.22.5-.5.5ZM41.5,28.5h2v-2h-2v2Z"/>
  </g>
</svg>