<?xml version="1.0" encoding="UTF-8"?>
<svg id="illustartions" xmlns="http://www.w3.org/2000/svg" viewBox="0 0 64 64">
  <defs>
    <style>
      .cls-1 {
        fill: #ded6fc;
      }

      .cls-2 {
        fill: #999;
      }
    </style>
  </defs>
  <g>
    <path class="cls-1" d="M16.5,53.5v.12c0,4.35,1.5,7.88,5.87,7.88h19.27c4.37,0,5.87-3.53,5.87-7.88v-.12h-31ZM32,58.56c-.83,0-1.5-.67-1.5-1.5s.67-1.5,1.5-1.5,1.5.67,1.5,1.5-.67,1.5-1.5,1.5Z"/>
    <path class="cls-1" d="M16.5,12.5v-.09c-.01-3.25,2.61-5.9,5.87-5.91h19.27c3.25.01,5.88,2.66,5.87,5.91h0v.09h-31Z"/>
    <path class="cls-2" d="M48,12.43c.02-3.53-2.83-6.41-6.37-6.43h-19.27c-3.53.02-6.38,2.9-6.37,6.43v43.14c-.01,3.53,2.84,6.41,6.37,6.43h19.27c3.53-.02,6.38-2.9,6.37-6.43v-13.57c0-.28-.22-.5-.5-.5s-.5.22-.5.5v13.57c.02,2.98-2.39,5.41-5.37,5.43h-19.27c-2.98-.02-5.38-2.45-5.37-5.43V12.43c-.02-2.98,2.39-5.41,5.37-5.43h19.27c2.98.02,5.38,2.45,5.37,5.43v16.61c0,.28.22.5.5.5s.5-.22.5-.5V12.43Z"/>
    <path class="cls-2" d="M32,59.06c-1.1,0-2-.9-2-2s.9-2,2-2,2,.9,2,2-.9,2-2,2ZM32,56.06c-.55,0-1,.45-1,1s.45,1,1,1,1-.45,1-1-.45-1-1-1Z"/>
    <path class="cls-2" d="M35.5,11.06h-7c-.28,0-.5-.22-.5-.5s.22-.5.5-.5h7c.28,0,.5.22.5.5s-.22.5-.5.5Z"/>
  </g>
  <g>
    <path class="cls-2" d="M57.5,40.5h-21c-.28,0-.5-.22-.5-.5v-9c0-.28.22-.5.5-.5h21c.28,0,.5.22.5.5v9c0,.28-.22.5-.5.5ZM37,39.5h20v-8h-20v8Z"/>
    <path class="cls-2" d="M52.5,37.5h-9c-.28,0-.5-.22-.5-.5s.22-.5.5-.5h9c.28,0,.5.22.5.5s-.22.5-.5.5Z"/>
    <path class="cls-2" d="M50.5,35.5h-7c-.28,0-.5-.22-.5-.5s.22-.5.5-.5h7c.28,0,.5.22.5.5s-.22.5-.5.5Z"/>
    <path class="cls-2" d="M54.5,33.5h-11c-.28,0-.5-.22-.5-.5s.22-.5.5-.5h11c.28,0,.5.22.5.5s-.22.5-.5.5Z"/>
    <rect class="cls-1" x="38.5" y="33" width="3" height="3"/>
    <path class="cls-2" d="M41.5,36.5h-3c-.28,0-.5-.22-.5-.5v-3c0-.28.22-.5.5-.5h3c.28,0,.5.22.5.5v3c0,.28-.22.5-.5.5ZM39,35.5h2v-2h-2v2Z"/>
  </g>
  <path class="cls-2" d="M56.5,15.5h-1v-1c0-.28-.22-.5-.5-.5s-.5.22-.5.5v1h-1c-.28,0-.5.22-.5.5s.22.5.5.5h1v1c0,.28.22.5.5.5s.5-.22.5-.5v-1h1c.28,0,.5-.22.5-.5s-.22-.5-.5-.5Z"/>
  <path class="cls-2" d="M3.5,7.5c0,.28.22.5.5.5s.5-.22.5-.5v-3h3c.28,0,.5-.22.5-.5s-.22-.5-.5-.5h-3V.5c0-.28-.22-.5-.5-.5s-.5.22-.5.5v3H.5c-.28,0-.5.22-.5.5s.22.5.5.5h3v3Z"/>
  <path class="cls-2" d="M9.5,24.5c.28,0,.5-.22.5-.5s-.22-.5-.5-.5h-3v-3c0-.28-.22-.5-.5-.5s-.5.22-.5.5v3h-3c-.28,0-.5.22-.5.5s.22.5.5.5h3v3c0,.28.22.5.5.5s.5-.22.5-.5v-3h3Z"/>
  <path class="cls-2" d="M63.5,61.5h-1v-1c0-.28-.22-.5-.5-.5s-.5.22-.5.5v1h-1c-.28,0-.5.22-.5.5s.22.5.5.5h1v1c0,.28.22.5.5.5s.5-.22.5-.5v-1h1c.28,0,.5-.22.5-.5s-.22-.5-.5-.5Z"/>
  <path class="cls-2" d="M11.75,36h-.5v-.5c0-.28-.22-.5-.5-.5s-.5.22-.5.5v.5h-.5c-.28,0-.5.22-.5.5s.22.5.5.5h.5v.5c0,.28.22.5.5.5s.5-.22.5-.5v-.5h.5c.28,0,.5-.22.5-.5s-.22-.5-.5-.5Z"/>
</svg>