<?xml version="1.0" encoding="UTF-8"?>
<svg id="export" xmlns="http://www.w3.org/2000/svg" viewBox="0 0 64 64">
  <defs>
    <style>
      .cls-1 {
        fill: #3c5583;
      }

      .cls-2 {
        fill: #dff0fe;
      }
    </style>
  </defs>
  <g>
    <path class="cls-2" d="M16.5,53.5v.12c0,4.35,1.5,7.88,5.87,7.88h19.27c4.37,0,5.87-3.53,5.87-7.88v-.12h-31ZM32,58.56c-.83,0-1.5-.67-1.5-1.5s.67-1.5,1.5-1.5,1.5.67,1.5,1.5-.67,1.5-1.5,1.5Z"/>
    <path class="cls-2" d="M16.5,12.5v-.09c-.01-3.25,2.61-5.9,5.87-5.91h19.27c3.25.01,5.88,2.66,5.87,5.91h0v.09h-31Z"/>
    <path class="cls-1" d="M32,59.06c-1.1,0-2-.9-2-2s.9-2,2-2,2,.9,2,2-.9,2-2,2ZM32,56.06c-.55,0-1,.45-1,1s.45,1,1,1,1-.45,1-1-.45-1-1-1Z"/>
    <path class="cls-1" d="M35.5,11.06h-7c-.28,0-.5-.22-.5-.5s.22-.5.5-.5h7c.28,0,.5.22.5.5s-.22.5-.5.5Z"/>
    <path class="cls-1" d="M37.5,26.5h-15c-.28,0-.5-.22-.5-.5s.22-.5.5-.5h15c.28,0,.5.22.5.5s-.22.5-.5.5Z"/>
    <path class="cls-1" d="M41.5,21.5h-19c-.28,0-.5-.22-.5-.5s.22-.5.5-.5h19c.28,0,.5.22.5.5s-.22.5-.5.5Z"/>
    <path class="cls-1" d="M48,12.43c.02-3.53-2.83-6.41-6.37-6.43h-19.27c-3.53.02-6.38,2.9-6.37,6.43v43.14c-.01,3.53,2.84,6.41,6.37,6.43h19.27c3.53-.02,6.38-2.9,6.37-6.43v-6.07c0-.28-.22-.5-.5-.5s-.5.22-.5.5v6.07c.02,2.98-2.39,5.41-5.37,5.43h-19.27c-2.98-.02-5.38-2.45-5.37-5.43V12.43c-.02-2.98,2.39-5.41,5.37-5.43h19.27c2.98.02,5.38,2.45,5.37,5.43v15.86c0,.28.22.5.5.5s.5-.22.5-.5v-15.86Z"/>
  </g>
  <g>
    <path class="cls-2" d="M60.87,46.51h-17.61v-9.95c-.22-.27-.49-.51-.79-.68-.21-.04-.34.33-.34.68v9.83l1.49,1.11h16.96c.35-.03.67-.2.9-.47l-.62-.51Z"/>
    <path class="cls-1" d="M61.93,35.43h-.01l-1.07-1.04v-3.88c.01-.13-.04-.26-.14-.35-.1-.1-.23-.15-.37-.15h-3.99l-3.98-3.86c-.21-.19-.54-.19-.75,0l-3.98,3.86h-3.98c-.28,0-.52.22-.53.5v3.87l-1.07,1.04h0s0,0,0,0c-.36.36-.57.85-.57,1.36v9.25c.03,1.1.93,1.97,2.02,1.96h16.95c1.1.01,2.01-.86,2.03-1.96v-9.25c0-.51-.2-1-.57-1.36ZM55.51,41.41l5.9-4.85c.03.08.04.15.05.23v9.25c0,.07-.02.14-.04.2l-5.9-4.83ZM52.01,27.21l2.88,2.8h-5.77l2.89-2.8ZM59.82,31.01l-.02,5.54-5.1,4.19-2.36-1.93c-.19-.15-.46-.16-.66,0,0,0-.02,0-.03,0l-2.36,1.92-5.09-4.19v-5.54h15.62ZM42.58,46.2c-.02-.05-.03-.11-.03-.16v-9.25c0-.08.02-.16.05-.23l5.89,4.84-5.9,4.8ZM60.47,47h-16.94c-.08,0-.17-.02-.25-.05l8.72-7.1,8.67,7.11c-.06.02-.13.04-.2.04h0Z"/>
    <ellipse class="cls-2" cx="48.87" cy="35.19" rx=".8" ry=".82"/>
    <path class="cls-1" d="M48.86,36.51c-.29,0-.57-.1-.8-.28-.57-.45-.67-1.28-.22-1.86.21-.27.52-.44.86-.49.34-.04.68.05.95.27.57.45.67,1.28.22,1.86-.21.27-.52.44-.86.49-.05,0-.1.01-.16.01ZM48.86,34.87h-.03c-.17.03-.29.2-.26.37.01.08.05.15.12.2.06.05.14.07.21.06.17-.03.29-.18.26-.35,0-.08-.05-.16-.12-.21-.05-.04-.11-.06-.18-.06h0Z"/>
    <ellipse class="cls-2" cx="52.14" cy="35.19" rx=".8" ry=".82"/>
    <path class="cls-1" d="M52.14,36.51c-.29,0-.57-.1-.8-.28-.57-.45-.67-1.28-.22-1.86.21-.27.52-.45.86-.49.34-.04.68.05.95.27.57.45.67,1.28.22,1.86-.21.27-.52.44-.86.49-.05,0-.1,0-.15.01ZM52.14,34.87h-.03c-.17.03-.29.18-.26.35,0,.08.05.16.12.21.06.05.14.07.21.06.17-.03.29-.18.26-.35,0-.08-.05-.16-.12-.21-.05-.04-.11-.06-.18-.06h0Z"/>
    <ellipse class="cls-2" cx="55.42" cy="35.19" rx=".8" ry=".82"/>
    <path class="cls-1" d="M55.42,36.51c-.29,0-.57-.1-.8-.28-.57-.45-.67-1.28-.22-1.86.21-.27.52-.44.86-.49.34-.04.68.05.95.27.57.45.67,1.28.22,1.86-.21.27-.52.44-.86.49-.05,0-.1.01-.15.01ZM55.42,34.87h-.03c-.17.03-.29.18-.26.35,0,.08.05.16.12.21.06.05.14.07.21.06.18-.03.29-.2.26-.37-.01-.08-.05-.14-.11-.19-.05-.04-.11-.06-.18-.06h0Z"/>
  </g>
  <path class="cls-1" d="M58.5,16.5h1v1c0,.28.22.5.5.5s.5-.22.5-.5v-1h1c.28,0,.5-.22.5-.5s-.22-.5-.5-.5h-1v-1c0-.28-.22-.5-.5-.5s-.5.22-.5.5v1h-1c-.28,0-.5.22-.5.5s.22.5.5.5Z"/>
  <path class="cls-1" d="M7.5,4.5c.28,0,.5-.22.5-.5s-.22-.5-.5-.5h-3V.5c0-.28-.22-.5-.5-.5s-.5.22-.5.5v3H.5c-.28,0-.5.22-.5.5s.22.5.5.5h3v3c0,.28.22.5.5.5s.5-.22.5-.5v-3h3Z"/>
  <path class="cls-1" d="M63.5,59.5h-3v-3c0-.28-.22-.5-.5-.5s-.5.22-.5.5v3h-3c-.28,0-.5.22-.5.5s.22.5.5.5h3v3c0,.28.22.5.5.5s.5-.22.5-.5v-3h3c.28,0,.5-.22.5-.5s-.22-.5-.5-.5Z"/>
  <path class="cls-1" d="M10.25,35.5h-1v-1c0-.28-.22-.5-.5-.5s-.5.22-.5.5v1h-1c-.28,0-.5.22-.5.5s.22.5.5.5h1v1c0,.28.22.5.5.5s.5-.22.5-.5v-1h1c.28,0,.5-.22.5-.5s-.22-.5-.5-.5Z"/>
  <path class="cls-1" d="M36.75,46h-.5v-.5c0-.28-.22-.5-.5-.5s-.5.22-.5.5v.5h-.5c-.28,0-.5.22-.5.5s.22.5.5.5h.5v.5c0,.28.22.5.5.5s.5-.22.5-.5v-.5h.5c.28,0,.5-.22.5-.5s-.22-.5-.5-.5Z"/>
</svg>