<?xml version="1.0" encoding="UTF-8"?>
<svg id="illustartions" xmlns="http://www.w3.org/2000/svg" viewBox="0 0 64 64">
  <defs>
    <style>
      .cls-1 {
        fill: #ded6fc;
      }

      .cls-2 {
        fill: #999;
      }
    </style>
  </defs>
  <g>
    <path class="cls-1" d="M16.5,53.5v.12c0,4.35,1.5,7.88,5.87,7.88h19.27c4.37,0,5.87-3.53,5.87-7.88v-.12h-31ZM32,58.56c-.83,0-1.5-.67-1.5-1.5s.67-1.5,1.5-1.5,1.5.67,1.5,1.5-.67,1.5-1.5,1.5Z"/>
    <path class="cls-1" d="M16.5,12.5v-.09c-.01-3.25,2.61-5.9,5.87-5.91h19.27c3.25.01,5.88,2.66,5.87,5.91h0v.09h-31Z"/>
    <path class="cls-2" d="M41.63,62h-19.27c-3.53-.02-6.38-2.9-6.37-6.43V12.43c-.01-3.53,2.84-6.41,6.37-6.43h19.27c3.53.02,6.38,2.9,6.37,6.43v16.57h-1V12.43c.02-2.98-2.39-5.41-5.37-5.43h-19.27c-2.98.02-5.38,2.45-5.37,5.43v43.14c-.02,2.98,2.39,5.41,5.37,5.43h19.27c2.98-.02,5.38-2.45,5.37-5.43v-8.07c0-.28.22-.5.5-.5s.5.22.5.5v8.07c.01,3.53-2.84,6.41-6.37,6.43Z"/>
    <path class="cls-2" d="M32,59.06c-1.1,0-2-.9-2-2s.9-2,2-2,2,.9,2,2-.9,2-2,2ZM32,56.06c-.55,0-1,.45-1,1s.45,1,1,1,1-.45,1-1-.45-1-1-1Z"/>
    <path class="cls-2" d="M35.5,11.06h-7c-.28,0-.5-.22-.5-.5s.22-.5.5-.5h7c.28,0,.5.22.5.5s-.22.5-.5.5Z"/>
    <path class="cls-2" d="M37.5,26.5h-15c-.28,0-.5-.22-.5-.5s.22-.5.5-.5h15c.28,0,.5.22.5.5s-.22.5-.5.5Z"/>
    <path class="cls-2" d="M41.5,21.5h-19c-.28,0-.5-.22-.5-.5s.22-.5.5-.5h19c.28,0,.5.22.5.5s-.22.5-.5.5Z"/>
  </g>
  <path class="cls-2" d="M35.08,49.5c-.08,0-.15-.02-.22-.05-.17-.08-.28-.26-.28-.45v-3.24c-1.13-.14-2.17-.68-2.93-1.52-.8-.87-1.21-2.03-1.14-3.21v-5.91c.08-2.58,2.2-4.62,4.78-4.61h13.53c2.57-.01,4.66,2.05,4.69,4.62v5.93c0,2.63-2.07,4.8-4.7,4.93h-9.16l-4.25,3.41c-.09.07-.2.11-.31.11ZM35.29,31.5c-2.03-.01-3.71,1.59-3.78,3.62v5.93c-.05.92.27,1.83.89,2.52.67.74,1.61,1.18,2.61,1.23.29,0,.54.21.58.5v2.66l3.57-2.86c.09-.07.2-.11.31-.11h9.33c2.08-.12,3.71-1.84,3.7-3.93v-5.94c-.03-2.02-1.68-3.63-3.7-3.61h-13.51Z"/>
  <path class="cls-2" d="M42.5,41.5h-7c-.28,0-.5-.22-.5-.5s.22-.5.5-.5h7c.28,0,.5.22.5.5s-.22.5-.5.5Z"/>
  <path class="cls-2" d="M46.5,38.5h-11c-.28,0-.5-.22-.5-.5s.22-.5.5-.5h11c.28,0,.5.22.5.5s-.22.5-.5.5Z"/>
  <path class="cls-2" d="M48.5,35.5h-13c-.28,0-.5-.22-.5-.5s.22-.5.5-.5h13c.28,0,.5.22.5.5s-.22.5-.5.5Z"/>
  <path class="cls-2" d="M3.5,25.5h-1v-1c0-.28-.22-.5-.5-.5s-.5.22-.5.5v1H.5c-.28,0-.5.22-.5.5s.22.5.5.5h1v1c0,.28.22.5.5.5s.5-.22.5-.5v-1h1c.28,0,.5-.22.5-.5s-.22-.5-.5-.5Z"/>
  <path class="cls-2" d="M15.5,3.5h-3V.5c0-.28-.22-.5-.5-.5s-.5.22-.5.5v3h-3c-.28,0-.5.22-.5.5s.22.5.5.5h3v3c0,.28.22.5.5.5s.5-.22.5-.5v-3h3c.28,0,.5-.22.5-.5s-.22-.5-.5-.5Z"/>
  <path class="cls-2" d="M63.5,59.5h-3v-3c0-.28-.22-.5-.5-.5s-.5.22-.5.5v3h-3c-.28,0-.5.22-.5.5s.22.5.5.5h3v3c0,.28.22.5.5.5s.5-.22.5-.5v-3h3c.28,0,.5-.22.5-.5s-.22-.5-.5-.5Z"/>
</svg>