<?xml version="1.0" encoding="UTF-8"?>
<svg id="export" xmlns="http://www.w3.org/2000/svg" viewBox="0 0 64 64">
  <defs>
    <style>
      .cls-1 {
        fill: #3c5583;
      }

      .cls-2 {
        fill: #dff0fe;
      }
    </style>
  </defs>
  <g id="illustration-email">
    <path class="cls-1" d="M63.5,59.5h-3v-3c0-.28-.22-.5-.5-.5s-.5.22-.5.5v3h-3c-.28,0-.5.22-.5.5s.22.5.5.5h3v3c0,.28.22.5.5.5s.5-.22.5-.5v-3h3c.28,0,.5-.22.5-.5s-.22-.5-.5-.5Z"/>
    <path class="cls-1" d="M21,20h-1.5v-1.5c0-.28-.22-.5-.5-.5s-.5.22-.5.5v1.5h-1.5c-.28,0-.5.22-.5.5s.22.5.5.5h1.5v1.5c0,.28.22.5.5.5s.5-.22.5-.5v-1.5h1.5c.28,0,.5-.22.5-.5s-.22-.5-.5-.5Z"/>
    <path class="cls-1" d="M57,1.5h-1V.5c0-.28-.22-.5-.5-.5s-.5.22-.5.5v1h-1c-.28,0-.5.22-.5.5s.22.5.5.5h1v1c0,.28.22.5.5.5s.5-.22.5-.5v-1h1c.28,0,.5-.22.5-.5s-.22-.5-.5-.5Z"/>
    <path class="cls-1" d="M7.5,8.5h-3v-3c0-.28-.22-.5-.5-.5s-.5.22-.5.5v3H.5c-.28,0-.5.22-.5.5s.22.5.5.5h3v3c0,.28.22.5.5.5s.5-.22.5-.5v-3h3c.28,0,.5-.22.5-.5s-.22-.5-.5-.5Z"/>
    <path class="cls-2" d="M54,55.5H13c-1.93,0-3.5-.38-3.5-3.5v-22c0-.83.67-.6,1.5-.6s1.5,1.07,1.5,1.07v21.53c0,.28.22.5.5.5h43c.29-.05.59.07.77.3.23.27-.08,2.7-2.77,2.7Z"/>
    <circle id="Dot" class="cls-2" cx="41" cy="27.5" r="2"/>
    <path class="cls-1" d="M41,30c-1.38,0-2.5-1.12-2.5-2.5s1.12-2.5,2.5-2.5,2.5,1.12,2.5,2.5-1.12,2.5-2.5,2.5ZM41,26c-.83,0-1.5.67-1.5,1.5s.67,1.5,1.5,1.5,1.5-.67,1.5-1.5h0c0-.83-.67-1.5-1.5-1.5Z"/>
    <circle id="Dot-2" class="cls-2" cx="33" cy="27.5" r="2"/>
    <path class="cls-1" d="M33,30c-1.38,0-2.5-1.12-2.5-2.5s1.12-2.5,2.5-2.5,2.5,1.12,2.5,2.5-1.12,2.5-2.5,2.5ZM33,26c-.83,0-1.5.67-1.5,1.5s.67,1.5,1.5,1.5,1.5-.67,1.5-1.5h0c0-.83-.67-1.5-1.5-1.5Z"/>
    <circle id="Dot-3" class="cls-2" cx="25" cy="27.5" r="2"/>
    <path class="cls-1" d="M25,30c-1.38,0-2.5-1.12-2.5-2.5s1.12-2.5,2.5-2.5,2.5,1.12,2.5,2.5-1.12,2.5-2.5,2.5ZM25,26c-.83,0-1.5.67-1.5,1.5s.67,1.5,1.5,1.5,1.5-.67,1.5-1.5h0c0-.83-.67-1.5-1.5-1.5Z"/>
    <path class="cls-1" d="M55.37,28.17l-1.87-1.74v-11.43c0-.28-.22-.5-.5-.5h-12.8l-6.86-6.37c-.2-.17-.48-.17-.68,0l-6.86,6.37h-12.8c-.28,0-.5.22-.5.5v11.43l-1.87,1.74c-.98.36-1.63,1.29-1.63,2.33v23c0,.98.57,1.86,1.46,2.27.31.14.65.22,1,.23h43c.35,0,.69-.09,1-.23.92-.38,1.52-1.27,1.54-2.27v-23c0-1.04-.65-1.97-1.63-2.33ZM53.5,27.79l1.19,1.21-1.19,1v-2.21ZM33,9.18l5.73,5.32h-11.46l5.73-5.32ZM13.5,15.5h39v15.35l-13.32,11.15-5.86-4.91c-.18-.16-.46-.16-.64,0l-5.86,4.91-13.32-11.15v-15.35ZM12.5,27.79v2.21l-1.19-1,1.19-1.21ZM11.39,55c-.79-.06-1.39-.71-1.39-1.5v-23c0-.37.13-.73.37-1l15.63,13.19-14.61,12.31ZM12.93,55l20.07-16.85,20.07,16.85H12.93ZM56,53.5c0,.79-.6,1.44-1.39,1.5l-14.61-12.31,15.63-13.16c.24.27.38.63.37,1v22.97Z"/>
  </g>
</svg>