<?xml version="1.0" encoding="UTF-8"?>
<svg id="illustartions" xmlns="http://www.w3.org/2000/svg" viewBox="0 0 64 64">
  <defs>
    <style>
      .cls-1 {
        fill: #0a0a0a;
      }

      .cls-2 {
        fill: #e81e75;
      }
    </style>
  </defs>
  <path class="cls-2" d="M16.5,51.5v.12c0,4.35,2.63,7.88,5.87,7.88h19.27c3.24,0,5.87-3.53,5.87-7.88v-.12h-31ZM32,56.56c-.83,0-1.5-.67-1.5-1.5s.67-1.5,1.5-1.5,1.5.67,1.5,1.5-.67,1.5-1.5,1.5h0Z"/>
  <path class="cls-2" d="M16.5,10.5v-.09c-.01-3.25,2.61-5.9,5.87-5.91h19.27c3.25.01,5.88,2.66,5.87,5.91h0v.09h-31Z"/>
  <path class="cls-1" d="M41.64,60h-19.27c-3.53-.02-6.38-2.9-6.37-6.43V10.43c-.02-3.52,2.84-6.41,6.36-6.43h19.27c3.53.02,6.38,2.9,6.37,6.43v11.51s0,.02,0,.03v31.6c.02,3.52-2.84,6.41-6.36,6.43ZM41.63,5h-19.26c-2.97.02-5.38,2.45-5.37,5.43v43.15c-.01,2.98,2.39,5.41,5.37,5.43h19.26c2.97-.02,5.38-2.45,5.37-5.43v-31.57s0-.02,0-.03v-11.54c.01-2.98-2.39-5.41-5.37-5.43Z"/>
  <path class="cls-1" d="M32,57.06c-1.1,0-2-.9-2-2s.9-2,2-2,2,.9,2,2-.9,2-2,2ZM32,54.06c-.55,0-1,.45-1,1s.45,1,1,1,1-.45,1-1-.45-1-1-1Z"/>
  <path class="cls-1" d="M35.5,9.06h-7c-.28,0-.5-.22-.5-.5s.22-.5.5-.5h7c.28,0,.5.22.5.5s-.22.5-.5.5Z"/>
  <path class="cls-1" d="M37.5,24.5h-15c-.28,0-.5-.22-.5-.5s.22-.5.5-.5h15c.28,0,.5.22.5.5s-.22.5-.5.5Z"/>
  <path class="cls-1" d="M41.5,19.5h-19c-.28,0-.5-.22-.5-.5s.22-.5.5-.5h19c.28,0,.5.22.5.5s-.22.5-.5.5Z"/>
  <path class="cls-1" d="M3.5,25h-1v-1c0-.28-.22-.5-.5-.5s-.5.22-.5.5v1H.5c-.28,0-.5.22-.5.5s.22.5.5.5h1v1c0,.28.22.5.5.5s.5-.22.5-.5v-1h1c.28,0,.5-.22.5-.5s-.22-.5-.5-.5Z"/>
  <path class="cls-1" d="M63.5,18h-3v-3c0-.28-.22-.5-.5-.5s-.5.22-.5.5v3h-3c-.28,0-.5.22-.5.5s.22.5.5.5h3v3c0,.28.22.5.5.5s.5-.22.5-.5v-3h3c.28,0,.5-.22.5-.5s-.22-.5-.5-.5Z"/>
  <path class="cls-1" d="M10.25,3.5h-3V.5c0-.28-.22-.5-.5-.5s-.5.22-.5.5v3h-3c-.28,0-.5.22-.5.5s.22.5.5.5h3v3c0,.28.22.5.5.5s.5-.22.5-.5v-3h3c.28,0,.5-.22.5-.5s-.22-.5-.5-.5Z"/>
  <path class="cls-1" d="M57.5,59.5h-3v-3c0-.28-.22-.5-.5-.5s-.5.22-.5.5v3h-3c-.28,0-.5.22-.5.5s.22.5.5.5h3v3c0,.28.22.5.5.5s.5-.22.5-.5v-3h3c.28,0,.5-.22.5-.5s-.22-.5-.5-.5Z"/>
</svg>