<svg xmlns="http://www.w3.org/2000/svg" width="64" height="64" viewBox="0 0 64 64"><defs><style>.a{fill:#dff0fe;}.b{fill:#4788c7;}</style></defs><path class="a" d="M305.5,309.5v-2.992l31-.008v2.992Z" transform="translate(-291 -258)"/><path class="a" d="M326,283h10l-10-12Z" transform="translate(-291 -258)"/><g transform="translate(-291 -258)"><path class="b" d="M336.889,282.7a.125.125,0,0,0-.008-.023l-10.656-12.5-.012-.006a.491.491,0,0,0-.369-.17H305.5a.5.5,0,0,0-.5.5v39a.5.5,0,0,0,.5.5h31a.5.5,0,0,0,.5-.5V283A.488.488,0,0,0,336.889,282.7Zm-1.472-.2h-9.073V271.857ZM336,309H306V271h19.344v12a.5.5,0,0,0,.5.5H336Z"/><path class="b" d="M316.5,301a.5.5,0,0,1-.37-.164l-5-5.5a.5.5,0,0,1,0-.672l5-5.5a.5.5,0,0,1,.74.672L312.176,295l4.694,5.164a.5.5,0,0,1-.37.836Z"/><path class="b" d="M318,303a.508.508,0,0,1-.186-.036.5.5,0,0,1-.278-.65l6-15a.5.5,0,0,1,.928.372l-6,15A.5.5,0,0,1,318,303Z"/><path class="b" d="M325.5,301a.5.5,0,0,1-.37-.836L329.824,295l-4.694-5.164a.5.5,0,1,1,.74-.672l5,5.5a.5.5,0,0,1,0,.672l-5,5.5A.5.5,0,0,1,325.5,301Z"/></g><path class="b" d="M325.5,319.5h-1v-1a.5.5,0,0,0-1,0v1h-1a.5.5,0,0,0,0,1h1v1a.5.5,0,0,0,1,0v-1h1a.5.5,0,0,0,0-1Z" transform="translate(-291 -258)"/><path class="b" d="M298.5,287.5h-3v-3a.5.5,0,0,0-1,0v3h-3a.5.5,0,0,0,0,1h3v3a.5.5,0,0,0,1,0v-3h3a.5.5,0,0,0,0-1Z" transform="translate(-291 -258)"/><path class="b" d="M354.5,261.5h-3v-3a.5.5,0,0,0-1,0v3h-3a.5.5,0,0,0,0,1h3v3a.5.5,0,0,0,1,0v-3h3a.5.5,0,0,0,0-1Z" transform="translate(-291 -258)"/><path class="b" d="M347.5,273.5h-1v-1a.5.5,0,0,0-1,0v1h-1a.5.5,0,0,0,0,1h1v1a.5.5,0,0,0,1,0v-1h1a.5.5,0,0,0,0-1Z" transform="translate(-291 -258)"/><path class="b" d="M312.5,279.5h-1v-1a.5.5,0,0,0-1,0v1h-1a.5.5,0,0,0,0,1h1v1a.5.5,0,0,0,1,0v-1h1a.5.5,0,0,0,0-1Z" transform="translate(-291 -258)"/></svg>