<?xml version="1.0" encoding="UTF-8"?>
<svg id="illustartions" xmlns="http://www.w3.org/2000/svg" viewBox="0 0 64 64">
  <defs>
    <style>
      .cls-1 {
        isolation: isolate;
      }

      .cls-1, .cls-2 {
        fill: #ded6fc;
      }

      .cls-3 {
        fill: #999;
      }
    </style>
  </defs>
  <g id="communication_illu" data-name="communication illu">
    <path id="Path_250" data-name="Path 250" class="cls-2" d="M8.3,13.83v-2.37c0-1.36,1.1-2.45,2.46-2.46h46.49c1.36,0,2.45,1.1,2.46,2.46v2.37H8.3Z"/>
    <path class="cls-1" d="M34.75,39h-9c-.28,0-.28-1,0-1h9c.28,0,.28,1,0,1Z"/>
    <path class="cls-1" d="M52.5,46.67h-31.5c-.28,0-.28-1,0-1h31.5c.28,0,.5.22.5.5s-.22.5-.5.5Z"/>
    <path class="cls-1" d="M34.28,31.33h-8.56c-.3,0-.3-1,0-1h8.56c.3,0,.3,1,0,1Z"/>
    <path class="cls-1" d="M34.5,22.5H14.5c-.28,0-.5-.22-.5-.5s.22-.5.5-.5h20c.28,0,.28,1,0,1Z"/>
    <g>
      <path class="cls-2" d="M25.49,31.07c-.11-2.01-1.56-3.62-3.44-4.07.31.64.5,1.34.51,2.08,0,0,0,7.31,0,7.41-.14,2.47-2.28,4.35-4.77,4.21,0,0-15.85,0-15.91,0-.48,0-.43-.09-.87-.22.76,1.75,1.97,3.03,4.01,3.13h10.85l4.79,4.37s.14-4.62.21-4.63c2.59-.2,4.6-2.31,4.63-4.88,0,0,0-7.31,0-7.41Z"/>
      <path class="cls-3" d="M21.2,31.7H4.52c-.28,0-.5-.22-.5-.5s.22-.5.5-.5h16.68c.28,0,.5.22.5.5s-.22.5-.5.5Z"/>
      <path class="cls-3" d="M18.73,35.41H4.52c-.28,0-.5-.22-.5-.5s.22-.5.5-.5h14.21c.28,0,.5.22.5.5s-.22.5-.5.5Z"/>
      <path class="cls-3" d="M14.4,39.11H4.52c-.28,0-.5-.22-.5-.5s.22-.5.5-.5h9.88c.28,0,.5.22.5.5s-.22.5-.5.5Z"/>
    </g>
    <g>
      <path class="cls-2" d="M59.36,18.4c.05.3.09.6.09.91v13c0,2.75-2.25,5-5,5h-19c-.31,0-.61-.04-.91-.09.43,2.32,2.47,4.09,4.91,4.09h.76v4.29l4.66-4.29h13.58c2.75,0,5-2.25,5-5v-13c0-2.44-1.77-4.48-4.09-4.91Z"/>
      <path class="cls-3" d="M55,23.5h-17c-.28,0-.5-.22-.5-.5s.22-.5.5-.5h17c.28,0,.5.22.5.5s-.22.5-.5.5Z"/>
      <path class="cls-3" d="M53,27.5h-15c-.28,0-.5-.22-.5-.5s.22-.5.5-.5h15c.28,0,.5.22.5.5s-.22.5-.5.5Z"/>
      <path class="cls-3" d="M48,31.5h-10c-.28,0-.5-.22-.5-.5s.22-.5.5-.5h10c.28,0,.5.22.5.5s-.22.5-.5.5Z"/>
      <path class="cls-3" d="M53,35.5h-15c-.28,0-.5-.22-.5-.5s.22-.5.5-.5h15c.28,0,.5.22.5.5s-.22.5-.5.5Z"/>
    </g>
    <path class="cls-3" d="M60.2,18.13v-6.74c0-1.58-1.3-2.88-2.89-2.88H10.68c-1.58,0-2.88,1.3-2.89,2.89v15.11c-1.54,0-2.59,0-2.64,0-.03,0-.05,0-.08,0C2.31,26.5.04,28.72,0,31.5v7.05c0,3,2.33,5.46,5.36,5.6h2.44v8.32c0,1.58,1.3,2.88,2.89,2.89h46.63c1.58,0,2.88-1.3,2.89-2.89v-10.9c2.2-.72,3.8-2.79,3.8-5.23v-13c0-2.44-1.6-4.51-3.8-5.23ZM8.8,11.46c0-1.08.88-1.96,1.96-1.96h46.49c1.07,0,1.95.88,1.96,1.95v1.88H8.8v-1.87ZM1,38.56v-7.04c.04-2.23,1.86-4.01,4.08-4.01.02,0,.04,0,.07,0,.07,0,13.05,0,15.66,0,0,0,.02,0,.03,0,2.18-.12,4.04,1.54,4.16,3.7,0,.19,0,5.37,0,7.34-.03,2.31-1.79,4.18-4.12,4.36-.04,0-.08,0-.12,0-.13,0-.27.05-.36.14-.1.09-.15.22-.15.36v3.45l-3.87-3.57c-.09-.09-.21-.13-.34-.13H5.38c-2.46-.12-4.39-2.14-4.38-4.6ZM59.2,52.47c0,1.04-.85,1.89-1.89,1.89H10.69c-1.04,0-1.89-.85-1.89-1.89v-8.32h7.04l4.57,4.21c.09.09.22.13.34.13.07,0,.14-.01.2-.04.18-.08.3-.26.3-.46v-4.12c2.7-.33,4.73-2.57,4.76-5.32,0-2.72,0-7.29,0-7.39-.15-2.71-2.48-4.8-5.2-4.66-.36,0-7.49,0-11.99,0v-12.18h50.41v3.58c-.23-.03-.46-.05-.7-.05h-19c-3.03,0-5.5,2.47-5.5,5.5v13c0,3.03,2.47,5.5,5.5,5.5h.26v3.79c0,.2.12.38.3.46.06.03.13.04.2.04.12,0,.24-.05.34-.13l4.51-4.16h13.39c.24,0,.47-.02.7-.05v10.67ZM63,36.35c0,2.48-2.02,4.5-4.5,4.5h-13.58c-.13,0-.25.05-.34.13l-3.82,3.52v-3.15c0-.28-.22-.5-.5-.5h-.76c-2.48,0-4.5-2.02-4.5-4.5v-13c0-2.48,2.02-4.5,4.5-4.5h19c2.48,0,4.5,2.02,4.5,4.5v13Z"/>
    <circle id="Ellipse_46" data-name="Ellipse 46" class="cls-3" cx="11" cy="11.5" r=".5"/>
    <circle id="Ellipse_47" data-name="Ellipse 47" class="cls-3" cx="13" cy="11.5" r=".5"/>
    <circle id="Ellipse_48" data-name="Ellipse 48" class="cls-3" cx="15.17" cy="11.5" r=".5"/>
    <path id="_8" data-name="8" class="cls-3" d="M7.5,3.5h-3V.5c0-.28-.22-.5-.5-.5s-.5.22-.5.5v3H.5C.22,3.5,0,3.72,0,4s.22.5.5.5h3v3c0,.28.22.5.5.5s.5-.22.5-.5v-3h3c.28,0,.5-.22.5-.5s-.22-.5-.5-.5Z"/>
    <path id="_4" data-name="4" class="cls-3" d="M22,61.5h-1v-1c0-.28-.22-.5-.5-.5s-.5.22-.5.5v1h-1c-.28,0-.5.22-.5.5s.22.5.5.5h1v1c0,.28.22.5.5.5s.5-.22.5-.5v-1h1c.28,0,.5-.22.5-.5s-.22-.5-.5-.5Z"/>
  </g>
</svg>