<?xml version="1.0" encoding="UTF-8"?>
<svg id="illustartions" xmlns="http://www.w3.org/2000/svg" viewBox="0 0 64 64">
  <defs>
    <style>
      .cls-1 {
        fill: #0a0a0a;
      }

      .cls-2 {
        fill: #e81e75;
      }
    </style>
  </defs>
  <path class="cls-2" d="M52.77,52.61h-29.42c-.27,0-.48-.22-.48-.48l-.04-11.13c-.77.4-1.83,1-2.53,1-3.06,0-5.71-2.05-5.55-5.12.25-4.88,4.12-5.27,4.25-5.16.13.11.19.28.16.45-.05.31-.08.59-.08.85,0,2.8,2.28,5.08,5.07,5.08.79-.01,1.59-.21,2.31-.56.15-.07.35-.08.49.01.14.09.25.23.25.4v10.32h25.57c.27,0,.48.22.48.48v3.37c0,.27-.22.48-.48.48Z"/>
  <path class="cls-1" d="M54,53h-31.57v-11.2l-.04.02c-.82.4-1.71.62-2.62.64-3.19,0-5.77-2.58-5.77-5.77s2.58-5.77,5.77-5.77h0c.91,0,1.81.22,2.62.64l.04.02v-10.14h11.2l-.02-.04c-1.46-2.84-.34-6.31,2.5-7.77,2.84-1.46,6.31-.34,7.77,2.5.85,1.65.85,3.62,0,5.27l-.02.04h10.14v10l-.67-.24c-.62-.22-1.27-.33-1.93-.33h0c-3.22-.04-5.86,2.53-5.9,5.75-.04,3.22,2.53,5.86,5.75,5.9.05,0,.1,0,.15,0h0c.66,0,1.31-.11,1.93-.33l.67-.24v11.07ZM23.43,52h29.57v-8.68c-.52.13-1.06.19-1.6.19h0c-3.77-.05-6.79-3.14-6.74-6.91.05-3.7,3.04-6.7,6.74-6.74h0c.54,0,1.08.06,1.6.19v-7.62h-10.78l.76-1.5c.35-.67.53-1.41.53-2.17.04-2.63-2.07-4.8-4.7-4.84-2.63-.04-4.8,2.07-4.84,4.7,0,.05,0,.09,0,.14,0,.75.18,1.5.53,2.17l.77,1.5h-11.83v10.77l-1.5-.76c-.67-.34-1.41-.52-2.16-.53h0c-2.63,0-4.77,2.14-4.77,4.77s2.14,4.77,4.77,4.77h.01c.75,0,1.49-.18,2.15-.52l1.5-.77v11.83Z"/>
  <path class="cls-1" d="M63.5,59.5h-3v-3c0-.28-.22-.5-.5-.5s-.5.22-.5.5v3h-3c-.28,0-.5.22-.5.5s.22.5.5.5h3v3c0,.28.22.5.5.5s.5-.22.5-.5v-3h3c.28,0,.5-.22.5-.5s-.22-.5-.5-.5Z"/>
  <path class="cls-1" d="M55.5,35.5h-1v-1c0-.28-.22-.5-.5-.5s-.5.22-.5.5v1h-1c-.28,0-.5.22-.5.5s.22.5.5.5h1v1c0,.28.22.5.5.5s.5-.22.5-.5v-1h1c.28,0,.5-.22.5-.5s-.22-.5-.5-.5Z"/>
  <path class="cls-1" d="M11.5,3.5h-3V.5c0-.28-.22-.5-.5-.5s-.5.22-.5.5v3h-3c-.28,0-.5.22-.5.5s.22.5.5.5h3v3c0,.28.22.5.5.5s.5-.22.5-.5v-3h3c.28,0,.5-.22.5-.5s-.22-.5-.5-.5Z"/>
  <path class="cls-1" d="M17.5,25.5h-1v-1c0-.28-.22-.5-.5-.5s-.5.22-.5.5v1h-1c-.28,0-.5.22-.5.5s.22.5.5.5h1v1c0,.28.22.5.5.5s.5-.22.5-.5v-1h1c.28,0,.5-.22.5-.5s-.22-.5-.5-.5Z"/>
  <path class="cls-1" d="M3.5,19.5h-1v-1c0-.28-.22-.5-.5-.5s-.5.22-.5.5v1H.5c-.28,0-.5.22-.5.5s.22.5.5.5h1v1c0,.28.22.5.5.5s.5-.22.5-.5v-1h1c.28,0,.5-.22.5-.5s-.22-.5-.5-.5Z"/>
</svg>