<?xml version="1.0" encoding="UTF-8"?>
<svg id="illustartions" xmlns="http://www.w3.org/2000/svg" viewBox="0 0 64 64">
  <defs>
    <style>
      .cls-1 {
        fill: #ef609d;
      }

      .cls-2 {
        fill: #999;
      }
    </style>
  </defs>
  <path class="cls-1" d="M53.46,52.46h-30.5v-11.24c-2.4,1.24-8.5,1.26-8.5-4.76,0-5,5.1-6,8.5-4.23v-10.56h5.39v26.89c0,.27.22.5.49.5h24.61v3.4h0Z"/>
  <path class="cls-2" d="M54,53h-31.57v-11.2l-.04.02c-.81.42-1.71.6-2.62.63-3.18,0-5.77-2.59-5.77-5.77s2.59-5.77,5.77-5.77c.91,0,1.81.22,2.62.64l.04.02v-10.14h11.2l-.02-.04c-.42-.81-.64-1.71-.64-2.62,0-3.18,2.59-5.77,5.77-5.77s5.77,2.59,5.77,5.77c0,.91-.22,1.82-.64,2.62l-.02.04h10.14v10l-.67-.24c-.62-.22-1.27-.33-1.93-.33-3.21,0-5.83,2.61-5.83,5.82s2.61,5.82,5.82,5.82c.66,0,1.31-.11,1.93-.33l.67-.24v11.06h.02ZM23.43,52h29.57v-8.68c-.52.13-1.06.19-1.6.19-3.76,0-6.82-3.06-6.82-6.82s3.06-6.82,6.82-6.82c.54,0,1.08.06,1.6.19v-7.62h-10.78l.76-1.5c.35-.67.53-1.42.53-2.17,0-2.63-2.14-4.77-4.77-4.77s-4.77,2.14-4.77,4.77c0,.75.18,1.5.53,2.17l.77,1.5h-11.83v10.78l-1.5-.76c-.67-.34-1.41-.53-2.16-.53-2.63,0-4.77,2.14-4.77,4.77s2.14,4.77,4.77,4.77h.01c.75,0,1.49-.18,2.15-.52l1.5-.77v11.83h-.01Z"/>
  <path class="cls-2" d="M63.5,59.5h-3v-3c0-.28-.22-.5-.5-.5s-.5.22-.5.5v3h-3c-.28,0-.5.22-.5.5s.22.5.5.5h3v3c0,.28.22.5.5.5s.5-.22.5-.5v-3h3c.28,0,.5-.22.5-.5s-.22-.5-.5-.5Z"/>
  <path class="cls-2" d="M55.5,35.5h-1v-1c0-.28-.22-.5-.5-.5s-.5.22-.5.5v1h-1c-.28,0-.5.22-.5.5s.22.5.5.5h1v1c0,.28.22.5.5.5s.5-.22.5-.5v-1h1c.28,0,.5-.22.5-.5s-.22-.5-.5-.5Z"/>
  <path class="cls-2" d="M11.5,3.5h-3V.5c0-.28-.22-.5-.5-.5s-.5.22-.5.5v3h-3c-.28,0-.5.22-.5.5s.22.5.5.5h3v3c0,.28.22.5.5.5s.5-.22.5-.5v-3h3c.28,0,.5-.22.5-.5s-.22-.5-.5-.5Z"/>
  <path class="cls-2" d="M17.5,25.5h-1v-1c0-.28-.22-.5-.5-.5s-.5.22-.5.5v1h-1c-.28,0-.5.22-.5.5s.22.5.5.5h1v1c0,.28.22.5.5.5s.5-.22.5-.5v-1h1c.28,0,.5-.22.5-.5s-.22-.5-.5-.5Z"/>
  <path class="cls-2" d="M3.5,19.5h-1v-1c0-.28-.22-.5-.5-.5s-.5.22-.5.5v1H.5c-.28,0-.5.22-.5.5s.22.5.5.5h1v1c0,.28.22.5.5.5s.5-.22.5-.5v-1h1c.28,0,.5-.22.5-.5s-.22-.5-.5-.5Z"/>
</svg>