<svg xmlns="http://www.w3.org/2000/svg" width="64" height="64" viewBox="0 0 64 64"><defs><style>.a{fill:#dff0fe;}.b{fill:#4788c7;}</style></defs><path class="a" d="M103.932,310.5V298.987l-.767.392a5.2,5.2,0,0,1-2.4.58,5.27,5.27,0,0,1,0-10.54,5.2,5.2,0,0,1,2.4.581l.767.392v-10.46h11.515l-.393-.767a5.2,5.2,0,0,1-.581-2.4,5.271,5.271,0,1,1,9.96,2.4l-.393.767H134.5v8.8a6.237,6.237,0,0,0-2.108-.364A6.325,6.325,0,1,0,134.5,300.65v9.85Z" transform="translate(-81 -258)"/><path class="b" d="M135,311H103.433V299.8l-.04.02a6.132,6.132,0,0,1-2.623.635,5.77,5.77,0,1,1,0-11.54h.006a5.721,5.721,0,0,1,2.618.637l.038.019V279.433h11.2l-.021-.039a5.771,5.771,0,1,1,10.269,0l-.02.038H135v10l-.668-.239a5.756,5.756,0,0,0-1.932-.334h-.007a5.825,5.825,0,1,0,0,11.649h.007a5.719,5.719,0,0,0,1.932-.335l.669-.24Zm-30.567-1H134v-8.679a6.718,6.718,0,0,1-1.6.193h-.009a6.825,6.825,0,0,1,0-13.649h.008a6.716,6.716,0,0,1,1.6.193v-7.625H123.223l.764-1.5a4.717,4.717,0,0,0,.527-2.167,4.771,4.771,0,1,0-9.541,0,4.713,4.713,0,0,0,.525,2.165l.768,1.5H104.433v10.775l-1.495-.763a4.736,4.736,0,0,0-2.162-.526h0a4.77,4.77,0,1,0,0,9.54h.01a4.725,4.725,0,0,0,2.155-.524l1.5-.766Z" transform="translate(-81 -258)"/><path class="b" d="M144.5,317.5h-3v-3a.5.5,0,0,0-1,0v3h-3a.5.5,0,0,0,0,1h3v3a.5.5,0,0,0,1,0v-3h3a.5.5,0,0,0,0-1Z" transform="translate(-81 -258)"/><path class="b" d="M136.5,293.5h-1v-1a.5.5,0,0,0-1,0v1h-1a.5.5,0,0,0,0,1h1v1a.5.5,0,0,0,1,0v-1h1a.5.5,0,0,0,0-1Z" transform="translate(-81 -258)"/><path class="b" d="M92.5,261.5h-3v-3a.5.5,0,0,0-1,0v3h-3a.5.5,0,0,0,0,1h3v3a.5.5,0,0,0,1,0v-3h3a.5.5,0,0,0,0-1Z" transform="translate(-81 -258)"/><path class="b" d="M98.5,283.5h-1v-1a.5.5,0,0,0-1,0v1h-1a.5.5,0,0,0,0,1h1v1a.5.5,0,0,0,1,0v-1h1a.5.5,0,0,0,0-1Z" transform="translate(-81 -258)"/><path class="b" d="M84.5,277.5h-1v-1a.5.5,0,0,0-1,0v1h-1a.5.5,0,0,0,0,1h1v1a.5.5,0,0,0,1,0v-1h1a.5.5,0,0,0,0-1Z" transform="translate(-81 -258)"/></svg>