<?xml version="1.0" encoding="UTF-8"?>
<svg id="illustartions" xmlns="http://www.w3.org/2000/svg" viewBox="0 0 64 64">
  <defs>
    <style>
      .cls-1 {
        fill: #0a0a0a;
      }

      .cls-2 {
        fill: #0a0a0a;
      }

      .cls-3 {
        fill: #8d77f7;
      }
    </style>
  </defs>
  <g id="device-phone">
    <path class="cls-3" d="M20.5,49.5c0,3.21,1.11,6,4.35,6h14.29c3.24,0,4.35-2.86,4.35-6h-23ZM32,54c-.85,0-1.53-.67-1.53-1.5s.69-1.5,1.53-1.5,1.53.67,1.53,1.5-.69,1.5-1.53,1.5Z"/>
    <path class="cls-1" d="M32,54.5c-1.1,0-2-.9-2-2s.9-2,2-2,2,.9,2,2-.9,2-2,2ZM32,51.5c-.55,0-1,.45-1,1s.45,1,1,1,1-.45,1-1-.45-1-1-1Z"/>
    <path class="cls-3" d="M39.15,8.5h-14.29c-2.41.01-4.35,1.5-4.35,6h23c0-4.5-1.94-5.99-4.35-6Z"/>
    <path class="cls-1" d="M35.5,12h-7c-.28,0-.5-.22-.5-.5s.22-.5.5-.5h7c.28,0,.5.22.5.5s-.22.5-.5.5Z"/>
    <path class="cls-2" d="M39.23,56h-14.45c-2.65-.02-4.79-2.49-4.78-5.51V13.51c-.01-3.02,2.13-5.49,4.77-5.51h14.45c2.65.02,4.79,2.49,4.78,5.51v9.87s0,.02,0,.03v27.09c.01,3.02-2.13,5.49-4.77,5.51ZM39.22,8.86h-14.45c-2.23.01-4.04,2.1-4.03,4.65v36.98c-.01,2.55,1.8,4.64,4.03,4.65h14.45c2.23-.01,4.04-2.1,4.03-4.65v-27.06s0-.02,0-.03v-9.89c.01-2.55-1.8-4.64-4.03-4.65Z"/>
    <path class="cls-2" d="M11.5,25.5h-1v-1c0-.28-.22-.5-.5-.5s-.5.22-.5.5v1h-1c-.28,0-.5.22-.5.5s.22.5.5.5h1v1c0,.28.22.5.5.5s.5-.22.5-.5v-1h1c.28,0,.5-.22.5-.5s-.22-.5-.5-.5Z"/>
    <path class="cls-2" d="M39.5,41.5h-1v-1c0-.28-.22-.5-.5-.5s-.5.22-.5.5v1h-1c-.28,0-.5.22-.5.5s.22.5.5.5h1v1c0,.28.22.5.5.5s.5-.22.5-.5v-1h1c.28,0,.5-.22.5-.5s-.22-.5-.5-.5Z"/>
    <path class="cls-2" d="M63.5,12h-3v-3c0-.28-.22-.5-.5-.5s-.5.22-.5.5v3h-3c-.28,0-.5.22-.5.5s.22.5.5.5h3v3c0,.28.22.5.5.5s.5-.22.5-.5v-3h3c.28,0,.5-.22.5-.5s-.22-.5-.5-.5Z"/>
    <path class="cls-2" d="M7.5,3.5h-3V.5c0-.28-.22-.5-.5-.5s-.5.22-.5.5v3H.5c-.28,0-.5.22-.5.5s.22.5.5.5h3v3c0,.28.22.5.5.5s.5-.22.5-.5v-3h3c.28,0,.5-.22.5-.5s-.22-.5-.5-.5Z"/>
    <path class="cls-2" d="M57.5,59.5h-3v-3c0-.28-.22-.5-.5-.5s-.5.22-.5.5v3h-3c-.28,0-.5.22-.5.5s.22.5.5.5h3v3c0,.28.22.5.5.5s.5-.22.5-.5v-3h3c.28,0,.5-.22.5-.5s-.22-.5-.5-.5Z"/>
  </g>
</svg>