<?xml version="1.0" encoding="UTF-8"?>
<svg id="illustartions" xmlns="http://www.w3.org/2000/svg" viewBox="0 0 64 64">
  <defs>
    <style>
      .cls-1 {
        fill: #0a0a0a;
      }

      .cls-2 {
        fill: #e81e75;
      }
    </style>
  </defs>
  <path class="cls-2" d="M53.5,55.5c0,1.38-1.12,2-2.5,2h-30c-1.38,0-2.5-.62-2.5-2h-2v6c0,1.1.9,2,2,2h35c1.1,0,2-.9,2-2v-6h-2ZM36,62c-.83,0-1.5-.67-1.5-1.5s.67-1.5,1.5-1.5,1.5.67,1.5,1.5-.67,1.5-1.5,1.5Z"/>
  <path class="cls-2" d="M55.5,12.5v-2c0-1.1-.9-2-2-2H18.5c-1.1,0-2,.9-2,2v2h2c0-1.38,1.12-2,2.5-2h30c1.38,0,2.5.62,2.5,2h2Z"/>
  <path class="cls-1" d="M53.5,64H18.5c-1.38,0-2.5-1.12-2.5-2.5V10.5c0-1.38,1.12-2.5,2.5-2.5h35c1.38,0,2.5,1.12,2.5,2.5v51c0,1.38-1.12,2.5-2.5,2.5ZM18.5,9c-.83,0-1.5.67-1.5,1.5v51c0,.83.67,1.5,1.5,1.5h35c.83,0,1.5-.67,1.5-1.5V10.5c0-.83-.67-1.5-1.5-1.5H18.5Z"/>
  <path class="cls-1" d="M51.5,58h-31c-1.38,0-2.5-1.12-2.5-2.5V12.5c0-1.38,1.12-2.5,2.5-2.5h31c1.38,0,2.5,1.12,2.5,2.5v43c0,1.38-1.12,2.5-2.5,2.5ZM20.5,11c-.83,0-1.5.67-1.5,1.5v43c0,.83.67,1.5,1.5,1.5h31c.83,0,1.5-.67,1.5-1.5V12.5c0-.83-.67-1.5-1.5-1.5h-31Z"/>
  <path class="cls-1" d="M36,62.5c-1.1,0-2-.9-2-2s.9-2,2-2,2,.9,2,2-.9,2-2,2ZM36,59.5c-.55,0-1,.45-1,1s.45,1,1,1,1-.45,1-1-.45-1-1-1Z"/>
  <path class="cls-1" d="M25.5,33.5h-1v-1c0-.28-.22-.5-.5-.5s-.5.22-.5.5v1h-1c-.28,0-.5.22-.5.5s.22.5.5.5h1v1c0,.28.22.5.5.5s.5-.22.5-.5v-1h1c.28,0,.5-.22.5-.5s-.22-.5-.5-.5Z"/>
  <path class="cls-1" d="M63.5,15.5h-2v-2c0-.28-.22-.5-.5-.5s-.5.22-.5.5v2h-2c-.28,0-.5.22-.5.5s.22.5.5.5h2v2c0,.28.22.5.5.5s.5-.22.5-.5v-2h2c.28,0,.5-.22.5-.5s-.22-.5-.5-.5Z"/>
  <path class="cls-1" d="M11.5,5.5h-5V.5c0-.28-.22-.5-.5-.5s-.5.22-.5.5v5H.5c-.28,0-.5.22-.5.5s.22.5.5.5h5v5c0,.28.22.5.5.5s.5-.22.5-.5v-5h5c.28,0,.5-.22.5-.5s-.22-.5-.5-.5Z"/>
</svg>