<?xml version="1.0" encoding="UTF-8"?>
<svg id="illustartions" xmlns="http://www.w3.org/2000/svg" viewBox="0 0 64 64">
  <defs>
    <style>
      .cls-1 {
        fill: #0a0a0a;
      }

      .cls-2 {
        fill: #8d77f7;
        isolation: isolate;
      }
    </style>
  </defs>
  <g id="device-desktop">
    <rect class="cls-2" x="24.5" y="56" width="11" height="3"/>
    <path class="cls-2" d="M3.5,17c0-4.5.55-5,2.5-5h48c1.95,0,2.5.5,2.5,5-1.5,0-51.5,0-53,0Z"/>
    <path class="cls-1" d="M54.5,47.5H5.5c-1.38,0-2.5-1.12-2.5-2.5V14c0-1.38,1.12-2.5,2.5-2.5h49c1.38,0,2.5,1.12,2.5,2.5v31c0,1.38-1.12,2.5-2.5,2.5ZM5.5,12.5c-.83,0-1.5.67-1.5,1.5v31c0,.83.67,1.5,1.5,1.5h49c.83,0,1.5-.67,1.5-1.5V14c0-.83-.67-1.5-1.5-1.5H5.5Z"/>
    <circle class="cls-2" cx="30" cy="51.5" r="1.5"/>
    <path class="cls-1" d="M30,53.5c-1.1,0-2-.9-2-2s.9-2,2-2,2,.9,2,2-.9,2-2,2ZM30,50.5c-.55,0-1,.45-1,1s.45,1,1,1,1-.45,1-1-.45-1-1-1Z"/>
    <path class="cls-1" d="M56.5,8.5H3.5c-1.93,0-3.5,1.57-3.5,3.5v41c0,1.93,1.57,3.5,3.5,3.5h20.37s.53,3.71-.99,5.49c-.57.67-1.35,1-2.39,1.01-.28,0-.5.23-.5.5,0,.27.23.5.5.5h19c.28,0,.5-.22.5-.5s-.22-.5-.5-.5c-1.03,0-1.81-.32-2.39-.99-1.56-1.79-1.06-5.48-1.06-5.51h20.45c1.93,0,3.5-1.57,3.5-3.5V12c0-1.93-1.57-3.5-3.5-3.5ZM36.36,62.66c.1.12.21.23.33.33-1.09,0-10.08-.02-13.37-.01.12-.11.23-.23.34-.35,1.8-2.12,1.23-5.95,1.21-6.13h10.2c-.07.56-.44,4.15,1.3,6.16ZM59,53c0,1.38-1.12,2.5-2.5,2.5H3.5c-1.38,0-2.5-1.12-2.5-2.5V12c0-1.38,1.12-2.5,2.5-2.5h53c1.38,0,2.5,1.12,2.5,2.5v41Z"/>
    <path class="cls-1" d="M44.5,23.5h-1v-1c0-.28-.22-.5-.5-.5s-.5.22-.5.5v1h-1c-.28,0-.5.22-.5.5s.22.5.5.5h1v1c0,.28.22.5.5.5s.5-.22.5-.5v-1h1c.28,0,.5-.22.5-.5s-.22-.5-.5-.5Z"/>
    <path class="cls-1" d="M63.5,2.5h-2V.5c0-.28-.22-.5-.5-.5s-.5.22-.5.5v2h-2c-.28,0-.5.22-.5.5s.22.5.5.5h2v2c0,.28.22.5.5.5s.5-.22.5-.5v-2h2c.28,0,.5-.22.5-.5s-.22-.5-.5-.5Z"/>
  </g>
</svg>