<?xml version="1.0" encoding="UTF-8"?>
<svg id="export" xmlns="http://www.w3.org/2000/svg" width="64" height="64" viewBox="0 0 64 64">
  <defs>
    <style>
      .cls-1 {
        fill: #dff0fe;
      }

      .cls-2 {
        fill: #4788c7;
      }
    </style>
  </defs>
  <g id="edit-pen_illu">
    <g id="pen">
      <path id="Path_10377" data-name="Path 10377" class="cls-1" d="m24.81,42.13l-2.31,5.37,5.38-2.3-3.08-3.07Z"/>
      <path id="Path_10378" data-name="Path 10378" class="cls-1" d="m50.06,15.22l2.24-2.24c1.3-1.3,3.42-1.3,4.72,0,1.3,1.3,1.3,3.42,0,4.72l-2.24,2.24-4.72-4.72Z"/>
      <path class="cls-1" d="m52.78,21.95l-1.39-1.39-21.46,21.47c.32.13,1.35,1.2,1.42,1.36l21.43-21.44Z"/>
      <path class="cls-2" d="m57.38,12.62s0,0,0,0c-.72-.72-1.7-1.13-2.71-1.12-1.02,0-1.99.4-2.71,1.12l-2,2-.59.59-1.3,1.3h0s-22.5,22.51-22.5,22.51h.02s.01,0,.02,0h-.04s-4.06,9.48-4.06,9.48l9.5-4.06v-.07s0,.08,0,.08l22.48-22.5h0s1.3-1.3,1.3-1.3l.59-.59,2-2c1.5-1.5,1.5-3.93,0-5.43Zm-26.95,30.98l-7.03,3,3-7,.24-.24c.37.28.63.72.66,1.22,0,.06,0,.12,0,.18,1.1,0,1.99.89,1.99,1.99.76,0,1.19.25,1.43.56l-.29.29Zm1-1.01c-.33-.37-.77-.64-1.26-.75-.28-.95-1.03-1.68-1.98-1.95-.13-.5-.42-.95-.82-1.27l20.69-20.7h0s4.01,4.02,4.01,4.02l-20.64,20.65Zm21.35-21.36l-4.01-4.01,1.29-1.29,4.01,4.01-1.29,1.29Zm3.88-3.88l-1.88,1.88-4.01-4.01,1.88-1.88c.53-.53,1.25-.83,2.01-.83,1.57,0,2.84,1.27,2.84,2.84,0,.75-.3,1.48-.83,2.01Z"/>
    </g>
    <path id="_8" data-name="8" class="cls-2" d="m7.5,3.5h-3V.5c0-.28-.22-.5-.5-.5s-.5.22-.5.5v3H.5c-.28,0-.5.22-.5.5s.22.5.5.5h3v3c0,.28.22.5.5.5s.5-.22.5-.5v-3h3c.28,0,.5-.22.5-.5s-.22-.5-.5-.5Z"/>
    <path id="_4" data-name="4" class="cls-2" d="m19.5,52.5h-1v-1c0-.28-.22-.5-.5-.5s-.5.22-.5.5v1h-1c-.28,0-.5.22-.5.5s.22.5.5.5h1v1c0,.28.22.5.5.5s.5-.22.5-.5v-1h1c.28,0,.5-.22.5-.5s-.22-.5-.5-.5Z"/>
    <path id="_4-2" data-name="4" class="cls-2" d="m15.5,61.5h-1v-1c0-.28-.22-.5-.5-.5s-.5.22-.5.5v1h-1c-.28,0-.5.22-.5.5s.22.5.5.5h1v1c0,.28.22.5.5.5s.5-.22.5-.5v-1h1c.28,0,.5-.22.5-.5s-.22-.5-.5-.5Z"/>
    <path id="_8-2" data-name="8" class="cls-2" d="m63.5,39.5h-3v-3c0-.28-.22-.5-.5-.5s-.5.22-.5.5v3h-3c-.28,0-.5.22-.5.5s.22.5.5.5h3v3c0,.28.22.5.5.5s.5-.22.5-.5v-3h3c.28,0,.5-.22.5-.5s-.22-.5-.5-.5Z"/>
  </g>
</svg>