<?xml version="1.0" encoding="UTF-8"?>
<svg id="illustartions" xmlns="http://www.w3.org/2000/svg" viewBox="0 0 64 64">
  <defs>
    <style>
      .cls-1 {
        fill: #0a0a0a;
      }

      .cls-2 {
        fill: #e81e75;
      }
    </style>
  </defs>
  <path class="cls-1" d="M3.5,25h-1v-1c0-.28-.22-.5-.5-.5s-.5.22-.5.5v1H.5c-.28,0-.5.22-.5.5s.22.5.5.5h1v1c0,.28.22.5.5.5s.5-.22.5-.5v-1h1c.28,0,.5-.22.5-.5s-.22-.5-.5-.5Z"/>
  <path class="cls-1" d="M63.5,18h-3v-3c0-.28-.22-.5-.5-.5s-.5.22-.5.5v3h-3c-.28,0-.5.22-.5.5s.22.5.5.5h3v3c0,.28.22.5.5.5s.5-.22.5-.5v-3h3c.28,0,.5-.22.5-.5s-.22-.5-.5-.5Z"/>
  <path class="cls-1" d="M20.25,3.5h-3V.5c0-.28-.22-.5-.5-.5s-.5.22-.5.5v3h-3c-.28,0-.5.22-.5.5s.22.5.5.5h3v3c0,.28.22.5.5.5s.5-.22.5-.5v-3h3c.28,0,.5-.22.5-.5s-.22-.5-.5-.5Z"/>
  <path class="cls-1" d="M28.5,59.5h-3v-3c0-.28-.22-.5-.5-.5s-.5.22-.5.5v3h-3c-.28,0-.5.22-.5.5s.22.5.5.5h3v3c0,.28.22.5.5.5s.5-.22.5-.5v-3h3c.28,0,.5-.22.5-.5s-.22-.5-.5-.5Z"/>
  <path class="cls-2" d="M33.75,43.5h-10.25v-22s-.3-1,.25-1,2,.45,2,1v20.5h8c.55,0,1,.45,1,1s-1,.5-1,.5Z"/>
  <path class="cls-1" d="M34.25,44h-11c-.28,0-.5-.22-.5-.5v-23c0-.28.22-.5.5-.5h11c.28,0,.5.22.5.5s-.22.5-.5.5h-10.5v22h10.5c.28,0,.5.22.5.5s-.22.5-.5.5Z"/>
  <path class="cls-2" d="M44.75,40.5c-.55,0-1-.45-1-1v-6h-14.5c-.55,0-1-.45-1-1s.45-1,1-1l15.75.5.75,7.5c0,.55-.45,1-1,1Z"/>
  <path class="cls-1" d="M52.62,31.66l-7-7.5c-.19-.2-.51-.21-.71-.02-.1.09-.16.23-.16.36v7h-15.5c-.28,0-.5.22-.5.5s.22.5.5.5h15.5v7c0,.21.13.39.32.47.19.08.41.03.55-.12l7-7.5c.18-.19.18-.49,0-.68Z"/>
</svg>