<?xml version="1.0" encoding="UTF-8"?>
<svg id="export" xmlns="http://www.w3.org/2000/svg" viewBox="0 0 64 64">
  <defs>
    <style>
      .cls-1 {
        fill: #3c5583;
      }

      .cls-2 {
        fill: #dff0fe;
      }
    </style>
  </defs>
  <g id="illustration_file-pdf">
    <path id="shade" class="cls-2" d="M14.5,51.5v-2.99h31s0,2.98,0,2.98H14.5Z"/>
    <polygon class="cls-2" points="35 25 45 25 35 13 35 25"/>
    <g id="path_document">
      <path class="cls-1" d="M45.89,24.7s0-.02,0-.02l-10.66-12.5s0,0-.01,0c-.09-.1-.22-.17-.37-.17H14.5c-.28,0-.5.22-.5.5v39c0,.28.22.5.5.5h31c.28,0,.5-.22.5-.5v-26.5c0-.12-.05-.22-.11-.3ZM44.42,24.5h-9.07v-10.64l9.07,10.64ZM45,51H15V13h19.34v12c0,.28.22.5.5.5h10.16v25.5Z"/>
      <g>
        <path class="cls-1" d="M23.27,41.52c-.46,0-.88-.08-1.25-.25s-.7-.42-.95-.77h-.08c.05.4.08.79.08,1.15v2.85h-1.07v-10.03h.87l.15.95h.05c.27-.38.59-.65.96-.82.36-.17.78-.25,1.25-.25.93,0,1.65.31,2.16.94s.76,1.51.76,2.64-.26,2.02-.77,2.65c-.52.63-1.23.94-2.15.94ZM23.12,35.24c-.72,0-1.24.2-1.56.59s-.49,1.01-.49,1.87v.23c0,.97.16,1.67.49,2.09.33.42.86.63,1.59.63.61,0,1.08-.24,1.43-.73.34-.48.52-1.15.52-2s-.17-1.52-.52-1.99c-.34-.46-.83-.69-1.45-.69Z"/>
        <path class="cls-1" d="M32.84,40.47h-.06c-.49.7-1.23,1.05-2.21,1.05-.92,0-1.64-.31-2.15-.93-.51-.62-.77-1.5-.77-2.64s.26-2.03.77-2.66,1.23-.95,2.14-.95,1.68.34,2.2,1.02h.08l-.04-.5-.03-.49v-2.82h1.07v9.82h-.87l-.14-.93ZM30.71,40.64c.73,0,1.25-.19,1.58-.58s.49-1.02.49-1.88v-.22c0-.98-.17-1.68-.5-2.1-.33-.42-.86-.63-1.59-.63-.63,0-1.1.24-1.43.72-.33.48-.5,1.15-.5,2.02s.16,1.55.49,2c.33.45.81.68,1.45.68Z"/>
        <path class="cls-1" d="M39.28,35.29h-1.79v6.11h-1.07v-6.11h-1.26v-.47l1.26-.38v-.39c0-1.7.75-2.55,2.27-2.55.37,0,.81.07,1.31.22l-.28.84c-.41-.13-.76-.2-1.05-.2-.4,0-.7.13-.89.39s-.29.69-.29,1.27v.45h1.79v.81Z"/>
      </g>
    </g>
    <path class="cls-1" d="M34.5,61.5h-1v-1c0-.28-.22-.5-.5-.5s-.5.22-.5.5v1h-1c-.28,0-.5.22-.5.5s.22.5.5.5h1v1c0,.28.22.5.5.5s.5-.22.5-.5v-1h1c.28,0,.5-.22.5-.5s-.22-.5-.5-.5Z"/>
    <path class="cls-1" d="M7.5,29.5h-3v-3c0-.28-.22-.5-.5-.5s-.5.22-.5.5v3H.5c-.28,0-.5.22-.5.5s.22.5.5.5h3v3c0,.28.22.5.5.5s.5-.22.5-.5v-3h3c.28,0,.5-.22.5-.5s-.22-.5-.5-.5Z"/>
    <path class="cls-1" d="M63.5,3.5h-3V.5c0-.28-.22-.5-.5-.5s-.5.22-.5.5v3h-3c-.28,0-.5.22-.5.5s.22.5.5.5h3v3c0,.28.22.5.5.5s.5-.22.5-.5v-3h3c.28,0,.5-.22.5-.5s-.22-.5-.5-.5Z"/>
    <path class="cls-1" d="M56.5,15.5h-1v-1c0-.28-.22-.5-.5-.5s-.5.22-.5.5v1h-1c-.28,0-.5.22-.5.5s.22.5.5.5h1v1c0,.28.22.5.5.5s.5-.22.5-.5v-1h1c.28,0,.5-.22.5-.5s-.22-.5-.5-.5Z"/>
    <path class="cls-1" d="M21.5,21.5h-1v-1c0-.28-.22-.5-.5-.5s-.5.22-.5.5v1h-1c-.28,0-.5.22-.5.5s.22.5.5.5h1v1c0,.28.22.5.5.5s.5-.22.5-.5v-1h1c.28,0,.5-.22.5-.5s-.22-.5-.5-.5Z"/>
  </g>
</svg>