<?xml version="1.0" encoding="UTF-8"?>
<svg id="illustartions" xmlns="http://www.w3.org/2000/svg" viewBox="0 0 64 64">
  <defs>
    <style>
      .cls-1 {
        fill: #ef609d;
      }

      .cls-2 {
        fill: #999;
      }
    </style>
  </defs>
  <path class="cls-1" d="M14.5,51.5v-2.99h31s0,2.98,0,2.98H14.5Z"/>
  <path class="cls-1" d="M35,25h10l-10-12v12Z"/>
  <path class="cls-2" d="M45.5,52H14.5c-.28,0-.5-.22-.5-.5V12.5c0-.28.22-.5.5-.5h20.34c.28,0,.5.22.5.5v12h10.16c.28,0,.5.22.5.5v26.5c0,.28-.22.5-.5.5ZM15,51h30v-25.5h-10.16c-.28,0-.5-.22-.5-.5v-12H15v38Z"/>
  <path class="cls-2" d="M45.5,25.5h-10.66c-.28,0-.5-.22-.5-.5v-12.5c0-.21.13-.4.33-.47.2-.07.42-.02.55.14l10.66,12.5c.13.15.15.36.07.53-.08.18-.26.29-.45.29ZM35.34,24.5h9.07l-9.07-10.64v10.64Z"/>
  <path class="cls-2" d="M38.86,34.27h-17.73c-.28,0-.5-.22-.5-.5s.22-.5.5-.5h17.73c.28,0,.5.22.5.5s-.22.5-.5.5Z"/>
  <path class="cls-2" d="M38.86,39.59h-17.73c-.28,0-.5-.22-.5-.5s.22-.5.5-.5h17.73c.28,0,.5.22.5.5s-.22.5-.5.5Z"/>
  <path class="cls-2" d="M31.77,44.91h-10.64c-.28,0-.5-.22-.5-.5s.22-.5.5-.5h10.64c.28,0,.5.22.5.5s-.22.5-.5.5Z"/>
  <path class="cls-2" d="M54.5,61.5h-1v-1c0-.28-.22-.5-.5-.5s-.5.22-.5.5v1h-1c-.28,0-.5.22-.5.5s.22.5.5.5h1v1c0,.28.22.5.5.5s.5-.22.5-.5v-1h1c.28,0,.5-.22.5-.5s-.22-.5-.5-.5Z"/>
  <path class="cls-2" d="M7.5,37.5h-3v-3c0-.28-.22-.5-.5-.5s-.5.22-.5.5v3H.5c-.28,0-.5.22-.5.5s.22.5.5.5h3v3c0,.28.22.5.5.5s.5-.22.5-.5v-3h3c.28,0,.5-.22.5-.5s-.22-.5-.5-.5Z"/>
  <path class="cls-2" d="M63.5,3.5h-3V.5c0-.28-.22-.5-.5-.5s-.5.22-.5.5v3h-3c-.28,0-.5.22-.5.5s.22.5.5.5h3v3c0,.28.22.5.5.5s.5-.22.5-.5v-3h3c.28,0,.5-.22.5-.5s-.22-.5-.5-.5Z"/>
  <path class="cls-2" d="M56.5,15.5h-1v-1c0-.28-.22-.5-.5-.5s-.5.22-.5.5v1h-1c-.28,0-.5.22-.5.5s.22.5.5.5h1v1c0,.28.22.5.5.5s.5-.22.5-.5v-1h1c.28,0,.5-.22.5-.5s-.22-.5-.5-.5Z"/>
  <path class="cls-2" d="M21.5,21.5h-1v-1c0-.28-.22-.5-.5-.5s-.5.22-.5.5v1h-1c-.28,0-.5.22-.5.5s.22.5.5.5h1v1c0,.28.22.5.5.5s.5-.22.5-.5v-1h1c.28,0,.5-.22.5-.5s-.22-.5-.5-.5Z"/>
</svg>