<?xml version="1.0" encoding="UTF-8"?>
<svg id="illustartions" xmlns="http://www.w3.org/2000/svg" viewBox="0 0 64 64">
  <defs>
    <style>
      .cls-1 {
        fill: #ded6fc;
      }

      .cls-2 {
        fill: #999;
      }
    </style>
  </defs>
  <rect class="cls-1" x="14.5" y="48.5" width="31" height="2.99"/>
  <path class="cls-1" d="M35,25h10l-10-12v12Z"/>
  <path class="cls-2" d="M45.89,24.7s0-.02,0-.02l-10.66-12.5h-.01c-.09-.11-.22-.18-.37-.18H14.5c-.28,0-.5.22-.5.5v39c0,.28.22.5.5.5h31c.28,0,.5-.22.5-.5v-26.5c0-.11-.04-.22-.11-.3ZM44.42,24.5h-9.07v-10.64l9.07,10.64ZM45,51H15V13h19.34v12c0,.28.22.5.5.5h10.16v25.5Z"/>
  <path class="cls-2" d="M23.29,39.71l-3.13-4.41h1.55l2.37,3.46,2.36-3.46h1.54l-3.13,4.41,3.29,4.63h-1.54l-2.52-3.66-2.55,3.66h-1.55l3.29-4.63Z"/>
  <rect class="cls-2" x="29.94" y="31.5" width="1.36" height="12.83"/>
  <path class="cls-2" d="M40,41.87c0,.84-.31,1.49-.94,1.95-.62.46-1.5.68-2.63.68-1.19,0-2.12-.19-2.79-.57v-1.27c.43.22.9.39,1.39.52.5.13.97.19,1.43.19.71,0,1.26-.11,1.64-.34s.58-.58.58-1.04c0-.35-.15-.65-.46-.9-.3-.25-.9-.55-1.78-.89-.84-.31-1.43-.59-1.79-.82-.35-.23-.62-.5-.79-.8-.17-.3-.26-.65-.26-1.06,0-.74.3-1.32.9-1.74.6-.43,1.42-.64,2.46-.64.97,0,1.92.2,2.84.59l-.49,1.11c-.9-.37-1.72-.56-2.46-.56-.65,0-1.13.1-1.46.31-.33.2-.49.48-.49.84,0,.24.06.45.18.62.12.17.32.33.6.49.27.15.8.38,1.58.67,1.07.39,1.79.78,2.16,1.18.38.4.56.89.56,1.49Z"/>
  <path class="cls-2" d="M34.5,61.5h-1v-1c0-.28-.22-.5-.5-.5s-.5.22-.5.5v1h-1c-.28,0-.5.22-.5.5s.22.5.5.5h1v1c0,.28.22.5.5.5s.5-.22.5-.5v-1h1c.28,0,.5-.22.5-.5s-.22-.5-.5-.5Z"/>
  <path class="cls-2" d="M7.5,29.5h-3v-3c0-.28-.22-.5-.5-.5s-.5.22-.5.5v3H.5c-.28,0-.5.22-.5.5s.22.5.5.5h3v3c0,.28.22.5.5.5s.5-.22.5-.5v-3h3c.28,0,.5-.22.5-.5s-.22-.5-.5-.5Z"/>
  <path class="cls-2" d="M63.5,3.5h-3V.5c0-.28-.22-.5-.5-.5s-.5.22-.5.5v3h-3c-.28,0-.5.22-.5.5s.22.5.5.5h3v3c0,.28.22.5.5.5s.5-.22.5-.5v-3h3c.28,0,.5-.22.5-.5s-.22-.5-.5-.5Z"/>
  <path class="cls-2" d="M56.5,15.5h-1v-1c0-.28-.22-.5-.5-.5s-.5.22-.5.5v1h-1c-.28,0-.5.22-.5.5s.22.5.5.5h1v1c0,.28.22.5.5.5s.5-.22.5-.5v-1h1c.28,0,.5-.22.5-.5s-.22-.5-.5-.5Z"/>
  <path class="cls-2" d="M21.5,21.5h-1v-1c0-.28-.22-.5-.5-.5s-.5.22-.5.5v1h-1c-.28,0-.5.22-.5.5s.22.5.5.5h1v1c0,.28.22.5.5.5s.5-.22.5-.5v-1h1c.28,0,.5-.22.5-.5s-.22-.5-.5-.5Z"/>
</svg>