<?xml version="1.0" encoding="UTF-8"?>
<svg id="export" xmlns="http://www.w3.org/2000/svg" viewBox="0 0 64 64">
  <defs>
    <style>
      .cls-1 {
        fill: #3c5583;
      }

      .cls-2 {
        fill: #dff0fe;
      }
    </style>
  </defs>
  <g id="illustration_file-code">
    <path id="shade" class="cls-2" d="M14.5,51.5v-2.99h31s0,2.98,0,2.98H14.5Z"/>
    <polygon class="cls-2" points="35 25 45 25 35 13 35 25"/>
    <g id="path_document">
      <path class="cls-1" d="M45.89,24.7s0-.02,0-.02l-10.66-12.5s0,0-.01,0c-.09-.1-.22-.17-.37-.17H14.5c-.28,0-.5.22-.5.5v39c0,.28.22.5.5.5h31c.28,0,.5-.22.5-.5v-26.5c0-.12-.05-.22-.11-.3ZM44.42,24.5h-9.07v-10.64l9.07,10.64ZM45,51H15V13h19.34v12c0,.28.22.5.5.5h10.16v25.5Z"/>
      <g id="path-code">
        <path class="cls-1" d="M25.5,43c-.14,0-.27-.05-.37-.16l-5-5.5c-.17-.19-.17-.48,0-.67l5-5.5c.19-.21.5-.22.71-.03.21.19.22.5.03.71l-4.69,5.16,4.69,5.16c.19.2.17.52-.03.71-.1.09-.22.13-.34.13Z"/>
        <path class="cls-1" d="M27,45c-.06,0-.12-.01-.19-.04-.26-.1-.38-.39-.28-.65l6-15c.1-.26.39-.38.65-.28.26.1.38.39.28.65l-6,15c-.08.2-.27.31-.46.31Z"/>
        <path class="cls-1" d="M34.5,43c-.12,0-.24-.04-.34-.13-.21-.19-.22-.5-.03-.71l4.69-5.16-4.69-5.16c-.19-.2-.17-.52.03-.71.2-.18.52-.17.71.03l5,5.5c.17.19.17.48,0,.67l-5,5.5c-.1.11-.23.16-.37.16Z"/>
      </g>
    </g>
    <path class="cls-1" d="M34.5,61.5h-1v-1c0-.28-.22-.5-.5-.5s-.5.22-.5.5v1h-1c-.28,0-.5.22-.5.5s.22.5.5.5h1v1c0,.28.22.5.5.5s.5-.22.5-.5v-1h1c.28,0,.5-.22.5-.5s-.22-.5-.5-.5Z"/>
    <path class="cls-1" d="M7.5,29.5h-3v-3c0-.28-.22-.5-.5-.5s-.5.22-.5.5v3H.5c-.28,0-.5.22-.5.5s.22.5.5.5h3v3c0,.28.22.5.5.5s.5-.22.5-.5v-3h3c.28,0,.5-.22.5-.5s-.22-.5-.5-.5Z"/>
    <path class="cls-1" d="M63.5,3.5h-3V.5c0-.28-.22-.5-.5-.5s-.5.22-.5.5v3h-3c-.28,0-.5.22-.5.5s.22.5.5.5h3v3c0,.28.22.5.5.5s.5-.22.5-.5v-3h3c.28,0,.5-.22.5-.5s-.22-.5-.5-.5Z"/>
    <path class="cls-1" d="M56.5,15.5h-1v-1c0-.28-.22-.5-.5-.5s-.5.22-.5.5v1h-1c-.28,0-.5.22-.5.5s.22.5.5.5h1v1c0,.28.22.5.5.5s.5-.22.5-.5v-1h1c.28,0,.5-.22.5-.5s-.22-.5-.5-.5Z"/>
    <path class="cls-1" d="M21.5,21.5h-1v-1c0-.28-.22-.5-.5-.5s-.5.22-.5.5v1h-1c-.28,0-.5.22-.5.5s.22.5.5.5h1v1c0,.28.22.5.5.5s.5-.22.5-.5v-1h1c.28,0,.5-.22.5-.5s-.22-.5-.5-.5Z"/>
  </g>
</svg>