<?xml version="1.0" encoding="UTF-8"?>
<svg id="illustartions" xmlns="http://www.w3.org/2000/svg" viewBox="0 0 64 64">
  <defs>
    <style>
      .cls-1 {
        fill: #0a0a0a;
      }

      .cls-2 {
        fill: #8d77f7;
      }
    </style>
  </defs>
  <g id="file-xls">
    <path id="shade" class="cls-2" d="M14.5,51.5v-2.99h31s0,2.98,0,2.98H14.5Z"/>
    <polygon class="cls-2" points="35 25 45 25 35 13 35 25"/>
    <g id="path_document">
      <path class="cls-1" d="M45.89,24.7s0-.02,0-.02l-10.66-12.5s0,0-.01,0c-.09-.1-.22-.17-.37-.17H14.5c-.28,0-.5.22-.5.5v39c0,.28.22.5.5.5h31c.28,0,.5-.22.5-.5v-26.5c0-.12-.05-.22-.11-.3ZM44.42,24.5h-9.07v-10.64l9.07,10.64ZM45,51H15V13h19.34v12c0,.28.22.5.5.5h10.16v25.5Z"/>
      <g>
        <path class="cls-1" d="M23.29,39.71l-3.13-4.41h1.55l2.37,3.46,2.37-3.46h1.54l-3.13,4.41,3.29,4.63h-1.54l-2.52-3.66-2.55,3.66h-1.54l3.29-4.63Z"/>
        <path class="cls-1" d="M31.3,44.34h-1.36v-12.84h1.36v12.84Z"/>
        <path class="cls-1" d="M40,41.87c0,.84-.31,1.49-.94,1.95s-1.5.68-2.63.68c-1.19,0-2.12-.19-2.79-.57v-1.27c.43.22.9.39,1.39.52s.97.19,1.43.19c.71,0,1.26-.11,1.64-.34s.57-.58.57-1.04c0-.35-.15-.65-.46-.9s-.9-.55-1.78-.89c-.84-.31-1.43-.59-1.79-.82s-.62-.5-.79-.8-.26-.65-.26-1.06c0-.74.3-1.32.9-1.74s1.42-.64,2.46-.64c.97,0,1.92.2,2.84.59l-.48,1.11c-.9-.37-1.72-.56-2.46-.56-.65,0-1.13.1-1.46.31s-.49.48-.49.84c0,.24.06.45.18.62s.32.33.6.49.8.38,1.58.67c1.07.39,1.79.78,2.16,1.18s.56.89.56,1.49Z"/>
      </g>
    </g>
    <path class="cls-1" d="M34.5,61.5h-1v-1c0-.28-.22-.5-.5-.5s-.5.22-.5.5v1h-1c-.28,0-.5.22-.5.5s.22.5.5.5h1v1c0,.28.22.5.5.5s.5-.22.5-.5v-1h1c.28,0,.5-.22.5-.5s-.22-.5-.5-.5Z"/>
    <path class="cls-1" d="M7.5,29.5h-3v-3c0-.28-.22-.5-.5-.5s-.5.22-.5.5v3H.5c-.28,0-.5.22-.5.5s.22.5.5.5h3v3c0,.28.22.5.5.5s.5-.22.5-.5v-3h3c.28,0,.5-.22.5-.5s-.22-.5-.5-.5Z"/>
    <path class="cls-1" d="M63.5,3.5h-3V.5c0-.28-.22-.5-.5-.5s-.5.22-.5.5v3h-3c-.28,0-.5.22-.5.5s.22.5.5.5h3v3c0,.28.22.5.5.5s.5-.22.5-.5v-3h3c.28,0,.5-.22.5-.5s-.22-.5-.5-.5Z"/>
    <path class="cls-1" d="M56.5,15.5h-1v-1c0-.28-.22-.5-.5-.5s-.5.22-.5.5v1h-1c-.28,0-.5.22-.5.5s.22.5.5.5h1v1c0,.28.22.5.5.5s.5-.22.5-.5v-1h1c.28,0,.5-.22.5-.5s-.22-.5-.5-.5Z"/>
    <path class="cls-1" d="M21.5,21.5h-1v-1c0-.28-.22-.5-.5-.5s-.5.22-.5.5v1h-1c-.28,0-.5.22-.5.5s.22.5.5.5h1v1c0,.28.22.5.5.5s.5-.22.5-.5v-1h1c.28,0,.5-.22.5-.5s-.22-.5-.5-.5Z"/>
  </g>
</svg>