<?xml version="1.0" encoding="UTF-8"?>
<svg id="illustartions" xmlns="http://www.w3.org/2000/svg" viewBox="0 0 64 64">
  <defs>
    <style>
      .cls-1 {
        fill: #ef609d;
      }

      .cls-2 {
        fill: #999;
      }
    </style>
  </defs>
  <path class="cls-1" d="M14.5,51.5v-2.99h31s0,2.98,0,2.98H14.5Z"/>
  <path class="cls-1" d="M35,25h10l-10-12v12Z"/>
  <path class="cls-2" d="M45.89,24.7s0-.02,0-.02l-10.66-12.5h-.01c-.09-.11-.22-.18-.37-.18H14.5c-.28,0-.5.22-.5.5v39c0,.28.22.5.5.5h31c.28,0,.5-.22.5-.5v-26.5c0-.11-.04-.22-.11-.3ZM44.42,24.5h-9.07v-10.64l9.07,10.64ZM45,51H15V13h19.34v12c0,.28.22.5.5.5h10.16v25.5Z"/>
  <path class="cls-2" d="M25.5,43c-.14,0-.27-.06-.37-.16l-5-5.5c-.17-.19-.17-.48,0-.67l5-5.5c.19-.2.5-.22.71-.03.2.19.22.5.03.71l-4.69,5.16,4.69,5.16c.19.2.17.52-.03.71-.1.09-.22.13-.34.13Z"/>
  <path class="cls-2" d="M27,45c-.06,0-.12-.01-.19-.04-.26-.1-.38-.39-.28-.65l6-15c.1-.25.39-.38.65-.28.26.1.38.39.28.65l-6,15c-.08.19-.27.31-.46.31Z"/>
  <path class="cls-2" d="M34.5,43c-.12,0-.24-.04-.34-.13-.21-.18-.22-.5-.03-.71l4.69-5.16-4.69-5.16c-.19-.2-.17-.52.03-.71.2-.18.52-.17.71.03l5,5.5c.17.19.17.48,0,.67l-5,5.5c-.1.11-.23.16-.37.16Z"/>
  <path class="cls-2" d="M34.5,61.5h-1v-1c0-.28-.22-.5-.5-.5s-.5.22-.5.5v1h-1c-.28,0-.5.22-.5.5s.22.5.5.5h1v1c0,.28.22.5.5.5s.5-.22.5-.5v-1h1c.28,0,.5-.22.5-.5s-.22-.5-.5-.5Z"/>
  <path class="cls-2" d="M7.5,29.5h-3v-3c0-.28-.22-.5-.5-.5s-.5.22-.5.5v3H.5c-.28,0-.5.22-.5.5s.22.5.5.5h3v3c0,.28.22.5.5.5s.5-.22.5-.5v-3h3c.28,0,.5-.22.5-.5s-.22-.5-.5-.5Z"/>
  <path class="cls-2" d="M63.5,3.5h-3V.5c0-.28-.22-.5-.5-.5s-.5.22-.5.5v3h-3c-.28,0-.5.22-.5.5s.22.5.5.5h3v3c0,.28.22.5.5.5s.5-.22.5-.5v-3h3c.28,0,.5-.22.5-.5s-.22-.5-.5-.5Z"/>
  <path class="cls-2" d="M56.5,15.5h-1v-1c0-.28-.22-.5-.5-.5s-.5.22-.5.5v1h-1c-.28,0-.5.22-.5.5s.22.5.5.5h1v1c0,.28.22.5.5.5s.5-.22.5-.5v-1h1c.28,0,.5-.22.5-.5s-.22-.5-.5-.5Z"/>
  <path class="cls-2" d="M21.5,21.5h-1v-1c0-.28-.22-.5-.5-.5s-.5.22-.5.5v1h-1c-.28,0-.5.22-.5.5s.22.5.5.5h1v1c0,.28.22.5.5.5s.5-.22.5-.5v-1h1c.28,0,.5-.22.5-.5s-.22-.5-.5-.5Z"/>
</svg>