<svg xmlns="http://www.w3.org/2000/svg" width="64" height="64" viewBox="0 0 64 64"><defs><style>.a{fill:#dff0fe;}.b{fill:#4788c7;}</style></defs><path class="a" d="M304.5,309.5v-2.992l31-.008v2.992Z" transform="translate(-290 -258)"/><path class="a" d="M325,283h10l-10-12Z" transform="translate(-290 -258)"/><g transform="translate(-290 -258)"><path class="b" d="M335.5,310h-31a.5.5,0,0,1-.5-.5v-39a.5.5,0,0,1,.5-.5h20.344a.5.5,0,0,1,.5.5v12H335.5a.5.5,0,0,1,.5.5v26.5A.5.5,0,0,1,335.5,310ZM305,309h30V283.5H324.844a.5.5,0,0,1-.5-.5V271H305Z"/><path class="b" d="M335.5,283.5H324.844a.5.5,0,0,1-.5-.5V270.5a.5.5,0,0,1,.881-.324l10.656,12.5a.5.5,0,0,1-.381.824Zm-10.156-1h9.073l-9.073-10.643Z"/><path class="b" d="M328.863,292.272H311.137a.5.5,0,0,1,0-1h17.726a.5.5,0,0,1,0,1Z"/><path class="b" d="M328.863,297.591H311.137a.5.5,0,0,1,0-1h17.726a.5.5,0,0,1,0,1Z"/><path class="b" d="M321.772,302.909H311.137a.5.5,0,0,1,0-1h10.635a.5.5,0,0,1,0,1Z"/></g><path class="b" d="M344.5,319.5h-1v-1a.5.5,0,0,0-1,0v1h-1a.5.5,0,0,0,0,1h1v1a.5.5,0,0,0,1,0v-1h1a.5.5,0,0,0,0-1Z" transform="translate(-290 -258)"/><path class="b" d="M297.5,295.5h-3v-3a.5.5,0,0,0-1,0v3h-3a.5.5,0,0,0,0,1h3v3a.5.5,0,0,0,1,0v-3h3a.5.5,0,0,0,0-1Z" transform="translate(-290 -258)"/><path class="b" d="M353.5,261.5h-3v-3a.5.5,0,0,0-1,0v3h-3a.5.5,0,0,0,0,1h3v3a.5.5,0,0,0,1,0v-3h3a.5.5,0,0,0,0-1Z" transform="translate(-290 -258)"/><path class="b" d="M346.5,273.5h-1v-1a.5.5,0,0,0-1,0v1h-1a.5.5,0,0,0,0,1h1v1a.5.5,0,0,0,1,0v-1h1a.5.5,0,0,0,0-1Z" transform="translate(-290 -258)"/><path class="b" d="M311.5,279.5h-1v-1a.5.5,0,0,0-1,0v1h-1a.5.5,0,0,0,0,1h1v1a.5.5,0,0,0,1,0v-1h1a.5.5,0,0,0,0-1Z" transform="translate(-290 -258)"/></svg>