<?xml version="1.0" encoding="UTF-8"?>
<svg id="illustartions" xmlns="http://www.w3.org/2000/svg" viewBox="0 0 64 64">
  <defs>
    <style>
      .cls-1 {
        fill: #ded6fc;
      }

      .cls-2 {
        fill: #999;
      }
    </style>
  </defs>
  <rect class="cls-1" x="14.5" y="48.5" width="31" height="2.99"/>
  <path class="cls-1" d="M35,25h10l-10-12v12Z"/>
  <path class="cls-2" d="M45.89,24.7s0-.02,0-.02l-10.66-12.5h-.01c-.09-.11-.22-.18-.37-.18H14.5c-.28,0-.5.22-.5.5v39c0,.28.22.5.5.5h31c.28,0,.5-.22.5-.5v-26.5c0-.11-.04-.22-.11-.3ZM44.42,24.5h-9.07v-10.64l9.07,10.64ZM45,51H15V13h19.34v12c0,.28.22.5.5.5h10.16v25.5Z"/>
  <path class="cls-2" d="M23.49,44.5c-1.11,0-1.97-.39-2.57-1.16-.61-.77-.91-1.87-.91-3.28s.31-2.57.93-3.37c.62-.79,1.49-1.19,2.64-1.19.37,0,.74.04,1.1.13.37.09.66.2.87.32l-.36,1.12c-.26-.12-.54-.21-.84-.29-.3-.08-.57-.11-.8-.11-1.56,0-2.33,1.12-2.33,3.38,0,1.07.19,1.88.57,2.46.38.57.94.86,1.69.86.64,0,1.29-.16,1.96-.47v1.16c-.51.3-1.16.45-1.93.45Z"/>
  <path class="cls-2" d="M32.18,41.97c0,.81-.26,1.43-.8,1.87-.53.44-1.28.66-2.24.66-1.02,0-1.81-.18-2.38-.55v-1.22c.37.21.76.38,1.18.5.42.12.83.18,1.22.18.6,0,1.07-.11,1.4-.33.32-.22.49-.55.49-1,0-.34-.13-.63-.39-.87-.26-.24-.76-.52-1.51-.85-.71-.3-1.22-.56-1.52-.79-.3-.22-.52-.48-.67-.76-.15-.28-.22-.63-.22-1.02,0-.71.25-1.27.76-1.68.51-.41,1.2-.61,2.09-.61.83,0,1.63.19,2.42.57l-.41,1.07c-.77-.36-1.47-.54-2.09-.54-.55,0-.96.1-1.24.29s-.42.46-.42.81c0,.23.05.43.16.59.1.16.27.32.51.47.23.15.68.36,1.34.64.91.38,1.52.75,1.84,1.13.32.38.48.86.48,1.43Z"/>
  <path class="cls-2" d="M35.74,44.34l-2.91-8.68h1.24l1.65,5.15c.37,1.2.59,1.99.66,2.35h.06c.05-.28.21-.86.49-1.74.27-.88.88-2.8,1.83-5.76h1.24l-2.91,8.68h-1.36Z"/>
  <path class="cls-2" d="M34.5,61.5h-1v-1c0-.28-.22-.5-.5-.5s-.5.22-.5.5v1h-1c-.28,0-.5.22-.5.5s.22.5.5.5h1v1c0,.28.22.5.5.5s.5-.22.5-.5v-1h1c.28,0,.5-.22.5-.5s-.22-.5-.5-.5Z"/>
  <path class="cls-2" d="M7.5,29.5h-3v-3c0-.28-.22-.5-.5-.5s-.5.22-.5.5v3H.5c-.28,0-.5.22-.5.5s.22.5.5.5h3v3c0,.28.22.5.5.5s.5-.22.5-.5v-3h3c.28,0,.5-.22.5-.5s-.22-.5-.5-.5Z"/>
  <path class="cls-2" d="M63.5,3.5h-3V.5c0-.28-.22-.5-.5-.5s-.5.22-.5.5v3h-3c-.28,0-.5.22-.5.5s.22.5.5.5h3v3c0,.28.22.5.5.5s.5-.22.5-.5v-3h3c.28,0,.5-.22.5-.5s-.22-.5-.5-.5Z"/>
  <path class="cls-2" d="M56.5,15.5h-1v-1c0-.28-.22-.5-.5-.5s-.5.22-.5.5v1h-1c-.28,0-.5.22-.5.5s.22.5.5.5h1v1c0,.28.22.5.5.5s.5-.22.5-.5v-1h1c.28,0,.5-.22.5-.5s-.22-.5-.5-.5Z"/>
  <path class="cls-2" d="M21.5,21.5h-1v-1c0-.28-.22-.5-.5-.5s-.5.22-.5.5v1h-1c-.28,0-.5.22-.5.5s.22.5.5.5h1v1c0,.28.22.5.5.5s.5-.22.5-.5v-1h1c.28,0,.5-.22.5-.5s-.22-.5-.5-.5Z"/>
</svg>