<?xml version="1.0" encoding="UTF-8"?><svg id="Layer_2" xmlns="http://www.w3.org/2000/svg" viewBox="0 0 64 64"><defs><style>.cls-1{fill:#dff0fe;}.cls-2{fill:#4788c7;}</style></defs><g id="Illustrations"><g id="illustration-folder"><path class="cls-1" d="m16.49,41V14.49s10.59,0,10.59,0l3.09,3h21.3s0,5.01,0,5.01h-16.98s-3,2-3,2h-11s-3,15.5-3,15.5l-1,1Z"/><path class="cls-2" d="m55.88,22.18c-.09-.11-.23-.18-.38-.18h-3.5s0-4.5,0-4.5c0-.28-.22-.5-.5-.5h-21.11s-2.94-2.86-2.94-2.86c-.09-.09-.22-.14-.35-.14h-10.6c-.28,0-.5.22-.5.5v31.01s0,.01,0,0c0,.12.03.24.1.33.09.11.24.18.39.18h35.04c.24,0,.45-.17.49-.41l3.96-23c.02-.15-.02-.29-.11-.41Zm-28.99-7.19l2.94,2.86c.09.09.22.14.35.14h20.82s0,4.01,0,4.01h-16.4c-.1,0-.19.02-.27.08l-2.97,1.92h-10.92c-.24,0-.45.17-.49.41l-2.95,15.71V14.99s9.9,0,9.9,0Zm24.22,30.01H17.1s3.75-20.01,3.75-20.01h10.65c.1,0,.19-.03.27-.08l2.97-1.92h20.15s-3.79,22.01-3.79,22.01Z"/><path class="cls-2" d="m3.5,9.49h-1s0-1,0-1c0-.28-.22-.5-.5-.5s-.5.22-.5.5v1s-1,0-1,0C.22,9.49,0,9.71,0,9.99s.22.5.5.5h1s0,1,0,1c0,.28.22.5.5.5s.5-.22.5-.5v-1s1,0,1,0c.28,0,.5-.22.5-.5s-.22-.5-.5-.5Z"/><path class="cls-2" d="m15.49,59.5h-3s0-3,0-3c0-.28-.22-.5-.5-.5s-.5.22-.5.5v3s-3,0-3,0c-.28,0-.5.22-.5.5s.22.5.5.5h3s0,3,0,3c0,.28.22.5.5.5s.5-.22.5-.5v-3s3,0,3,0c.28,0,.5-.22.5-.5s-.22-.5-.5-.5Z"/><path class="cls-2" d="m63.5,3.5h-3s0-3,0-3C60.5.22,60.28,0,60,0s-.5.22-.5.5v3s-3,0-3,0c-.28,0-.5.22-.5.5s.22.5.5.5h3s0,3,0,3c0,.28.22.5.5.5s.5-.22.5-.5v-3s3,0,3,0c.28,0,.5-.22.5-.5s-.22-.5-.5-.5Z"/><path class="cls-2" d="m28.49,38.5h-1s0-1,0-1c0-.28-.22-.5-.5-.5s-.5.22-.5.5v1s-1,0-1,0c-.28,0-.5.22-.5.5s.22.5.5.5h1s0,1,0,1c0,.28.22.5.5.5s.5-.22.5-.5v-1s1,0,1,0c.28,0,.5-.22.5-.5s-.22-.5-.5-.5Z"/></g></g></svg>