<?xml version="1.0" encoding="UTF-8"?>
<svg id="illustartions" xmlns="http://www.w3.org/2000/svg" viewBox="0 0 64 64">
  <defs>
    <style>
      .cls-1 {
        fill: #0a0a0a;
      }

      .cls-2 {
        fill: #e81e75;
      }
    </style>
  </defs>
  <path class="cls-2" d="M16.5,41V14.5h10.59l3.09,3h21.3v5h-16.98l-3,2h-11l-3,15.5-1,1Z"/>
  <path class="cls-1" d="M55.88,22.18c-.1-.11-.24-.18-.38-.18h-3.5v-4.5c0-.28-.22-.5-.5-.5h-21.11l-2.94-2.86c-.09-.09-.22-.14-.35-.14h-10.6c-.28,0-.5.22-.5.5v31s0,.01.01,0c0,.12.03.24.1.33.09.11.24.18.39.18h35.04c.24,0,.45-.18.5-.42l3.95-23c.02-.15-.02-.29-.11-.41ZM26.89,15l2.94,2.86c.09.09.22.14.35.14h20.82v4h-16.4c-.1,0-.19.03-.27.08l-2.97,1.92h-10.92c-.24,0-.45.17-.49.41l-2.94,15.71V15h9.89ZM51.12,45H17.1l3.75-20h10.66c.1,0,.19-.03.27-.08l2.97-1.92h20.15l-3.78,22Z"/>
  <path class="cls-1" d="M3.5,9.5h-1v-1c0-.28-.22-.5-.5-.5s-.5.22-.5.5v1H.5c-.28,0-.5.22-.5.5s.22.5.5.5h1v1c0,.28.22.5.5.5s.5-.22.5-.5v-1h1c.28,0,.5-.22.5-.5s-.22-.5-.5-.5Z"/>
  <path class="cls-1" d="M15.5,59.5h-3v-3c0-.28-.22-.5-.5-.5s-.5.22-.5.5v3h-3c-.28,0-.5.22-.5.5s.22.5.5.5h3v3c0,.28.22.5.5.5s.5-.22.5-.5v-3h3c.28,0,.5-.22.5-.5s-.22-.5-.5-.5Z"/>
  <path class="cls-1" d="M63.5,3.5h-3V.5c0-.28-.22-.5-.5-.5s-.5.22-.5.5v3h-3c-.28,0-.5.22-.5.5s.22.5.5.5h3v3c0,.28.22.5.5.5s.5-.22.5-.5v-3h3c.28,0,.5-.22.5-.5s-.22-.5-.5-.5Z"/>
  <path class="cls-1" d="M28.5,38.5h-1v-1c0-.28-.22-.5-.5-.5s-.5.22-.5.5v1h-1c-.28,0-.5.22-.5.5s.22.5.5.5h1v1c0,.28.22.5.5.5s.5-.22.5-.5v-1h1c.28,0,.5-.22.5-.5s-.22-.5-.5-.5Z"/>
</svg>