<svg xmlns="http://www.w3.org/2000/svg" width="66.725" height="49.382" viewBox="0 0 66.725 49.382">
  <g id="illustration-global" transform="translate(0.5 0.5)">
    <path id="Path_237" data-name="Path 237" d="M49.394,69.434a20.245,20.245,0,0,1-6.351,1.03A19.827,19.827,0,1,1,62.811,49.193" transform="translate(-13.957 -26.662)" fill="none" stroke="#4788c7" stroke-linecap="round" stroke-linejoin="round" stroke-width="1"/>
    <path id="Path_238" data-name="Path 238" d="M64.412,113.357h.045v-.03C64.442,113.338,64.427,113.348,64.412,113.357Z" transform="translate(-35.371 -69.556)" fill="#4788c7" opacity="0.3"/>
    <path id="Path_239" data-name="Path 239" d="M64.457,30.841v-.03h-.045Z" transform="translate(-35.371 -26.662)" fill="#4788c7" opacity="0.3"/>
    <path id="Path_240" data-name="Path 240" d="M31.815,50.639a23.1,23.1,0,0,1,11.18-19.825,19.825,19.825,0,0,0,0,39.651A23.1,23.1,0,0,1,31.815,50.639Z" transform="translate(-13.957 -26.664)" fill="#dff0fe"/>
    <path id="Path_241" data-name="Path 241" d="M52.3,70.465a23.168,23.168,0,0,1,0-39.654Z" transform="translate(-23.265 -26.662)" fill="none" stroke="#4788c7" stroke-linecap="round" stroke-linejoin="round" stroke-width="1"/>
    <path id="Path_242" data-name="Path 242" d="M75.552,48.271a23.365,23.365,0,0,0-11.143-17.46V70.465a22.7,22.7,0,0,0,4.313-3.289" transform="translate(-35.37 -26.662)" fill="none" stroke="#4788c7" stroke-linecap="round" stroke-linejoin="round" stroke-width="1"/>
    <path id="Path_243" data-name="Path 243" d="M63.153,113.391" transform="translate(-34.717 -69.588)" fill="none" stroke="#f0f" stroke-linecap="round" stroke-linejoin="round" stroke-width="1"/>
    <path id="Path_244" data-name="Path 244" d="M63.153,30.811" transform="translate(-34.717 -26.662)" fill="none" stroke="#4788c7" stroke-linecap="round" stroke-linejoin="round" stroke-width="1"/>
    <path id="Path_245" data-name="Path 245" d="M63.332,43.694C61.823,46.448,55.941,48.5,48.914,48.5c-7,0-12.873-2.041-14.4-4.783" transform="translate(-19.827 -33.359)" fill="none" stroke="#4788c7" stroke-linecap="round" stroke-linejoin="round" stroke-width="1"/>
    <path id="Path_246" data-name="Path 246" d="M34.795,95.835c1.719-2.627,7.455-4.557,14.267-4.557q.977,0,1.923.052" transform="translate(-19.976 -58.094)" fill="none" stroke="#4788c7" stroke-linecap="round" stroke-linejoin="round" stroke-width="1"/>
    <line id="Line_186" data-name="Line 186" x1="26.062" y1="0.006" transform="translate(9.267 24.158)" fill="none" stroke="#4788c7" stroke-linecap="round" stroke-linejoin="round" stroke-width="1"/>
    <path id="Path_247" data-name="Path 247" d="M102.877,92.628a1.921,1.921,0,0,1-2.633.57L90.091,86.66a.258.258,0,0,1-.038-.029A12.22,12.22,0,1,1,92.1,83.421a.469.469,0,0,1,.06.035l10.147,6.534A1.912,1.912,0,0,1,102.877,92.628Z" transform="translate(-37.583 -45.119)" fill="none" stroke="#4788c7" stroke-linecap="round" stroke-linejoin="round" stroke-width="1"/>
    <circle id="Ellipse_44" data-name="Ellipse 44" cx="9.361" cy="9.361" r="9.361" transform="translate(32.179 26.252) rotate(-12.222)" fill="#dff0fe"/>
    <circle id="Ellipse_45" data-name="Ellipse 45" cx="9.361" cy="9.361" r="9.361" transform="translate(32.179 26.252) rotate(-12.222)" fill="none" stroke="#4788c7" stroke-linecap="round" stroke-linejoin="round" stroke-width="1"/>
    <line id="Line_187" data-name="Line 187" y2="5.285" transform="translate(2.642 32.7)" fill="none" stroke="#4788c7" stroke-linecap="round" stroke-linejoin="round" stroke-width="1"/>
    <line id="Line_188" data-name="Line 188" x1="5.285" transform="translate(0 35.343)" fill="none" stroke="#4788c7" stroke-linecap="round" stroke-linejoin="round" stroke-width="1"/>
    <line id="Line_189" data-name="Line 189" y2="3.164" transform="translate(13.261 43.859)" fill="none" stroke="#4788c7" stroke-linecap="round" stroke-linejoin="round" stroke-width="1"/>
    <line id="Line_190" data-name="Line 190" x1="3.164" transform="translate(11.679 45.441)" fill="none" stroke="#4788c7" stroke-linecap="round" stroke-linejoin="round" stroke-width="1"/>
    <g id="Group_106" data-name="Group 106" transform="translate(6.766)">
      <line id="Line_191" data-name="Line 191" y2="5.285" transform="translate(2.642)" fill="none" stroke="#4788c7" stroke-linecap="round" stroke-linejoin="round" stroke-width="1"/>
      <line id="Line_192" data-name="Line 192" x1="5.285" transform="translate(0 2.642)" fill="none" stroke="#4788c7" stroke-linecap="round" stroke-linejoin="round" stroke-width="1"/>
    </g>
  </g>
</svg>
