<?xml version="1.0" encoding="UTF-8"?>
<svg id="illustartions" xmlns="http://www.w3.org/2000/svg" viewBox="0 0 64 64">
  <defs>
    <style>
      .cls-1 {
        fill: #ded6fc;
      }

      .cls-2 {
        fill: #999;
      }
    </style>
  </defs>
  <g id="illustration_global">
    <path id="Path_240" data-name="Path 240" class="cls-1" d="M14.79,28c-.01-7.98,4.05-15.38,10.71-19.5-10.49,0-19,8.73-19,19.5s8.51,19.5,19,19.5c-6.66-4.12-10.73-11.52-10.71-19.5Z"/>
    <path class="cls-1" d="M37.86,41.01c-1.06-4.93,1.89-9.79,6.64-11.14-1.45-.42-3.01-.5-4.59-.15-5.08,1.11-8.3,6.17-7.2,11.29,1.1,5.13,6.1,8.38,11.18,7.27.19-.04.38-.1.56-.15-3.22-.94-5.84-3.58-6.59-7.12Z"/>
    <path class="cls-2" d="M42,49c-5.51,0-10-4.49-10-10s4.49-10,10-10,10,4.49,10,10-4.49,10-10,10ZM42,30c-4.96,0-9,4.04-9,9s4.04,9,9,9,9-4.04,9-9-4.04-9-9-9Z"/>
    <path class="cls-2" d="M60.13,53.6l-6.36-6.36c-.34-.34-.75-.56-1.2-.67,1.58-2.2,2.43-4.85,2.43-7.57,0-5.78-3.8-10.69-9.03-12.38.02-.02.03-.05.03-.08-.76-10.4-9.53-18.54-19.97-18.54h0c-5.35,0-10.38,2.08-14.16,5.86-3.78,3.78-5.86,8.8-5.86,14.14,0,11.03,8.99,19.99,20.03,19.99h0c1.98,0,3.94-.3,5.84-.87,2.38,2.96,6.04,4.87,10.13,4.87,2.72,0,5.37-.86,7.57-2.43.1.45.33.87.67,1.2l6.36,6.36c.47.47,1.1.73,1.77.73s1.29-.26,1.77-.73c.97-.97.97-2.56,0-3.54ZM12.57,14.57c3.14-3.14,7.19-5.05,11.56-5.47-2.51,1.83-4.65,4.16-6.26,6.83-.5.83-.93,1.67-1.32,2.54-2.24-.81-3.9-1.91-4.59-3.17,0-.01-.02-.01-.03-.02.21-.23.41-.48.64-.7ZM7,28.01c0-4.4,1.49-8.58,4.23-11.95.86,1.35,2.61,2.5,4.91,3.36-1.27,3.21-1.8,6.64-1.58,10.09h-7.5c-.04-.5-.07-.99-.07-1.5ZM14.25,42.89c-3.79-2.99-6.42-7.39-7.08-12.4h7.48c.11,1.03.28,2.07.53,3.09.57,2.3,1.47,4.46,2.65,6.44-1.61.78-2.85,1.75-3.59,2.87ZM15.05,43.49c.67-.99,1.84-1.86,3.35-2.56,1.52,2.3,3.45,4.31,5.72,5.96-3.35-.34-6.45-1.55-9.07-3.4ZM25.5,46.66c-2.47-1.63-4.54-3.72-6.16-6.12,1.75-.67,3.87-1.14,6.16-1.33v7.45ZM25.5,38.11c-2.53.21-4.84.73-6.75,1.5-1.16-1.92-2.05-4.02-2.6-6.26-.23-.95-.39-1.9-.49-2.85h9.84v7.61ZM25.5,29.5h-9.93c-.22-3.33.3-6.65,1.54-9.76,2.4.75,5.29,1.2,8.4,1.25v8.51ZM25.5,19.94c-2.94-.04-5.71-.46-8-1.16.36-.8.76-1.58,1.21-2.34,1.7-2.83,4.04-5.26,6.78-7.09v10.59ZM44.97,26.36c-.96-.22-1.95-.36-2.97-.36-1.6,0-3.13.31-4.55.84-.13-2.54-.65-5.04-1.6-7.42,2.31-.86,4.05-2.01,4.91-3.37,2.34,2.86,3.87,6.41,4.21,10.31ZM40.08,15.24s-.03.01-.04.03c-.68,1.27-2.34,2.37-4.59,3.19-.39-.86-.82-1.71-1.32-2.54-1.61-2.67-3.75-5-6.27-6.83,4.8.47,9.11,2.75,12.21,6.15ZM26.5,9.36c2.74,1.82,5.08,4.26,6.78,7.08.46.76.86,1.54,1.22,2.34-2.28.7-5.05,1.12-8,1.17v-10.59ZM26.5,20.99c3.11-.04,6.01-.49,8.41-1.25.96,2.4,1.49,4.94,1.57,7.51-1.23.58-2.35,1.34-3.33,2.26h-6.65v-8.52ZM26.5,30.5h5.69c-1.78,2.05-2.92,4.66-3.14,7.53-.36-.01-.73-.03-1.1-.03-.49,0-.97.02-1.45.04v-7.54ZM26.5,39.14c.48-.02.96-.04,1.45-.04.36,0,.7.02,1.05.03.02,1.66.35,3.25.93,4.7-1.04,1.04-2.19,2-3.44,2.83v-7.52ZM27.85,46.9c.9-.65,1.75-1.34,2.53-2.1.25.5.53,1,.84,1.46-1.11.31-2.23.53-3.37.64ZM59.42,56.42c-.57.57-1.55.57-2.12,0l-6.36-6.36c-.37-.37-.51-.89-.4-1.4.05-.21-.04-.43-.23-.54-.08-.05-.17-.07-.26-.07-.12,0-.23.04-.32.12-2.16,1.83-4.91,2.83-7.73,2.83-6.62,0-12-5.38-12-12s5.38-12,12-12,12,5.38,12,12c0,2.83-1.01,5.57-2.83,7.73-.14.16-.16.4-.04.58.11.18.33.28.54.23.51-.12,1.03.03,1.4.4l6.36,6.36c.58.58.58,1.54,0,2.12Z"/>
    <path class="cls-2" d="M63.5,7.5h-7V.5c0-.28-.22-.5-.5-.5s-.5.22-.5.5v7h-7c-.28,0-.5.22-.5.5s.22.5.5.5h7v7c0,.28.22.5.5.5s.5-.22.5-.5v-7h7c.28,0,.5-.22.5-.5s-.22-.5-.5-.5Z"/>
    <path class="cls-2" d="M3.5,49.5h-1v-1c0-.28-.22-.5-.5-.5s-.5.22-.5.5v1H.5c-.28,0-.5.22-.5.5s.22.5.5.5h1v1c0,.28.22.5.5.5s.5-.22.5-.5v-1h1c.28,0,.5-.22.5-.5s-.22-.5-.5-.5Z"/>
    <path class="cls-2" d="M19.5,59.5h-3v-3c0-.28-.22-.5-.5-.5s-.5.22-.5.5v3h-3c-.28,0-.5.22-.5.5s.22.5.5.5h3v3c0,.28.22.5.5.5s.5-.22.5-.5v-3h3c.28,0,.5-.22.5-.5s-.22-.5-.5-.5Z"/>
  </g>
</svg>