<?xml version="1.0" encoding="UTF-8"?>
<svg id="illustartions" xmlns="http://www.w3.org/2000/svg" viewBox="0 0 64 64">
  <defs>
    <style>
      .cls-1 {
        fill: #ef609d;
      }

      .cls-2 {
        fill: #999;
      }
    </style>
  </defs>
  <path class="cls-1" d="M40,42.5h10.25v-22s.3-1-.25-1-2,.45-2,1v20.5h-8c-.55,0-1,.45-1,1s1,.5,1,.5Z"/>
  <path class="cls-2" d="M39.5,43h11c.28,0,.5-.22.5-.5v-23c0-.28-.22-.5-.5-.5h-11c-.28,0-.5.22-.5.5s.22.5.5.5h10.5v22h-10.5c-.28,0-.5.22-.5.5s.22.5.5.5Z"/>
  <path class="cls-2" d="M60.5,39h1v1c0,.28.22.5.5.5s.5-.22.5-.5v-1h1c.28,0,.5-.22.5-.5s-.22-.5-.5-.5h-1v-1c0-.28-.22-.5-.5-.5s-.5.22-.5.5v1h-1c-.28,0-.5.22-.5.5s.22.5.5.5Z"/>
  <path class="cls-2" d="M.5,46h3v3c0,.28.22.5.5.5s.5-.22.5-.5v-3h3c.28,0,.5-.22.5-.5s-.22-.5-.5-.5h-3v-3c0-.28-.22-.5-.5-.5s-.5.22-.5.5v3H.5c-.28,0-.5.22-.5.5s.22.5.5.5Z"/>
  <path class="cls-2" d="M43.75,60.5h3v3c0,.28.22.5.5.5s.5-.22.5-.5v-3h3c.28,0,.5-.22.5-.5s-.22-.5-.5-.5h-3v-3c0-.28-.22-.5-.5-.5s-.5.22-.5.5v3h-3c-.28,0-.5.22-.5.5s.22.5.5.5Z"/>
  <path class="cls-2" d="M35.5,4.5h3v3c0,.28.22.5.5.5s.5-.22.5-.5v-3h3c.28,0,.5-.22.5-.5s-.22-.5-.5-.5h-3V.5c0-.28-.22-.5-.5-.5s-.5.22-.5.5v3h-3c-.28,0-.5.22-.5.5s.22.5.5.5Z"/>
  <path class="cls-1" d="M44.75,30.5l-15.75.5-.75,7.5c0,.55.45,1,1,1s1-.45,1-1v-6h14.5c.55,0,1-.45,1-1s-.45-1-1-1Z"/>
  <path class="cls-2" d="M21.38,30.66l7-7.5c.19-.2.51-.21.71-.02.1.09.16.23.16.36v7h15.5c.28,0,.5.22.5.5s-.22.5-.5.5h-15.5v7c0,.21-.13.39-.32.47-.19.08-.41.03-.55-.12l-7-7.5c-.18-.19-.18-.49,0-.68h0Z"/>
</svg>