<?xml version="1.0" encoding="UTF-8"?>
<svg id="illustartions" xmlns="http://www.w3.org/2000/svg" viewBox="0 0 64 64">
  <defs>
    <style>
      .cls-1 {
        fill: #8696b2;
      }

      .cls-2 {
        fill: #dff0fe;
      }
    </style>
  </defs>
  <path class="cls-1" d="M47,47h-3.5c-.28,0-.5-.22-.5-.5s.22-.5.5-.5h3v-3c0-.28.22-.5.5-.5s.5.22.5.5v3.5c0,.28-.22.5-.5.5Z"/>
  <path class="cls-1" d="M33.5,47h-17.5c-.28,0-.5-.22-.5-.5v-19c0-.28.22-.5.5-.5s.5.22.5.5v18.5h17c.28,0,.5.22.5.5s-.22.5-.5.5Z"/>
  <path class="cls-1" d="M47,33.5c-.28,0-.5-.22-.5-.5V8h-12.5c-.28,0-.5-.22-.5-.5s.22-.5.5-.5h13c.28,0,.5.22.5.5v25.5c0,.28-.22.5-.5.5Z"/>
  <path class="cls-2" d="M57.38,44.07l1.73-.75-1.77-4.08-1.99.86c-.66-.89-1.46-1.66-2.38-2.27l.76-2.12-4.2-1.7-.8,2.01c-1.25-.2-2.52-.19-3.76.03l-.76-1.77-3.81,1.65.77,1.77c-1.15.69-2.11,1.64-2.8,2.79l-2.12-.77-1.69,4.2,2.09.99c-.19,1.09-.18,2.21,0,3.3l-2.15.93,1.77,4.08,1.89-.82c.77,1.21,1.8,2.24,3.01,3.01l-.84,1.96,4.17,1.61.97-2.14c1.31.27,2.66.22,3.94-.16l.9,2.08,3.81-1.65-.9-2.07c1.01-.75,1.89-1.66,2.6-2.7l2.02.81,1.65-4.18-1.97-.65c.26-1.41.21-2.86-.14-4.26h0ZM49.56,52.59c-3.38,1.47-7.31-.09-8.77-3.47-1.47-3.38.09-7.31,3.47-8.78,3.38-1.47,7.31.09,8.77,3.47,1.47,3.38-.08,7.31-3.47,8.78Z"/>
  <path class="cls-1" d="M44.51,59.5c-.06,0-.12,0-.18-.03l-4.17-1.61c-.13-.05-.23-.15-.28-.28-.05-.13-.05-.27,0-.4l.67-1.57c-.99-.7-1.87-1.57-2.56-2.56l-1.5.65c-.26.11-.56,0-.67-.26l-1.77-4.08c-.05-.12-.06-.26,0-.39.06-.13.15-.23.27-.28l1.79-.78c-.12-.9-.12-1.8,0-2.7l-1.75-.83c-.24-.12-.35-.4-.25-.65l1.69-4.2c.1-.25.39-.38.64-.29l1.74.63c.63-.93,1.43-1.74,2.37-2.37l-.59-1.37c-.05-.12-.06-.26,0-.39.05-.13.15-.23.27-.28l3.81-1.65c.12-.05.26-.06.39,0,.13.06.23.15.28.27l.61,1.41c1.04-.15,2.09-.16,3.12-.03l.65-1.63c.05-.13.15-.23.27-.28s.26-.06.39,0l4.2,1.7c.25.1.38.39.29.64l-.63,1.76c.72.53,1.37,1.15,1.93,1.84l1.63-.71c.12-.05.26-.06.39,0,.13.05.23.15.28.27l1.77,4.08c.11.26,0,.56-.26.67l-1.34.58c.25,1.18.29,2.42.12,3.61l1.56.51c.13.04.24.14.3.27.06.13.06.27,0,.4l-1.65,4.18c-.05.13-.15.23-.27.28-.13.05-.26.06-.39,0l-1.65-.66c-.62.84-1.34,1.6-2.16,2.25l.74,1.71c.05.12.06.26,0,.39s-.15.23-.27.28l-3.81,1.65c-.12.05-.26.06-.39,0-.13-.05-.23-.15-.28-.27l-.72-1.68c-1.09.26-2.23.3-3.35.13l-.81,1.77c-.08.19-.27.3-.46.3h-.02ZM41.01,57.09l3.23,1.25.77-1.7c.1-.22.33-.34.57-.29,1.22.25,2.5.2,3.69-.15.25-.07.51.05.61.29l.7,1.61,2.87-1.25-.7-1.6c-.09-.22-.03-.47.16-.61.97-.71,1.81-1.58,2.49-2.58.13-.2.39-.27.61-.19l1.55.62,1.26-3.21-1.46-.48c-.24-.08-.39-.32-.34-.57.25-1.33.2-2.72-.14-4.04-.06-.24.06-.49.29-.59l1.26-.55-1.36-3.15-1.52.66c-.22.09-.47.03-.61-.16-.63-.84-1.39-1.57-2.26-2.15-.19-.13-.27-.37-.2-.59l.6-1.66-3.27-1.32-.61,1.53c-.09.22-.32.36-.55.31-1.19-.19-2.4-.18-3.59.03-.23.04-.46-.08-.56-.3l-.56-1.3-2.88,1.25.57,1.3c.1.23,0,.51-.21.64-1.07.64-1.98,1.54-2.62,2.61-.13.21-.38.3-.61.22l-1.66-.6-1.33,3.3,1.66.79c.21.1.32.32.28.54-.18,1.04-.17,2.09,0,3.13.04.23-.08.46-.3.55l-1.68.73,1.36,3.15,1.42-.62c.23-.1.5-.02.63.19.73,1.14,1.72,2.13,2.86,2.86.21.13.29.4.19.63l-.63,1.47h.02ZM46.92,53.65c-2.78,0-5.42-1.62-6.6-4.33-1.57-3.63.1-7.87,3.73-9.45,3.64-1.57,7.87.1,9.44,3.73,1.58,3.63-.1,7.87-3.73,9.45-.93.4-1.89.59-2.85.59h0ZM46.9,40.3c-.82,0-1.65.16-2.44.51-3.12,1.35-4.55,4.99-3.2,8.11.65,1.51,1.86,2.68,3.39,3.28,1.53.61,3.21.58,4.72-.08,1.51-.66,2.68-1.86,3.28-3.39.61-1.53.58-3.21-.08-4.72-1.01-2.32-3.28-3.71-5.66-3.71h-.01Z"/>
  <path class="cls-2" d="M30.42,10.83l1.7-.74-1.74-4.01-1.96.85c-.65-.87-1.44-1.63-2.34-2.24l.75-2.09-4.13-1.67-.78,1.97c-1.23-.2-2.48-.19-3.7.03l-.75-1.74-3.75,1.62.75,1.74c-1.13.67-2.07,1.62-2.75,2.74l-2.09-.75-1.67,4.13,2.06.98c-.18,1.08-.18,2.17,0,3.25l-2.11.92,1.74,4.01,1.86-.81c.76,1.19,1.77,2.2,2.96,2.96l-.82,1.92,4.1,1.59.96-2.1c1.28.27,2.61.21,3.87-.15l.88,2.04,3.75-1.62-.88-2.04c1-.74,1.86-1.63,2.56-2.66l1.99.79,1.62-4.11-1.94-.64c.26-1.39.21-2.82-.14-4.18h0ZM22.73,19.2c-3.33,1.44-7.19-.09-8.63-3.41-1.44-3.33.09-7.19,3.41-8.63,3.33-1.44,7.19.08,8.63,3.41,1.44,3.33-.08,7.19-3.41,8.64h0Z"/>
  <path class="cls-1" d="M17.51,26c-.06,0-.12-.01-.18-.03l-4.17-1.61c-.13-.05-.23-.15-.28-.28-.05-.13-.05-.27,0-.4l.67-1.57c-.99-.7-1.87-1.57-2.56-2.56l-1.5.65c-.26.11-.56,0-.67-.26l-1.77-4.08c-.05-.12-.06-.26,0-.39.06-.13.15-.23.27-.28l1.79-.78c-.12-.9-.12-1.8,0-2.7l-1.75-.83c-.24-.12-.35-.4-.25-.65l1.69-4.2c.1-.25.39-.38.64-.29l1.74.63c.63-.93,1.43-1.74,2.37-2.37l-.59-1.37c-.05-.12-.06-.26,0-.39.05-.13.15-.23.27-.28l3.81-1.65c.12-.05.26-.05.39,0s.23.15.28.27l.61,1.41c1.04-.15,2.08-.16,3.12-.03l.65-1.63c.05-.13.15-.23.27-.28C22.48,0,22.62,0,22.75.05l4.2,1.7c.25.1.38.39.29.64l-.63,1.76c.72.53,1.37,1.15,1.93,1.84l1.63-.71c.13-.05.27-.05.39,0,.13.05.23.15.28.27l1.77,4.08c.11.26,0,.56-.26.67l-1.34.58c.25,1.18.29,2.42.12,3.61l1.56.51c.13.04.24.14.3.27.06.13.06.27.01.4l-1.65,4.18c-.05.13-.15.23-.27.28-.12.05-.26.06-.39,0l-1.65-.66c-.62.84-1.34,1.6-2.16,2.25l.74,1.71c.05.12.06.26,0,.39-.06.13-.15.23-.27.28l-3.81,1.65c-.12.05-.26.06-.39,0-.13-.05-.23-.15-.28-.27l-.72-1.68c-1.09.26-2.23.3-3.35.13l-.81,1.77c-.08.19-.27.3-.46.3h-.02ZM14.01,23.59l3.23,1.25.77-1.7c.1-.22.33-.34.57-.29,1.22.25,2.5.2,3.69-.15.25-.07.51.05.61.29l.7,1.61,2.87-1.25-.7-1.6c-.09-.22-.03-.47.16-.61.97-.71,1.81-1.58,2.49-2.58.13-.2.39-.27.61-.19l1.55.62,1.26-3.21-1.46-.48c-.24-.08-.39-.32-.34-.57.25-1.33.2-2.72-.14-4.04-.06-.24.06-.49.29-.59l1.26-.55-1.36-3.15-1.52.66c-.22.09-.47.03-.61-.16-.63-.84-1.39-1.57-2.26-2.15-.19-.13-.27-.37-.2-.59l.6-1.66-3.27-1.32-.61,1.53c-.09.22-.32.36-.55.31-1.19-.19-2.4-.18-3.59.03-.23.04-.46-.08-.56-.3l-.56-1.3-2.88,1.25.57,1.3c.1.23.01.51-.21.64-1.07.64-1.98,1.54-2.62,2.61-.13.21-.38.3-.61.22l-1.66-.6-1.33,3.3,1.66.79c.21.1.32.32.28.54-.18,1.04-.17,2.09,0,3.13.04.23-.08.46-.3.55l-1.68.73,1.36,3.15,1.42-.62c.23-.1.5-.02.63.19.73,1.14,1.72,2.13,2.86,2.86.21.13.29.4.19.63l-.63,1.47h.02ZM19.92,20.15c-2.78,0-5.42-1.62-6.6-4.33-1.57-3.63.1-7.87,3.73-9.45,3.64-1.57,7.87.1,9.44,3.73,1.58,3.63-.1,7.87-3.73,9.45-.93.4-1.89.59-2.85.59h0ZM19.9,6.8c-.82,0-1.65.16-2.44.51-3.12,1.35-4.55,4.99-3.2,8.11.65,1.51,1.86,2.68,3.39,3.28,1.53.61,3.21.58,4.72-.08,1.51-.66,2.68-1.86,3.28-3.39.61-1.53.58-3.21-.08-4.72-1.01-2.32-3.28-3.71-5.66-3.71h-.01Z"/>
  <path class="cls-1" d="M54,11.5h-1v-1c0-.28-.22-.5-.5-.5s-.5.22-.5.5v1h-1c-.28,0-.5.22-.5.5s.22.5.5.5h1v1c0,.28.22.5.5.5s.5-.22.5-.5v-1h1c.28,0,.5-.22.5-.5s-.22-.5-.5-.5Z"/>
  <path class="cls-1" d="M7.5,59.5h-3v-3c0-.28-.22-.5-.5-.5s-.5.22-.5.5v3H.5c-.28,0-.5.22-.5.5s.22.5.5.5h3v3c0,.28.22.5.5.5s.5-.22.5-.5v-3h3c.28,0,.5-.22.5-.5s-.22-.5-.5-.5Z"/>
  <path class="cls-1" d="M63.5,19.5h-3v-3c0-.28-.22-.5-.5-.5s-.5.22-.5.5v3h-3c-.28,0-.5.22-.5.5s.22.5.5.5h3v3c0,.28.22.5.5.5s.5-.22.5-.5v-3h3c.28,0,.5-.22.5-.5s-.22-.5-.5-.5Z"/>
  <path class="cls-1" d="M10.5,35.5h-1v-1c0-.28-.22-.5-.5-.5s-.5.22-.5.5v1h-1c-.28,0-.5.22-.5.5s.22.5.5.5h1v1c0,.28.22.5.5.5s.5-.22.5-.5v-1h1c.28,0,.5-.22.5-.5s-.22-.5-.5-.5Z"/>
  <path class="cls-1" d="M59.5,62h-.5v-.5c0-.28-.22-.5-.5-.5s-.5.22-.5.5v.5h-.5c-.28,0-.5.22-.5.5s.22.5.5.5h.5v.5c0,.28.22.5.5.5s.5-.22.5-.5v-.5h.5c.28,0,.5-.22.5-.5s-.22-.5-.5-.5Z"/>
</svg>