<svg width="64" height="64" viewBox="0 0 64 64" fill="none" xmlns="http://www.w3.org/2000/svg">
<path d="M47 47H43.5C43.22 47 43 46.78 43 46.5C43 46.22 43.22 46 43.5 46H46.5V43C46.5 42.72 46.72 42.5 47 42.5C47.28 42.5 47.5 42.72 47.5 43V46.5C47.5 46.78 47.28 47 47 47Z" fill="#8696B2"/>
<path d="M33.5 47H16C15.72 47 15.5 46.78 15.5 46.5V27.5C15.5 27.22 15.72 27 16 27C16.28 27 16.5 27.22 16.5 27.5V46H33.5C33.78 46 34 46.22 34 46.5C34 46.78 33.78 47 33.5 47Z" fill="#8696B2"/>
<path d="M47 33.5C46.72 33.5 46.5 33.28 46.5 33V8H34C33.72 8 33.5 7.78 33.5 7.5C33.5 7.22 33.72 7 34 7H47C47.28 7 47.5 7.22 47.5 7.5V33C47.5 33.28 47.28 33.5 47 33.5Z" fill="#8696B2"/>
<path d="M57.3802 44.07L59.1102 43.32L57.3402 39.24L55.3502 40.1C54.6902 39.21 53.8902 38.44 52.9702 37.83L53.7302 35.71L49.5302 34.01L48.7302 36.02C47.4802 35.82 46.2102 35.83 44.9702 36.05L44.2102 34.28L40.4002 35.93L41.1702 37.7C40.0202 38.39 39.0602 39.34 38.3702 40.49L36.2502 39.72L34.5602 43.92L36.6502 44.91C36.4602 46 36.4702 47.12 36.6502 48.21L34.5002 49.14L36.2702 53.22L38.1602 52.4C38.9302 53.61 39.9602 54.64 41.1702 55.41L40.3302 57.37L44.5002 58.98L45.4702 56.84C46.7802 57.11 48.1302 57.06 49.4102 56.68L50.3102 58.76L54.1202 57.11L53.2202 55.04C54.2302 54.29 55.1102 53.38 55.8202 52.34L57.8402 53.15L59.4902 48.97L57.5202 48.32C57.7802 46.91 57.7302 45.46 57.3802 44.06V44.07ZM49.5602 52.59C46.1802 54.06 42.2502 52.5 40.7902 49.12C39.3202 45.74 40.8802 41.81 44.2602 40.34C47.6402 38.87 51.5702 40.43 53.0302 43.81C54.5002 47.19 52.9502 51.12 49.5602 52.59Z" fill="#DFF0FE"/>
<path d="M44.5101 59.5C44.4501 59.5 44.3901 59.49 44.3301 59.47L40.1601 57.86C40.0301 57.81 39.9301 57.71 39.8801 57.58C39.8301 57.45 39.8301 57.31 39.8801 57.18L40.5501 55.61C39.5601 54.91 38.6801 54.04 37.9901 53.05L36.4901 53.7C36.2301 53.81 35.9301 53.7 35.8201 53.44L34.0501 49.36C34.0001 49.24 33.9901 49.1 34.0501 48.97C34.1101 48.84 34.2001 48.74 34.3201 48.69L36.1101 47.91C35.9901 47.01 35.9901 46.11 36.1101 45.21L34.3601 44.38C34.1201 44.26 34.0101 43.98 34.1101 43.73L35.8001 39.53C35.9001 39.28 36.1901 39.15 36.4401 39.24L38.1801 39.87C38.8101 38.94 39.6101 38.13 40.5501 37.5L39.9601 36.13C39.9101 36.01 39.9001 35.87 39.9601 35.74C40.0101 35.61 40.1101 35.51 40.2301 35.46L44.0401 33.81C44.1601 33.76 44.3001 33.75 44.4301 33.81C44.5601 33.87 44.6601 33.96 44.7101 34.08L45.3201 35.49C46.3601 35.34 47.4101 35.33 48.4401 35.46L49.0901 33.83C49.1401 33.7 49.2401 33.6 49.3601 33.55C49.4801 33.5 49.6201 33.49 49.7501 33.55L53.9501 35.25C54.2001 35.35 54.3301 35.64 54.2401 35.89L53.6101 37.65C54.3301 38.18 54.9801 38.8 55.5401 39.49L57.1701 38.78C57.2901 38.73 57.4301 38.72 57.5601 38.78C57.6901 38.83 57.7901 38.93 57.8401 39.05L59.6101 43.13C59.7201 43.39 59.6101 43.69 59.3501 43.8L58.0101 44.38C58.2601 45.56 58.3001 46.8 58.1301 47.99L59.6901 48.5C59.8201 48.54 59.9301 48.64 59.9901 48.77C60.0501 48.9 60.0501 49.04 60.0001 49.17L58.3501 53.35C58.3001 53.48 58.2001 53.58 58.0801 53.63C57.9501 53.68 57.8201 53.69 57.6901 53.63L56.0401 52.97C55.4201 53.81 54.7001 54.57 53.8801 55.22L54.6201 56.93C54.6701 57.05 54.6801 57.19 54.6201 57.32C54.5601 57.45 54.4701 57.55 54.3501 57.6L50.5401 59.25C50.4201 59.3 50.2801 59.31 50.1501 59.25C50.0201 59.2 49.9201 59.1 49.8701 58.98L49.1501 57.3C48.0601 57.56 46.9201 57.6 45.8001 57.43L44.9901 59.2C44.9101 59.39 44.7201 59.5 44.5301 59.5H44.5101ZM41.0101 57.09L44.2401 58.34L45.0101 56.64C45.1101 56.42 45.3401 56.3 45.5801 56.35C46.8001 56.6 48.0801 56.55 49.2701 56.2C49.5201 56.13 49.7801 56.25 49.8801 56.49L50.5801 58.1L53.4501 56.85L52.7501 55.25C52.6601 55.03 52.7201 54.78 52.9101 54.64C53.8801 53.93 54.7201 53.06 55.4001 52.06C55.5301 51.86 55.7901 51.79 56.0101 51.87L57.5601 52.49L58.8201 49.28L57.3601 48.8C57.1201 48.72 56.9701 48.48 57.0201 48.23C57.2701 46.9 57.2201 45.51 56.8801 44.19C56.8201 43.95 56.9401 43.7 57.1701 43.6L58.4301 43.05L57.0701 39.9L55.5501 40.56C55.3301 40.65 55.0801 40.59 54.9401 40.4C54.3101 39.56 53.5501 38.83 52.6801 38.25C52.4901 38.12 52.4101 37.88 52.4801 37.66L53.0801 36L49.8101 34.68L49.2001 36.21C49.1101 36.43 48.8801 36.57 48.6501 36.52C47.4601 36.33 46.2501 36.34 45.0601 36.55C44.8301 36.59 44.6001 36.47 44.5001 36.25L43.9401 34.95L41.0601 36.2L41.6301 37.5C41.7301 37.73 41.6401 38.01 41.4201 38.14C40.3501 38.78 39.4401 39.68 38.8001 40.75C38.6701 40.96 38.4201 41.05 38.1901 40.97L36.5301 40.37L35.2001 43.67L36.8601 44.46C37.0701 44.56 37.1801 44.78 37.1401 45C36.9601 46.04 36.9701 47.09 37.1401 48.13C37.1801 48.36 37.0601 48.59 36.8401 48.68L35.1601 49.41L36.5201 52.56L37.9401 51.94C38.1701 51.84 38.4401 51.92 38.5701 52.13C39.3001 53.27 40.2901 54.26 41.4301 54.99C41.6401 55.12 41.7201 55.39 41.6201 55.62L40.9901 57.09H41.0101ZM46.9201 53.65C44.1401 53.65 41.5001 52.03 40.3201 49.32C38.7501 45.69 40.4201 41.45 44.0501 39.87C47.6901 38.3 51.9201 39.97 53.4901 43.6C55.0701 47.23 53.3901 51.47 49.7601 53.05C48.8301 53.45 47.8701 53.64 46.9101 53.64L46.9201 53.65ZM46.9001 40.3C46.0801 40.3 45.2501 40.46 44.4601 40.81C41.3401 42.16 39.9101 45.8 41.2601 48.92C41.9101 50.43 43.1201 51.6 44.6501 52.2C46.1801 52.81 47.8601 52.78 49.3701 52.12C50.8801 51.46 52.0501 50.26 52.6501 48.73C53.2601 47.2 53.2301 45.52 52.5701 44.01C51.5601 41.69 49.2901 40.3 46.9101 40.3H46.9001Z" fill="#8696B2"/>
<path d="M30.4202 10.83L32.1202 10.09L30.3802 6.07999L28.4202 6.92999C27.7702 6.05999 26.9802 5.29999 26.0802 4.68999L26.8302 2.59999L22.7002 0.929993L21.9202 2.89999C20.6902 2.69999 19.4402 2.70999 18.2202 2.92999L17.4702 1.18999L13.7202 2.80999L14.4702 4.54999C13.3402 5.21999 12.4002 6.16999 11.7202 7.28999L9.63016 6.53999L7.96016 10.67L10.0202 11.65C9.84016 12.73 9.84016 13.82 10.0202 14.9L7.91016 15.82L9.65016 19.83L11.5102 19.02C12.2702 20.21 13.2802 21.22 14.4702 21.98L13.6502 23.9L17.7502 25.49L18.7102 23.39C19.9902 23.66 21.3202 23.6 22.5802 23.24L23.4602 25.28L27.2102 23.66L26.3302 21.62C27.3302 20.88 28.1902 19.99 28.8902 18.96L30.8802 19.75L32.5002 15.64L30.5602 15C30.8202 13.61 30.7702 12.18 30.4202 10.82V10.83ZM22.7302 19.2C19.4002 20.64 15.5402 19.11 14.1002 15.79C12.6602 12.46 14.1902 8.59999 17.5102 7.15999C20.8402 5.71999 24.7002 7.23999 26.1402 10.57C27.5802 13.9 26.0602 17.76 22.7302 19.21V19.2Z" fill="#DFF0FE"/>
<path d="M17.5101 26C17.4501 26 17.3901 25.99 17.3301 25.97L13.1601 24.36C13.0301 24.31 12.9301 24.21 12.8801 24.08C12.8301 23.95 12.8301 23.81 12.8801 23.68L13.5501 22.11C12.5601 21.41 11.6801 20.54 10.9901 19.55L9.49012 20.2C9.23012 20.31 8.93012 20.2 8.82012 19.94L7.05012 15.86C7.00012 15.74 6.99012 15.6 7.05012 15.47C7.11012 15.34 7.20012 15.24 7.32012 15.19L9.11012 14.41C8.99012 13.51 8.99012 12.61 9.11012 11.71L7.36012 10.88C7.12012 10.76 7.01012 10.48 7.11012 10.23L8.80012 6.03C8.90012 5.78 9.19012 5.65 9.44012 5.74L11.1801 6.37C11.8101 5.44 12.6101 4.63 13.5501 4L12.9601 2.63C12.9101 2.51 12.9001 2.37 12.9601 2.24C13.0101 2.11 13.1101 2.01 13.2301 1.96L17.0401 0.310002C17.1601 0.260002 17.3001 0.260002 17.4301 0.310002C17.5601 0.360002 17.6601 0.460002 17.7101 0.580002L18.3201 1.99C19.3601 1.84 20.4001 1.83 21.4401 1.96L22.0901 0.330002C22.1401 0.200002 22.2401 0.100002 22.3601 0.0500019C22.4801 1.8701e-06 22.6201 -0.00999813 22.7501 0.0500019L26.9501 1.75C27.2001 1.85 27.3301 2.14 27.2401 2.39L26.6101 4.15C27.3301 4.68 27.9801 5.3 28.5401 5.99L30.1701 5.28C30.3001 5.23 30.4401 5.23 30.5601 5.28C30.6901 5.33 30.7901 5.43 30.8401 5.55L32.6101 9.63C32.7201 9.89 32.6101 10.19 32.3501 10.3L31.0101 10.88C31.2601 12.06 31.3001 13.3 31.1301 14.49L32.6901 15C32.8201 15.04 32.9301 15.14 32.9901 15.27C33.0501 15.4 33.0501 15.54 33.0001 15.67L31.3501 19.85C31.3001 19.98 31.2001 20.08 31.0801 20.13C30.9601 20.18 30.8201 20.19 30.6901 20.13L29.0401 19.47C28.4201 20.31 27.7001 21.07 26.8801 21.72L27.6201 23.43C27.6701 23.55 27.6801 23.69 27.6201 23.82C27.5601 23.95 27.4701 24.05 27.3501 24.1L23.5401 25.75C23.4201 25.8 23.2801 25.81 23.1501 25.75C23.0201 25.7 22.9201 25.6 22.8701 25.48L22.1501 23.8C21.0601 24.06 19.9201 24.1 18.8001 23.93L17.9901 25.7C17.9101 25.89 17.7201 26 17.5301 26H17.5101ZM14.0101 23.59L17.2401 24.84L18.0101 23.14C18.1101 22.92 18.3401 22.8 18.5801 22.85C19.8001 23.1 21.0801 23.05 22.2701 22.7C22.5201 22.63 22.7801 22.75 22.8801 22.99L23.5801 24.6L26.4501 23.35L25.7501 21.75C25.6601 21.53 25.7201 21.28 25.9101 21.14C26.8801 20.43 27.7201 19.56 28.4001 18.56C28.5301 18.36 28.7901 18.29 29.0101 18.37L30.5601 18.99L31.8201 15.78L30.3601 15.3C30.1201 15.22 29.9701 14.98 30.0201 14.73C30.2701 13.4 30.2201 12.01 29.8801 10.69C29.8201 10.45 29.9401 10.2 30.1701 10.1L31.4301 9.55L30.0701 6.4L28.5501 7.06C28.3301 7.15 28.0801 7.09 27.9401 6.9C27.3101 6.06 26.5501 5.33 25.6801 4.75C25.4901 4.62 25.4101 4.38 25.4801 4.16L26.0801 2.5L22.8101 1.18L22.2001 2.71C22.1101 2.93 21.8801 3.07 21.6501 3.02C20.4601 2.83 19.2501 2.84 18.0601 3.05C17.8301 3.09 17.6001 2.97 17.5001 2.75L16.9401 1.45L14.0601 2.7L14.6301 4C14.7301 4.23 14.6401 4.51 14.4201 4.64C13.3501 5.28 12.4401 6.18 11.8001 7.25C11.6701 7.46 11.4201 7.55 11.1901 7.47L9.53012 6.87L8.20012 10.17L9.86012 10.96C10.0701 11.06 10.1801 11.28 10.1401 11.5C9.96012 12.54 9.97012 13.59 10.1401 14.63C10.1801 14.86 10.0601 15.09 9.84012 15.18L8.16012 15.91L9.52012 19.06L10.9401 18.44C11.1701 18.34 11.4401 18.42 11.5701 18.63C12.3001 19.77 13.2901 20.76 14.4301 21.49C14.6401 21.62 14.7201 21.89 14.6201 22.12L13.9901 23.59H14.0101ZM19.9201 20.15C17.1401 20.15 14.5001 18.53 13.3201 15.82C11.7501 12.19 13.4201 7.95 17.0501 6.37C20.6901 4.8 24.9201 6.47 26.4901 10.1C28.0701 13.73 26.3901 17.97 22.7601 19.55C21.8301 19.95 20.8701 20.14 19.9101 20.14L19.9201 20.15ZM19.9001 6.8C19.0801 6.8 18.2501 6.96 17.4601 7.31C14.3401 8.66 12.9101 12.3 14.2601 15.42C14.9101 16.93 16.1201 18.1 17.6501 18.7C19.1801 19.31 20.8601 19.28 22.3701 18.62C23.8801 17.96 25.0501 16.76 25.6501 15.23C26.2601 13.7 26.2301 12.02 25.5701 10.51C24.5601 8.19 22.2901 6.8 19.9101 6.8H19.9001Z" fill="#8696B2"/>
<path d="M54 11.5H53V10.5C53 10.22 52.78 10 52.5 10C52.22 10 52 10.22 52 10.5V11.5H51C50.72 11.5 50.5 11.72 50.5 12C50.5 12.28 50.72 12.5 51 12.5H52V13.5C52 13.78 52.22 14 52.5 14C52.78 14 53 13.78 53 13.5V12.5H54C54.28 12.5 54.5 12.28 54.5 12C54.5 11.72 54.28 11.5 54 11.5Z" fill="#8696B2"/>
<path d="M7.5 59.5H4.5V56.5C4.5 56.22 4.28 56 4 56C3.72 56 3.5 56.22 3.5 56.5V59.5H0.5C0.22 59.5 0 59.72 0 60C0 60.28 0.22 60.5 0.5 60.5H3.5V63.5C3.5 63.78 3.72 64 4 64C4.28 64 4.5 63.78 4.5 63.5V60.5H7.5C7.78 60.5 8 60.28 8 60C8 59.72 7.78 59.5 7.5 59.5Z" fill="#8696B2"/>
<path d="M63.5 19.5H60.5V16.5C60.5 16.22 60.28 16 60 16C59.72 16 59.5 16.22 59.5 16.5V19.5H56.5C56.22 19.5 56 19.72 56 20C56 20.28 56.22 20.5 56.5 20.5H59.5V23.5C59.5 23.78 59.72 24 60 24C60.28 24 60.5 23.78 60.5 23.5V20.5H63.5C63.78 20.5 64 20.28 64 20C64 19.72 63.78 19.5 63.5 19.5Z" fill="#8696B2"/>
<path d="M10.5 35.5H9.5V34.5C9.5 34.22 9.28 34 9 34C8.72 34 8.5 34.22 8.5 34.5V35.5H7.5C7.22 35.5 7 35.72 7 36C7 36.28 7.22 36.5 7.5 36.5H8.5V37.5C8.5 37.78 8.72 38 9 38C9.28 38 9.5 37.78 9.5 37.5V36.5H10.5C10.78 36.5 11 36.28 11 36C11 35.72 10.78 35.5 10.5 35.5Z" fill="#8696B2"/>
<path d="M59.5 62H59V61.5C59 61.22 58.78 61 58.5 61C58.22 61 58 61.22 58 61.5V62H57.5C57.22 62 57 62.22 57 62.5C57 62.78 57.22 63 57.5 63H58V63.5C58 63.78 58.22 64 58.5 64C58.78 64 59 63.78 59 63.5V63H59.5C59.78 63 60 62.78 60 62.5C60 62.22 59.78 62 59.5 62Z" fill="#8696B2"/>
</svg>
