<svg xmlns="http://www.w3.org/2000/svg" width="64" height="64" viewBox="0 0 64 64"><defs><style>.a{fill:#dff0fe;}.b{fill:#4788c7;}</style></defs><g transform="translate(-868 -258)"><path class="a" d="M884.5,311.5v.119c0,4.352,1.5,7.881,5.867,7.881h19.266c4.367,0,5.867-3.529,5.867-7.881V311.5Zm15.5,5.064a1.5,1.5,0,1,1,1.5-1.5A1.5,1.5,0,0,1,900,316.564Z"/><path class="a" d="M884.5,270.5v-.089a5.889,5.889,0,0,1,5.868-5.911h19.264a5.889,5.889,0,0,1,5.868,5.911h0v.089Z"/><path class="b" d="M909.633,320H890.367A6.405,6.405,0,0,1,884,313.572V270.428A6.405,6.405,0,0,1,890.367,264h19.266A6.4,6.4,0,0,1,916,270.428V287h-1V270.428A5.4,5.4,0,0,0,909.633,265H890.367A5.4,5.4,0,0,0,885,270.428v43.144A5.4,5.4,0,0,0,890.367,319h19.266A5.4,5.4,0,0,0,915,313.572V305.5a.5.5,0,0,1,1,0v8.072A6.405,6.405,0,0,1,909.633,320Z"/><path class="b" d="M900,317.063a2,2,0,1,1,2-2A2,2,0,0,1,900,317.063Zm0-3a1,1,0,1,0,1,1A1,1,0,0,0,900,314.063Z"/><path class="b" d="M903.5,269.063h-7a.5.5,0,0,1,0-1h7a.5.5,0,0,1,0,1Z"/><path class="b" d="M905.5,284.5h-15a.5.5,0,0,1,0-1h15a.5.5,0,0,1,0,1Z"/><path class="b" d="M909.5,279.5h-19a.5.5,0,0,1,0-1h19a.5.5,0,0,1,0,1Z"/></g><path class="b" d="M903.079,307.5a.523.523,0,0,1-.217-.049.5.5,0,0,1-.283-.451v-3.241a4.705,4.705,0,0,1-2.931-1.524,4.411,4.411,0,0,1-1.141-3.212v-5.909a4.767,4.767,0,0,1,4.778-4.614H916.81a4.672,4.672,0,0,1,4.69,4.618v5.933a4.944,4.944,0,0,1-4.7,4.931h-9.163l-4.249,3.408A.5.5,0,0,1,903.079,307.5Zm.21-18a3.76,3.76,0,0,0-3.783,3.619v5.932a3.438,3.438,0,0,0,.887,2.515A3.723,3.723,0,0,0,903,302.793a.591.591,0,0,1,.58.5v2.662l3.573-2.865a.5.5,0,0,1,.313-.111H916.8a3.919,3.919,0,0,0,3.7-3.931v-5.937a3.672,3.672,0,0,0-3.7-3.614Z" transform="translate(-868 -258)"/><path class="b" d="M910.5,299.5h-7a.5.5,0,0,1,0-1h7a.5.5,0,0,1,0,1Z" transform="translate(-868 -258)"/><path class="b" d="M914.5,296.5h-11a.5.5,0,0,1,0-1h11a.5.5,0,0,1,0,1Z" transform="translate(-868 -258)"/><path class="b" d="M916.5,293.5h-13a.5.5,0,0,1,0-1h13a.5.5,0,0,1,0,1Z" transform="translate(-868 -258)"/><path class="b" d="M871.5,283.5h-1v-1a.5.5,0,0,0-1,0v1h-1a.5.5,0,0,0,0,1h1v1a.5.5,0,0,0,1,0v-1h1a.5.5,0,0,0,0-1Z" transform="translate(-868 -258)"/><path class="b" d="M883.5,261.5h-3v-3a.5.5,0,0,0-1,0v3h-3a.5.5,0,0,0,0,1h3v3a.5.5,0,0,0,1,0v-3h3a.5.5,0,0,0,0-1Z" transform="translate(-868 -258)"/><path class="b" d="M931.5,317.5h-3v-3a.5.5,0,0,0-1,0v3h-3a.5.5,0,0,0,0,1h3v3a.5.5,0,0,0,1,0v-3h3a.5.5,0,0,0,0-1Z" transform="translate(-868 -258)"/></svg>