<?xml version="1.0" encoding="UTF-8"?>
<svg id="illustartions" xmlns="http://www.w3.org/2000/svg" viewBox="0 0 64 64">
  <defs>
    <style>
      .cls-1 {
        isolation: isolate;
      }

      .cls-1, .cls-2 {
        fill: #ded6fc;
      }

      .cls-3 {
        fill: #999;
      }
    </style>
  </defs>
  <g id="devices-desktop-mobile">
    <g>
      <rect class="cls-1" x="20.98" y="50.52" width="9.93" height="2.36"/>
      <path class="cls-1" d="M3.17,18.3v-.97c0-1.68,1.38-3.05,3.06-3.05h39.54c1.68,0,3.06,1.37,3.06,3.05v.97H3.17Z"/>
      <path class="cls-3" d="M45.77,13.79H6.23c-1.96,0-3.56,1.59-3.56,3.55v.97s0,0,0,0v21.09c0,1.96,1.6,3.55,3.56,3.55h31.77c.28,0,.5-.22.5-.5s-.22-.5-.5-.5H6.23c-1.41,0-2.56-1.14-2.56-2.55v-20.59h44.66v9.2c0,.28.22.5.5.5s.5-.22.5-.5v-10.66c0-1.96-1.6-3.55-3.56-3.55ZM48.33,17.8H3.67v-.47c0-1.41,1.15-2.55,2.56-2.55h39.54c1.41,0,2.56,1.14,2.56,2.55v.47Z"/>
      <circle class="cls-1" cx="26" cy="46.5" r="1.5"/>
      <path class="cls-3" d="M26,48.5c-1.1,0-2-.9-2-2s.9-2,2-2,2,.9,2,2-.9,2-2,2ZM26,45.5c-.55,0-1,.45-1,1s.45,1,1,1,1-.45,1-1-.45-1-1-1Z"/>
      <path class="cls-3" d="M45.81,11H6.19c-3.42,0-6.19,2.77-6.19,6.18v27.73c0,3.41,2.78,6.18,6.19,6.18h14.29c.08.7.21,2.82-.82,4.03-.51.6-1.22.89-2.18.89-.28,0-.5.22-.5.5s.22.5.5.5h17.03c.28,0,.5-.22.5-.5s-.22-.5-.5-.5c-.96,0-1.67-.29-2.19-.89-1.02-1.19-.95-3.26-.88-4.03h6.55c.28,0,.5-.22.5-.5s-.22-.5-.5-.5H6.19c-2.86,0-5.19-2.32-5.19-5.18v-27.73c0-2.85,2.33-5.18,5.19-5.18h39.61c2.86,0,5.19,2.32,5.19,5.18v10.82c0,.28.22.5.5.5s.5-.22.5-.5v-10.82c0-3.41-2.78-6.18-6.19-6.18ZM31.57,55.76c.07.09.15.17.23.24h-11.59c.08-.08.16-.16.23-.25,1.23-1.46,1.15-3.76,1.06-4.68h8.95c-.08.96-.11,3.24,1.12,4.68Z"/>
      <path class="cls-3" d="M23.5,28.5H6.5c-.28,0-.5-.22-.5-.5v-7c0-.28.22-.5.5-.5h17c.28,0,.5.22.5.5v7c0,.28-.22.5-.5.5ZM7,27.5h16v-6H7v6Z"/>
      <path class="cls-3" d="M40,21.5h-13c-.28,0-.5-.22-.5-.5s.22-.5.5-.5h13c.28,0,.5.22.5.5s-.22.5-.5.5Z"/>
      <path class="cls-3" d="M44,24.5h-17c-.28,0-.5-.22-.5-.5s.22-.5.5-.5h17c.28,0,.5.22.5.5s-.22.5-.5.5Z"/>
      <path class="cls-3" d="M38,26.5h-11c-.28,0-.5-.22-.5-.5s.22-.5.5-.5h11c.28,0,.5.22.5.5s-.22.5-.5.5Z"/>
      <path class="cls-2" d="M6.5,30.5h8v9H6.5v-9Z"/>
      <path class="cls-3" d="M14.5,40H6.5c-.28,0-.5-.22-.5-.5v-9c0-.28.22-.5.5-.5h8c.28,0,.5.22.5.5v9c0,.28-.22.5-.5.5ZM7,39h7v-8h-7v8Z"/>
      <path class="cls-3" d="M26,40h-8c-.28,0-.5-.22-.5-.5v-9c0-.28.22-.5.5-.5h8c.28,0,.5.22.5.5v9c0,.28-.22.5-.5.5ZM18.5,39h7v-8h-7v8Z"/>
      <path class="cls-3" d="M37.5,40h-8c-.28,0-.5-.22-.5-.5v-9c0-.28.22-.5.5-.5h8c.28,0,.5.22.5.5v9c0,.28-.22.5-.5.5ZM30,39h7v-8h-7v8Z"/>
    </g>
    <g>
      <path class="cls-3" d="M61.5,64h-19c-1.38,0-2.5-1.12-2.5-2.5v-29c0-1.38,1.12-2.5,2.5-2.5h19c1.38,0,2.5,1.12,2.5,2.5v29c0,1.38-1.12,2.5-2.5,2.5ZM42.5,31c-.83,0-1.5.67-1.5,1.5v29c0,.83.67,1.5,1.5,1.5h19c.83,0,1.5-.67,1.5-1.5v-29c0-.83-.67-1.5-1.5-1.5h-19Z"/>
      <path class="cls-3" d="M60.06,58h-16.57c-.82,0-1.49-.67-1.49-1.5v-23c0-.83.67-1.5,1.49-1.5h17.02c.82,0,1.49.67,1.49,1.5v22.54c0,1.08-.87,1.96-1.94,1.96ZM43.49,33c-.27,0-.49.22-.49.5v23c0,.27.22.5.49.5h16.57c.52,0,.94-.43.94-.96v-22.54c0-.27-.22-.5-.49-.5h-17.02Z"/>
      <circle class="cls-1" cx="52" cy="60.5" r="1"/>
      <path class="cls-3" d="M52,62c-.83,0-1.5-.67-1.5-1.5s.67-1.5,1.5-1.5,1.5.67,1.5,1.5-.67,1.5-1.5,1.5ZM52,60c-.28,0-.5.22-.5.5s.22.5.5.5.5-.22.5-.5-.22-.5-.5-.5Z"/>
      <path class="cls-1" d="M45,36.5h14v11h-14v-11Z"/>
      <path class="cls-3" d="M59,48h-14c-.28,0-.5-.22-.5-.5v-11c0-.28.22-.5.5-.5h14c.28,0,.5.22.5.5v11c0,.28-.22.5-.5.5ZM45.5,47h13v-10h-13v10Z"/>
      <path class="cls-3" d="M58,51.5h-13c-.28,0-.5-.22-.5-.5s.22-.5.5-.5h13c.28,0,.5.22.5.5s-.22.5-.5.5Z"/>
      <path class="cls-3" d="M55,54.5h-10c-.28,0-.5-.22-.5-.5s.22-.5.5-.5h10c.28,0,.5.22.5.5s-.22.5-.5.5Z"/>
    </g>
    <path class="cls-3" d="M59.5,24.5h-1v-1c0-.28-.22-.5-.5-.5s-.5.22-.5.5v1h-1c-.28,0-.5.22-.5.5s.22.5.5.5h1v1c0,.28.22.5.5.5s.5-.22.5-.5v-1h1c.28,0,.5-.22.5-.5s-.22-.5-.5-.5Z"/>
    <path class="cls-3" d="M63.5,3.5h-3V.5c0-.28-.22-.5-.5-.5s-.5.22-.5.5v3h-3c-.28,0-.5.22-.5.5s.22.5.5.5h3v3c0,.28.22.5.5.5s.5-.22.5-.5v-3h3c.28,0,.5-.22.5-.5s-.22-.5-.5-.5Z"/>
    <path class="cls-3" d="M40.5,5.5h-2v-2c0-.28-.22-.5-.5-.5s-.5.22-.5.5v2h-2c-.28,0-.5.22-.5.5s.22.5.5.5h2v2c0,.28.22.5.5.5s.5-.22.5-.5v-2h2c.28,0,.5-.22.5-.5s-.22-.5-.5-.5Z"/>
    <path class="cls-3" d="M10.5,58.5h-2v-2c0-.28-.22-.5-.5-.5s-.5.22-.5.5v2h-2c-.28,0-.5.22-.5.5s.22.5.5.5h2v2c0,.28.22.5.5.5s.5-.22.5-.5v-2h2c.28,0,.5-.22.5-.5s-.22-.5-.5-.5Z"/>
  </g>
</svg>