<?xml version="1.0" encoding="UTF-8"?>
<svg id="illustartions" xmlns="http://www.w3.org/2000/svg" viewBox="0 0 64 64">
  <defs>
    <style>
      .cls-1 {
        fill: #ef609d;
      }

      .cls-2 {
        fill: #999;
      }
    </style>
  </defs>
  <rect class="cls-1" x="44.5" y="16.5" width="6" height="5"/>
  <rect class="cls-1" x="13.5" y="16.5" width="6" height="5"/>
  <rect class="cls-1" x="19.5" y="40.5" width="25" height="4"/>
  <path class="cls-1" d="M4.5,48.5v1.63c0,1.31,1.1,2.37,2.47,2.37h12.53v-4H4.5Z"/>
  <path class="cls-1" d="M57.03,21.5h-1.53v5.09c.58.21,1,.76,1,1.41s-.42,1.2-1,1.41v16.72c0,1.31-1.1,2.37-2.47,2.37h-8.53v4h12.53c1.36,0,2.47-1.06,2.47-2.37v-26.26c0-1.31-1.1-2.37-2.47-2.37Z"/>
  <path class="cls-2" d="M57.03,21h-6.03v-4.5c0-.28-.22-.5-.5-.5h-5.5v-4.5c0-.28-.22-.5-.5-.5h-25c-.28,0-.5.22-.5.5v4.5h-5.5c-.28,0-.5.22-.5.5v4.5h-6.03c-1.64,0-2.97,1.29-2.97,2.87v26.27c0,1.58,1.33,2.87,2.97,2.87h12.03v10.5c0,.28.22.5.5.5h25c.28,0,.5-.22.5-.5v-10.5h12.03c1.63,0,2.97-1.29,2.97-2.87v-26.26c0-1.58-1.33-2.87-2.97-2.87ZM50,21h-5v-4h5v4ZM20,12h24v9h-24v-9ZM14,17h5v4h-5v-4ZM44,63h-24v-22h24v22ZM59,50.13c0,1.03-.88,1.87-1.97,1.87h-12.03s0-11.5,0-11.5c0-.28-.22-.5-.5-.5h-25c-.28,0-.5.22-.5.5v11.5H6.97c-1.08,0-1.97-.84-1.97-1.87v-26.27c0-1.03.88-1.87,1.97-1.87h50.07c1.08,0,1.97.84,1.97,1.87v26.26Z"/>
  <path class="cls-1" d="M49,26.5c.83,0,1.5.67,1.5,1.5s-.67,1.5-1.5,1.5-1.5-.67-1.5-1.5.67-1.5,1.5-1.5Z"/>
  <path class="cls-2" d="M49,30c-1.1,0-2-.9-2-2s.9-2,2-2,2,.9,2,2-.9,2-2,2ZM49,27c-.55,0-1,.45-1,1s.45,1,1,1,1-.45,1-1-.45-1-1-1Z"/>
  <path class="cls-2" d="M55,30c-1.1,0-2-.9-2-2s.9-2,2-2,2,.9,2,2-.9,2-2,2ZM55,27c-.55,0-1,.45-1,1s.45,1,1,1,1-.45,1-1-.45-1-1-1Z"/>
  <path class="cls-2" d="M22.5,28.5h-13c-.28,0-.5-.22-.5-.5s.22-.5.5-.5h13c.28,0,.5.22.5.5s-.22.5-.5.5Z"/>
  <path class="cls-2" d="M41.5,47.5h-19c-.28,0-.5-.22-.5-.5s.22-.5.5-.5h19c.28,0,.5.22.5.5s-.22.5-.5.5Z"/>
  <path class="cls-2" d="M41.5,51.5h-19c-.28,0-.5-.22-.5-.5s.22-.5.5-.5h19c.28,0,.5.22.5.5s-.22.5-.5.5Z"/>
  <path class="cls-2" d="M35.5,55.5h-13c-.28,0-.5-.22-.5-.5s.22-.5.5-.5h13c.28,0,.5.22.5.5s-.22.5-.5.5Z"/>
  <path class="cls-2" d="M33.5,59.5h-11c-.28,0-.5-.22-.5-.5s.22-.5.5-.5h11c.28,0,.5.22.5.5s-.22.5-.5.5Z"/>
  <path class="cls-2" d="M7.5,3.5h-3V.5c0-.28-.22-.5-.5-.5s-.5.22-.5.5v3H.5c-.28,0-.5.22-.5.5s.22.5.5.5h3v3c0,.28.22.5.5.5s.5-.22.5-.5v-3h3c.28,0,.5-.22.5-.5s-.22-.5-.5-.5Z"/>
  <path class="cls-2" d="M63.5,8.5h-1v-1c0-.28-.22-.5-.5-.5s-.5.22-.5.5v1h-1c-.28,0-.5.22-.5.5s.22.5.5.5h1v1c0,.28.22.5.5.5s.5-.22.5-.5v-1h1c.28,0,.5-.22.5-.5s-.22-.5-.5-.5Z"/>
</svg>