<?xml version="1.0" encoding="UTF-8"?>
<svg id="illustartions" xmlns="http://www.w3.org/2000/svg" viewBox="0 0 64 64">
  <defs>
    <style>
      .cls-1 {
        fill: #0a0a0a;
      }

      .cls-2 {
        fill: #e81e75;
      }
    </style>
  </defs>
  <path class="cls-2" d="M52.55,54.46c-2.75-.33-4.89-2.88-4.89-5.96v-6h-5.66v11.5c0,1.33,1.83,4.5,5.5,4.5,4.89,0,5.05-4,5.05-4v-.04Z"/>
  <path class="cls-1" d="M53,42h-10.7V11.5c0-.28-.22-.5-.5-.5H8c-.28,0-.5.22-.5.5v41.12c0,3.52,2.85,6.38,6.35,6.38h33.65c3.98,0,6-2.19,6-6.5v-10c0-.28-.22-.5-.5-.5ZM13.85,58c-2.95,0-5.35-2.41-5.35-5.38V12h32.8v40.62c0,2.25,1.16,4.24,2.93,5.38H13.85ZM52.5,52.5c0,3.75-2.5,5.5-5,5.5s-5.2-2.63-5.2-5.38v-9.62h10.2v9.5Z"/>
  <g>
    <path class="cls-1" d="M36.75,24.79h-9.14c-.28,0-.5-.22-.5-.5s.22-.5.5-.5h9.14c.28,0,.5.22.5.5s-.22.5-.5.5Z"/>
    <path class="cls-1" d="M22.39,24.79h-9.14c-.28,0-.5-.22-.5-.5s.22-.5.5-.5h9.14c.28,0,.5.22.5.5s-.22.5-.5.5Z"/>
    <path class="cls-1" d="M36.75,28.71h-9.14c-.28,0-.5-.22-.5-.5s.22-.5.5-.5h9.14c.28,0,.5.22.5.5s-.22.5-.5.5Z"/>
    <path class="cls-1" d="M22.39,28.71h-9.14c-.28,0-.5-.22-.5-.5s.22-.5.5-.5h9.14c.28,0,.5.22.5.5s-.22.5-.5.5Z"/>
    <path class="cls-1" d="M36.75,32.62h-9.14c-.28,0-.5-.22-.5-.5s.22-.5.5-.5h9.14c.28,0,.5.22.5.5s-.22.5-.5.5Z"/>
    <path class="cls-1" d="M22.39,32.62h-9.14c-.28,0-.5-.22-.5-.5s.22-.5.5-.5h9.14c.28,0,.5.22.5.5s-.22.5-.5.5Z"/>
    <path class="cls-1" d="M36.75,36.54h-9.14c-.28,0-.5-.22-.5-.5s.22-.5.5-.5h9.14c.28,0,.5.22.5.5s-.22.5-.5.5Z"/>
    <path class="cls-1" d="M22.39,36.54h-9.14c-.28,0-.5-.22-.5-.5s.22-.5.5-.5h9.14c.28,0,.5.22.5.5s-.22.5-.5.5Z"/>
    <path class="cls-1" d="M36.75,40.46h-9.14c-.28,0-.5-.22-.5-.5s.22-.5.5-.5h9.14c.28,0,.5.22.5.5s-.22.5-.5.5Z"/>
    <path class="cls-1" d="M22.39,40.46h-9.14c-.28,0-.5-.22-.5-.5s.22-.5.5-.5h9.14c.28,0,.5.22.5.5s-.22.5-.5.5Z"/>
    <path class="cls-1" d="M36.75,44.37h-9.14c-.28,0-.5-.22-.5-.5s.22-.5.5-.5h9.14c.28,0,.5.22.5.5s-.22.5-.5.5Z"/>
    <path class="cls-1" d="M22.39,44.37h-9.14c-.28,0-.5-.22-.5-.5s.22-.5.5-.5h9.14c.28,0,.5.22.5.5s-.22.5-.5.5Z"/>
    <path class="cls-1" d="M36.75,48.29h-9.14c-.28,0-.5-.22-.5-.5s.22-.5.5-.5h9.14c.28,0,.5.22.5.5s-.22.5-.5.5Z"/>
    <path class="cls-1" d="M22.39,48.29h-9.14c-.28,0-.5-.22-.5-.5s.22-.5.5-.5h9.14c.28,0,.5.22.5.5s-.22.5-.5.5Z"/>
    <path class="cls-1" d="M36.75,52.21h-9.14c-.28,0-.5-.22-.5-.5s.22-.5.5-.5h9.14c.28,0,.5.22.5.5s-.22.5-.5.5Z"/>
    <path class="cls-1" d="M22.39,52.21h-9.14c-.28,0-.5-.22-.5-.5s.22-.5.5-.5h9.14c.28,0,.5.22.5.5s-.22.5-.5.5Z"/>
  </g>
  <path class="cls-1" d="M31,19H14c-.55,0-1-.45-1-1s.45-1,1-1h17c.55,0,1,.45,1,1s-.45,1-1,1Z"/>
  <path id="plus_4" class="cls-1" d="M55.5,25.5h-1v-1c0-.28-.22-.5-.5-.5s-.5.22-.5.5v1h-1c-.28,0-.5.22-.5.5s.22.5.5.5h1v1c0,.28.22.5.5.5s.5-.22.5-.5v-1h1c.28,0,.5-.22.5-.5s-.22-.5-.5-.5Z"/>
  <path id="plus_4-2" data-name="plus_4" class="cls-1" d="M3.5,61.5h-1v-1c0-.28-.22-.5-.5-.5s-.5.22-.5.5v1H.5c-.28,0-.5.22-.5.5s.22.5.5.5h1v1c0,.28.22.5.5.5s.5-.22.5-.5v-1h1c.28,0,.5-.22.5-.5s-.22-.5-.5-.5Z"/>
  <path id="plus_4-3" data-name="plus_4" class="cls-1" d="M38.52,15.5h-1.02v-1.02c0-.28-.22-.5-.5-.5s-.5.22-.5.5v1.02h-1.02c-.28,0-.5.22-.5.5s.22.5.5.5h1.02v1.02c0,.28.22.5.5.5s.5-.22.5-.5v-1.02h1.02c.28,0,.5-.22.5-.5s-.22-.5-.5-.5Z"/>
  <g id="plus_8">
    <path class="cls-1" d="M63.5,3.5h-3V.5c0-.28-.22-.5-.5-.5s-.5.22-.5.5v3h-3c-.28,0-.5.22-.5.5s.22.5.5.5h3v3c0,.28.22.5.5.5s.5-.22.5-.5v-3h3c.28,0,.5-.22.5-.5s-.22-.5-.5-.5Z"/>
  </g>
</svg>