<?xml version="1.0" encoding="UTF-8"?>
<svg id="illustartions" xmlns="http://www.w3.org/2000/svg" viewBox="0 0 64 64">
  <defs>
    <style>
      .cls-1 {
        fill: #0a0a0a;
      }

      .cls-2 {
        fill: #8d77f7;
      }
    </style>
  </defs>
  <g id="under-construction">
    <g>
      <polygon class="cls-2" points="52.5 2.5 .5 2.5 .5 4.5 50.5 4.5 50.5 25.5 52.5 25.5 52.5 2.5"/>
      <polygon class="cls-2" points="41.21 29 41.21 26 48.21 26 48.21 29 45.19 27 41.21 29"/>
      <rect class="cls-2" x="4.5" y="26" width="7" height="2"/>
      <path d="M51.21,64h-13c-.28,0-.5-.22-.5-.5v-1.5c0-.24.18-.45.42-.49l2.58-.43v-2.08c0-.28.22-.5.5-.5s.5.22.5.5v2.5c0,.24-.18.45-.42.49l-2.58.43v.58h12v-.58l-2.58-.43c-.24-.04-.42-.25-.42-.49v-3.5c0-.28.22-.5.5-.5s.5.22.5.5v3.08l2.58.43c.24.04.42.25.42.49v1.5c0,.28-.22.5-.5.5Z"/>
      <path d="M52.5,2h-3.5V.5c0-.28-.22-.5-.5-.5h-7c-.28,0-.5.22-.5.5v1.5H12V.5c0-.28-.22-.5-.5-.5h-7c-.28,0-.5.22-.5.5v1.5H.5c-.28,0-.5.22-.5.5v23c0,.28.22.5.5.5h3.5v23c0,.28.22.5.5.5s.5-.22.5-.5v-22.5h6v4c0,.28.22.5.5.5s.5-.22.5-.5v-4.5h28.71v4.5c0,.28.22.5.5.5s.5-.22.5-.5v-4h6v3c0,.28.22.5.5.5s.5-.22.5-.5v-3.5h3.79c.28,0,.5-.22.5-.5V2.5c0-.28-.22-.5-.5-.5ZM42,1h6v1h-6v-1ZM35.24,25h-10.43c.16-.06.29-.2.32-.38l3.71-21.06c.04-.25-.11-.48-.34-.55h10.44c-.16.06-.3.2-.33.38l-3.71,21.06c-.04.25.11.48.34.55ZM17.76,3h10.44c-.17.06-.3.2-.33.38l-3.71,21.06c-.04.25.11.48.34.55h-10.43c.16-.06.29-.2.32-.38l3.71-21.06c.04-.25-.11-.48-.34-.55ZM5,1h6v1h-6v-1ZM1,3h5.7c-.16.06-.3.2-.33.38l-3.71,21.06c-.04.25.11.48.34.55h-1.99V3ZM3.32,25c.16-.06.29-.2.32-.38L7.35,3.55c.04-.25-.11-.48-.34-.55h10.44c-.17.06-.3.2-.33.38l-3.71,21.06c-.04.25.11.48.34.55H3.32ZM35.57,25c.16-.06.29-.2.32-.38l3.71-21.06c.04-.25-.11-.48-.34-.55h10.44c-.17.06-.3.2-.33.38l-3.71,21.06c-.04.25.11.48.34.55h-10.43ZM52,25h-5.68c.16-.06.29-.2.32-.38l3.71-21.06c.04-.25-.11-.48-.34-.55h1.99v22Z"/>
    </g>
    <g>
      <path class="cls-2" d="M30.39,56.61h-2.21l-7.81-23.32c-.15-.47-.57-.79-1.05-.79h-6.65c-.48,0-.9.32-1.05.79l-.39,1.21h6.09c.48,0,.9.32,1.05.79l7.81,23.32h2.21c.61,0,1.11.51,1.11,1.15v3.74h.89c.61,0,1.11-.51,1.11-1.15v-4.59c0-.64-.5-1.15-1.11-1.15Z"/>
      <path d="M18.5,49h-9c-.28,0-.5-.22-.5-.5s.22-.5.5-.5h9c.28,0,.5.22.5.5s-.22.5-.5.5Z"/>
      <path d="M24.5,57H7.5c-.28,0-.5-.22-.5-.5s.22-.5.5-.5h17c.28,0,.5.22.5.5s-.22.5-.5.5Z"/>
      <path d="M30.39,56.11h-1.85l-7.69-22.98c-.22-.68-.83-1.13-1.53-1.13h-6.64c-.7,0-1.31.46-1.53,1.13l-7.39,22.98H1.61c-.89,0-1.61.74-1.61,1.65v4.59c0,.91.72,1.65,1.61,1.65h28.79c.89,0,1.61-.74,1.61-1.65v-4.59c0-.91-.72-1.65-1.61-1.65ZM31,62.35c0,.36-.27.65-.61.65H1.61c-.33,0-.61-.29-.61-.65v-4.59c0-.36.27-.65.61-.65h2.52c.22,0,.41-.14.48-.35l7.5-23.33c.08-.26.31-.44.57-.44h6.64c.26,0,.49.18.58.44l2.19,6.56h-9.59c-.28,0-.5.22-.5.5s.22.5.5.5h9.93l5.28,15.77c.07.2.26.34.47.34h2.21c.33,0,.61.29.61.65v4.59Z"/>
    </g>
    <path class="cls-2" d="M45.46,42.87c-.41.41-.26,1.21.33,1.8.59.59,1.39.73,1.8.33l8.3-8.3-2.12-2.12-8.3,8.3Z"/>
    <path class="cls-1" d="M63.15,28l-7.62,7.62-.71-.71,9.03-9.04c.2-.2.2-.51,0-.71s-.51-.2-.71,0l-9.03,9.04h0c-.09-.09-.22-.15-.35-.15s-.26.05-.35.15l-1.26,1.26-6.6-6.6c-.19-.19-.5-.2-.7,0l-6.55,6.32c-3.75,3.75-6.86,13.4-3.2,19.98.04.08.11.15.19.19,2.07,1.15,4.45,1.63,6.85,1.63,5.22,0,10.56-2.27,13.13-4.84l6.32-6.54c.19-.2.19-.51,0-.7l-6.6-6.6,1.26-1.26c.2-.2.2-.51,0-.71h0l7.62-7.62c.2-.2.2-.51,0-.71s-.51-.2-.71,0ZM60.52,45.25l-5.97,6.18c-3.43,3.43-12.57,6.38-18.66,3.11-3.27-6.08-.32-15.23,3.1-18.65l6.19-5.97,6.25,6.25-6.34,6.34c-.31.31-.44.78-.35,1.27.08.44.32.88.67,1.23.46.46,1.03.7,1.54.7.37,0,.71-.12.96-.38l6.34-6.34,6.26,6.26ZM47.22,44.63c-.18.18-.68.08-1.09-.33-.21-.21-.35-.46-.4-.7-.01-.08-.04-.28.07-.39l7.95-7.95,1.41,1.42-7.95,7.95Z"/>
    <g>
      <path class="cls-1" d="M43,50.5h-1v-1c0-.28-.22-.5-.5-.5s-.5.22-.5.5v1h-1c-.28,0-.5.22-.5.5s.22.5.5.5h1v1c0,.28.22.5.5.5s.5-.22.5-.5v-1h1c.28,0,.5-.22.5-.5s-.22-.5-.5-.5Z"/>
      <path class="cls-1" d="M35,32.5h-3v-3c0-.28-.22-.5-.5-.5s-.5.22-.5.5v3h-3c-.28,0-.5.22-.5.5s.22.5.5.5h3v3c0,.28.22.5.5.5s.5-.22.5-.5v-3h3c.28,0,.5-.22.5-.5s-.22-.5-.5-.5Z"/>
      <path class="cls-1" d="M62,14.5h-2v-2c0-.28-.22-.5-.5-.5s-.5.22-.5.5v2h-2c-.28,0-.5.22-.5.5s.22.5.5.5h2v2c0,.28.22.5.5.5s.5-.22.5-.5v-2h2c.28,0,.5-.22.5-.5s-.22-.5-.5-.5Z"/>
    </g>
  </g>
</svg>