<?xml version="1.0" encoding="UTF-8"?>
<svg id="export" xmlns="http://www.w3.org/2000/svg" viewBox="0 0 64 64">
  <defs>
    <style>
      .cls-1 {
        fill: #3c5583;
      }

      .cls-2 {
        fill: #dff0fe;
      }
    </style>
  </defs>
  <path class="cls-2" d="M41.48,22.62c-1.68-3.16-4.85-5.26-8.42-5.57-5.68-.65-10.83,3.38-11.56,9.05l-.05.46-.47.12c-2.43.61-4.34,2.5-4.98,4.93l-.17.67-.7-.18c-.72-.18-1.47-.28-2.21-.27-4.57-.09-8.34,3.55-8.43,8.11.03,2.84,1.57,5.45,4.04,6.86-.25-.77-.38-1.58-.39-2.39.09-4.57,3.86-8.2,8.43-8.11.75,0,1.49.09,2.21.27l.7.18.17-.67c.63-2.43,2.54-4.32,4.98-4.93l.47-.12.05-.46c.73-5.67,5.88-9.7,11.56-9.05,1.77.17,3.48.76,4.96,1.74l-.2-.65Z"/>
  <path class="cls-1" d="M12.96,48.5c-4.83.09-8.83-3.73-8.96-8.56,0-2.3.94-4.5,2.61-6.09,1.7-1.63,3.96-2.53,6.32-2.53.79,0,1.58.09,2.34.29l.21.05.04-.19c.68-2.6,2.72-4.63,5.34-5.29l.13-.04v-.11c.92-6.11,6.62-10.33,12.73-9.42,3.49.52,6.53,2.65,8.2,5.76l.08.16.19-.07c4.51-1.75,9.6.35,11.55,4.78.6,1.43.78,2.99.52,4.52l-.02.12.14.05c2.23.83,4.02,2.54,4.95,4.73.88,2.06.89,4.39.01,6.46-1.43,3.3-4.7,5.41-8.29,5.37H12.96ZM12.96,32.33h-.03c-2.1,0-4.11.8-5.63,2.25-1.47,1.39-2.3,3.33-2.3,5.36.12,4.28,3.68,7.65,7.96,7.56h38.09c3.19.04,6.1-1.83,7.37-4.76.77-1.81.77-3.87,0-5.68-.83-1.94-2.42-3.45-4.39-4.18l-.89-.34.14-.93c.23-1.34.07-2.72-.46-3.98-1.75-3.93-6.27-5.79-10.28-4.22l-1.02.38-.49-.94c-2.68-4.95-8.86-6.8-13.81-4.12-2.81,1.52-4.74,4.26-5.23,7.42l-.08.8-.8.21c-2.26.56-4.03,2.31-4.62,4.56l-.29,1.15-1.18-.3c-.67-.17-1.37-.25-2.06-.25h0Z"/>
  <path class="cls-1" d="M35.66,28.13l-7.5,7c-.2.19-.21.51-.02.71.09.1.23.16.36.16h7v15.5c0,.28.22.5.5.5s.5-.22.5-.5v-15.5h7c.21,0,.39-.13.47-.32.08-.19.03-.41-.12-.55l-7.5-7c-.19-.18-.49-.18-.68,0Z"/>
  <path class="cls-1" d="M3.5,25h-1v-1c0-.28-.22-.5-.5-.5s-.5.22-.5.5v1H.5c-.28,0-.5.22-.5.5s.22.5.5.5h1v1c0,.28.22.5.5.5s.5-.22.5-.5v-1h1c.28,0,.5-.22.5-.5s-.22-.5-.5-.5Z"/>
  <path class="cls-1" d="M63.5,18h-3v-3c0-.28-.22-.5-.5-.5s-.5.22-.5.5v3h-3c-.28,0-.5.22-.5.5s.22.5.5.5h3v3c0,.28.22.5.5.5s.5-.22.5-.5v-3h3c.28,0,.5-.22.5-.5s-.22-.5-.5-.5Z"/>
  <path class="cls-1" d="M20.25,3.5h-3V.5c0-.28-.22-.5-.5-.5s-.5.22-.5.5v3h-3c-.28,0-.5.22-.5.5s.22.5.5.5h3v3c0,.28.22.5.5.5s.5-.22.5-.5v-3h3c.28,0,.5-.22.5-.5s-.22-.5-.5-.5Z"/>
  <path class="cls-1" d="M28.5,59.5h-3v-3c0-.28-.22-.5-.5-.5s-.5.22-.5.5v3h-3c-.28,0-.5.22-.5.5s.22.5.5.5h3v3c0,.28.22.5.5.5s.5-.22.5-.5v-3h3c.28,0,.5-.22.5-.5s-.22-.5-.5-.5Z"/>
</svg>