<svg xmlns="http://www.w3.org/2000/svg" width="64" height="64" viewBox="0 0 64 64"><defs><style>.a{fill:#dff0fe;}.b{fill:#4788c7;}</style></defs><path class="a" d="M761.477,210.617a10.572,10.572,0,0,0-8.421-5.567A10.451,10.451,0,0,0,741.5,214.1l-.047.46-.468.122a6.867,6.867,0,0,0-4.976,4.925l-.168.67-.7-.175a8.823,8.823,0,0,0-2.214-.274,8.275,8.275,0,0,0-8.429,8.114,8,8,0,0,0,4.039,6.857,7.737,7.737,0,0,1-.385-2.386,8.275,8.275,0,0,1,8.429-8.114,8.824,8.824,0,0,1,2.214.274l.7.175.168-.67a6.868,6.868,0,0,1,4.976-4.925l.468-.123.048-.459a10.45,10.45,0,0,1,11.557-9.05,10.858,10.858,0,0,1,4.963,1.743Z" transform="translate(-720 -188)"/><path class="b" d="M732.957,236.5A8.79,8.79,0,0,1,724,227.943a8.355,8.355,0,0,1,2.61-6.088,9.1,9.1,0,0,1,6.317-2.527,8.713,8.713,0,0,1,2.34.29l.209.053.045-.186a7.366,7.366,0,0,1,5.335-5.286l.133-.035.012-.114a11.191,11.191,0,0,1,20.92-3.663l.082.158.186-.069a9.051,9.051,0,0,1,11.554,4.776,8.213,8.213,0,0,1,.52,4.519l-.02.123.138.052a8.715,8.715,0,0,1,4.954,4.727,8.214,8.214,0,0,1,.011,6.457,8.928,8.928,0,0,1-8.295,5.37H732.957Zm.006-16.172h-.032a8.105,8.105,0,0,0-5.627,2.248,7.365,7.365,0,0,0-2.3,5.363,7.79,7.79,0,0,0,7.957,7.561H771.05a7.929,7.929,0,0,0,7.374-4.759,7.222,7.222,0,0,0-.009-5.677,7.72,7.72,0,0,0-4.394-4.184l-.889-.344.143-.925a7.214,7.214,0,0,0-.456-3.975,8.046,8.046,0,0,0-10.278-4.224l-1.017.377-.491-.94a10.191,10.191,0,0,0-19.038,3.3l-.082.8-.8.211a6.367,6.367,0,0,0-4.618,4.563l-.29,1.155-1.181-.3A8.281,8.281,0,0,0,732.963,220.328Z" transform="translate(-720 -188)"/><path class="b" d="M755.659,216.135l-7.5,7a.5.5,0,0,0,.341.865h7v15.5a.5.5,0,0,0,1,0V224h7a.5.5,0,0,0,.465-.316.5.5,0,0,0-.124-.549l-7.5-7A.5.5,0,0,0,755.659,216.135Z" transform="translate(-720 -188)"/><path class="b" d="M723.5,213h-1v-1a.5.5,0,0,0-1,0v1h-1a.5.5,0,0,0,0,1h1v1a.5.5,0,0,0,1,0v-1h1a.5.5,0,0,0,0-1Z" transform="translate(-720 -188)"/><path class="b" d="M783.5,206h-3v-3a.5.5,0,0,0-1,0v3h-3a.5.5,0,0,0,0,1h3v3a.5.5,0,0,0,1,0v-3h3a.5.5,0,0,0,0-1Z" transform="translate(-720 -188)"/><path class="b" d="M740.25,191.5h-3v-3a.5.5,0,0,0-1,0v3h-3a.5.5,0,0,0,0,1h3v3a.5.5,0,0,0,1,0v-3h3a.5.5,0,0,0,0-1Z" transform="translate(-720 -188)"/><path class="b" d="M748.5,247.5h-3v-3a.5.5,0,0,0-1,0v3h-3a.5.5,0,0,0,0,1h3v3a.5.5,0,0,0,1,0v-3h3a.5.5,0,0,0,0-1Z" transform="translate(-720 -188)"/></svg>