<?xml version="1.0" encoding="UTF-8"?>
<svg id="illustartions" xmlns="http://www.w3.org/2000/svg" viewBox="0 0 64 64">
  <defs>
    <style>
      .cls-1 {
        fill: #ef609d;
      }

      .cls-2 {
        fill: #999;
      }
    </style>
  </defs>
  <path class="cls-1" d="M41.31,22.16c-1.61-3.14-4.78-5.26-8.38-5.6-5.78-.56-10.93,3.52-11.5,9.11l-.05.46-.47.12c-2.46.66-4.36,2.56-4.95,4.96l-.17.68-.69-.18c-.72-.19-1.46-.28-2.2-.28-4.65.02-8.41,3.67-8.39,8.17.01,2.92,1.62,5.48,4.02,6.9-.24-.76-.38-1.57-.38-2.4-.02-4.5,3.74-8.15,8.39-8.17.74,0,1.49.09,2.2.28l.69.18.17-.67c.59-2.4,2.49-4.3,4.95-4.96l.46-.12.05-.46c.57-5.59,5.72-9.67,11.5-9.11,1.8.17,3.5.79,4.94,1.75l-.19-.65Z"/>
  <path class="cls-2" d="M59.33,36.46c-.92-2.2-2.68-3.91-4.95-4.79l-.14-.05.02-.12c.26-1.55.08-3.13-.52-4.58-1.81-4.43-7-6.6-11.55-4.84l-.19.07-.08-.16c-1.71-3.34-5-5.55-8.82-5.92-6.07-.58-11.5,3.73-12.1,9.63v.12s-.14.03-.14.03c-2.65.71-4.7,2.76-5.34,5.36l-.05.19-.21-.05c-.76-.2-1.53-.31-2.34-.3-2.39,0-4.63.92-6.32,2.56-1.69,1.65-2.62,3.84-2.61,6.17.02,4.79,4.03,8.68,8.96,8.68h22.54v3.04c0,.28.22.51.5.51s.5-.23.5-.51v-3.04h14.55c3.67,0,6.92-2.14,8.29-5.45.88-2.11.87-4.44-.01-6.55ZM58.42,42.61c-1.22,2.93-4.11,4.82-7.37,4.83h-14.55v-11.66h7c.21,0,.39-.13.46-.32.02-.06.04-.12.04-.19,0-.14-.06-.27-.16-.37l-7.5-7.1c-.19-.18-.49-.18-.68,0l-7.5,7.1c-.15.14-.2.36-.12.56.08.19.26.32.47.32h7v11.66H12.96c-4.37,0-7.94-3.43-7.96-7.67,0-2.05.81-3.98,2.3-5.44,1.5-1.46,3.5-2.27,5.63-2.28h.03c.69,0,1.38.09,2.06.26l1.18.3.29-1.17c.55-2.24,2.32-4.02,4.62-4.63l.8-.21.08-.81c.55-5.34,5.47-9.25,11.01-8.73,3.48.33,6.48,2.34,8.02,5.37l.49.95,1.02-.38c4.06-1.56,8.67.36,10.28,4.28.52,1.28.68,2.67.46,4.03l-.14.94.89.35c2.02.79,3.58,2.29,4.4,4.24.78,1.85.78,3.9,0,5.76Z"/>
  <path class="cls-2" d="M3.5,25h-1v-1c0-.28-.22-.5-.5-.5s-.5.22-.5.5v1H.5c-.28,0-.5.22-.5.5s.22.5.5.5h1v1c0,.28.22.5.5.5s.5-.22.5-.5v-1h1c.28,0,.5-.22.5-.5s-.22-.5-.5-.5Z"/>
  <path class="cls-2" d="M63.5,18h-3v-3c0-.28-.22-.5-.5-.5s-.5.22-.5.5v3h-3c-.28,0-.5.22-.5.5s.22.5.5.5h3v3c0,.28.22.5.5.5s.5-.22.5-.5v-3h3c.28,0,.5-.22.5-.5s-.22-.5-.5-.5Z"/>
  <path class="cls-2" d="M20.25,3.5h-3V.5c0-.28-.22-.5-.5-.5s-.5.22-.5.5v3h-3c-.28,0-.5.22-.5.5s.22.5.5.5h3v3c0,.28.22.5.5.5s.5-.22.5-.5v-3h3c.28,0,.5-.22.5-.5s-.22-.5-.5-.5Z"/>
  <path class="cls-2" d="M28.5,59.5h-3v-3c0-.28-.22-.5-.5-.5s-.5.22-.5.5v3h-3c-.28,0-.5.22-.5.5s.22.5.5.5h3v3c0,.28.22.5.5.5s.5-.22.5-.5v-3h3c.28,0,.5-.22.5-.5s-.22-.5-.5-.5Z"/>
</svg>