<?xml version="1.0" encoding="UTF-8"?>
<svg id="illustartions" xmlns="http://www.w3.org/2000/svg" viewBox="0 0 64 64">
  <defs>
    <style>
      .cls-1 {
        fill: #ef609d;
      }

      .cls-2 {
        fill: #999;
      }
    </style>
  </defs>
  <g id="conan_dis">
    <ellipse class="cls-2" cx="28.31" cy="35.5" rx="2.05" ry="2"/>
    <ellipse class="cls-2" cx="43.69" cy="35.5" rx="2.05" ry="2"/>
    <path class="cls-1" d="M52.29,27.04l-.11-5.27c0-7.95-7.58-10.32-7.58-10.32,0,0-5.3,5.58-14.42,5.58-5.99,0-10.09,2.42-10.09,7.39l-.07,4.53s-3.51-8.02-3.51-13.62c0-7.29,6.75-14.84,18.04-14.84,5.88,0,8.98,2.66,10.31,4.25l.22.26h.36c2.61,0,10.05,1.98,10.05,10.79,0,4.41-3.19,11.25-3.19,11.25Z"/>
    <path class="cls-2" d="M52.41,30.52v-1.67c1.29-3.35,3.59-9.77,3.59-13.05,0-9.1-7.64-11.15-10.31-11.15h-.37l-.22-.27c-1.36-1.64-4.55-4.39-10.58-4.39-11.58,0-18.52,7.8-18.52,15.33,0,4.2,2.31,10.54,3.59,13.71v1.48c-2.11.11-3.08.92-3.08,2.62,0,1.12.38,2.42,1.01,3.48.6.99,1.31,1.61,2.06,1.81v2.88c0,5.69,4.4,10.78,10.94,12.68l.11.05c1.4,1.25,3.34,1.96,5.31,1.96h.12c1.97,0,3.9-.71,5.31-1.96l.11-.06c6.54-1.9,10.94-7,10.94-12.68v-2.87c.75-.2,1.47-.82,2.06-1.81.64-1.06,1.01-2.36,1.01-3.48,0-1.69-.96-2.5-3.08-2.62ZM19.59,37.36c-.4-.21-.82-.64-1.18-1.25-.54-.9-.87-2.04-.87-2.97,0-.86.16-1.53,2.05-1.63v5.85ZM19.39,25.6c-1.14-3.22-2.36-7.33-2.36-10.27,0-7.04,6.54-14.33,17.49-14.33,5.61,0,8.53,2.52,9.78,4.02l.22.27c.19.23.49.37.8.37h.37c2.41,0,9.29,1.86,9.29,10.15,0,2.22-1.2,6.24-2.39,9.65v-3.42c.21-4.68-2.62-9.01-7.05-10.78-.02,0-.04-.02-.07-.02l-.48-.15c-.11-.03-.22-.05-.32-.05-.28,0-.55.11-.75.32l-.33.35s-4.79,4.84-13.61,4.84c-6.73,0-10.59,3.27-10.59,8.98v.11ZM41.18,53.02l-.18.05c-.07.02-.14.06-.2.11l-.13.11c-1.22,1.08-2.9,1.7-4.62,1.7-.02,0-.03,0-.06,0-.01,0-.04,0-.06,0-1.72,0-3.4-.62-4.61-1.7l-.13-.11c-.06-.05-.12-.09-.2-.11l-.18-.05c-6.11-1.77-10.21-6.48-10.21-11.72v-17.81c.81-3.86,4.07-5.96,9.36-5.96,9.36,0,14.31-5.1,14.36-5.16l.33-.35.48.15c3.29,1.31,5.6,4.16,6.24,7.47v21.66c0,5.24-4.1,9.95-10.2,11.72ZM53.59,36.11c-.36.6-.78,1.04-1.18,1.25v-5.85c1.89.1,2.05.77,2.05,1.63,0,.94-.34,2.08-.87,2.97Z"/>
    <path class="cls-2" d="M8.5,4.5h-3.5V1c0-.28-.22-.5-.5-.5s-.5.22-.5.5v3.5H.5c-.28,0-.5.22-.5.5s.22.5.5.5h3.5v3.5c0,.28.22.5.5.5s.5-.22.5-.5v-3.5h3.5c.28,0,.5-.22.5-.5s-.22-.5-.5-.5Z"/>
    <path class="cls-2" d="M12,47h-1.5v-1.5c0-.28-.22-.5-.5-.5s-.5.22-.5.5v1.5h-1.5c-.28,0-.5.22-.5.5s.22.5.5.5h1.5v1.5c0,.28.22.5.5.5s.5-.22.5-.5v-1.5h1.5c.28,0,.5-.22.5-.5s-.22-.5-.5-.5Z"/>
    <path class="cls-2" d="M63.5,59h-3.5v-3.5c0-.28-.22-.5-.5-.5s-.5.22-.5.5v3.5h-3.5c-.28,0-.5.22-.5.5s.22.5.5.5h3.5v3.5c0,.28.22.5.5.5s.5-.22.5-.5v-3.5h3.5c.28,0,.5-.22.5-.5s-.22-.5-.5-.5Z"/>
  </g>
</svg>