<svg xmlns="http://www.w3.org/2000/svg" width="64" height="64" viewBox="0 0 64 64"><defs><style>.a{fill:#4788c7;}.b{fill:#dff0fe;}</style></defs><ellipse class="a" cx="2.051" cy="2" rx="2.051" ry="2" transform="translate(26.256 33.5)"/><ellipse class="a" cx="2.051" cy="2" rx="2.051" ry="2" transform="translate(41.641 33.5)"/><path class="b" d="M282.294,215.042l-.112-5.269c0-7.952-7.58-10.324-7.58-10.324a20.941,20.941,0,0,1-14.419,5.581c-5.985,0-10.089,2.42-10.089,7.4l-.072,4.535s-3.509-8.017-3.509-13.624c0-7.291,6.753-14.836,18.041-14.836,5.875,0,8.981,2.661,10.307,4.249l.217.258h.361a10.277,10.277,0,0,1,10.048,10.788C285.487,208.205,282.294,215.042,282.294,215.042Z" transform="translate(-230 -188)"/><path class="a" d="M282.41,218.523v-1.669c1.291-3.348,3.59-9.772,3.59-13.049a10.58,10.58,0,0,0-10.312-11.147h-.371l-.223-.268c-1.361-1.64-4.548-4.39-10.578-4.39C252.931,188,246,195.8,246,203.33c0,4.2,2.314,10.536,3.59,13.711v1.482c-2.113.112-3.077.925-3.077,2.616a7.074,7.074,0,0,0,1.013,3.479,3.687,3.687,0,0,0,2.064,1.807V229.3c0,5.685,4.4,10.783,10.941,12.683l.106.055A8.053,8.053,0,0,0,265.944,244h.116a8.053,8.053,0,0,0,5.308-1.963l.106-.055c6.541-1.9,10.936-7,10.936-12.683v-2.874a3.687,3.687,0,0,0,2.064-1.807,7.074,7.074,0,0,0,1.013-3.479C285.487,219.448,284.523,218.635,282.41,218.523Zm-32.82,6.836a3.3,3.3,0,0,1-1.178-1.247,6.149,6.149,0,0,1-.874-2.973c0-.857.161-1.528,2.052-1.626Zm-.205-11.754c-1.143-3.218-2.359-7.334-2.359-10.275,0-7.044,6.542-14.33,17.49-14.33,5.608,0,8.535,2.518,9.782,4.02l.222.268a1.036,1.036,0,0,0,.8.37h.371c2.409,0,9.286,1.864,9.286,10.147,0,2.224-1.2,6.24-2.394,9.645v-3.423a11.122,11.122,0,0,0-7.049-10.782q-.033-.014-.066-.024l-.479-.155a1.058,1.058,0,0,0-.323-.051,1.036,1.036,0,0,0-.752.321l-.33.347c-.047.048-4.792,4.839-13.61,4.839-6.728,0-10.586,3.272-10.586,8.977Zm21.8,27.418-.178.052a.521.521,0,0,0-.2.111l-.128.113a6.994,6.994,0,0,1-4.616,1.7.2.2,0,0,1-.06,0,.261.261,0,0,1-.056,0,7,7,0,0,1-4.615-1.7l-.128-.113a.521.521,0,0,0-.2-.111l-.178-.052c-6.106-1.772-10.209-6.484-10.209-11.724V211.486c.81-3.86,4.071-5.964,9.356-5.964,9.361,0,14.31-5.1,14.359-5.156l.333-.351.479.155a10.164,10.164,0,0,1,6.243,7.474V229.3C281.385,234.538,277.284,239.25,271.181,241.023Zm12.407-16.911a3.3,3.3,0,0,1-1.178,1.247v-5.846c1.891.1,2.052.769,2.052,1.626A6.149,6.149,0,0,1,283.588,224.112Z" transform="translate(-230 -188)"/><path class="a" d="M238.5,192.5H235V189a.5.5,0,0,0-1,0v3.5h-3.5a.5.5,0,0,0,0,1H234V197a.5.5,0,0,0,1,0v-3.5h3.5a.5.5,0,0,0,0-1Z" transform="translate(-230 -188)"/><path class="a" d="M242,235h-1.5v-1.5a.5.5,0,0,0-1,0V235H238a.5.5,0,0,0,0,1h1.5v1.5a.5.5,0,0,0,1,0V236H242a.5.5,0,0,0,0-1Z" transform="translate(-230 -188)"/><path class="a" d="M293.5,247H290v-3.5a.5.5,0,0,0-1,0V247h-3.5a.5.5,0,0,0,0,1H289v3.5a.5.5,0,0,0,1,0V248h3.5a.5.5,0,0,0,0-1Z" transform="translate(-230 -188)"/></svg>