<svg xmlns="http://www.w3.org/2000/svg" width="64" height="64" viewBox="0 0 64 64"><defs><style>.a{fill:#dff0fe;}.b{fill:#4788c7;}</style></defs><path class="a" d="M588,200h41a4,4,0,0,1,4,4h0v4H584v-4h0A4,4,0,0,1,588,200Z" transform="translate(-569.5 -188)"/><path class="b" d="M573,209h-1v-1a.5.5,0,0,0-1,0v1h-1a.5.5,0,0,0,0,1h1v1a.5.5,0,0,0,1,0v-1h1a.5.5,0,0,0,0-1Z" transform="translate(-569.5 -188)"/><path class="b" d="M626.5,227h-3v-3a.5.5,0,0,0-1,0v3h-3a.5.5,0,0,0,0,1h3v3a.5.5,0,0,0,1,0v-3h3a.5.5,0,0,0,0-1Z" transform="translate(-569.5 -188)"/><path class="b" d="M597.5,249.5h-1v-1a.5.5,0,0,0-1,0v1h-1a.5.5,0,0,0,0,1h1v1a.5.5,0,0,0,1,0v-1h1a.5.5,0,0,0,0-1Z" transform="translate(-569.5 -188)"/><path class="b" d="M599.5,211.5H599V211a.5.5,0,0,0-1,0v.5h-.5a.5.5,0,0,0,0,1h.5v.5a.5.5,0,0,0,1,0v-.5h.5a.5.5,0,0,0,0-1Z" transform="translate(-569.5 -188)"/><path class="b" d="M578.5,191.5h-3v-3a.5.5,0,0,0-1,0v3h-3a.5.5,0,0,0,0,1h3v3a.5.5,0,0,0,1,0v-3h3a.5.5,0,0,0,0-1Z" transform="translate(-569.5 -188)"/><path class="b" d="M629,199.5H587.936a4.5,4.5,0,0,0-4.5,4.5v31a4.5,4.5,0,0,0,4.5,4.5H629a4.505,4.505,0,0,0,4.5-4.5V204A4.505,4.505,0,0,0,629,199.5Zm-41.064,1H629a3.5,3.5,0,0,1,3.5,3.5v3.5H584.436V204A3.5,3.5,0,0,1,587.936,200.5ZM629,238.5H587.936a3.5,3.5,0,0,1-3.5-3.5V208.5H632.5V235A3.5,3.5,0,0,1,629,238.5Z" transform="translate(-569.5 -188)"/><circle class="b" cx="1" cy="1" r="1" transform="translate(18 15)"/><circle class="b" cx="1" cy="1" r="1" transform="translate(21 15)"/><circle class="b" cx="1" cy="1" r="1" transform="translate(24 15)"/><g transform="translate(-569.5 -188)"><path class="b" d="M629.5,219.5h-21a.5.5,0,0,1-.5-.5v-7a.5.5,0,0,1,.5-.5h21a.5.5,0,0,1,.5.5v7A.5.5,0,0,1,629.5,219.5Zm-20.5-1h20v-6H609Z"/><path class="b" d="M622.5,216.5h-7a.5.5,0,0,1,0-1h7a.5.5,0,0,1,0,1Z"/><path class="b" d="M626.5,214.5h-11a.5.5,0,0,1,0-1h11a.5.5,0,0,1,0,1Z"/><path class="b" d="M613.5,217.5h-3a.5.5,0,0,1-.5-.5v-3a.5.5,0,0,1,.5-.5h3a.5.5,0,0,1,.5.5v3A.5.5,0,0,1,613.5,217.5Zm-2.5-1h2v-2h-2Z"/></g></svg>