<?xml version="1.0" encoding="UTF-8"?>
<svg id="illustartions" xmlns="http://www.w3.org/2000/svg" viewBox="0 0 64 64">
  <defs>
    <style>
      .cls-1 {
        fill: #ef609d;
      }

      .cls-2 {
        fill: #999;
      }
    </style>
  </defs>
  <g id="whiteboard-template_dis">
    <g id="illustration_whiteboard">
      <path id="shade" class="cls-1" d="M63.5,13c0-1.97-.9-2-2-2h-11c-4.03,0-2.9-3-4-3h-8c-1.1,0,0,3-4,3h-11c-1.1,0-2,0-2,2,0,1.68.64,1.95,1.5,1.99v2.51h39v-2.51c.86-.05,1.5-.33,1.5-1.99ZM39,10.5c0-.28.23-.5.5-.5h6c.27,0,.5.22.5.5v1c0,.27-.23.5-.5.5h-6c-.27,0-.5-.23-.5-.5v-1Z"/>
      <path class="cls-2" d="M64,13c0-2.5-1.45-2.5-2.5-2.5h-11c-2.28,0-2.6-.98-2.88-1.84-.16-.49-.38-1.16-1.12-1.16h-8c-.74,0-.96.67-1.13,1.16-.29.86-.61,1.84-2.87,1.84h-11c-1.11,0-2.5,0-2.5,2.5,0,1.77.7,2.29,1.5,2.44v26.56c0,2.48,2.02,4.5,4.5,4.5h15v7s.01.06.02.09c-.59.2-1.02.76-1.02,1.41,0,.83.67,1.5,1.5,1.5s1.5-.67,1.5-1.5c0-.66-.43-1.21-1.02-1.41,0-.03.02-.06.02-.09v-7h15c2.48,0,4.5-2.02,4.5-4.5V15.43c.79-.16,1.5-.68,1.5-2.43ZM43,55c0,.28-.22.5-.5.5s-.5-.22-.5-.5.22-.5.5-.5.5.22.5.5ZM61.5,42c0,1.93-1.57,3.5-3.5,3.5h-31c-1.93,0-3.5-1.57-3.5-3.5v-23c0-1.93,1.57-3.5,3.5-3.5h31c1.93,0,3.5,1.57,3.5,3.5v23ZM61.5,14.5H23.5c-1.09,0-1.5,0-1.5-1.5s.41-1.5,1.5-1.5h11c2.98,0,3.5-1.58,3.82-2.52.06-.18.15-.44.18-.48l7.97-.02c.06.06.14.31.2.49.31.95.82,2.53,3.83,2.53h11c1.06,0,1.5,0,1.5,1.5s-.44,1.5-1.5,1.5Z"/>
      <path class="cls-2" d="M45.5,9.5h-6c-.55,0-1,.45-1,1v1c0,.55.45,1,1,1h6c.55,0,1-.45,1-1v-1c0-.55-.45-1-1-1ZM45.5,11.5h-6v-1h6v1Z"/>
      <path id="plus" class="cls-2" d="M3.5,21h-1v-1c0-.28-.22-.5-.5-.5s-.5.22-.5.5v1h-1c-.28,0-.5.22-.5.5s.22.5.5.5h1v1c0,.28.22.5.5.5s.5-.22.5-.5v-1h1c.28,0,.5-.22.5-.5s-.22-.5-.5-.5Z"/>
      <path id="plus-2" data-name="plus" class="cls-2" d="M28,61.5h-1v-1c0-.28-.22-.5-.5-.5s-.5.22-.5.5v1h-1c-.28,0-.5.22-.5.5s.22.5.5.5h1v1c0,.28.22.5.5.5s.5-.22.5-.5v-1h1c.28,0,.5-.22.5-.5s-.22-.5-.5-.5Z"/>
      <path id="plus-3" data-name="plus" class="cls-2" d="M9,3.5h-3V.5c0-.28-.22-.5-.5-.5s-.5.22-.5.5v3H2c-.28,0-.5.22-.5.5s.22.5.5.5h3v3c0,.28.22.5.5.5s.5-.22.5-.5v-3h3c.28,0,.5-.22.5-.5s-.22-.5-.5-.5Z"/>
      <path id="plus-4" data-name="plus" class="cls-2" d="M18,27h-1v-1c0-.28-.22-.5-.5-.5s-.5.22-.5.5v1h-1c-.28,0-.5.22-.5.5s.22.5.5.5h1v1c0,.28.22.5.5.5s.5-.22.5-.5v-1h1c.28,0,.5-.22.5-.5s-.22-.5-.5-.5Z"/>
    </g>
    <path class="cls-2" d="M56.18,25.5h-26.18c-.28,0-.5-.22-.5-.5s.22-.5.5-.5h26.18c.28,0,.5.22.5.5s-.22.5-.5.5Z"/>
    <path class="cls-2" d="M48.16,37.5h-18.16c-.28,0-.5-.22-.5-.5s.22-.5.5-.5h18.16c.28,0,.5.22.5.5s-.22.5-.5.5Z"/>
    <path class="cls-2" d="M50.69,31.5h-20.69c-.28,0-.5-.22-.5-.5s.22-.5.5-.5h20.69c.28,0,.5.22.5.5s-.22.5-.5.5Z"/>
  </g>
</svg>